<svg viewBox="0 0 1191 52" xmlns="http://www.w3.org/2000/svg" fill-rule="evenodd" clip-rule="evenodd" stroke-linejoin="round" stroke-miterlimit="2"><path d="M455.732 34.394c9.97 2.2 30.352 2.018 41.374-.372 5.014-1.086 9.436-1.676 9.826-1.31.388.366-4.652 3.59-11.2 7.164-17.838 9.736-34.734 7.846-52.486-5.874l-5.202-4.02 5.202 1.402c2.862.772 8.48 2.126 12.486 3.01M405.788 31.3c0 2.912-18.776 8.612-28.092 8.526-17.352-.156-20.972-3.412-4.162-3.742 8.012-.158 17.844-1.474 21.85-2.924 8.306-3.006 10.404-3.382 10.404-1.86m-270.136-.93c9.796 2.526 39.164 3.27 47.474 1.2 2.86-.712.988.62-4.162 2.96-13.032 5.922-35.094 5.926-47.2.006-8.694-4.25-15.094-10.094-8.418-7.684 1.834.66 7.372 2.244 12.306 3.516v.002zm987.296-2.816c9.348 3.708 32.176 4.196 41.12.88 8.62-3.196 9.198-1.07.988 3.636-9.95 5.702-26.718 5.374-40.816-.794-6.008-2.63-10.924-5.262-10.924-5.85 0-1.558.754-1.392 9.632 2.128m-34.39 2.298c-1.214 2.132-5.174 4.848-8.804 6.038-7.628 2.5-38.336 2.668-44.474.242-2.746-1.086 1.144-1.628 11.446-1.594 15.974.052 28.238-2.282 37.454-7.128 6.258-3.288 7.306-2.702 4.378 2.442m-321.722 3.576c6.868-.634 15.296-1.732 18.73-2.442l6.242-1.29-5.844 4.41c-11.748 8.862-30.398 8.288-50.722-1.562-13.806-6.69-12.072-7.814 4.152-2.69 11.946 3.774 17.47 4.494 27.442 3.574M890.17 28.76c-2.848 3.496-9.566 8.93-14.93 12.074-8.242 4.832-11.782 5.688-22.862 5.53-14.582-.208-28.796-5.354-36.738-13.302-5.812-5.814-4.496-6.054 4.828-.882 16.99 9.422 43.548 7.858 63.168-3.72 5.576-3.29 10.494-6 10.926-6.02.43-.022-1.544 2.824-4.392 6.32m-250.988-1.538c17.168 9.02 33.782 10.302 52.738 4.07 2.538-.832.98 1.366-3.988 5.63-6.738 5.786-9.722 6.998-17.226 6.998-10.466 0-30.054-8.484-37.934-16.432-6.27-6.318-5.196-6.364 6.41-.266m-31.306.638c-1.202 2.11-7.02 6.752-12.93 10.318-8.442 5.092-12.842 6.452-20.54 6.342-8.656-.122-31.194-7.282-28.994-9.21.462-.406 5.994.154 12.292 1.242 14.882 2.572 32.308-.72 43.028-8.128 8.842-6.114 10.372-6.234 7.144-.564m-307.362.608c-11.198 11.636-32.56 15.454-48.552 8.676-4.692-1.99-8.204-3.924-7.806-4.298.398-.374 5.558.18 11.466 1.234 13.526 2.41 29.852-.288 39.836-6.588 8.51-5.368 10.744-4.936 5.056.976m689.896-1.046c-12.922 12.93-29.604 17.666-47.122 13.376-6.288-1.538-13.446-4.202-15.906-5.918-4.38-3.054-4.342-3.09 1.768-1.766 17.428 3.776 46.452-.854 59.59-9.504 6.616-4.354 7.594-2.116 1.668 3.812h.002zM40.714 29.206c7.316 1.438 17.302 2.212 22.19 1.718l8.89-.898-6.21 3.338C62.168 35.2 55.52 36.646 50.81 36.58c-10.052-.144-28.086-6.966-33.494-12.67l-3.79-3.998 6.944 3.338c3.818 1.838 12.928 4.518 20.244 5.956m1130.87-11.104c0 2.338-17.538 6.648-27.052 6.648-9.516 0-27.056-4.312-27.052-6.648 0-.324 12.174-.588 27.054-.588 14.876 0 27.05.264 27.05.588M982.752 19.53c-17.198 11.324-50.52 12.048-66.088 1.434-3.746-2.556-2.814-2.726 9.366-1.706 7.44.624 20.548.386 29.132-.53 8.584-.914 19.328-1.782 23.876-1.928 7.992-.256 8.114-.166 3.714 2.73m-152.324.938c11.842 2.018 20.052 1.814 48.78-1.21 9.986-1.052 10.218-.968 5.786 2.07-16.514 11.328-41.61 14.314-57.92 6.894-9.06-4.124-20.094-13.568-13.026-11.15 1.932.66 9.302 2.19 16.38 3.396m-367.128.258c16.528 1.704 27.812 1.858 38.128.516 8.058-1.046 14.652-1.376 14.652-.734 0 .644-3.512 2.808-7.804 4.808-5.51 2.572-13.918 3.88-28.614 4.456-17.562.69-22.646.166-32.584-3.35-12.518-4.43-22.126-11.722-12.306-9.342 2.778.674 15.614 2.314 28.528 3.646m565.21-2.97c10.508 2.246 20.818 2.908 35.192 2.256 11.182-.506 19.884-.242 19.342.586-2.112 3.212-23.348 8.456-34.236 8.456-13.424 0-31.254-5.202-36.496-10.644-4.53-4.704-3.028-4.766 16.198-.654m-266.876-.284c13.162-.022 26.974-.66 30.694-1.418 10.31-2.1 8.07 1.408-4.162 6.524-18.794 7.858-53.016 5.008-62-5.168-2.128-2.412-1.462-2.614 4.52-1.364 3.86.806 17.786 1.448 30.948 1.426M701.286 16.4c0 4.714-20.472 13.836-31.006 13.816-7.272-.014-19.298-3.266-23.976-6.482-3.302-2.268-1.484-2.666 13.69-3 9.626-.21 22.152-1.572 27.834-3.026 13.438-3.438 13.458-3.44 13.458-1.308m-149.954 1.376c8.23 1.798 20.482 2.69 31.74 2.31 10.086-.34 18.334.082 18.332.94 0 .856-4.922 3.708-10.93 6.338-18.1 7.92-39.176 5.808-52.602-5.27-7.73-6.382-9.552-10.736-3.584-8.57 2.002.728 9.674 2.64 17.044 4.252m-352.306-.44c-3.272 2.516-9.658 5.62-14.192 6.896-8.95 2.52-37.218 3.072-46.762.912-7.118-1.61-22.284-8.56-21.104-9.67.462-.434 11.556.496 24.654 2.064 22.208 2.658 25.008 2.604 41.504-.82 22.886-4.752 22.886-4.752 15.9.618m186.994.886l27.052 1.246-10.404 4.848c-14.784 6.888-35.844 7.742-49.942 2.026-10.86-4.404-23.934-12.832-23.934-15.43 0-.83 6.79.194 15.088 2.276 8.938 2.244 26.11 4.294 42.14 5.034m-86.14-1.58c-12.856 10.924-27.014 14.6-44.09 11.442-8.022-1.484-14.88-4.144-18.298-7.092l-5.464-4.72 8.324 1.598c4.578.88 16.284 1.552 26.012 1.496 14.838-.088 19.366-.92 28.092-5.174 14.624-7.126 15.974-6.516 5.424 2.45M93.544 11.756c-1.478 1.676-6.952 5.394-12.16 8.264-7.958 4.384-11.974 5.226-25.138 5.264-10.556.03-19.27-1.208-26.716-3.802-17.868-6.224-17.036-8.45 2.026-5.414 14.76 2.35 18.826 2.296 33.19-.44 9.002-1.714 18.486-3.916 21.072-4.894 7.864-2.97 10.896-2.568 7.726 1.022m203.8-5.704c-21.986 11.01-41.294 11.114-70.086.376L216.246 2.32l-15 4.162c-8.25 2.29-19.668 4.972-25.374 5.962-13.362 2.32-45.056-.676-65.362-6.174L95.12 2.102l-13.744 4.77C69.46 11.01 64.172 11.634 41.62 11.566c-19.6-.058-27.648-.848-32.65-3.214C2.702 5.39 0 5.542 0 8.86c0 .8 3.694 5.848 8.21 11.218 15.878 18.88 44.31 26.07 64.312 16.264 4.976-2.44 13.148-7.988 18.156-12.326l9.104-7.89 9.678 9.098c18.746 17.622 37.018 22.93 60.28 17.516 22.17-5.16 35.8-11.922 42.114-20.89l5.456-7.748 3.196 4.558c7.404 10.552 13.438 15.584 25.464 21.234 26.322 12.364 53.228 4.242 67.298-20.314l3.714-6.484 10.588 10.16c15.212 14.596 31.602 21.656 50.126 21.59 16.994-.06 25.294-3.452 36.734-15.006l7.602-7.676 9.452 9.5c11.482 11.536 25.788 18.576 40.004 19.684 14.232 1.11 31.084-6.564 44.066-20.062 5.81-6.046 9.84-8.888 10.404-7.344 2.342 6.378 12.894 15.148 24.368 20.25 14.08 6.262 28.138 7.3 39.326 2.906 8.846-3.474 21.526-13.972 25.414-21.042l3.054-5.546 7.05 7.302c3.878 4.018 12.436 10.358 19.02 14.088 22.81 12.924 44.374 8.138 59.014-13.1l6.53-9.476 10.028 9.084c11.532 10.448 30.234 17.468 46.542 17.468 11.926 0 18.756-3.006 28.512-12.548 3.944-3.858 7.804-7.014 8.578-7.014.77 0 3.632 3.106 6.354 6.9 6.216 8.662 22.61 16.45 37.718 17.916 17.366 1.684 30.664-3.262 45.006-16.744l11.72-11.018 7.918 7.222c10.7 9.76 24.97 15.916 39.124 16.88 14.73 1 33.872-6.434 44.178-17.158l6.904-7.184 8.596 7.17c12.276 10.238 27.526 14.286 50.03 13.274 21.408-.962 29.562-4.622 34.848-15.636 1.974-4.12 3.918-7.49 4.316-7.49.396 0 4.336 3.396 8.752 7.546 13.29 12.49 38.736 17.726 55.042 11.32 3.712-1.458 11.638-7.956 17.612-14.438 9.522-10.33 10.468-12.098 7.644-14.298-2.576-2.01-6.424-2.054-19.24-.22-18.988 2.716-52.902 2.99-62.134.5-4.352-1.172-12.032-.858-22.878.94-8.98 1.488-22.884 2.676-30.896 2.64-14.056-.058-41.796-3.786-45.882-6.16-1.094-.634-16.034.496-33.198 2.514-38.066 4.476-56.014 4.704-67.602.862-7.864-2.608-10.314-2.596-22.63.112-7.596 1.672-23.176 3.53-34.622 4.132-17.842.938-22.69.492-34.002-3.126-11.812-3.778-14.82-4.006-28.762-2.184-21.858 2.856-42.388 2.526-64.038-1.034-18.198-2.992-18.906-2.962-33.294 1.406-21.166 6.426-52.522 6.476-65.416.104-8.77-4.33-9.242-4.366-13.216-.984-6.074 5.166-44.624 5.804-67.166 1.108-16.316-3.396-16.804-3.388-24.972.452-7.502 3.528-12.098 3.888-46.202 3.622-29.406-.232-39.306-.97-44.282-3.302-5.014-2.352-7.796-2.552-12.79-.914-3.926 1.286-16.118 1.69-31.674 1.05-22.532-.928-39.728-3.892-69.832-12.034-1.828-.496-9.516 2.202-17.084 5.992" fill="#ffec02" fill-rule="nonzero"/></svg>