<svg viewBox="0 0 343 36" xmlns="http://www.w3.org/2000/svg" fill-rule="evenodd" clip-rule="evenodd" stroke-miterlimit="3.73"><path d="M329.616 33.722c-2.06-1.262-4.02-4.272-3.566-5.478.228-.61.592-.436 1.27.616 2.26 3.502 6.374 4.694 9.284 2.69 3.404-2.344 3.712-7.844.706-12.62-7.74-12.294-23.054-16.512-50.504-13.908-16.346 1.55-28.34 4.088-59.824 12.66-12.352 3.364-24.736 6.492-27.52 6.952-8.406 1.39-18.518-.452-22.292-4.06-2.842-2.718-4.05-8.282-2.562-11.786 2.052-4.83 6.592-4.99 9.55-.338 1.444 2.27 1.652 3.998.222 1.844-2.974-4.484-5.892-4.98-8.08-1.374-1.868 3.078-1.876 4.312-.046 7.328 3.02 4.978 11.898 7.5 21.77 6.186 6.142-.818 10.638-1.972 25.256-6.484 16.818-5.19 34.634-9.7 45.974-11.64 19.26-3.294 42.484-3.134 52.68.362 10.062 3.45 17.32 10.774 19.304 19.484.704 3.094-.13 6.546-2.054 8.506-2.014 2.05-7.042 2.606-9.568 1.06zm-316.476 0c2.06-1.262 4.02-4.272 3.568-5.478-.23-.61-.594-.436-1.272.616-2.26 3.502-6.374 4.694-9.284 2.69-3.402-2.344-3.712-7.844-.706-12.62C13.188 6.636 28.5 2.418 55.95 5.022c16.348 1.55 28.34 4.088 59.824 12.66 12.352 3.364 24.738 6.492 27.522 6.952 8.406 1.39 18.518-.452 22.29-4.06 2.842-2.718 4.05-8.282 2.562-11.786-2.052-4.83-6.592-4.99-9.55-.338-1.444 2.27-1.652 3.998-.222 1.844 2.974-4.484 5.892-4.98 8.08-1.374 1.868 3.078 1.876 4.312.048 7.328-3.022 4.978-11.898 7.5-21.772 6.186-6.142-.818-10.636-1.972-25.256-6.484-16.818-5.19-34.634-9.7-45.972-11.64-19.26-3.294-42.484-3.134-52.682.362C10.76 8.122 3.504 15.446 1.52 24.156c-.704 3.094.128 6.546 2.054 8.506 2.012 2.05 7.042 2.606 9.566 1.06z" fill="none" stroke="#fff" stroke-width=".56"/></svg>