<svg viewBox="0 0 1191 52" xmlns="http://www.w3.org/2000/svg" fill-rule="evenodd" clip-rule="evenodd" stroke-linejoin="round" stroke-miterlimit="2"><path d="M455.732 17.388c9.97-2.202 30.352-2.018 41.374.372 5.014 1.086 9.436 1.674 9.826 1.31.388-.368-4.652-3.59-11.2-7.164-17.838-9.736-34.734-7.846-52.486 5.872l-5.202 4.022 5.202-1.402c2.862-.772 8.48-2.128 12.486-3.01m-49.944 3.094c0-2.912-18.776-8.612-28.092-8.528-17.352.158-20.972 3.412-4.162 3.744 8.012.156 17.844 1.474 21.85 2.922 8.306 3.008 10.404 3.384 10.404 1.862m-270.136.93c9.796-2.528 39.164-3.27 47.474-1.202 2.86.714.988-.618-4.162-2.958-13.034-5.922-35.094-5.926-47.202-.006-8.692 4.25-15.092 10.094-8.416 7.684 1.834-.662 7.372-2.244 12.306-3.516v-.002zm987.296 2.816c9.348-3.71 32.176-4.196 41.12-.882 8.62 3.196 9.198 1.07.988-3.636-9.95-5.7-26.718-5.374-40.816.796-6.008 2.628-10.924 5.26-10.924 5.848 0 1.56.754 1.394 9.63-2.126h.002zm-34.39-2.3c-1.214-2.132-5.174-4.846-8.804-6.036-7.628-2.5-38.336-2.668-44.474-.242-2.746 1.084 1.144 1.626 11.446 1.594 15.974-.052 28.238 2.28 37.454 7.126 6.258 3.29 7.306 2.704 4.378-2.442m-321.722-3.576c6.868.636 15.296 1.734 18.73 2.442l6.242 1.292-5.844-4.41c-11.748-8.864-30.398-8.29-50.722 1.562-13.806 6.69-12.072 7.812 4.152 2.69 11.946-3.774 17.468-4.496 27.442-3.576M890.17 23.02c-2.848-3.496-9.566-8.928-14.93-12.074-8.242-4.83-11.782-5.686-22.862-5.528-14.582.206-28.796 5.352-36.738 13.302-5.812 5.812-4.496 6.052 4.828.88 16.99-9.42 43.548-7.856 63.168 3.722 5.576 3.29 10.492 6 10.926 6.02.43.022-1.544-2.824-4.392-6.322m-250.988 1.54c17.168-9.02 33.782-10.302 52.738-4.07 2.538.832.98-1.366-3.988-5.632-6.738-5.784-9.722-6.996-17.226-6.996-10.466 0-30.054 8.484-37.934 16.43-6.27 6.32-5.196 6.364 6.41.268m-31.306-.638c-1.202-2.11-7.02-6.754-12.93-10.32-8.442-5.09-12.842-6.45-20.54-6.34-8.656.122-31.194 7.28-28.994 9.208.462.406 5.994-.152 12.292-1.24 14.882-2.572 32.308.72 43.028 8.126 8.842 6.114 10.372 6.236 7.144.566m-307.362-.608c-11.198-11.636-32.56-15.456-48.552-8.676-4.692 1.988-8.204 3.924-7.806 4.296.398.376 5.558-.178 11.466-1.232 13.526-2.412 29.852.288 39.836 6.586 8.51 5.37 10.744 4.938 5.056-.974m689.896 1.044c-12.922-12.928-29.604-17.664-47.122-13.374-6.288 1.538-13.446 4.2-15.906 5.918-4.38 3.052-4.342 3.09 1.768 1.766 17.428-3.776 46.452.852 59.59 9.504 6.614 4.354 7.594 2.116 1.668-3.814h.002zM40.714 22.576c7.316-1.44 17.302-2.214 22.19-1.72l8.89.9-6.212-3.338c-3.414-1.834-10.062-3.282-14.772-3.216-10.052.144-28.086 6.966-33.494 12.668l-3.79 4 6.944-3.34c3.818-1.836 12.928-4.516 20.244-5.954m1130.87 11.104c-.002-2.338-17.538-6.65-27.052-6.65-9.516 0-27.056 4.314-27.052 6.65.002.324 12.174.588 27.054.588 14.876 0 27.05-.264 27.05-.588m-188.832-1.428c-17.2-11.326-50.52-12.05-66.088-1.434-3.746 2.554-2.814 2.724 9.366 1.704 7.44-.622 20.548-.384 29.132.532 8.584.914 19.328 1.782 23.876 1.928 7.992.256 8.114.166 3.714-2.73m-152.324-.938c11.842-2.018 20.052-1.814 48.78 1.21 9.986 1.052 10.218.968 5.786-2.072-16.514-11.326-41.61-14.314-57.92-6.892-9.06 4.122-20.094 13.568-13.026 11.148 1.932-.66 9.302-2.188 16.38-3.394M463.3 31.056c16.528-1.706 27.812-1.858 38.128-.518 8.058 1.048 14.652 1.38 14.652.734 0-.642-3.512-2.806-7.804-4.808-5.51-2.568-13.918-3.878-28.614-4.454-17.562-.69-22.646-.166-32.586 3.35-12.516 4.43-22.124 11.724-12.304 9.34 2.776-.674 15.614-2.314 28.528-3.644m565.21 2.97c10.508-2.246 20.818-2.908 35.192-2.258 11.182.506 19.884.244 19.342-.586-2.112-3.21-23.348-8.454-34.236-8.454-13.424 0-31.254 5.202-36.496 10.644-4.53 4.704-3.028 4.764 16.198.654m-266.876.284c13.162.022 26.974.66 30.692 1.418 10.312 2.1 8.072-1.408-4.16-6.524-18.794-7.86-53.016-5.008-62 5.166-2.128 2.414-1.464 2.616 4.52 1.366 3.86-.806 17.786-1.45 30.948-1.426m-60.348 1.07c0-4.714-20.472-13.836-31.006-13.814-7.272.016-19.298 3.266-23.976 6.48-3.302 2.27-1.484 2.668 13.69 3 9.626.212 22.152 1.574 27.834 3.028 13.438 3.438 13.458 3.44 13.458 1.306m-149.954-1.374c8.23-1.8 20.482-2.69 31.74-2.312 10.084.34 18.334-.082 18.332-.938-.002-.856-4.922-3.71-10.93-6.338-18.1-7.92-39.176-5.81-52.602 5.27-7.73 6.382-9.552 10.734-3.584 8.568 2.002-.728 9.674-2.64 17.044-4.25m-352.306.438c-3.272-2.514-9.658-5.618-14.192-6.894-8.95-2.522-37.218-3.074-46.764-.914-7.116 1.612-22.282 8.562-21.102 9.672.462.434 11.556-.496 24.654-2.064 22.208-2.658 25.008-2.604 41.504.82 22.886 4.752 22.884 4.752 15.9-.62m186.994-.884l27.052-1.246-10.404-4.848c-14.784-6.888-35.844-7.742-49.942-2.028-10.86 4.406-23.934 12.832-23.934 15.43 0 .83 6.79-.192 15.088-2.274 8.938-2.244 26.11-4.296 42.14-5.034m-86.14 1.58c-12.856-10.926-27.014-14.6-44.09-11.442-8.022 1.482-14.88 4.144-18.298 7.092l-5.464 4.72 8.324-1.598c4.578-.88 16.284-1.554 26.012-1.496 14.838.088 19.366.92 28.092 5.174 14.624 7.124 15.972 6.514 5.424-2.45M93.544 40.024c-1.478-1.676-6.952-5.394-12.16-8.262-7.958-4.386-11.974-5.226-25.138-5.266-10.556-.028-19.27 1.208-26.716 3.802-17.868 6.224-17.036 8.452 2.026 5.416 14.76-2.352 18.826-2.296 33.19.44 9.002 1.714 18.486 3.916 21.072 4.894 7.864 2.968 10.896 2.568 7.726-1.024m203.8 5.706c-21.986-11.01-41.294-11.114-70.086-.376l-11.012 4.108-15-4.164c-8.25-2.288-19.668-4.97-25.374-5.96-13.362-2.32-45.056.676-65.362 6.176L95.12 49.68l-13.744-4.77c-11.916-4.138-17.204-4.762-39.756-4.696-19.6.058-27.648.85-32.65 3.216C2.702 46.392 0 46.24 0 42.922c0-.802 3.694-5.848 8.21-11.22 15.878-18.878 44.31-26.07 64.312-16.264 4.976 2.442 13.148 7.99 18.156 12.326l9.104 7.892 9.678-9.1c18.746-17.622 37.018-22.93 60.28-17.516 22.17 5.162 35.8 11.922 42.114 20.89l5.456 7.75 3.196-4.56c7.404-10.552 13.438-15.584 25.464-21.232C272.292-.478 299.198 7.644 313.268 32.2l3.714 6.484 10.586-10.158C342.782 13.93 359.172 6.87 377.696 6.934c16.994.062 25.294 3.452 36.734 15.006l7.602 7.678 9.452-9.5C442.966 8.582 457.272 1.542 471.488.432c14.232-1.108 31.084 6.566 44.066 20.064 5.81 6.044 9.84 8.886 10.404 7.344 2.342-6.38 12.894-15.148 24.368-20.25 14.08-6.262 28.138-7.302 39.326-2.908 8.846 3.476 21.526 13.974 25.414 21.044l3.054 5.546 7.05-7.304c3.878-4.018 12.436-10.356 19.02-14.086 22.81-12.926 44.374-8.138 59.014 13.1l6.53 9.476 10.028-9.084c11.532-10.446 30.234-17.468 46.542-17.468 11.926 0 18.756 3.006 28.512 12.548 3.944 3.858 7.804 7.014 8.578 7.014.77 0 3.632-3.106 6.354-6.9 6.216-8.662 22.61-16.45 37.718-17.916 17.366-1.684 30.664 3.262 45.006 16.744l11.72 11.018 7.918-7.222c10.7-9.76 24.97-15.918 39.124-16.878 14.728-1.002 33.872 6.432 44.178 17.156l6.904 7.186 8.596-7.17c12.276-10.24 27.526-14.288 50.028-13.276 21.41.964 29.564 4.622 34.85 15.636 1.974 4.12 3.918 7.49 4.316 7.49.396 0 4.336-3.396 8.752-7.546 13.29-12.492 38.736-17.724 55.042-11.32 3.712 1.458 11.638 7.956 17.612 14.438 9.522 10.332 10.468 12.098 7.644 14.298-2.576 2.01-6.424 2.056-19.24.222-18.988-2.718-52.902-2.992-62.134-.502-4.352 1.172-12.032.856-22.878-.94-8.98-1.488-22.884-2.676-30.896-2.64-14.056.058-41.796 3.786-45.882 6.16-1.094.634-16.034-.496-33.198-2.514-38.066-4.478-56.014-4.706-67.602-.862-7.864 2.61-10.314 2.596-22.63-.114-7.596-1.67-23.176-3.528-34.622-4.13-17.84-.94-22.69-.492-34.002 3.126-11.812 3.778-14.82 4.006-28.762 2.184-21.858-2.856-42.388-2.526-64.038 1.034-18.198 2.992-18.906 2.962-33.294-1.406-21.166-6.426-52.522-6.476-65.416-.106-8.77 4.332-9.242 4.368-13.216.986-6.074-5.166-44.624-5.802-67.166-1.108-16.316 3.398-16.804 3.388-24.972-.452-7.502-3.528-12.098-3.888-46.202-3.622-29.406.232-39.306.97-44.282 3.302-5.014 2.352-7.796 2.55-12.79.914-3.926-1.286-16.118-1.69-31.674-1.05-22.532.926-39.728 3.892-69.832 12.034-1.828.494-9.516-2.202-17.084-5.992" fill="#fff" fill-rule="nonzero"/></svg>