<svg viewBox="0 0 97 105" xmlns="http://www.w3.org/2000/svg" fill-rule="evenodd" clip-rule="evenodd" stroke-miterlimit="11.339"><path d="M17.782 8.806c-.976.708-1.272 1.044-.486.558.26-.162.458-.244.446-.186-.034.144-.706.56-.864.534-.074-.012-.262.138-.428.336-.164.196-.412.412-.55.476-.23.11-.254.106-.282-.04-.034-.168.69-.874.866-.844.056.006.116-.034.136-.1.038-.154 1.312-1.114 1.766-1.334.188-.094.338-.144.33-.116-.006.028-.426.348-.932.714l-.002.002zM5.168 29.014a.271.271 0 00-.058.222c.018.068.058.012.086-.102.034-.122.024-.176-.024-.122l-.004.002zm-.022 2.748c-.04.022-.066.098-.052.17.018.076.052.058.074-.042.022-.092.016-.15-.022-.126v-.002zm2.664-7.768c-.22.312-.592 1.748-.418 1.604.074-.066.236-.496.352-.962.14-.562.162-.78.066-.642zm-.644 3.082c-.038.022-.064.1-.05.17.018.078.05.06.074-.038.024-.094.018-.152-.024-.128v-.004zm.596 3.758c-.022-1.522-.056-2.042-.13-2.002-.088.044-.232 3.222-.184 4.044l.04.706.148-.766c.074-.422.14-1.312.128-1.98l-.002-.002zm1.09-2.468c.024-.328.194-1.254.358-2.058.168-.808.252-1.446.19-1.428-.066.01-.164.24-.234.494a3.664 3.664 0 01-.29.76c-.296.526-.87 4.25-.748 4.864.116.604.576-1.064.726-2.632h-.002zm-.658 2.962c-.058-.124-.082-.112-.124.046-.036.108-.006.208.056.218.136.028.162-.07.064-.268l.004.004zm-1.574 7.37c-.066-.012-.122.024-.132.07-.006.046.02.098.086.108.066.012.12-.022.132-.07.018-.052-.022-.098-.086-.108zm2.304-8.018c-.088.046-.146.196-.14.376.002.218.04.278.148.222.106-.052.118-.112.054-.206-.148-.184-.1-.278.12-.24.144.028.164 0 .084-.1-.074-.094-.144-.108-.25-.044l-.016-.008zm.672-1.042c-.038.022-.064.1-.05.17.018.076.05.06.074-.04.022-.094.018-.15-.024-.128v-.002zm-1.458 5.22c.136-1.72.154-2.146.088-2.11-.172.094-.44 4.03-.272 3.98.058-.022.088-.08.074-.144-.018-.068.042-.842.112-1.726h-.002zm-.198 2.296c-.056-.006-.12.024-.132.07-.006.046.022.098.086.108.066.012.12-.022.132-.07.018-.05-.022-.096-.086-.108zm2.2-7.394c-.06-.288-.254-.084-.378.394-.066.264-.18.496-.248.516-.072.022-.072.142.006.306l.13.27.144-.298c.206-.414.376-1.008.342-1.188h.004zm.448-1.002c-.156-.03-.414.254-.486.528-.056.204-.032.228.136.154.108-.044.186-.158.174-.252-.006-.092.04-.186.112-.206.162-.046.21-.2.066-.224h-.002zm.016.794a4.65 4.65 0 00-.266.7c-.066.26-.066.26.098-.034a4.3 4.3 0 00.266-.7l.106-.402-.204.432v.004zm-.528 3.47c.09-.218.124-.448.074-.508-.052-.058-.12-.332-.16-.606l-.074-.5-.264.738c-.194.518-.276.928-.272 1.388 0 .452-.04.682-.142.746-.102.066-.106.15-.006.284.074.108.116.272.094.366-.066.276-.022.592.088.614.128.022.436-1.386.362-1.646-.038-.136.018-.178.2-.186.226-.006.234-.022.098-.15-.122-.108-.118-.23.004-.54h-.002zm-.6 2.974c.032-.134.02-.25-.036-.26-.114-.022-.26.51-.282 1.024l-.018.37.15-.254a.97.97 0 00.132-.444A1.524 1.524 0 019.48 36l-.004-.004zm-1.358 5.148c.05-1.156.272-2.362.468-2.554.186-.18.24-.696.336-3.456a53.98 53.98 0 01.128-2.244c.084-.882.064-1.032-.116-1.062-.154-.028-.23.488-.09.6.052.034.024.114-.082.176-.124.08-.14.136-.064.232.056.072.04.368-.04.666-.074.296-.174 1.078-.22 1.736a19.02 19.02 0 01-.214 1.92c-.244 1.314-.312 1.848-.26 2.102.022.136.016.384-.036.546-.038.162-.056.46-.016.666.034.204.04.556.022.786-.018.226.002.482.04.564.092.196.092.194.126-.678h.018zm.56-1.534c-.032-.232-.032-.23-.104.03-.038.146-.05.354-.02.46.038.178.05.174.104-.028.032-.122.038-.33.02-.462zm2.208-7.422c-.042.022-.066.1-.052.17.016.076.052.06.072-.04.024-.094.018-.15-.02-.128v-.002zm-.668 2.538a.27.27 0 00-.058.224c.018.066.058.012.084-.102.036-.124.024-.176-.02-.124l-.006.002zm-1.604 6.038c-.04-.176-.05-.174-.102.034a1.86 1.86 0 00-.038.506l.016.282.086-.312c.054-.17.076-.398.042-.506l-.004-.004zm-1.54 3.976c-.02-.004-.056-.078-.074-.156-.004-.086.018-.118.068-.078.09.07.094.25.006.234zm.114.862c-.074-.1-.112-.254-.086-.346.04-.16.052-.158.158.032.15.26.194.108.11-.39-.134-.834-.158-2.83-.04-3.61.154-1.028.196-2.24.118-3.334-.034-.466-.034-.97.006-1.116.04-.148.04-.336-.004-.42-.094-.2-.144-.004-.338 1.288-.084.552-.236 1.55-.342 2.218-.206 1.31-.27 2.922-.128 3.338.05.14.082.492.074.778-.018.606.228 1.956.414 2.25.118.192.128.182.158-.152.018-.196-.024-.436-.098-.536h-.002zm2.952-10.26a.2.2 0 00-.15.126c-.014.05.036.074.102.05.074-.01.136-.074.148-.124.016-.05-.034-.074-.1-.05v-.002zm1.67-5.536c-.068-.012-.122.022-.134.07-.018.052.022.096.086.108.066.012.122-.022.134-.07.006-.046-.022-.098-.086-.108zM7.394 47.218c-.06-.124-.082-.116-.126.038-.032.108-.004.23.042.27.12.094.176-.112.082-.312l.002.004zm4.43-16.618c-.098.188-.22.482-.262.654-.066.254-.058.282.058.15.08-.088.196-.382.262-.654.122-.49.122-.49-.058-.15zM7.756 46.254c-.056-.12-.082-.106-.128.07a.62.62 0 00.016.376c.058.12.084.106.13-.072a.628.628 0 00-.018-.374zM11.5 31.896c-.156-.028-.302.236-.232.41.058.144.074.138.126-.034.032-.11.106-.19.172-.18.064.01.094-.028.072-.08-.016-.062-.084-.11-.136-.118l-.002.002zM8.826 43.198c-.05-.2-.122-.324-.162-.274-.05.046-.016.284.04.52.066.236.134.36.162.274.024-.088.006-.322-.04-.522v.002zM7.9 47.374c-.034-.146-.088-.272-.14-.28-.13-.022-.056.566.102.758.148.184.152.14.04-.478H7.9zm.058 1.152c-.268-.046-.286.168-.018.26.104.04.19.006.214-.08.02-.082-.06-.156-.192-.18h-.004zm-.378 1.076c-.038-.096-.082-.15-.09-.12-.032.088.214.956.268.966.058.006-.064-.566-.178-.846zm6.202-22.066c-.11-.022-.208.146-.614 1.014-.492 1.052-.306 1.05.266-.002.39-.708.486-.988.348-1.01v-.002zm5.45-19.656c-.068-.012-.124.028-.136.076-.018.05.034.076.1.058.074-.022.128-.05.134-.074.006-.028-.04-.046-.098-.06zM8.25 50.008c-.056-.316-.162-.526-.292-.578-.114-.046-.21-.066-.216-.046-.02.086.376 1.184.498 1.38.13.204.134.204.118-.03a7.183 7.183 0 00-.108-.73v.004zm.074 1.37c-.138.058-.186.044-.208-.04-.016-.088-.034-.092-.064-.024a.182.182 0 00.056.18c.118.09.334.04.37-.094.016-.066-.04-.068-.156-.022h.002zm.472 1.022c-.074-.212-.172-.42-.224-.46-.158-.122-.144.044.02.33.088.144.148.308.134.366-.024.106.152.304.18.202a2.29 2.29 0 00-.116-.44l.006.002zm1.848 5.096c-.406-.796-2.148-3.736-2.198-3.71-.14.076.706 1.732 1.478 2.896.816 1.226 1.086 1.534.72.814zm.86-1.836c-.04-.08-.1-.132-.14-.11-.04.022-.024.128.04.238.124.218.206.112.098-.126l.002-.002zm-.298.444c-.188-.462-.306-.578-.27-.264.006.104.002.188-.032.18-.06-.006-.966-2.88-1.008-3.176-.006-.092-.094-.18-.18-.196-.086-.01-.16-.134-.166-.26 0-.128-.06-.244-.12-.254-.056-.006-.108-.004-.114.012-.034.12.84 2.852 1.046 3.27.23.472.962 1.338 1.004 1.184.006-.034-.066-.258-.162-.498l.002.002zm10.422-38.68c-.034-.006-.09.028-.138.07-.052.044-.04.086.022.096.064.012.126-.022.14-.07.016-.05-.002-.092-.024-.096zm.74-.618c-.166-.028-.37.164-.286.268.066.078.39-.052.418-.164.006-.046-.05-.09-.132-.104zM11.596 56.658c-.118-.092-.088.304.04.584.058.124.152.234.206.244.112.024-.106-.722-.246-.828zm.422 1.126c-.136-.138-.144-.134-.074.07.082.23.166.298.202.162.006-.046-.052-.148-.13-.232h.002zm12.476-42.362c-.244.072-.476.27-.34.294.106.022.544-.206.568-.29.006-.046-.092-.04-.228-.006v.002zm-12.11 45.466c-.15-.282-.284-.48-.296-.438-.02.1.494 1.156.616 1.25.132.104.018-.184-.318-.81l-.002-.002zm16.31-52.126c-.226.022-.42.072-.432.114-.006.046.23.052.538.022.306-.034.5-.08.432-.114s-.312-.046-.538-.022zm.066 4.578c-.104.04-.196.096-.202.114-.004.012.074.022.172.002.096-.012.188-.066.202-.114.016-.05-.058-.06-.172-.002zm1.466-1.146c-.018-.002-.212.096-.43.222l-.396.226.41-.138c.334-.114.564-.284.418-.31h-.002zM31.154 11c-.488.108-2.006.854-1.872.918.178.086.628-.06 1.43-.462.834-.42.99-.58.442-.456zm.176-3.276c-.684-.034-1.036-.004-1.304.112-.38.166-.63.454-.492.562.118.088 1.656-.2 1.946-.364.132-.074.482-.128.78-.116.398.012.472 0 .276-.06-.146-.046-.688-.104-1.206-.13v-.004zM29.104 22.37c-.27-.272-.336-.17-.096.144.136.178.292.33.348.34.112.024-.04-.266-.254-.482l.002-.002zm4.078-14.114c-.336-.034-.71-.022-.834.01-.176.052-.106.078.338.108.708.046 1.08.04 1.096-.024.006-.028-.262-.072-.6-.1v.006zm-.362 2.76c-.2.03-.308.172-.15.2.106.024.412-.136.374-.188a.478.478 0 00-.224-.012zm-1.796 15.49c-.242-.484-.492-1.03-.554-1.214-.074-.22-.15-.306-.222-.244-.144.122-.224-.012-.472-.786-.152-.468-.35-.762-.858-1.274-.362-.368-.75-.726-.856-.798-.168-.114-1.692-.688-1.932-.73-.052-.006-.234.116-.412.276-.276.244-.334.368-.382.796-.082.734.058 1.058.77 1.884.944 1.092 2.308 2.056 4.262 3.012.336.166.694.37.796.458.598.506.544-.024-.138-1.378l-.002-.002zm4.978-17.914a2.421 2.421 0 00-.496-.148c-.134-.028-.238-.076-.228-.112.024-.102.874.13.928.258.034.066-.036.07-.204-.002v.004zm.108-.884c-.056-.006-.082.028-.056.084.016.06-.006.092-.074.082-.066-.012-.144-.106-.18-.208-.104-.292-.974-.582-2.208-.738-1.046-.132-1.818-.12-1.856.034-.006.046.664.176 1.5.292 1.736.252 1.676.376-.076.162-.778-.094-1.272-.108-1.652-.034l-.538.1.454.022c.646.022 3.498.568 3.598.686.052.062-.256.046-.792-.034-.482-.076-.732-.098-.556-.044.932.256 2.802.808 2.982.88.194.08.198.074.05-.078-.152-.15-.144-.16.106-.176.25-.012.242-.04-.164-.506-.236-.268-.476-.498-.534-.508l-.004-.016zm-30.37 22.5c-.006-.154.202-1.104.464-2.11.422-1.602.46-1.704.302-.834-.242 1.354-.752 3.302-.768 2.944h.002zm-.22 1.732c-.018-.282.206-1.38.262-1.298.018.03-.034.39-.106.814-.082.44-.144.648-.16.484h.004zm4.364-9.69c-.064.012-.138-.006-.16-.06a.1.1 0 01.074-.13c.064-.01.136.006.16.06.018.052-.006.112-.074.13zm.51-.86c-.266.424-.45.588-.388.348.068-.26.524-1.048.648-1.116.17-.098.04.288-.258.768h-.002zm.56-1.094c-.158.046-.056-.338.128-.49.108-.09.124-.046.066.168-.04.158-.13.3-.196.322h.002zm-.602 2.318c-.11.128-.122.078-.052-.212.052-.206.144-.392.214-.41.148-.046.034.394-.162.624v-.002zm1.192-2.822c-.064-.012-.1-.06-.086-.108a.115.115 0 01.132-.07c.066.012.1.06.086.108-.016.05-.072.08-.132.07zm1.13-3.906c-.072.066-.13.074-.116.028a.557.557 0 01.164-.204c.074-.066.13-.074.118-.028a.566.566 0 01-.166.204zm-.906 3.198c-.152.204-.33.402-.396.44-.196.11-.072-.198.238-.582.54-.672.672-.552.158.144v-.002zm1.244-3.606c-.056-.006-.064-.072-.004-.14.052-.07.118-.12.142-.116.022.004.022.066.006.14-.018.074-.082.126-.142.116h-.002zm-1.484 5.03c-.24.328-.512.752-.602.944-.252.534-.384.38-.162-.188.312-.8.406-.946.498-.77.06.114.074.106.06-.046-.042-.32-.024-.378.116-.328.074.028.208-.046.298-.158.154-.196.302-.264.256-.12-.004.04-.214.334-.456.664l-.008.002zm1.356-2.956c-.28.402-.6.722-.656.652-.052-.06.68-1.084.846-1.174.166-.092.092.112-.194.522h.004zm-.436 1.836c-.16.152-.286.244-.278.204.022-.112.486-.636.554-.624.1.024.02.13-.276.42zm-.146 1.884c-.058-.04-.082-.13-.064-.196a.24.24 0 01.156-.16c.074-.022.096.066.064.196-.034.134-.102.202-.156.16zm1.932-6.982c-.172.14-.138.004.056-.222.096-.108.132-.116.114-.03a.52.52 0 01-.17.25v.002zm-2.312 9.76c-.064-.012-.098-.06-.086-.108.018-.052.074-.082.134-.07.064.012.1.06.086.106-.018.052-.074.082-.134.072zm2.796-10.328c-.064-.012-.074-.052-.022-.098.05-.046.112-.074.138-.07.034.006.04.046.022.098-.016.052-.082.08-.138.07zm-.836 3.024c-.106.04-.19.06-.184.04.006-.03.096-.084.206-.128.104-.04.188-.06.182-.04-.006.028-.096.082-.204.128zm-.774 2.936c-.402.804-.488.904-.38.454.09-.366.588-1.306.736-1.386.112-.06.018.182-.356.932zm-.97 3.986c-.072.022-.112-.006-.102-.052a.218.218 0 01.148-.126c.074-.022.114.006.102.052a.215.215 0 01-.148.124v.002zm1.456-5.154c-.158.044-.104-.162.082-.314.114-.094.132-.078.092.078-.024.108-.106.212-.174.232v.004zm-.848 3.254c-.074.068-.13.076-.118.03a.571.571 0 01.166-.204c.072-.068.128-.076.116-.03a.541.541 0 01-.164.204zm1.61-5.73c-.05-.034-.274.112-.496.336-.222.226-.422.388-.444.362-.064-.084.594-.766.87-.896.262-.124.266-.122.216.072-.022.106-.094.164-.144.124l-.002.002zm.052 1.124c-.074.012-.108-.028-.088-.098a.25.25 0 01.158-.17c.066-.012.108.028.09.098a.254.254 0 01-.16.168v.002zm-3.39 9.06c-.21.302-.312.692-.186.714.066.012.158-.192.22-.452.092-.368.074-.426-.034-.262zm1.316-1.822a9.862 9.862 0 00-.814 1.79c-.174.544-.364.96-.408.924-.05-.034-.122.174-.154.466-.052.356-.088.468-.13.334-.05-.186-.058-.188-.178-.046-.188.226-.268-.038-.152-.498.076-.288.058-.386-.082-.41-.144-.028-.146-.104-.006-.444.092-.228.41-1.106.698-1.954.288-.846.646-1.834.792-2.194.24-.598.236-.544-.06.658-.216.868-.286 1.328-.21 1.364.08.04.056.146-.1.388-.274.426-.504 1.274-.296 1.11a.957.957 0 00.212-.382c.132-.488 1.216-2.074 1.396-2.044.074.012.058.03-.494.94l-.014-.002zm1.542-3.882c-.2.324-.398.72-.446.878-.05.16-.13.282-.192.27-.152-.028-.136-.066.454-1.234.284-.562.554-1.014.606-1.006.136.028-.024.436-.422 1.092zM16.33 13.3c-.074.022-.112-.006-.098-.062a.117.117 0 01.134-.074c.064.01.104.038.1.058-.006.024-.066.062-.136.078zm.348-.454c-.12.098-.136.094-.104-.034.022-.084.092-.168.16-.188.158-.044.128.07-.058.224l.002-.002zm-2.356 8.586c-.326.346-.978 1.272-1.138 1.618-.084.194-.39.332-.352.162.058-.254 1.238-1.804 1.502-1.978.386-.25.386-.222-.014.198h.002zm1.188-3.034c-.338.384-.37.308-.056-.126.15-.204.29-.368.316-.364.084.012-.022.228-.262.49h.002zm-1.16 4.716c-.074.024-.112-.006-.1-.058a.122.122 0 01.136-.078c.064.012.104.04.1.06-.006.028-.068.06-.136.076zm1.192-5.646c-.972 1.526-1.27 1.89-.772.95.268-.504 1.552-2.48 1.646-2.534.172-.096.004.212-.874 1.584zm-.586 4.19c-.086.1-.178.18-.212.172-.104-.022-.02-.152.188-.3.234-.164.24-.136.022.128h.002zm2.008-6.216c-.13.122-.254.198-.282.164-.024-.032.088-.174.26-.31.354-.294.37-.186.018.146h.004zm.952-3.85c-.616.618-.926.826-.494.334.706-.808.998-1.106 1.072-1.096.138.022.066.118-.578.76v.002zm-2.314 10.2c-.102.162-.326.532-.504.822-.176.292-.364.522-.418.512-.152-.028-.018-.396.242-.648.13-.124.304-.376.39-.558.082-.184.242-.392.346-.466.214-.15.202-.076-.06.338h.004zm1.39-5.152c-.192.082-.196.074-.034-.088.192-.186.302-.22.268-.084-.006.046-.118.118-.236.17l.002.002zm-1.116 4.546c-.064-.01-.074-.05-.022-.096.052-.044.112-.074.138-.07.034.006.04.046.022.1-.016.05-.082.078-.138.068v-.002zm.074-.778c-.628.786-.88.972-.46.336.302-.45 1.05-1.254 1.006-1.08-.016.05-.256.384-.548.744h.002zm.242.462c-.124.102-.136.1-.106-.024a.56.56 0 01.176-.248c.126-.104.138-.102.106.022a.56.56 0 01-.176.25zm1.648-6.334c-.15.104-.262.146-.25.098.018-.052.148-.174.298-.276.15-.102.262-.146.248-.096-.016.05-.146.172-.298.274h.002zm-.14 1.42c-.072.022-.112-.006-.1-.06a.123.123 0 01.136-.076c.064.012.104.04.098.062-.004.022-.064.06-.134.076v-.002zm-.856 3.266c-.266.164-.27.164-.112-.004a.926.926 0 01.29-.212c.198-.06.128.028-.178.216zm-4.882 8.654c-.064-.012-.122.028-.134.076-.016.05.034.078.1.06.072-.012.13-.052.136-.076.004-.028-.042-.046-.102-.06zm4.446-6.038c-.418.41-1.966 2.41-2.352 3.044-.186.3-.38.602-.428.672-.054.066-.138.272-.196.454-.064.21-.192.364-.342.418-.192.07-.288.246-.528.958l-.294.87-.33-.06c-.236-.04-.306-.094-.254-.184 1.654-2.82 3.124-5.124 2.622-4.116-.268.536-.006.248.826-.928.45-.634.942-1.224 1.098-1.31.178-.102.242-.186.176-.238-.058-.046-.094-.116-.082-.164.004-.046.106-.012.212.066.228.178.23.168-.128.516v.002zm3.204-12.122c-.106.04-.2.102-.206.128-.004.028.076.004.184-.04.106-.04.198-.104.206-.128.006-.028-.074-.006-.184.04zm-.248.452c-.29.248-.544.428-.566.402-.024-.034.102-.162.262-.306.194-.168.264-.286.196-.336-.14-.108.348-.586.564-.55.26.046.108.308-.456.79zm-1.824 9.908c-.064-.012-.072-.052-.022-.098.052-.044.112-.072.14-.068.032.006.038.046.02.098-.016.05-.08.08-.138.068zm.55-2.142c-.18.2-.398.452-.486.56-.086.106-.178.168-.202.138-.052-.06.884-1.13.98-1.114.082.012.098-.022-.294.416h.002zm1.12-3.348c-.124.098-.136.092-.102-.046.022-.086.088-.148.148-.138.134.024.132.03-.05.178l.004.006zm.716-2.082c-.384.34-.782.572-.748.438.04-.148.886-.818 1.008-.798.134.024.154-.004-.26.358v.002zm-.248 1.616c-.354.228-.32.078.04-.166.154-.104.268-.148.256-.098-.018.052-.148.17-.296.266v-.002zm-.738 2.966c-.128.124-.254.2-.278.17-.038-.05.418-.55.504-.536.09.012.018.134-.226.366zm-.686 2.134c-.492.562-.5.568-.564.488-.022-.034.198-.308.496-.608.64-.638.678-.574.066.12h.002zm.91-1.846c-.084.068-.13.072-.114.006a.234.234 0 01.15-.144c.154-.046.146-.012-.034.134l-.002.004zm1.242-3.888c-.122.102-.136.096-.104-.034.022-.082.094-.168.162-.188.156-.044.126.07-.058.224v-.002zm-.904 3.48c-.056-.006-.064-.074-.004-.142.052-.068.118-.12.142-.116.022.006.022.066.006.142-.018.074-.082.126-.144.116zm-.172 1.088c-.114.094-.13.078-.092-.078.022-.106.104-.21.172-.232.16-.044.104.16-.08.312v-.002zm2.892-10.64c-.418.092-.706.072-.498-.04.14-.074.882-.142.864-.078-.004.022-.17.072-.368.116l.002.002zm-.554 3.202c-.256.116-.488.208-.518.202-.108-.022.566-.454.74-.476.328-.038.244.06-.222.274zm1.248-3.034c-.108.046-.182.046-.172-.002.018-.052.108-.128.218-.172.11-.046.184-.046.172.002-.018.052-.11.128-.218.172zm-1.52 5.102l-.414.204.32-.25c.178-.136.366-.24.424-.23.156.028.12.052-.328.276h-.002zm.922-.586c-.114.08-.196.1-.184.044.016-.06.108-.138.214-.184.246-.104.232-.044-.032.14h.002zm.864-.506c-.216.066-.228-.052-.018-.146.124-.05.188-.044.174.006-.016.052-.088.112-.158.134l.002.006zm-.952-.452c-.898.458-1.69.838-1.764.846-.3.028-.052-.176.622-.51.394-.194.738-.386.77-.428.116-.154 2.066-.894 2.012-.766-.004.01-.744.398-1.64.858zm.546 2.686c-.368.288-.602.38-.322.13.204-.186.708-.52.698-.462-.006.028-.174.176-.376.332zm1.078-2.588c-.074.01-.114-.006-.1-.06a.119.119 0 01.136-.076c.064.012.104.04.1.06-.006.022-.066.06-.136.076zm-1.194 1.894c-.532.342-1.228.828-1.548 1.082-.618.49-.57.29.082-.338.414-.4 2.298-1.526 2.384-1.424.022.034-.386.338-.918.68zm1.76-.586c-.308.202-.662.476-.782.61-.124.134-.208.18-.192.102.036-.152.676-.696 1.226-1.042.58-.364.354-.068-.254.33h.002zm1.532-4.182c-.702.274-.858.308-.822.176.032-.114 1.276-.564 1.402-.504.066.034-.198.178-.58.328zm-.064 3.874c-.074.024-.114-.006-.102-.06a.124.124 0 01.134-.076c.068.012.106.04.1.06-.006.028-.064.06-.132.076zm2.588-6.278c-.052.028-.216.028-.374.004-.282-.046-2.038.01-2.494.076-.162.028-.198.012-.106-.04.192-.104 1.914-.242 2.548-.204.522.028.608.066.426.162v.002zm-.236.994c-.916-.012-2.022.012-2.458.052-.436.044-.902.066-1.038.044-.136-.022-.256-.002-.27.046-.052.174-.772.26-1.142.136-.446-.15-.316-.292.192-.204.238.04.482.012.66-.084.154-.08.572-.15.928-.154.358-.006 1.064-.024 1.574-.04 1.542-.052 2.906 0 3.072.118.106.072-.366.1-1.516.08l-.002.006zm-.084 6.238c-.076.022-.156.01-.178-.028-.066-.078.126-.228.252-.206.138.028.09.178-.068.226l-.006.008zm6.938-3.948c-.414-.104-.792-.236-.84-.296-.058-.07.146-.044.606.078.98.26 1.19.456.232.218h.002zm.74-.292c-.92-.31-2.562-.414-2.626-.164-.018.06.08.074.262.05.156-.022.306-.006.336.034.084.106-.998.186-1.974.146-1.186-.046-1.432-.01-1.494.222-.038.148-.086.168-.224.092-.586-.336-1.23-.294-1.778.114-.346.26-.582.274-.408.028a.71.71 0 00.092-.368c-.024-.198-.024-.198-.206-.01-.102.1-.608.302-1.13.444-1.046.286-1.662.562-2 .894-.12.122-.272.21-.334.2-.072-.012-.056-.078.054-.178.138-.134.128-.164-.068-.198-.37-.066-.146-.216.536-.364.396-.084.678-.206.75-.32a.466.466 0 01.32-.204c.112-.006.35-.104.53-.208.316-.186.304-.186-.41-.002-.404.102-.902.22-1.1.264a6.222 6.222 0 00-.876.278c-.62.248-1.534.532-1.648.512-.05-.006.148-.11.43-.228.284-.118.778-.338 1.1-.49.324-.152.91-.32 1.3-.374.392-.05 1.232-.204 1.866-.338a33.319 33.319 0 011.538-.292c.212-.028.396-.086.406-.13.006-.044.024-.108.034-.146.006-.038-.1-.072-.236-.08-.214-.006-.172-.06.258-.268.276-.138.488-.27.468-.294-.088-.11-1.712.04-2.11.19-.492.19-.856.184-.7-.012.05-.068.074-.126.056-.13-.064-.01-1.822.224-2.078.276-1.68.344-3.028.75-3.93 1.182-.342.166-.668.266-.722.224-.056-.04-.074-.108-.05-.142.074-.094 1.244-.534 1.364-.514.058.006.538-.138 1.07-.328 1.582-.564 3.762-.934 5.872-.994 1.19-.034 1.654-.112 2.038-.34.15-.09.624-.224 1.054-.302.76-.134.826-.13 2.566.168 2.002.346 2.042.324.706-.382-1.15-.608-2.366-1.01-3.806-1.262-1.312-.23-2.498-.264-2.47-.07.006.06-.496.156-1.244.226-.694.068-1.78.224-2.414.352-.948.192-1.34.334-2.202.794-.576.306-1.186.696-1.352.864-.316.316-1.116.77-1.302.738-.058-.006-.096.046-.074.128.016.078-.036.134-.108.122-.074-.01-.344.204-.6.48a9.819 9.819 0 01-1.048.948c-1.358 1.04-2.12 1.706-2.404 2.104-.368.51-1.206 1.418-1.756 1.898-.22.192-.566.52-.768.73-.2.208-.436.368-.518.354-.268-.046-.48.156-.326.314.142.146.04.332-.122.21-.052-.034-.104-.004-.126.072-.016.078-.2.272-.4.434-.746.596-2.164 2.278-2.516 2.98-.19.378-.694 1.362-1.124 2.184-1.682 3.226-2.16 4.416-2.41 5.996-.186 1.158-.268 1.976-.266 2.584-.002.296-.018.312-.152.172-.132-.134-.156-.134-.19-.006-.074.292-.05 1.586.034 1.692.058.07.084.028.084-.126-.018-1.182.016-1.5.15-1.322.064.092.056 1.518-.018 2.09-.036.262.064.758.124.628.076-.154.102 1.498.034 1.8-.034.16-.022.298.018.306.05.006.038.172-.006.364-.122.466.058 2.33.348 3.672.392 1.806.552 2.032.47.67-.05-.86-.002-1.082.24-1.114.358-.044.742-2.864.7-5.11-.024-1.24.016-3.05.092-4.39.002-.034-.082.088-.178.276-.204.384-.418 1.728-.476 2.938-.066 1.412-.272 3.91-.35 4.214-.042.162-.024.396.02.518.102.222.144 1.206.052 1.254-.176.092-.45-3.21-.334-4.032.05-.326.092-1.02.104-1.546.006-.526.074-1.166.142-1.424.064-.258.158-.932.21-1.496.052-.566.156-1.216.236-1.446l.142-.42.018.422.016.422.116-.414c.158-.544.12-.75-.118-.648-.098.046-.174.04-.172-.002.004-.108.086-.526.206-1.086.094-.422.082-.462-.148-.454-.198.004-.222-.03-.14-.15.058-.088.356-.996.668-2.02.328-1.104.658-1.994.794-2.192a5.4 5.4 0 00.452-.854c.114-.288.326-.672.458-.854.134-.18.3-.54.368-.796.09-.336.158-.446.25-.398.082.04.244-.106.458-.414.432-.626 2.068-2.298 2.264-2.316.202-.022-.196.458-.868 1.042-.528.458-1.492 1.778-1.904 2.612-.284.574-1.586 5.242-1.584 5.682-.004.268.004.274.136.096.14-.198.36-.226.304-.038-.016.06-.11.164-.204.23-.258.182-.558 1.89-.418 2.388.1.356.12.372.212.188.142-.286.566-2.876.504-3.076-.064-.21 1.454-5.368 1.71-5.828.126-.222.036.202-.274 1.22-.308 1.022-.45 1.664-.424 1.858.02.184.002.314-.074.334-.144.046-.692 2.156-.696 2.674v.372l.126-.456c.198-.696.394-1.014.528-.878.084.088.148.04.258-.192.164-.34.152-.602-.016-.552-.182.052-.066-.192.172-.374.126-.096.172-.178.108-.188-.064-.012-.1-.08-.08-.156.016-.072.106-.122.198-.104.124.022.138.142.052.498-.576 2.342-1.33 6.748-1.192 6.918.034.04.568-1.376.786-2.072.05-.172.15-.48.212-.688.064-.206.17-.366.238-.354.086.012.016.35-.248 1.146-.252.77-.318 1.09-.23 1.01.084-.06.218-.268.306-.458.286-.61.346-.678.452-.492.064.112.146.142.28.102.12-.04.138-.066.056-.082-.096-.022-.092-.076.018-.208.166-.202.624-1.004 1.178-2.056.196-.376.524-.95.732-1.272.204-.324.602-.988.884-1.478.556-.97.862-1.396.934-1.308.024.034-.168.39-.44.796-.578.882-.612.984-.26.738.376-.256.3-.052-.184.488-.468.526-1.352 1.886-1.438 2.214-.036.124-.288.604-.562 1.07-.536.9-.67 1.234-.514 1.262.056.004.148-.068.21-.17.056-.102.13-.164.15-.136.024.034-.174.472-.432.992-.292.588-.512 1.176-.58 1.558-.058.336-.16.626-.218.642-.064.012-.122.09-.14.16-.058.212.422.03.494-.192.42-1.262.87-2.428.988-2.55a.85.85 0 00.182-.408c.022-.164.082-.236.156-.198.074.034.074.324.004.728l-.116.672.234-.27c.198-.234.212-.29.1-.388-.104-.094-.098-.1.04-.034s.22-.006.418-.374c.13-.25.242-.492.238-.536.004-.046.166-.382.376-.75.28-.488.352-.69.272-.752-.082-.06-.056-.158.102-.368.118-.156.446-.662.728-1.126.41-.67.56-.836.714-.81.134.022.29-.094.508-.378.17-.226.95-1.158 1.734-2.068.78-.912 1.44-1.732 1.464-1.822.056-.21.582-.818.694-.8.05.006.102-.05.12-.126.018-.078.284-.42.584-.762.3-.34.802-.954 1.112-1.362.548-.714.838-1.002.776-.766-.016.058-.14.242-.28.402-.45.534-.18.406.324-.152s.712-.652.404-.182c-.286.442-.12.498.554.186.546-.252.608-.336.29-.39-.182-.034-.058-.144.676-.618.494-.32 1.406-.834 2.028-1.144.62-.308 1.076-.57 1.012-.582-.13-.022.162-.34.384-.418.198-.068.21.04.018.16-.39.248.05.122.642-.186.582-.304.938-.604.484-.41-.414.178-.122-.096.378-.354.562-.29.664-.398.414-.442-.236-.04-1.93.542-3.214 1.102-1.452.638-4.43 2.492-5.444 3.39-.838.744-1.088.85-.364.154.89-.854 2.032-1.738 2.86-2.21.754-.43.888-.546.68-.584-.546-.092-3.064 1.288-3.414 1.872-.076.122-.198.21-.278.196-.086-.01-.138.046-.132.154.006.098-.05.196-.122.218-.074.022-.122-.012-.108-.066.018-.068-.082-.062-.25.022-.252.116-.244.098.088-.18 1.472-1.238 2.194-1.786 2.452-1.862a9.77 9.77 0 00.74-.268c.244-.098.682-.176.972-.168.446.004.728-.086 1.81-.604a48.347 48.347 0 012.198-.99c.902-.368 1.62-.79 1.668-.978.018-.052.066-.088.118-.08.084.012 1.466-.51 1.928-.73.108-.05.382-.146.606-.21.516-.146.38-.268-.286-.262-1.708.022-5.272.986-5.594 1.52-.086.14-.298.24-.644.304-.288.05-.554.088-.592.08-.04-.006-.318.076-.618.184s-.61.166-.684.13c-.082-.04.04-.118.328-.196.256-.072.474-.158.482-.194.006-.034.156-.098.322-.138.168-.04.324-.146.346-.236.022-.09.106-.152.188-.138.08.012.454-.088.832-.226 1.474-.538 2.1-.736 2.8-.878.4-.082.758-.17.794-.194.2-.128 1.558-.2 2.306-.12.72.076 1.01.05 1.832-.138.908-.212 1.67-.31 2.478-.318.328-.004.33-.004.136-.172-.11-.094-.472-.264-.808-.376l.04-.02zm.63-1.558c-.27-.044-.18.168.148.352.182.102.378.26.44.35.056.09.16.17.23.18.166.03-.642-.85-.818-.882zm.19 2.58c-.082.012-.018.046.124.07.15.028.216.022.148-.022a.461.461 0 00-.272-.046v-.002zm3.852 3.8c-.138-.028-.208.246-.114.446.056.116.09.084.148-.138.04-.158.024-.298-.034-.308zm-8.75 6.506c-.17-.028-.49-.336-.394-.386.04-.022.178.062.296.182.12.122.164.214.1.206l-.002-.002zm.492.368c-.088-.012-.176-.066-.198-.12-.016-.05.05-.05.166-.004.244.096.258.164.034.126l-.002-.002zm-.156 2.766c-.186-.03-.802-.592-.878-.804-.042-.106-.036-.188.016-.18.134.028.992 1 .864.982l-.002.002zm.84.664c-.174-.108-.336-.246-.362-.308-.06-.134.218.046.494.324.17.17.16.168-.132-.022v.006zm8.186 3.22c-.056-.006-.252-.28-.432-.596-.178-.318-.454-.67-.612-.782a13.296 13.296 0 01-2.25-1.988c-.804-.896-1.048-1.25-.954-1.378.034-.046.508.424 1.056 1.046.732.832 1.222 1.282 1.848 1.702.762.506.886.636 1.172 1.214.326.662.36.814.172.782zm.198.548c-.076.01-.11.088-.09.152.014.066-.018.028-.092-.086-.204-.324-.022-.628.222-.374.144.148.13.256-.05.306l.01.002zm2.29-1.752c-.058-.038-.238-.354-.41-.698-.172-.342-.632-1.07-1.026-1.618-.39-.548-.678-1.014-.636-1.034.176-.094 1.606 1.81 1.9 2.526.306.752.352.964.172.824zm.946-.876c-.562-1.564-.978-2.412-1.982-4.06a41.895 41.895 0 01-1.026-1.754l-.266-.512-.724-.152c-.398-.082-.73-.134-.732-.12-.006.046.982 2.362 1.376 3.216.148.32.264.606.258.636-.052.174-.406-.434-1.018-1.726-1.134-2.39-1.006-2.196-1.656-2.48-.726-.314-1.962-1.132-2.302-1.526-.458-.524.12-.34.774.246.176.158.622.426.99.598.758.348 2.594.796 2.746.668.222-.188-1.416-2.29-2.166-2.782-.198-.13-.366-.27-.378-.31-.006-.04-.19-.188-.402-.328-.212-.138-.366-.314-.346-.39.016-.076.064-.118.11-.092.038.03.234.146.432.266.992.598 2.448 2.09 2.93 3 .128.24.372.62.544.844.174.226.41.572.526.774.214.364 1.11 1.136 1.24 1.068.04-.024-.022-.176-.136-.348-.458-.696-.948-2.556-.938-3.554.002-.298-.466-.706-.9-.78a.77.77 0 01-.44-.276c-.242-.344-1.246-1.132-1.5-1.176-.124-.022-.366.034-.54.116l-.314.156.134-.232c.118-.194.106-.238-.072-.27-.31-.05-.952.03-.978.122-.006.044-.092.068-.178.05-.182-.034-.646.354-.95.782-.116.166-.464.498-.776.734s-.578.484-.596.552c-.018.068.124.196.318.288.486.23 1.18 1.212 1.63 2.308.272.66.704 1.354 1.554 2.498.646.87 1.17 1.614 1.16 1.654-.04.156-.406.1-.908-.144-.69-.33-2.244-.668-3.15-.684-1.234-.022-1.192-.044-.76.514.304.4 1.078 1.592 1.558 2.404.04.076.034.154-.018.18-.112.06-.94-.946-1.444-1.762a7.248 7.248 0 00-.906-1.134c-.284-.278-.808-.96-1.168-1.516-.626-.97-1.022-1.402-1.698-1.85-.39-.258-.384-.396.016-.366.458.034 1.434 1.006 2.036 2.026.502.848.88 1.014 2.682 1.174.948.086 1.596.19 2.114.338.866.254.868.318-.036-.9-.894-1.202-1.168-1.67-1.512-2.594-.354-.954-.646-1.388-1.314-1.952l-.464-.396-1.008.5c-.556.276-1.316.606-1.688.734-.756.258-2.246.998-3.454 1.712-.692.41-1.962 1.532-2.03 1.792-.018.052.268.142.662.21.536.092.824.202 1.328.514.79.488 1.104.846 1.25 1.436.072.284.282.634.576.936l.464.484.894.14c.956.15 1.824.088 1.732-.12-.034-.072-.004-.086.052-.04.064.046.674.24 1.368.43.692.19 1.34.388 1.436.44.106.05.186.05.202-.006.04-.144.388.094.768.532l.302.344-.152-.364c-.086-.2-.146-.39-.138-.422.04-.146.612.368 1.166 1.044.718.882 1.814 1.658 3.012 2.13.444.176.828.31.852.298.016-.012-.052-.166-.166-.342-.114-.174-.198-.358-.184-.408.016-.05-.018-.11-.058-.136-.112-.066-.49-.856-.714-1.504-.37-1.074-1.01-2.056-1.886-2.902-.204-.194-.332-.374-.286-.4.156-.088.604.23 1.19.844.324.34.684.634.802.656.12.022.296.18.398.358.436.764.796 1.152 1.13 1.208.372.068 1.566.66 2.012 1.004.162.126.332.21.374.188.11-.06-.1-.806-.654-2.352l.014.016zm-1.062 9.29c-.058-.006-.168-.17-.25-.356-.082-.186-.326-.488-.536-.672-.372-.318-1.782-1.184-1.99-1.22-.056-.006-.386-.246-.732-.526-.768-.614-1.51-1.164-1.598-1.178-.108-.024.248.974.658 1.844.518 1.09.706 1.224 2.422 1.71a102.2 102.2 0 011.732.502c.216.072.354.074.372.006.016-.05-.024-.106-.076-.116l-.002.006zM46.6 20.88c-.714-2.086-1.01-2.528-2-3.01a4.812 4.812 0 01-.766-.494 2.824 2.824 0 00-.696-.41c-.338-.12-.346-.116-.336.148.022.694.236 1.39.712 2.338.288.568.51 1.078.494 1.132-.018.052.104.146.262.202.16.052.5.326.758.6.328.346.608.542.922.642.25.078.538.218.638.304.1.088.25.172.33.186.218.04.166-.23-.318-1.638zm-.708 16.552c-.384-.55-.924-1.218-1.206-1.486-.462-.444-.63-.53-1.908-.994-1.402-.508-2.41-.822-2.426-.758-.006.024.328.272.742.56.412.288.96.718 1.214.954.68.632 1.892 1.518 2.746 2.008.41.234.916.524 1.12.644.206.118.384.184.394.144.006-.038-.294-.522-.676-1.072zm3.986-5.962c-.034-.372-.138-.864-.232-1.094-.34-.846-1.148-2.002-1.978-2.826-.772-.77-1.904-1.596-2.268-1.66-.286-.044.47 1.76 1.152 2.758.366.534.776 1.19.914 1.454.136.266.386.578.552.694.166.116.568.5.892.852.772.842.914.944.982.69.02-.108.02-.498-.018-.868h.004zm-12.54-.592c-.066.01-.386-.246-.728-.584-.342-.338-.706-.654-.81-.7-.106-.046-.18-.124-.166-.17.006-.046-.064-.1-.172-.118-.386-.066-2.582-2.138-2.38-2.246.096-.05.37.17 1.034.83.636.628.708.682 1.554 1.174.816.472.914.542 1.23.866.34.352.596.902.44.948h-.002zm17.274 4.19c-.43-.842-.97-1.802-1.204-2.132-.454-.648-.484-.778-.172-.786.154-.002.022-.22-.552-.918-.766-.926-1.086-1.486-1.012-1.774.068-.238-.158-.818-.574-1.516-.566-.952-2.644-3.656-2.978-3.878-.296-.196-.296-.196-.302.044-.002.134-.024.24-.04.236-.082-.012-.258-.664-.258-.93 0-.226-.056-.296-.316-.362-.75-.196-2.428-1.142-2.472-1.396-.018-.098-.06-.106-.198-.04-.096.046-.206.082-.242.076-.036-.006-.438-.368-.884-.804-1.192-1.158-1.31-1.114-.426.16.562.81 1.504 2.626 1.94 3.74.156.396.296.57.564.7.878.428 3.168 2.538 3.678 3.396.204.34.398.584.43.54.13-.176.016-1.404-.186-2.118-.228-.788-.162-1.122.172-.892.432.296.646 1.364.506 2.536-.05.462-.064.888-.032.948.032.062.074.236.074.388.002.15.08.404.164.562.084.16.114.324.064.366-.038.04-.056.358-.018.706.118 1.04-.098 1.402-.618 1.046-.12-.08-.466-.438-.774-.79a10.148 10.148 0 00-1.056-1.048c-.546-.438-.818-.782-1.134-1.424-.294-.602-.624-.958-1.114-1.202a3.577 3.577 0 01-.734-.498c-.52-.492-1.64-1.12-2.294-1.288-.34-.086-.624-.136-.63-.108-.006.028.148.424.346.876.45 1.022 1.896 2.884 2.702 3.484.316.234.932.746 1.368 1.134.432.39 1.126.898 1.538 1.13 1.64.92 2.652 1.71 2.574 2.008-.038.168-.23.074-.878-.438-.346-.274-1.06-.732-1.582-1.016-1.148-.624-1.612-.96-2.164-1.562-.648-.706-1.338-1.326-1.786-1.598-.222-.138-.74-.46-1.144-.716-.406-.258-1.22-.7-1.808-.984-1.406-.684-2.092-1.16-2.592-1.804-.272-.348-.484-.526-.618-.522-.116.004-.316-.11-.452-.248a1.718 1.718 0 00-.562-.364c-.174-.06-.668-.242-1.096-.4-.736-.274-.846-.292-1.922-.324a28.215 28.215 0 01-2.112-.156c-.534-.072-.978-.094-.988-.06-.016.066.658 1.428.858 1.738.052.086.178.518.27.956.134.63.256.898.588 1.266.616.686 2.19 1.758 3.116 2.122 1.09.428 1.868.938 2.544 1.662.316.34.602.604.634.588.04-.012-.098-.43-.292-.916-.488-1.236-.7-2.188-.674-3.066.022-.8-.084-1.23-.498-2.038-.14-.278-.226-.52-.192-.54.266-.14.942 1.384 1.01 2.276l.058.726.84.728c1 .868 2.094 1.616 2.856 1.95.728.318 1.088.674 1.608 1.576.448.774.792 1.148.852.922.018-.066-.14-.418-.35-.782-.404-.706-1.48-2.85-1.712-3.41-.174-.424-.016-.52.286-.174.258.296 1.58 2.908 1.544 3.048-.018.05.092.182.24.294.142.116.376.324.516.464.298.298.686.396.934.236.236-.152.984-.006 1.474.288.218.13.852.758 1.414 1.392 1.362 1.55 2.766 2.948 3.09 3.076.262.106.886.642 1.96 1.692.318.312.612.554.646.534.042-.022-.002-.486-.088-1.038-.1-.656-.11-1.164-.032-1.478.202-.792.182-.826-.71-1.254-.442-.212-.87-.398-.95-.412-.082-.012-.372-.17-.646-.346-.47-.304-.514-.376-.82-1.346-.176-.564-.414-1.166-.526-1.336-.198-.304-.22-.612-.038-.582.21.04.662.9.99 1.9.106.324.296.706.422.85.28.326 1.974 1.048 2.024.862.104-.406-.35-1.194-.906-1.568-.516-.346-1.32-1.396-1.458-1.906-.074-.27-.35-.964-.614-1.546-.262-.58-.446-1.072-.408-1.094.112-.058.324.366.874 1.73.66 1.64.92 2.046 1.584 2.466.624.398 1.104 1.044 1.156 1.562.016.196.104.436.19.53.14.158.192.158.624.012.26-.086.518-.148.576-.138.15.028-.166-.702-1.062-2.466l.002.01zm15.77 29.128c-.058-.006-.142-.118-.184-.24-.074-.224-.074-.222.114-.006.21.232.224.28.064.254l.006-.008zm1.28 1.99c-.196-.034-2.312-2.564-2.726-3.264-.308-.52-.572-1.128-.538-1.252.032-.114.318.022.454.208.082.112.222.194.312.182.1-.01.154.036.132.116a.21.21 0 01-.168.148c-.244.028.05.57.786 1.466.396.478.692.802.66.72-.05-.13-.034-.13.098.01.088.086.132.17.1.188-.04.012.158.32.424.674.448.598.58.83.464.81l.002-.006zm.99.224c-.62-1.416-3.668-5.624-4.134-5.704-.082-.012-.326.312-.582.772-.112.202-.154 1.452-.05 1.632.016.034.094-.01.176-.088.212-.196.304-.082.382.478.05.354.21.66.586 1.124.286.35.582.646.66.66.08.012.186.094.238.178.16.246 2.898 1.658 2.936 1.512.006-.028-.088-.282-.21-.564h-.002zm1.48 2.248c-.064-.012-.09.028-.064.084.014.06.09.108.154.118.064.012.09-.028.064-.082-.018-.05-.094-.108-.154-.12zm3.24 4.234c-.642-.866-1.008-1.148-1.634-1.254-.498-.086-1.224-.7-1.506-1.274-.262-.532-.826-.896-1.742-1.126-.524-.13-.638-.138-.668-.022-.052.196 1.078 1.454 1.746 1.942.814.598 1.454 1.112 3.152 2.532.288.242.904.52 1.054.476.304-.09.178-.496-.402-1.276v.002zm2.922 20.418c-.088-.258-.594-.912-.554-.718.056.3.426 1.144.504 1.158.136.022.156-.136.052-.44h-.002zm.806 2.478c-.17-.006-.038.034.292.09.332.06.472.06.312.012a3.199 3.199 0 00-.606-.104l.002.002zm4.59-.678c-.526.04-.988.142-1.366.304-.8.342-.092.364.994.034.622-.192.818-.368.372-.336v-.002zm1.422-4.512c-.684-1-.91-1.458-1.146-2.32-.11-.4-.332-.914-.494-1.142a4.716 4.716 0 01-.506-1.026c-.292-.842-.832-1.268-2.072-1.636-.254-.07-.956-.43-1.562-.79-.604-.362-1.132-.638-1.174-.618-.104.052.236 1.094.52 1.58.566.966 1.976 2.344 2.486 2.432.086.01.32.302.518.642.372.626.424.67 1.124.894.438.144.978.662 1.122 1.09.152.452-.108.382-.424-.114-.294-.462-.602-.654-1.5-.932-.54-.168-.65-.066-.648.62.002 1.018.404 1.992 1.322 3.216.416.552.848.95 1.074.99.04.006-.102-.226-.318-.518-.218-.29-.39-.552-.382-.578.034-.134.282.04.658.462.724.816.728.818.75.422.024-.338.024-.342.306-.23l.284.11.074-.588c.05-.368.132-.64.232-.732.304-.272.258-.502-.246-1.238l.002.004zM71.054 67.85c-.246-.04-1.392-.656-1.684-.904-.182-.154-.378-.29-.428-.298-.118-.022-.528-.634-.498-.746.05-.184.36 0 .812.48.264.278.802.708 1.194.952.662.41.83.556.606.516h-.002zm-.676.738c-.338-.434-.572-.81-.522-.836.102-.05.98 1.116 1.076 1.428.034.108-.216-.158-.554-.592zm8.992 9.914c-.084-.012-.384-.236-.666-.488-.5-.448-1.438-1.108-1.514-1.068-.018.012.142.354.366.758.434.782 1.18 2.394 1.154 2.49-.052.188-.258-.092-.76-.992-.978-1.772-1.544-2.326-3.252-3.188-1.07-.54-1.9-1.14-2.314-1.676-.632-.814-.94-2.648-.43-2.56.106.024.154.172.142.44-.034.618.27 1.444.722 1.992.434.528 1.016.912 2.578 1.706.794.404 1.024.488 1.12.406.096-.08.238-.028.684.256 1.174.748 2.588 2.002 2.168 1.924h.002zm-1.066 3.538c-.706-.924-1.674-2.482-1.792-2.88-.05-.174-.138-.354-.194-.396-.258-.2-.38-1.316-.14-1.274.052.006.218.368.38.804.164.436.758 1.572 1.32 2.526.562.954 1.01 1.778.994 1.83-.018.052-.272-.22-.568-.608v-.002zm5.936 12.22c-.25-.174-.824-.996-.726-1.046.088-.044.956.978.924 1.094-.006.04-.1.022-.198-.046v-.002zm1.386-.518c-1.752-1.158-2.748-2.826-2.76-4.62-.006-1.172-.084-1.26-.834-.982-.236.088-.512.144-.612.128-.3-.052-1.246-.882-2.204-1.936a44.897 44.897 0 00-1.476-1.55c-.314-.304-.826-.95-1.138-1.436-.312-.488-.748-1.054-.968-1.264-.416-.394-.53-.796-.384-1.366.186-.72.468-.696.382.04-.064.532-.052.566.64 1.45.386.496.974 1.26 1.304 1.692.634.834 2.01 2.348 3.126 3.442l.67.654.5-.11c.276-.06.686-.088.91-.06.222.034.402.012.396-.022a.618.618 0 01.018-.196c.018-.068-.304-.36-.714-.648-.412-.288-.962-.774-1.224-1.08-.632-.744-1.394-1.98-1.594-2.582-.16-.492-.074-.836.208-.788.082.01.736.394 1.46.848.728.454 1.494.884 1.708.954l.384.128-.1-.59c-.12-.696-.892-2.05-1.976-3.464-.406-.532-.832-1.148-.942-1.37-.178-.356-.21-.38-.288-.21-.096.208-.034 1.18.088 1.37.418.656 1.308 2.378 1.246 2.41-.158.078-1.332-1.674-1.562-2.328-.36-1.026-.4-1.442-.174-1.71.182-.214.16-.266-.458-1.09-.354-.478-.634-.918-.618-.98.112-.432-.816-1.96-1.24-2.04-.324-.06-.87-.452-2.296-1.638-.69-.574-1.594-1.324-2.01-1.666-1.062-.876-1.774-1.766-1.688-2.106.076-.284.128-.294.896-.13.972.208 1.49.518 2.148 1.288l.626.736.016-.372c.018-.426-.586-1.304-.868-1.266-.184.022-.598-.396-.556-.56.052-.192-.46-.972-.848-1.298-.216-.182-.712-.478-1.104-.66-1.42-.662-2.504-1.424-3.154-2.22-.498-.61-.602-.696-.596-.494 0 .132.034.31.056.394.024.084.066.496.084.918.036.826.3 2.078.498 2.352a.484.484 0 01.074.35c-.074.28.552 2.176.728 2.206.084.01.558.58 1.052 1.26.78 1.076.98 1.418.808 1.39-.024-.004-.414-.428-.866-.94-.454-.512-.85-.916-.884-.9-.038.012.222.952.562 2.074.344 1.124.852 2.944 1.132 4.042.28 1.098.814 3.024 1.188 4.278.374 1.256.842 3.056 1.036 4 .198.944.456 1.984.574 2.31.204.552.276.632 1.066 1.16 1.04.698 1.312.932 1.168 1.01-.056.032-.482-.188-.936-.488-.458-.302-.868-.53-.912-.506-.11.06.346 1.866.658 2.62.25.606 1.356 1.998 2.092 2.628.364.314.448.344 1.338.472 1.874.268 2.188.13 1.586-.7-.37-.508-1.132-2.066-1.166-2.384a.687.687 0 00-.154-.336c-.064-.074-.084-.184-.032-.248.05-.068.05-.19-.006-.278-.102-.156-.886-.848-.98-.864-.034-.006-.582-.482-1.238-1.06-1.344-1.188-1.952-1.874-2.208-2.486-.096-.232-.266-.464-.374-.514-.236-.108-.248-.046.18-.884.558-1.076.586-1.33.26-2.268a5.143 5.143 0 01-.29-1.76c-.004-.846-.194-1.93-.524-2.978-.064-.216-.298-.654-.514-.974-.216-.318-.43-.69-.474-.826-.052-.138-.28-.532-.516-.88-.236-.35-.52-.816-.63-1.04-.212-.426-.206-.776.016-.678.118.052 1.252 2.246 1.522 2.942.126.324.394.466.334.176-.072-.34-.004-.8.102-.718.262.202 1.036 3.588 1.17 5.1.038.492.188 1.25.324 1.686.24.772.24.814.004 1.466-.13.368-.366.852-.516 1.076a6.96 6.96 0 00-.282.428.64.64 0 00.2.058c.128.024.296.222.434.518.122.264.374.66.556.878.432.51 1.892 1.832 2.834 2.562.794.612 1.006.888 1.436 1.848.152.338.406.73.568.872l.292.258.088-.336c.116-.45.214-.27.264.476.022.338.128.766.238.952.164.278.166.33.016.304-.144-.028-.178.03-.172.228.018.408.206.71.472.756.328.05 1.696.106 1.774.066.04-.024.016-.09-.04-.162-.056-.07-.072-.228-.04-.348.034-.132-.118-.524-.368-.954-.234-.402-.49-.932-.568-1.176-.366-1.134-.848-1.92-2.228-3.616-1.656-2.038-2.068-2.362-3.558-2.784-1.236-.35-1.322-.392-1.102-.534.18-.114.736-.01 2.198.406l.506.148-.098-.286c-.114-.324-.064-.644.082-.532.056.04.154.25.226.466.16.482.81 1.416 2.374 3.412 1.054 1.344 1.278 1.704 1.776 2.874.566 1.332 1.364 2.604 1.744 2.778.208.098 1.556.06 2.344-.06.602-.094.526-.202-.686-1.006l-.012-.002zm2.404-1.45l-.218-.736-.238.89-.24.892.268-.282.268-.28-.102.514c-.064.338-.18.598-.336.754-.15.148-.202.264-.148.31.268.206.798-.34.89-.92.034-.224-.034-.738-.152-1.144l.008.002zm-.554 7.64a.854.854 0 00-.27.046c-.15.044-.138.066.056.102.136.028.258.004.27-.046.006-.044-.006-.094-.056-.102zM10.094 39.898c-.052-.034-.066-.162-.034-.268.056-.188.056-.188.106-.002.066.268.04.354-.074.268l.002.002zm.578-1.344c-.064-.012-.098-.066-.084-.114.016-.05.066-.06.12-.022.056.04.09.092.086.112-.006.028-.058.034-.122.024zm-.254 1.564a.275.275 0 01.06-.224c.05-.05.056.004.02.122-.032.124-.064.168-.084.102h.004zm-.466 2.086c-.056-.04-.084-.114-.072-.164.016-.05.064-.06.116-.012.058.04.084.114.076.164-.006.046-.068.06-.12.012zm-.82 4.936a.661.661 0 01-.006-.412c.088-.342.134-.26.108.198-.006.264-.04.326-.098.214h-.004zm-.022.51c-.058-.04-.086-.112-.074-.158.006-.046.074-.076.13-.066.068.01.094.084.074.158-.016.076-.074.106-.13.066zm.122 1.454c-.14-.14-.112-.382.032-.356.06.006.096.122.092.25-.004.188-.032.208-.126.106h.002zm.592-1.286c-.024-.004-.06-.076-.076-.156-.006-.084.018-.118.066-.076.092.07.094.248.006.232h.004zm.274.82c-.056-.072-.072-.154-.032-.174.038-.022.088.04.106.134.024.136.018.146-.072.04h-.002zm-.402 2.624c-.018-.07.004-.146.05-.17.04-.022.058.04.022.128-.032.102-.064.12-.072.04v.002zm.936.238c-.116-.024-.242-1.052-.138-1.11.058-.034.288.96.254 1.086-.006.028-.056.034-.116.024zm.124.392c-.066-.01-.1-.066-.086-.112.018-.052.066-.06.122-.022.056.04.09.09.084.112-.004.022-.056.034-.12.022zm-.05.418c-.066-.108-.084-.216-.042-.238.088-.044.222.218.184.35-.018.046-.074-.006-.14-.112h-.002zm.336.938c-.036-.006-.084-.098-.122-.206-.058-.16-.04-.182.088-.114.138.072.168.344.04.322l-.006-.002zm.08.98c-.116-.452-.114-.8.006-.78.116.024.204.664.126.918-.034.118-.082.076-.13-.136l-.002-.002zm1.868 5.83c-.056-.04-.074-.142-.056-.224.034-.13.052-.13.112 0 .094.198.066.316-.056.222v.002zm42.906-15.594c-.1-.012-1.364-.758-2.812-1.648-1.444-.888-2.67-1.624-2.72-1.632-.058-.004-.164-.118-.254-.244l-.158-.228.312.122c.174.066 1.224.686 2.336 1.38 1.112.692 2.246 1.39 2.52 1.55.618.362 1.038.742.776.7zm-27.822-14.84c-.454-.19-.924-.426-1.046-.524-.538-.436-1.932-1.046-1.97-.862-.052.2 3.38 1.854 3.744 1.808.214-.03.198-.04-.728-.422zm7.114 3.392a58.004 58.004 0 01-1.694-1.308 17.823 17.823 0 00-1.326-.978c-.494-.314-.6-.35-.83-.284-.22.068-.32.04-.652-.152l-.392-.234-.764.166c-.894.196-1.056.178-2.004-.23-.392-.17-.734-.298-.76-.284-.018.01.334.326.8.694 1.072.85 1.924 1.188 4.422 1.75 2.148.484 2.132.48 3.204 1.126.458.276.85.506.872.51.16.028-.068-.168-.878-.772l.002-.004zm1.386 1.032c-.222-.122-.312-.138-.396-.066-.086.07-.244.024-.654-.202-1.446-.784-1.928-.97-3.514-1.346-1.372-.326-2.724-.732-3.346-1.002-.678-.298.38 1.072 1.252 1.622.388.244.934.656 1.212.918l.508.474 1.02.114c1.038.118 3.918.206 4.462.138l.296-.04-.276-.226a4.657 4.657 0 00-.564-.388v.004zm-.018 7.736c-.922-.372-1.162-.418-1.704-.334-.362.052-.426.104-.496.376-.038.17-.142.326-.206.348-.076.01-.108.006-.082-.034.098-.158-.036-.502-.206-.532-.102-.022-.684.248-1.292.592-1.214.686-1.226.726-.268.904.4.074.562.044.904-.124.264-.134.66-.222 1.082-.238.612-.028.68-.006.832.156.202.226.584.23 1.098.012.228-.096.66-.146 1.154-.134.436.012.848.004.918-.022.178-.05-.808-.612-1.73-.982l-.004.012zm2.696 6.814c-.178-.222-.892-.478-1.43-.51-.298-.022-.24.04.534.52.474.296.888.542.918.548.14.028.13-.372-.024-.556l.002-.002zm16.526 1.46c-.51-.244-2.96-.844-3.564-.872-.824-.04-3.534.596-3.598.844-.024.104 2.728.528 4.388.68.726.066.798-.078.102-.2-.196-.036-.348-.094-.338-.14.036-.124 1.224.002 2.098.22.764.19.816.194 1.062.022.342-.236.314-.334-.15-.554zM22.172 34.35c-.25-.07-1.124-.274-1.946-.45-1.074-.232-1.486-.35-1.466-.428.018-.07-.214-.174-.632-.286-.768-.2-.854-.264-.516-.386.312-.116.628-.062 1.376.242.33.134 1.236.414 2.014.622.78.21 1.476.438 1.544.51.234.242.092.31-.374.176zm2.44 4.644c-.086-.012-.494-.21-.906-.434-1.442-.784-2.014-.952-4.998-1.464-2.804-.484-3.348-.658-2.038-.654.94.002 3.176.394 4.66.814 1.118.318 2.934 1.022 3.358 1.302.206.136.146.476-.082.436h.006zm1.178-.012c-1.916 1.032-1.994 1.042-4.384.624-1.404-.246-2.316-.46-3.404-.796-1.942-.6-2.066-.646-2.036-.758.032-.122 1.668.258 2.852.664 1.222.42 4.308.952 4.924.852.248-.04 1.074-.388 1.832-.772 1.242-.628 1.636-.778 1.588-.602-.006.034-.626.386-1.372.79v-.002zm2.22 3.774c-.232-.136-.784-.378-1.228-.54-.8-.294-.816-.296-1.94-.26a28.7 28.7 0 00-1.356.07c-.166.03-.202 0-.142-.084.052-.066.316-.136.6-.162.286-.028.464-.068.4-.1-.102-.044-1.136.036-1.968.156-.418.06.09-.21.61-.324 1.346-.294 4.388.366 5.28 1.148.348.302.2.358-.254.096h-.002zm9.602-5.762a21.594 21.594 0 00-1.752-.866c-1.148-.468-1.042-.608.152-.2.564.192 2.53 1.354 2.614 1.546.018.06-.43-.158-1.014-.48zm1.506 8.312c-.128-.028-.148-.05-.05-.06.086-.012.178.004.208.04.022.034-.052.046-.158.022v-.002zm2.798.74c-.234-.074-.788-.108-1.486-.082a9.452 9.452 0 01-2.05-.126c-.516-.088-1.114-.144-1.33-.116-.31.034-.53-.004-1.034-.182-.754-.268-1.724-.816-1.69-.952.018-.06.166-.012.402.116.704.402 5.038 1.108 5.454.89.074-.038.266-.05.418-.028.154.028.42.012.588-.034.52-.136.844-.028.98.322l.124.312-.376-.12zm6.602-3.216c-.082-.012-.236-.104-.344-.196-.226-.198-2.58-1.246-3.734-1.664-.82-.298-1.128-.472-.974-.554.142-.074 2.522.838 3.934 1.508.926.44 1.276.652 1.272.77-.006.088-.074.15-.154.136zm-7.106-2.386c-.064-.136-.14-.494-.172-.796-.05-.482-.112-.6-.548-.978-.522-.454-1.158-.71-1.75-.706-.368.004-2.214.486-2.242.586-.04.154.77.992 1.2 1.242.884.518 2.806 1.078 3.424.998.232-.034.236-.04.088-.348v.002zm9.108 3.942c-.094-.012-.428-.186-.742-.374-.74-.448-1.76-.692-2.82-.676-.432.006-1.384-.068-2.118-.162-1.324-.172-1.332-.176-1.758-.514a6.893 6.893 0 01-.85-.868l-.424-.53-1.51-.262-1.512-.262-1.116-.728c-.926-.602-1.158-.808-1.356-1.184-.272-.512-.814-.954-.876-.714-.056.206-.428.224-1.97.086-1.86-.164-6.42-.882-6.39-1.008.018-.058.604.006 1.658.19 1.732.298 2.666.39 2.696.264.034-.11-.824-.642-1.498-.934-1.246-.538-3.744-1.046-5.714-1.162-.538-.034-.626-.18-.172-.288.462-.11 1.578.028 3.2.39 1.866.418 3.086.864 4.058 1.486l.71.456 1.282.11c2.076.18 2.048.202.79-.66a44.215 44.215 0 00-1.742-1.138c-.964-.578-1.06-.662-.868-.764.2-.108 1.07.378 2.19 1.232 1.072.812 1.378.976 1.712.916.232-.04.336.028.748.456l.48.504.478-.216c.498-.224 2.102-.442 2.604-.354.156.028.558.228.894.446.712.46 1.05.98 1.118 1.728.05.532.134.712.836 1.74.626.922.948 1.15 1.686 1.21.322.028 1.04.088 1.596.138.554.046 1.16.07 1.346.04.56-.08 2.156.288 2.68.62.514.324.952.832.674.784v.002zm6.826 4.75c-.588-1.052-1.74-2.028-4.458-3.776-1.22-.784-2.53-1.68-2.91-1.992-.384-.312-.81-.644-.948-.74a15.842 15.842 0 01-2.076-1.714 5.88 5.88 0 00-1.342-1.004 50.403 50.403 0 01-1.626-.92c-.49-.29-.934-.516-.99-.5-.166.046-.392 1.124-.336 1.616.022.256.052.478.052.49a.572.572 0 01-.178-.004c-.098-.024-.22-.222-.288-.48-.094-.366-.074-.592.122-1.214l.232-.764-.88-.578a33.202 33.202 0 00-1.282-.804 11.81 11.81 0 01-.88-.582c-.648-.474-1.51-1.01-1.674-1.038-.074-.01-.55.074-1.06.192-.508.116-1.078.188-1.262.156-.374-.066-.408-.196-.082-.286.33-.088-.246-.172-1.408-.202-1.872-.05-3.134-.382-5.152-1.352-1.206-.58-1.224-.584-1.268-.408-.018.072-.27.17-.56.218-.388.066-.698.222-1.2.596-.832.62-1.462.836-4.156 1.426-1.138.248-2.314.51-2.616.584-.688.164-1.97.084-1.918-.12.022-.094.212-.116.68-.076.532.044 1.144-.052 3.532-.582 3.074-.676 3.248-.742 4.578-1.722.254-.188.638-.374.848-.414.214-.04.398-.1.406-.136.006-.034-.176-.15-.418-.256-.498-.22-1.752-.45-3.146-.574a6.734 6.734 0 01-1.846-.398c-1.258-.436-2.238-.878-2.358-1.062-.148-.228.04-.178 1 .264.438.204 1.256.5 1.812.658.884.25 1.11.28 1.786.258.426-.01.972.006 1.214.052.528.092 1.822.588 2.866 1.096.42.206 1.046.48 1.39.61.344.132.712.284.818.34.402.214.074-.152-.694-.77-.426-.344-1.208-1.14-1.736-1.768-.528-.628-1.178-1.3-1.442-1.492a4.796 4.796 0 01-.782-.736c-.168-.21-.768-.704-1.332-1.098-.564-.394-1.106-.788-1.202-.878-.17-.158-.168-.162.064-.126.134.022.462.154.726.296.266.14.858.392 1.32.56.46.168 1.284.574 1.828.906.922.562 1.052.612 1.902.762.712.124.95.136 1.078.04a.813.813 0 01.326-.134c.174-.024-2.1-1.466-2.968-1.892-.29-.144-.792-.396-1.116-.562-.784-.402-2.048-.648-2.534-.496-.224.07-.53.074-.872.006-.412-.076-.586-.066-.806.06-.356.202-1.288 1.002-1.322 1.134-.018.06.176.134.462.184 1.118.192 2.93 1.408 4.046 2.712.366.43.634.8.596.822-.04.022-.476-.336-.97-.794a18.016 18.016 0 00-1.794-1.44c-.796-.536-.99-.626-1.726-.788-.966-.214-1.23-.178-1.66.234-.168.162-.43.376-.58.48-.15.102-.368.358-.488.568-1.244 2.212-1.576 2.872-1.914 3.796A25.7 25.7 0 0116 35.472c-.55 1.182-.896 2.574-.822 3.32.036.332.024.974-.02 1.428-.124 1.196-.124 3.084-.004 3.558.056.226.354.75.668 1.166.31.416.598.906.642 1.092.072.332.09.34.732.45.36.06 1.42.204 2.354.312.936.106 2.5.292 3.478.406.98.114 2.56.286 3.514.378.952.094 2.678.306 3.832.474 3.688.534 7.18.998 7.562 1.006.204.006.38-.022.388-.06.006-.04-.254-.23-.586-.426-.47-.276-.7-.36-1.022-.368-1.124-.028-1.822-.154-2.526-.468-.834-.374-1.42-.49-2.004-.398-.234.034-.978.028-1.656-.024-1.096-.076-1.288-.066-1.74.118l-.508.206-.214-.29c-.122-.158-.372-.63-.562-1.046-.432-.952-.632-1.228-.922-1.276-.36-.06-1.008.034-1.698.246-1.378.426-5.48.864-5.912.634-.154-.08-.15-.096.064-.176.128-.046.446-.08.704-.07 1.048.04 4.94-.628 4.998-.854.04-.14-.32-.418-1.002-.772-.392-.202-.906-.566-1.144-.81a9.61 9.61 0 00-.756-.692l-.324-.252-.766.166c-.746.16-1.62.424-3.374 1.022-.92.312-1.424.324-1.348.028.024-.096.138-.18.25-.19.456-.04 3.186-.882 3.248-1.004.132-.256-1.056-.674-2.762-.97-1.34-.234-1.534-.284-1.53-.422.004-.268.474-.298 1.306-.084.936.238 2.068.638 2.504.884.684.382 1.054.45 1.674.306.928-.216 1.176-.126 1.914.698.72.806 1 1.016 1.602 1.21.23.074.53.234.666.352.384.334.732.442.952.292.292-.196 2.378-1.252 2.582-1.306.396-.104.244.096-.362.476l-.644.402.672-.068c.482-.046.936-.022 1.612.104l.942.17-.95-.04c-1.236-.05-2.366-.004-2.972.132l-.488.108.498.134c.63.168.72.27 1.056 1.142.426 1.106.446 1.134.906 1.064.212-.034.92-.028 1.57.022.65.04 1.616.066 2.144.046l.96-.034.842.378c.462.206 1.004.432 1.202.502l.36.13-.222-.34a3.534 3.534 0 00-.576-.63c-.192-.16-.564-.564-.824-.9-.468-.608-2.242-2.078-2.572-2.134-.096-.012-.194-.076-.218-.13-.092-.206.538.006 1.084.364.852.558 1.77 1.408 2.776 2.57.902 1.044 1.008 1.116 1.572 1.078l.292-.022-.27-.168c-.302-.19-.336-.38-.04-.246.458.21 2.434.696 3.736.92 1.682.286 3.952.422 4.198.25.166-.116.608.002.57.152-.082.298-1.49.288-3.804-.028-.96-.132-1.748-.224-1.752-.204-.006.022.064.172.162.338.202.362.312.386 1.662.38 1.484-.004 2.984.134 4.806.45l1.6.274.864-.368c.478-.202 1.108-.47 1.406-.598.298-.128.66-.21.814-.182.378.066.878-.006.91-.134.05-.184-2.978-.56-3.886-.482-1.044.088-1.196.142-.88.308.276.146.476.4.6.766.074.21.034.188-.316-.16-.628-.626-.8-.716-1.15-.604-.41.128-.45.108-.334-.166.09-.224.064-.246-.434-.398-.492-.146-2.152-.324-2.566-.27-.098.012-.168-.022-.156-.066.058-.218.842-.19 2.558.088 1.488.242 1.866.274 2.454.206 1.104-.124 2.65-.05 3.644.178.786.184 1.91.628 2.354.94.206.142.218.114.116-.31-.052-.226-.214-.418-.502-.606a8.208 8.208 0 01-.886-.702c-.254-.236-.884-.712-1.398-1.06-.834-.564-.982-.632-1.38-.638-.58-.006-1.994.38-2.12.582-.056.096-.268.166-.53.178-.454.022-.878.152-1.592.504l-.424.206-1.064-.356-1.066-.356-.68-.764c-.882-.986-1.7-1.742-2.03-1.874a1.16 1.16 0 01-.434-.318c-.146-.186-.266-.222-.866-.272-1.076-.094-3.288.044-3.328.212-.004.036.188.264.434.512.814.816.54.794-.442-.034-.464-.392-1.066-.738-1.368-.79-.184-.034-.506.034-.79.15-.92.392-1.504.28-3.164-.598-2.242-1.196-2.766-1.47-3.104-1.624a2.232 2.232 0 01-.494-.3 1.572 1.572 0 00-.396-.25c-.464-.206-1.24-.754-1.088-.768.192-.022.556.166 3.112 1.586 1.156.642 2.234 1.212 2.396 1.268.248.082.374.05.804-.218.278-.172.884-.528 1.348-.788.46-.26.844-.498.852-.528.022-.104-.824-.774-1.26-.994-.238-.12-1.772-.712-3.412-1.318-2.72-1.004-3.104-1.174-4.4-1.926-.78-.454-1.41-.86-1.398-.902.038-.16.54.022 1.206.436 1.38.862 3.596 1.826 5.394 2.346 1.936.562 3.348 1.258 4.068 2.008.286.298.306.306.996.314.884.012 1.666.254 2.528.776.346.21.87.496 1.164.634.294.136.554.292.576.344.018.05.198.12.39.154.314.052.636.27 1.354.906.212.188.282.2 1.082.2 1.238-.002 2.804.354 3.908.888.636.306.864.468.922.652.102.312-.108.442-.33.208-.318-.332-1.376-.862-2.19-1.1-.952-.28-2.894-.634-2.918-.53-.006.04.236.322.544.628.306.31.684.728.84.928.252.324.4.404 1.356.728l1.074.366.746-.392c.412-.214.804-.38.872-.368.064.012.376-.09.684-.224.656-.284 1.804-.51 2.474-.486.396.01.584.086 1.198.468.43.266 1.092.57 1.624.742.494.162 1.102.402 1.352.534.754.404 1.78 1.278 1.428 1.218-.108-.024-.994-.606-1.146-.758-.144-.142-1.332-.694-1.598-.74-.238-.04-.238-.04-.082.182.088.124.354.366.596.538.602.436.82.698 1.016 1.234.178.488.338.602 1.028.722.228.04.592.186.806.33l.392.256.442-.17c.242-.094.45-.2.46-.236.006-.034-.084-.246-.208-.466l.01-.004zm.262.91c-.206.142-.308.266-.252.312.138.106.082.246-.09.218-.082-.012-.376.102-.662.258-.32.174-.67.28-.906.276-.21-.006-.426.038-.468.096-.116.146-1.422-.024-6.98-.876-4.708-.73-4.754-.734-7.084-.81-2.628-.084-5.382-.366-10.258-1.052-1.734-.244-3.582-.48-4.104-.522-.528-.04-2.182-.224-3.68-.402-1.498-.178-3.33-.376-4.068-.442-2.046-.182-2.484-.278-3.128-.686-.506-.322-.908-.772-.856-.964.032-.138.31-.034.566.214.496.484.358.146-.296-.726-.37-.492-.702-.984-.74-1.092-.082-.242-.084-1.032 0-1.878.036-.346.052-1.092.04-1.658-.004-.564-.022-1.322-.022-1.68-.006-.716.338-2.162.698-2.91.272-.57.724-1.646 1.174-2.81.55-1.416 1.554-3.078 2.326-3.856 1.272-1.282 2.142-2.102 2.542-2.394.308-.23.378-.328.306-.44-.058-.08-.066-.16-.022-.18.17-.09 1.646.034 2.946.25 1.378.23 1.468.254 2.516.768.6.292 1.148.544 1.224.556.076.012.22.116.32.232.23.262 1.314.972 2.35 1.542.438.242 1.116.71 1.506 1.042 2.29 1.944 5.244 4.116 8.2 6.028 2.502 1.62 4.86 3.064 5.054 3.098.3.052 1.158.672 1.744 1.258a9.87 9.87 0 001.226 1.022c.33.22.936.704 1.35 1.074.622.558 3.66 2.596 5.268 3.534.218.128.542.372.724.544 1.594 1.518 2.07 2.146 1.952 2.586-.034.128-.218.34-.41.468l-.006.002zM28.19 69.606a3.52 3.52 0 00-.61.272c-.364.204-.376.222-.164.26.13.022.392-.06.588-.186.414-.264.5-.422.186-.346zm2.274-1.036c-.088.01-.242.096-.352.192-.192.166-.186.166.144.004.386-.186.428-.228.208-.2v.004zm16.1-7.986c-.802.222-3.41 1.406-5.466 2.48-2.114 1.106-2.126 1.2-.018.192.744-.358 2.386-1.116 3.654-1.686 1.266-.572 2.308-1.058 2.314-1.08.006-.028-.21.024-.478.096l-.006-.002zm.73-.278c-.096.05-.112.09-.04.102.148.028.304-.06.246-.13-.022-.034-.114-.022-.202.028h-.004zm5.026-7.32c-.068-.012-.122.024-.134.07-.006.046.022.098.086.108.066.012.12-.022.134-.07.016-.05-.022-.096-.086-.108zm2.022 1.596c-.136.072.016.176.18.128.128-.04.134-.062.022-.108-.072-.034-.164-.04-.208-.022l.006.002zm2.004-1.302c-.308-.308-.426-.356-1.37-.56-.91-.198-1.048-.208-1.148-.082-.066.078-.346.18-.634.226-.67.108-.71.242-.074.252.64.006 1.996.244 1.674.29-.132.024-.672.028-1.204.024-1.422-.03-1.966.122-2.542.69a5.04 5.04 0 01-.964.73c-.27.144-.496.284-.502.306-.016.05.726.05 1.202.012.196-.024.666-.052 1.05-.074.802-.038 2.258-.286 2.194-.366-.022-.032-.21-.032-.422-.01-.206.022-.4.01-.426-.022-.022-.034.752-.226 1.728-.432 1.202-.25 1.774-.414 1.776-.506.002-.074-.148-.286-.334-.472l-.004-.006zm-36.852 6.922c-.058-.006-.124-.06-.148-.118-.018-.05.034-.088.126-.072.094.012.162.068.148.118a.113.113 0 01-.126.072zm5.752-4.332c-.066-.006-.666.232-1.332.532-.662.3-1.538.672-1.942.83-.744.29-2.436.706-2.506.616-.024-.034.596-.256 1.37-.512a27.971 27.971 0 002.456-.956c1.136-.532 1.634-.682 1.904-.572.096.046.118.07.05.062zm2.492.688c-.254.152-.608.42-.782.596-.302.308-1.014.604-2.924 1.222-.886.288-2.882 1.324-3.466 1.802-.454.368-.858.494-.794.248.042-.172.982-1.074 1.168-1.122.096-.028.714-.29 1.374-.59.66-.3 1.746-.72 2.412-.934 1.138-.364 1.754-.66 1.808-.864.004-.046.22-.212.464-.358.242-.148.51-.33.592-.406.176-.16.566-.148.594.012.016.066-.192.236-.446.39v.004zm9.384-.552c-1.146-.06-1.672.122-4.14 1.43-1.276.678-2.426 1.258-2.556 1.288-.282.066-1.13-.07-1.308-.21-.178-.142.138-.176.71-.078.428.074.514.04 2.222-.898 1.066-.588 1.73-1.008 1.664-1.054-.066-.04-.6-.184-1.198-.314-1.15-.252-2.07-.634-2.016-.842.052-.174.374-.1.962.212.3.162.926.368 1.586.518l1.088.256.67-.252c1.164-.436 1.59-.516 2.25-.422.488.072.61.12.61.24.002.118-.124.146-.544.124v.002zm1.782-4.346c-.232.156-.636.48-.9.722-.698.636-1.578 1.074-2.208 1.096-.286.012-1.592-.128-2.9-.306-2.288-.314-2.416-.322-3.33-.198-2.036.274-4.152 1.244-4.208 1.93-.018.192.036.208.994.358.86.132 1.146.134 1.932.01 1.206-.184 2.04-.586 2.156-1.04.056-.214.142-.326.282-.342.552-.074.238.594-.488 1.036-.456.278-1.622.596-2.46.672-.304.03-1.558-.058-2.84-.194-3.222-.346-4.112-.278-5.566.43-1.242.602-1.262.608-1.614.478-.324-.116-.36-.286-.13-.574.136-.174.392-.12.388.08 0 .13.112.108.596-.128 1.39-.672 3.184-.94 4.922-.738.926.112.992.104 1.158-.096.472-.572.648-.724 1.214-1.066.682-.414 1.986-.874 2.98-1.054.674-.12 2.714-.148 3.318-.046.522.09.874.006 1.7-.386 1.012-.49 3.366-.95 3.286-.644-.006.044-.486.148-1.052.222-.964.126-2.186.492-2.644.788-.318.21-.05.338.968.448 1.232.136 1.54.096 2.218-.29.618-.352 1.788-1.226 1.822-1.362.034-.112.606-.384.76-.358.224.04.082.254-.352.548l-.002.004zm-3.386 13.234c-.558.51-1.55 1.244-1.656 1.226-.056-.006-.092-.022-.086-.04.034-.116 1.772-1.766 1.844-1.746.388.106.386.114-.104.558l.002.002zm.9-.71c-.082.012-.532.012-1.004.002-1.16-.022-4.72.386-6.304.718-.782.164-1.214.136-.714-.046.57-.208 3.574-.856 4.674-1.01 1.5-.206 3.36-.188 3.462.036.092.2.056.282-.114.302v-.002zm1.964-9.76c-1.062-.148-3.108-.576-2.852-.594.064-.002.972.126 2.018.3 2.056.332 2.682.552.834.296v-.002zm2.38 7.676c-.996.406-1.296.51-1.414.49-.166-.028.444-.354 1.142-.612.776-.288 1.014-.18.272.122zm1.374-9.602c-.286-.012-.462.006-.388.044.074.04.422.08.774.106.4.024.548.006.388-.044-.14-.046-.49-.09-.774-.106zm4.434.1c-.236.05-.57.148-.744.208-.418.144-2.75.112-3.712-.044-.732-.124-2.198-.684-2.282-.874-.02-.046 1.086.114 2.454.352l2.488.432.882-.158c.486-.084.986-.124 1.11-.084.204.06.18.084-.196.172v-.004zm.482 3.988c-.114.006-.408.002-.658-.006-.25-.006-.898.07-1.436.178-1.192.236-2.104.726-3.99 2.146-.992.748-1.284.922-1.38.824-.142-.146-.116-.17 1.424-1.304 1.322-.974 2.318-1.548 3.17-1.832.682-.228 2.11-.354 2.756-.244.382.068.456.222.114.24v-.002zm-.53 1.482c-.384.28-.934.628-1.214.778-.656.348-3.604 1.004-4.008.894-.226-.066.034-.142 1.252-.406 1.934-.412 2.362-.58 3.554-1.382.53-.358 1.012-.642 1.07-.632.22.04.036.252-.654.748zm2.432-5.846c-.066-.012-.074-.052-.024-.098.052-.046.114-.074.14-.068.034.004.04.044.022.096-.006.046-.082.08-.138.07zm2.512 3.474c-.756.35-3.074 1.056-3.15.96-.024-.034.138-.114.364-.184.228-.07.754-.258 1.174-.418.928-.352 1.812-.61 1.866-.542.022.032-.096.108-.254.182v.002zm4.492-.138c-.172.084-.598.166-.948.18-1.072.038-1.398.15-4.346 1.442-.406.178-.478.068-.118-.19.38-.276 2.358-1.158 2.826-1.264a8.49 8.49 0 00.802-.236c.236-.084.518-.14.628-.12a.46.46 0 00.316-.06c.064-.05.298-.142.522-.198.694-.176.926.152.32.448l-.002-.002zm1.154-1.24c-.208-.096-.742.006-1.552.296-1.956.704-4.88.892-8.902.57-1.282-.102-2.242-.044-3.698.21-1.146.204-1.3.204-1.248.006.018-.072.108-.122.198-.106.092.012.176-.012.19-.06.018-.052.082-.08.148-.066.076.012.424-.034.784-.106.362-.07 1.338-.134 2.168-.144.83-.006 1.636-.05 1.79-.104.308-.096.712-.05.904.1.19.152 1.254.022 1.816-.222.274-.118.612-.33.75-.47.136-.142.502-.434.81-.654.306-.22.542-.424.518-.452-.024-.034-.59.002-1.26.07-1.336.132-1.396.134-1.364.004.006-.046.112-.074.218-.052.106.024.494-.034.86-.118.37-.084.936-.178 1.26-.214 1.28-.134 2.072-.284 2.028-.378-.082-.176-2.422-.43-3.204-.346-.852.092-1.03.066-.632-.09l.304-.118-.228-.092a2.578 2.578 0 00-.616-.108c-.34-.012-.418.028-.62.33-.25.38-1.162.892-3.66 2.062-1.312.616-1.492.672-2.29.72-.52.034-.898.104-.95.184-.482.724-1.536 1.398-2.944 1.886-1.306.452-1.656.682-2.766 1.812-.906.924-.984 1.096-.298.66.374-.236.652-.228.588.022-.066.244-.562.418-1.988.702-.682.134-1.248.284-1.262.33-.052.176-1.826 1.986-2.386 2.424-.318.25-1.25.882-2.072 1.406-.824.524-1.678 1.146-1.898 1.382-.598.636-2.08 1.446-2.516 1.37-.18-.034.058-.272.348-.366.606-.19 1.364-.674 1.836-1.168.268-.28 1.116-.888 2.03-1.458.864-.538 1.586-1.03 1.6-1.094.052-.176-.812-.398-1.554-.4-.848-.002-1.342.078-1.848.298-.224.096-.43.15-.458.114-.18-.22.694-.554 1.93-.734.586-.086.832-.076 1.358.06.356.088.75.208.88.266.21.09.294.038.932-.65.818-.878 1.14-1.348 1-1.456-.06-.04-.164-.034-.244.006-.076.038-.244.058-.356.038-.112-.022-1.326.214-2.694.514-2.214.492-3.1.618-2.854.408.268-.228 4.14-1.04 7.286-1.528 1.026-.158 1.344-.296 1.79-.77 1.332-1.422 1.402-1.514 1.31-1.656-.074-.112.016-.188.428-.356.528-.218.678-.386.45-.502-.082-.04-.05-.076.102-.1.164-.028.262.036.364.212l.14.242.538-.172c.906-.29 1.788-.778 2.334-1.284.286-.266.528-.51.536-.542.006-.034-.342-.12-.78-.196-.554-.096-.74-.154-.608-.196.102-.034.5-.006.88.06.568.096.77.084 1.112-.044.268-.104.56-.138.814-.094.316.052.546.002 1.146-.268.414-.184 1.256-.546 1.872-.802 1.098-.46 2.314-1.27 2.496-1.664.074-.152.022-.18-.418-.244-1.086-.16-3.816-.424-5.312-.51a59.89 59.89 0 01-2.528-.2c-1.06-.12-4.282-.322-4.426-.278-.058.022-.116.104-.138.198-.036.126-.324.232-1.116.402-1.196.256-2.47.66-3.494 1.112-.376.166-.708.27-.736.234-.042-.05.172-.18 1.17-.67.064-.028.224-.114.356-.186.132-.074.636-.27 1.122-.438.484-.168.994-.348 1.132-.402.136-.052.306-.086.378-.074.072.012.212-.034.318-.1.174-.114.124-.13-.65-.202-.46-.046-1.738-.194-2.838-.332-3.818-.482-7.338-.886-7.958-.91-.344-.012-1.2-.096-1.904-.184-1.824-.228-3.02-.15-4.24.276-.666.232-1.256 1.148-1.072 1.66.09.25.532.322.988.164.444-.156 1.134-.234 2.182-.246.986-.01 4.596.582 5.37.884l.506.196.994-.454c.544-.248 1.064-.528 1.154-.618.092-.098.4-.19.734-.22.316-.028.688-.132.824-.23l.246-.176.074.278c.064.252.052.288-.22.4-.162.068-.494.13-.734.142-.424.022-1.624.49-1.664.654-.006.046.056.096.152.112.336.06.022.234-.53.294-.306.036-.78.168-1.054.296-.834.396-1.962.732-4.002 1.2-2.188.5-2.328.52-2.616.386-.356-.164-.166-.314.434-.336 1.364-.044 5.624-1.13 5.708-1.45.092-.36-2.882-.992-4.706-1-1.45-.006-2.442.194-3.104.626-.49.32-.528.37-.564.772-.064.702.018.778 1.304 1.232 1.406.494 2.074.77 1.984.818-.042.022-.468-.1-.956-.264-.998-.336-2.074-.55-2.208-.434-.106.088.124 1.266.318 1.642.072.14.31.804.528 1.472.222.67.53 1.436.688 1.704.156.264.458.786.668 1.154.214.37.444.714.516.766.074.05.226.334.344.632.116.296.524.988.898 1.534.378.546.796 1.17.932 1.388l.244.398.468-.074c.644-.098 1.736-.542 2.238-.904.292-.212.548-.536.846-1.078.422-.764 1.026-2.13.976-2.206-.006-.024-.298.046-.63.146-1.22.376-4.83.954-5.37.862-.238-.04-.06-.238.2-.228.12.006.39-.022.598-.06.208-.04.428-.06.484-.046.492.086 3.17-.63 4.248-1.134l.75-.35.15-.576c.14-.534.136-.584-.108-.71-.144-.072-.218-.17-.168-.212.154-.132.408-.034.626.238.194.242.192.308-.032.95-.282.822-.446 1.25-.944 2.522-.376.956-1.366 2.626-1.676 2.826-.188.122-2.014.504-2.228.466-.082-.01-.154.012-.166.068-.018.05.022.096.086.106.064.012.094.078.074.154-.052.176 2.744 3.628 3.29 4.07.46.372 1.252.582 1.754.462.25-.06 1.688-.692 4.3-1.894 1.352-.622 6.26-3.164 8.612-4.46.884-.488 1.922-1.012 2.31-1.166 1.176-.468 3.032-1.424 2.984-1.536-.024-.062-.316-.154-.644-.21-.458-.078-.606-.07-.634.034-.022.096-.156.112-.468.06-.554-.096-1.534.04-2.124.288-.694.294-.642.112.066-.222l.616-.292-.472.004c-1.108.012-3.184.474-4.46.992-.604.246-2.494 1.41-3.04 1.874-.22.186-1.224.424-1.314.31-.022-.032.274-.228.676-.424.404-.196 1.202-.676 1.78-1.062 1.222-.824 1.396-.91 2.476-1.226 1.822-.532 3.3-.736 4.752-.652.278.022.866 0 1.304-.034.7-.05.846-.04 1.228.128.238.102.538.234.666.284.17.068.558-.012 1.454-.3.67-.214 1.356-.41 1.522-.436.322-.046 3.334-1.264 3.766-1.518.138-.082.228-.182.196-.222-.104-.128-2.02-.128-2.998.002-.844.112-2.29.464-3.09.752-.158.05-.274.058-.26.004.038-.144 1.434-.7 1.658-.662a.508.508 0 00.352-.068c.082-.05.532-.168.998-.254.462-.086.856-.208.87-.27.018-.068.116-.154.226-.2.236-.1.224.046-.018.284-.1.092-.118.16-.052.172a.22.22 0 00.166-.062c.02-.038.496-.07 1.026-.058 1.478.034 2.034-.046 2.854-.4.848-.362 2.89-1.582 3.288-1.962.252-.24.256-.262.116-.63-.082-.21-.228-.418-.33-.464l.002-.028zm.568 1.342c-.184.188-.856.64-1.494 1.002s-1.53.878-1.986 1.144c-.456.268-.876.478-.93.468-.058-.006-.422.128-.812.306-.39.178-1.346.59-2.124.914-.778.326-1.826.772-2.328.994-3.906 1.734-6.678 2.996-7.796 3.558-.726.362-1.994.97-2.818 1.348a73.698 73.698 0 00-3.248 1.63c-1.828.984-5.394 3.152-5.666 3.448-.408.444-2.906.006-3.904-.678-.478-.332-2.872-3.416-3.268-4.212-.316-.632-1.118-1.894-1.744-2.748-.322-.436-.63-.978-.684-1.204a2.962 2.962 0 00-.388-.82 3.37 3.37 0 01-.392-.712c-.058-.168-.242-.458-.414-.644s-.356-.468-.408-.628a4.367 4.367 0 00-.39-.738c-.172-.262-.268-.544-.232-.684.074-.296-.104-.968-.314-1.182-.33-.338-.642-1.722-.824-3.64-.032-.364-.1-1.018-.146-1.452-.17-1.564.32-2.25 1.834-2.56.356-.072.678-.16.718-.196.158-.134 1.03-.1 3.132.122l4.222.448c1.136.12 3.438.394 5.118.606 1.678.214 4.164.472 5.524.574 1.36.1 2.824.224 3.252.274.43.044 1.264.11 1.856.138 2.748.122 3.94.242 6.76.682 1.938.306 3.176.458 3.552.442.318-.012.76-.022.978-.012.58.024 3.702.824 4.134 1.068.432.242 1.342 1.39 1.52 1.918.158.464.116.606-.294 1.03l.004-.004zM42.464 74.772c-.194-.032-1.044.528-1.816 1.196-.626.542-.924 1.156-.846 1.738.058.446.292.484.976.162l.538-.258.462-1.064c.254-.586.532-1.166.616-1.292.232-.344.246-.446.064-.476l.006-.006zm2.67-7.46c-.226.14-.676.484-.998.76-1.39 1.196-2.396 1.864-3.146 2.086-.66.194-.576.01.158-.348.374-.18.692-.374.706-.428.016-.052.342-.312.728-.57a9.938 9.938 0 001.156-.902c.538-.522 1.502-1.14 1.718-1.102.244.04.124.226-.324.502l.002.002zm3.728-4.39c-.454.902-1.108 1.676-1.77 2.088-1.066.666-.992.592-.792.772.164.148.142.158-.278.144-1.75-.062-2.694.214-3.77 1.114-.326.272-.952.71-1.394.976-.656.394-.89.606-1.284 1.158-.75 1.044-1.386 1.674-1.784 1.764-.516.116-1.328.068-1.228-.072.092-.126.252-.174.874-.258.638-.088 1.024-.456 1.804-1.726.148-.24.454-.528.77-.72.292-.174.54-.36.554-.414.014-.05.164-.232.334-.4.188-.19.508-.748.822-1.454.52-1.174.76-1.452 1.088-1.28.118.068.124.122.016.226-.132.128-.642 1.062-.992 1.81l-.136.304.246-.19c.898-.698 2.014-1.146 3.002-1.206.55-.034.79-.116 1.488-.512.838-.478 1.684-1.244 1.478-1.344-.056-.032-.336-.028-.618.012-.364.046-.868.264-1.734.748-.76.424-1.208.624-1.182.526.024-.084.242-.282.488-.438.244-.158.652-.414.906-.576.528-.336 1.87-.798 2.166-.748.212.034.236.006.646-.726.3-.534.494-.754.648-.728.136.028.034.35-.366 1.148l-.002.002zm6.706-4.068c-.162-.028-1.848.522-3.106 1.01-1.318.514-3.162 1.328-4.78 2.112-.83.402-2.376 1.1-3.44 1.552-2.42 1.03-5.84 2.732-8.442 4.198-1.102.622-2.728 1.53-3.614 2.018-1.962 1.082-2.444 1.406-2.862 1.936-.294.372-.506.84-.392.86.098.022 1.53-.474 2.13-.73.714-.304 1.686-.52 2.278-.504.534.01 1.376-.304 1.688-.636.136-.146.49-.784.784-1.422.588-1.266.924-1.69 1.622-2.046.588-.3.694-.186.196.214-.212.168-.394.348-.408.396-.016.052-.064.086-.116.078-.132-.024-.678.9-1.042 1.76-.372.872-.768 1.34-1.558 1.836-.736.462-.866.592-1.1 1.078-.26.546-.766 1.02-1.738 1.634-.816.514-1.286.712-1.39.584-.082-.102.266-.382 1.342-1.074.852-.548 1.05-.722 1.194-1.054.09-.218.216-.482.272-.588.234-.43-.894-.282-2.684.356-1.292.458-1.52.576-1.58.804-.066.252.496 1.254 1.084 1.932.25.288.446.554.436.592-.05.178 2.406 2.558 3.114 3.018.188.124.496.374.682.556l.34.33.91-.51c.974-.546 1.548-.982 1.612-1.228.024-.084.296-.402.608-.71l.566-.56.212-1.358c.198-1.3.334-1.716.538-1.682.136.024.114.37-.098 1.722-.196 1.274-.372 1.696-.91 2.158a2.985 2.985 0 00-.48.576c-.306.492-.992 1.002-1.874 1.402-.424.19-.752.388-.73.44.076.158 2.164 1.478 2.414 1.52.186.034.232 0 .228-.17-.06-1.6.056-1.828 1.216-2.484.644-.366.866-.542.836-.662-.23-.956-.144-1.378.396-1.956.646-.688 2.024-1.622 2.572-1.742.43-.096.524-.164.794-.59.506-.796.808-1.156 1.088-1.292.146-.07.816-.244 1.492-.384l1.226-.254.566-.788c1.044-1.454 2.546-2.756 3.186-2.76.334-.004.656-.262.952-.768.082-.142.35-.482.6-.76.25-.276.428-.508.4-.512-.034-.006-.41.128-.848.296-.438.168-1.218.4-1.734.516-.516.116-.948.248-.96.292-.016.046-.184.194-.382.332-.488.344-1.064 1.01-1.546 1.786-.506.822-.558 1.018-.292 1.124.232.096.22.316-.018.41-.224.088-1.058.11-2.024.052-1.138-.07-1.614.022-1.852.34-.158.21-.348.288-.984.402-1.234.222-2.134.566-3.108 1.186-.496.314-1.314.838-1.822 1.16-.508.322-1.458.934-2.112 1.358-1.312.848-2.142 1.312-2.302 1.284-.27-.044.05-.422.646-.756 1.588-.898 2.218-1.304 2.108-1.358-.068-.034-.308-.004-.54.066-.492.144-.568.14-.526-.022.018-.068.406-.22.862-.34 1-.262 2.596-1.086 3.45-1.786.888-.726 1.1-1.21 1.034-2.35-.058-.916.002-1.374.172-1.344.276.046.35 1.76.118 2.666-.112.432-.11.438.146.314.142-.068.654-.206 1.14-.306.698-.148.9-.23.978-.402.056-.126.414-.376.858-.602.838-.422.934-.548 1.54-2.024.38-.936.816-1.364 1.942-1.91.846-.41.944-.434 1.352-.34l.438.102.236-.618c.45-1.188 1.37-2.308 2.46-2.99.604-.382 1.562-.776 1.958-.808.354-.028 2.166-1.994 2.014-2.186-.066-.08-1.19.29-1.798.592-.69.344-2.188 1.412-2.542 1.814-.43.486-.628.546-.528.154.196-.756 3.044-2.642 4.442-2.942.298-.066.612-.146.7-.18.21-.088.284-.394.104-.426l-.01-.004zm2.414-.658c-.454.01-1.32.204-1.534.338-.188.118-.832 1.33-.758 1.424.024.034.254-.09.512-.266.258-.174.818-.524 1.248-.778.874-.514 1.034-.732.532-.72v.002zm-1.192 1.528c-.85.44-1.578.88-1.62.978-.038.096-.284.354-.542.574-.614.518-.618.706-.016.846.322.076.466.072.488-.006.092-.346.512-.802 1.142-1.24.556-.386 1.994-1.708 2.08-1.91.004-.03-.678.322-1.53.76l-.002-.002zm-7.07 14.924c-.712.284-1.004.314-.822.086.122-.154 1.296-.52 1.444-.45.074.034-.192.192-.622.364zm6.512-9.964c-.594.16-2.074.96-2.41 1.304-.118.12-.344.594-.502 1.054-.322.944-.962 1.894-1.882 2.808-.31.308-.596.676-.632.82a.9.9 0 01-.284.408c-.298.212-1.198 1.526-1.654 2.416-.466.914-.54 1.47-.238 1.846.116.144.174.296.126.336-.17.144-.408.01-.546-.31-.116-.268-.1-.486.082-1.19.122-.474.336-1.068.466-1.318.27-.504.806-1.398.94-1.566.05-.072.022-.098-.106-.084-.32.038-.172-.152.564-.732 1.166-.918 1.454-1.22 1.986-2.088.72-1.176.798-1.61.122-.7-.524.708-.85.982-1.114.936-.192-.034-1.346.798-1.828 1.316-.208.22-.404.506-.436.636-.074.288-.36.436-.5.262-.072-.088-.154-.024-.32.25-.624 1.02-.724 1.084-2.102 1.35-1.37.264-1.562.394-2.32 1.57a46.694 46.694 0 00-.84 1.334c-.276.48-.954 2.06-.918 2.142.022.04.326.04.692.004.366-.034.9-.028 1.188.028.3.05.574.05.642-.006.068-.05.288-.634.494-1.29.412-1.33.548-1.514 1.604-2.228.474-.32.628-.376.862-.312.398.11.342.334-.124.474-.214.068-.638.308-.94.538l-.552.418-.442 1.37c-.418 1.286-.468 1.388-.814 1.632-.464.33-1.282 1.164-1.71 1.744-.518.7-.992 1.07-2.024 1.572-.972.472-1.686.684-1.804.536-.072-.088.758-.49 1.672-.806.864-.302 1.51-.92 2.454-2.356.052-.066.266-.282.492-.474.496-.426.404-.498-.528-.416-1.376.122-3.114.634-4.182 1.236-.658.368-.684.398-.81.9-.13.506-.164 1.174-.066 1.296.022.034.132.028.234-.024.112-.044.202-.038.228.024.074.172-.174.374-.534.43-.348.052-.34.06.814.688 1.368.744 1.684.834 1.772.5.034-.126.244-.426.472-.666.444-.478 1.654-1.07 2.978-1.458.5-.148.754-.278.836-.432.166-.308 1.082-1.62 1.544-2.214.266-.34.492-.804.732-1.496.274-.802.39-1.022.564-1.086.248-.09.518.012.474.18-.018.06-.13.216-.248.344-.12.126-.346.582-.5 1.012-.202.554-.452 1.008-.882 1.572a16.159 16.159 0 00-1.168 1.86c-1 1.886-1.212 2.772-.688 2.862.27.046.262.116-.034.29-.3.178-.592.114-.736-.16-.14-.268.106-1.336.466-2.046.13-.248.214-.474.196-.5-.084-.102-1.438.416-2.168.83-.808.456-1.338.948-1.432 1.326-.094.38.414.686 1.744 1.046l1.158.314.644-.39c.926-.558 1.36-1.012 2.028-2.12.754-1.25.78-1.38.158-.8-.394.368-.57.468-.8.45l-.296-.028.5-.394c.276-.218.514-.444.528-.504.018-.06.32-.412.672-.784.546-.572.818-.994 1.744-2.724.6-1.126 1.474-2.69 1.938-3.476.768-1.298.86-1.506 1.008-2.272.088-.466.186-.842.222-.836.034.006.13.09.216.188.148.166.174.15.45-.272 1.144-1.756 1.5-2.43 1.304-2.464-.052-.006-.29.094-.538.23-.428.234-.64.242-.582.012.018-.06.44-.308.942-.556l.914-.45.926-1.324c.508-.73.952-1.342.988-1.36.042-.024.052-.06.024-.084-.024-.034-.284.022-.58.098l.01.004zm-3.704-1.504c-.064-.012-.098-.068-.086-.114.018-.052.066-.06.122-.022.056.04.09.092.084.112-.004.024-.058.034-.12.024zm2.83.344c-1.414 1.162-3.444 2.44-3.352 2.108.004-.04.336-.268.726-.508.982-.61 2.338-1.732 2.772-2.296.304-.394.406-.466.624-.428.404.07.262.276-.768 1.124h-.002zm3.212-3.734c-.218.11-.42.166-.454.126-.034-.04.064-.138.226-.214.156-.078.298-.18.31-.226.004-.046.092-.074.186-.06.248.04.17.152-.266.372l-.002.002zm.486 1.436c-.196.14-.362.288-.372.328-.018.05-1.244.99-1.668 1.27-.024.024-.064.006-.088-.022-.172-.216 2.05-2.058 2.408-1.996.176.034.098.144-.28.418v.002zm.932-1.864a.507.507 0 01-.266.022c-.124-.022-.13-.046-.022-.108a.361.361 0 01.264-.022c.066.034.074.08.024.108zm.406-.522c-.268-.304-.92-.668-1.064-.592-.038.022-.1.134-.154.258-.05.124-.392.504-.76.842-.414.382-.626.64-.554.674.064.034-.108.186-.392.358-.28.166-.518.34-.53.386-.006.046-.236.2-.496.336-.486.26-1.214.966-1.292 1.258-.052.182-1.816 1.824-1.986 1.846-.056.004-.116.06-.134.12-.034.138-1.316.788-2.396 1.216-.468.184-.894.39-.946.458-.05.068-.174.11-.266.096-.314-.052-.096-.318.5-.602 2.284-1.09 2.926-1.472 3.492-2.078.79-.842.906-1.046.614-1.096-.124-.022-.342.046-.482.154-.142.108-.37.266-.508.356l-.25.162.13-.28c.074-.154.108-.284.082-.29-.254-.046-.884.23-1.52.666-1.29.88-1.79 1.524-2.348 3.03-.188.498-.378.926-.43.952-.05.028-.144-.052-.208-.18-.064-.126-.182-.242-.268-.258-.306-.05-1.082.178-1.568.466-.8.472-1.078.824-1.57 1.982-.298.704-.548 1.15-.742 1.322l-.29.258.304.012c.168.006.546.028.838.046.62.04 1.002-.162 1.242-.658.314-.656.764-1.344 1.146-1.764.218-.24.382-.456.36-.482-.064-.086-.74.16-1.238.456-.406.24-.518.268-.61.156-.086-.104-.074-.176.04-.274.326-.276 1.714-.772 2.89-1.032.67-.146 1.248-.288 1.288-.312.038-.022.398-.148.8-.276.904-.284 1.872-.744 1.914-.908.018-.068.116-.11.214-.092.1.024.398-.088.662-.236.266-.146.852-.398 1.304-.556 1.652-.586 1.966-.776 2.584-1.566a83.76 83.76 0 011.3-1.614c.786-.944 1.418-1.86 1.52-2.198.034-.122-.05-.334-.226-.528l.004.006zm-.292 1.96c-2.608 3.134-6.74 9.244-8.032 11.874-.212.43-.498.932-.636 1.114-.418.558-1.908 3.298-3.296 6.064-1.306 2.6-1.844 3.53-2.358 4.06-.362.374-1.654 1.108-1.968 1.116-.376.012-2.126-.578-3.116-1.052-2.07-.99-5.012-2.854-6.642-4.212l-1.318-1.096c-1.83-1.516-4.172-4.186-4.536-5.172-.182-.492.198-1.806.66-2.282.56-.58 12.418-6.846 15.316-8.092a237.97 237.97 0 004.212-1.868c1.68-.772 6.112-2.532 7.972-3.168.848-.29 2.04-.36 3.122-.182.826.138.926.174 1.302.502.386.338.4.376.302.844-.09.412-.238.66-.982 1.552l-.002-.002zm-1.39 10.57c-.162.28-.682.894-1.154 1.364-1.054 1.048-1.162 1.34-.882 2.37.158.584.162.804.022 1.324-.17.632-.76 1.538-1.47 2.264-.48.486-1.598 1.382-1.65 1.32-.038-.052.018-.112.91-.936.596-.546 1.596-1.9 1.846-2.504.174-.41.174-.536-.022-1.146-.352-1.096-.352-1.286-.004-1.842.162-.264.54-.732.844-1.038l.548-.558-.266-.454c-.398-.68-.532-1.974-.302-2.86.206-.792.488-1.138 1.538-1.902.882-.636 1.144-.376.288.286-1.16.896-1.608 1.862-1.414 3.054.114.712.362 1.258.592 1.296.404.07.756-1.538.604-2.772-.066-.538-.058-.82.04-.868.194-.102.458.072.406.262-.022.092-.006.408.04.702.112.734-.128 1.992-.5 2.638h-.014zm1.844-6.672a2.84 2.84 0 00-.352.732c-.144.522-.38.73-.394.36-.036-.628.632-1.81.98-1.75.14.028.058.246-.238.658h.004zM55.67 87.246c-.478.04-.842-.198-1.37-.886-.682-.892-.816-1.406-.622-2.396.13-.656.206-.822.478-1.1.38-.384.84-.576.974-.412.064.074.024.152-.096.24-.558.41-.844.844-.944 1.436-.118.714.04 1.262.57 1.978.286.384.494.552.82.666.482.168.59.442.182.474h.008zm1.468-2.538c-.052-.034-.136-.4-.192-.806-.134-.948-.356-1.478-1.202-2.884-.778-1.294-.852-1.61-.488-2.098.346-.46.742-.794.906-.766.112.022.09.088-.102.332-.628.802-.61 1.112.134 2.376.79 1.334 1.05 1.982 1.108 2.73.058.72-.022 1.23-.166 1.116h.002zm2.41 5.21c-.2.298-.4.694-.45.878-.112.434-.282.402-.258-.046.018-.228.154-.556.4-.932.63-.966.636-1.148.054-1.768-.536-.564-.772-1.118-.92-2.146-.05-.338-.14-.638-.202-.668-.168-.076-.784 1.064-1.106 2.044-.216.666-.29 1.116-.322 2.02-.038 1.132-.13 1.414-.402 1.204-.198-.154-.04-1.494.35-2.984.332-1.264.422-1.498.816-2.048.334-.472.486-.808.632-1.382a214.8 214.8 0 01.792-3.08c.31-1.176.398-1.688.386-2.286-.006-.424-.054-.778-.1-.786-.196-.034-1.294 1.974-1.49 2.72-.058.23-.106.276-.178.186-.064-.084.018-.484.272-1.3.368-1.194.694-1.77 1.148-2.036.294-.174.264-.404-.19-1.466-.21-.496-.394-.992-.408-1.102-.016-.154.196-.364.88-.874 1.188-.882 1.24-.938 1.382-1.476.136-.522.354-.544.398-.04.034.404-.338.858-1.328 1.614-.43.328-.802.68-.83.782-.022.102.114.714.31 1.36.598 1.968.562 3.276-.19 6.766-.28 1.31-.338 1.796-.298 2.558.058 1.166.194 1.584.628 1.99.756.712.84.87.712 1.332-.066.236-.284.672-.482.972l-.006-.006zM61.7 87.23c-.254.404-.378.518-.968.864-.62.366-.834.076-.26-.352.574-.43.958-.952.982-1.332.018-.284.058-.364.218-.384.25-.034.432.278.342.582-.032.126-.18.406-.314.622zm4.974-4.426a17.58 17.58 0 00-.8 1.512c-.238.508-.468.898-.514.862-.118-.092.018-.528.418-1.318.318-.632.334-.696.178-.808-.09-.06-.364-.346-.61-.622a13.516 13.516 0 00-.926-.928c-.676-.602-.758-.962-.43-1.856.436-1.176 1.04-2.42 1.268-2.606.294-.234.61-.182.444.076-.064.104-.258.396-.422.648-.164.254-.462.976-.66 1.604-.432 1.37-.4 1.542.406 2.192.298.242.676.612.838.82.162.21.352.392.422.404.15.028.598-.776.742-1.332.056-.212.056-.644.016-.956-.08-.508-.056-.626.18-1.078.248-.474.254-.528.092-.816-.168-.302-.112-.646.098-.61.61.104.086 3.486-.742 4.812h.002zm1.524 15.868c-.234-.04-.26-.068-.116-.114.244-.074.47-.038.44.078-.018.05-.158.066-.324.034v.002zm.678.118c-.092-.012-.13-.062-.08-.108a.266.266 0 01.194-.06c.058.006.092.06.082.106-.006.046-.104.076-.196.062zm-4-38.568c-.058-.04-.108-.034-.122.024-.014.052.024.102.086.112.066.012.116 0 .122-.022.004-.028-.036-.072-.086-.114zm1.698 11.242c-.02-.236.06-1.058.196-1.83.216-1.216.228-1.56.11-2.59a81.967 81.967 0 01-.152-1.42c-.006-.126-.166-.804-.346-1.504l-.444-1.73c-.112-.44-.81-1.518-1.01-1.552-.184-.034-.196.396-.038 1.42.14.946.136 1.054-.066 1.292-.264.31-.268.336-.362 1.678-.056.802-.034 1.072.094 1.116.218.072.468-.212.812-.932.352-.734.622-1.132.75-1.108.196.034-.106.794-.724 1.832-.682 1.142-.782 1.53-.59 2.296.122.488.308.568.408.182.074-.292.328-.59.48-.564.058.006-.016.512-.142 1.118-.17.778-.208 1.186-.132 1.398.132.366 1.294 1.786 1.242 1.518-.022-.106-.056-.386-.086-.62zm-.004 2.782c0-.97-.462-2.212-.846-2.276-.27-.046-1.138.502-1.37.866a.872.872 0 00.108 1.048c.082.084.134.206.116.272-.056.21.326.54 1.044.91.386.198.726.364.752.368.096.024.194-.586.196-1.19v.002zm3.834 14.72c-.358-.324-.572-.466-.532-.354.084.234.812.982.984 1.012.248.04.134-.124-.452-.658zm.942-1.82c-.49-1.636-.874-3.026-.858-3.088.016-.058-.082-.468-.212-.908s-.25-.974-.266-1.186c-.006-.214-.082-.448-.152-.52-.196-.2-.358.1-.686 1.274-.36 1.296-.33 1.25-.578.88l-.206-.316-.136.77c-.266 1.56-.172 1.936.848 3.36l.304.424-.13-.414c-.132-.43-.106-.79.056-.762.06.006.136.216.182.458.106.536.89 1.622 1.676 2.314.64.566 1.004.83 1.028.748.004-.03-.388-1.396-.876-3.034h.006zm1.752 7.124c-.216.318-.458.388-1.266.368-1.142-.028-5.49-.572-7.956-.996-2.332-.402-2.606-.468-4.646-1.126-2.938-.948-4.324-1.466-5.954-2.232a65.045 65.045 0 00-2.404-1.062c-1.32-.536-1.882-.87-1.942-1.15-.022-.122-.272-.512-.548-.868-.294-.376-.528-.804-.558-1.026-.084-.532.462-2.924.872-3.864.404-.93 1.47-2.822 1.82-3.234.142-.168.422-.636.62-1.04s.4-.792.446-.86c.052-.07.38-.768.742-1.55 1.24-2.692 4.158-7.476 5.984-9.806.218-.28.618-.874.884-1.314.406-.674.474-.75.434-.474-.066.41-.568 1.246-1.882 3.114-.562.8-1.188 1.74-1.392 2.09-.204.35-.64 1.05-.968 1.558-.642.986-2.06 3.434-2.114 3.648-.018.07.034.138.118.154.108.022.114.214.018.738-.124.664-.11.766.218 1.5.366.818.624 1.752.558 2.022-.074.308-.24.112-.416-.49a15.396 15.396 0 00-.548-1.46c-.204-.468-.35-.92-.328-1.008.022-.086.006-.184-.04-.22-.05-.036-.308.368-.584.894-.276.528-.848 1.53-1.274 2.226-1.324 2.166-1.796 3.254-2.208 5.07-.22.972-.332 1.698-.294 1.906.162.888 1.316 2.446 2.086 2.818.264.128.562.246.658.258.208.036 1.84-1.312 1.908-1.572.02-.1-.06-.582-.18-1.068-.17-.666-.22-1.298-.196-2.55.042-2.07.042-2.082-.074-2.102-.05-.006-.274.162-.5.376-.39.37-.418.434-.544 1.204-.154.922-.28 1.168-.492.952-.086-.092-.09-.302-.002-.62.064-.262.084-.486.032-.496-.056-.004-.212.164-.358.382-.292.446-.96 2.834-.892 3.208.034.198.004.216-.212.15-.232-.066-.24-.132-.152-.802.058-.4.222-1.114.378-1.584.238-.724.354-.928.754-1.334.262-.266.496-.568.526-.676.02-.106-.018-.67-.09-1.252-.082-.592-.094-1.332-.04-1.68.088-.566.118-.614.294-.554.148.05.182.218.158.758-.034.708.074 2.218.168 2.334.02.034.088.04.13.022.188-.1.92-1.156.992-1.434.04-.166.144-.322.224-.344.258-.076.334.29.216 1.05-.064.41-.152 1.474-.2 2.364-.072 1.38-.05 1.734.162 2.434.26.866.2 1.584-.148 1.778-.278.154-1.402 1.098-1.43 1.2-.072.266 3.788 1.91 6.76 2.88.988.322 2.082.682 2.428.802 1.352.458 7.276 1.34 9.43 1.404.654.022 2.078-.358 2.356-.624.262-.254.096-1.614-.32-2.632-.166-.406-.198-.43-.696-.516-1.05-.178-1.418-.486-2.428-2.028-.294-.45-.594-.812-.666-.806-.064.006-.266.132-.43.28-.422.378-.678 1.428-.508 2.08.176.662.564 1.422 1.162 2.274.642.914.972 1.5.93 1.656-.056.218-.46.05-.556-.226-.054-.15-.348-.63-.656-1.068-.686-.97-1.266-2.16-1.35-2.776-.05-.326.006-.694.19-1.278.226-.742.286-.85.648-1.1l.396-.276-.442-.65-.44-.648.302-1.288c.224-.992.376-1.424.642-1.876.192-.322.374-.758.404-.966.038-.302.11-.412.35-.538.696-.366.688-.698-.108-4.25l-.426-1.892-.146.49c-.18.642-.258.986-.37 1.75-.08.564-.11.618-.234.49-.198-.202-.122-1.192.202-2.596l.28-1.206-.366-1.786c-.2-.98-.444-1.966-.542-2.188l-.178-.404-.136.816a11.191 11.191 0 00-.13 1.63c.006.45-.018.912-.038 1.03-.036.114-.006.424.05.684.1.444.022 2.36-.128 3.45-.094.684-.26.554-.576-.462-.252-.822-.266-.84-.92-1.256-.368-.234-.714-.408-.772-.392-.066.012-.318.75-.578 1.63-.434 1.476-.566 1.79-.694 1.634-.022-.034.098-.826.276-1.762.302-1.606.312-1.752.152-2.546-.094-.464-.15-.914-.128-1 .068-.25.594-.782 1.154-1.174.484-.338.506-.372.39-.578-.226-.406-.308-.9-.248-1.484.05-.442.006-.624-.144-.76-.22-.188-.518-1.076-.452-1.338.024-.084 0-.162-.05-.172-.058-.006-.254.48-.454 1.086-.276.836-.368 1.298-.384 1.914-.016.448-.066.974-.114 1.17-.14.564-.602 1.328-1.068 1.764-.508.476-.798 1.014-1.222 2.274l-.318.932.43.414c.236.228.476.4.538.384.19-.052.186-.31-.018-.656-.222-.382-.22-.544.004-.504.18.034.684.724.64.882-.018.06-.298.544-.624 1.074-.326.534-.63 1.1-.67 1.262-.248.95.81 4.17 1.404 4.272.132.022.246.192.336.5.208.728.596 1.452 1.286 2.408.956 1.322 1.058 1.554 1.382 3.14.43 2.094.454 3.212.066 3.146-.194-.034-.222-.18-.176-.918.04-.664-.54-3.548-.826-4.1-.228-.444-1.614-2.146-1.584-1.95.462 3.166.6 4.632.512 5.464-.082.762-.134.974-.304 1.158-.194.212-.212.214-.244.034-.022-.106.004-.498.066-.874.136-.966.092-1.998-.152-3.334a26.2 26.2 0 01-.378-3.25c-.006-.242-.226-.726-.556-1.26a8.466 8.466 0 01-.866-1.996c-.642-2.198-.638-2.422.082-3.556.226-.356.416-.662.42-.68.006-.024-.104-.08-.242-.134-.336-.134-.79-.618-.908-.966-.118-.34.208-1.68.572-2.326.13-.244.412-.628.622-.854.208-.226.402-.498.428-.604.024-.106.208-.292.396-.41.276-.176.368-.316.472-.714.072-.272.086-.526.04-.562-.052-.034-.264.122-.482.354-.216.232-.49.49-.612.572-.22.148-.22.148-.174-.04.022-.104.236-.404.468-.664.632-.708.744-1.222.438-1.942-.138-.32-.266-.55-.288-.516-.014.04-.094.172-.166.3-.092.16-.198.222-.348.196-.356-.062-.31-.308.112-.602.356-.248.382-.294.286-.498a30.283 30.283 0 01-.344-.798c-.172-.41-.276-.544-.364-.468-.23.19-.356.99-.29 1.844.072 1.004-.15 2.026-.582 2.622-.492.684-.53.564-.168-.544.324-.99.346-1.132.258-1.858-.156-1.35-.022-3.076.252-3.222.208-.11.354.132.27.454-.108.416.04.488.242.112.288-.544.32-.938.11-1.52-.308-.872-.448-1.748-.346-2.144.122-.468.29-.426.26.066-.05.838.548 2.592.904 2.654.058.006.146-.236.194-.548.074-.408.034-.786-.138-1.352-.13-.432-.208-.824-.176-.87.024-.04.176-.352.316-.686.302-.704.802-1.312 1.046-1.27.23.04.186.152-.208.546-.278.276-.348.438-.45 1.014-.148.828.006 2.2.268 2.406.144.114.158.246.064.62-.112.438-.138.468-.356.404-.192-.06-.278-.006-.462.264-.472.696-.458.928.12 2.092.11.222.262.574.336.784.118.332.152.36.266.222.334-.41 1.334-5.002 1.07-4.924-.066.01-.126.106-.15.2-.04.146-.38.306-.58.272-.148-.03.052-.332.45-.706.626-.58.722-.794.596-1.33a22.894 22.894 0 01-.234-1.244c-.106-.678-.096-.806.074-.966.108-.1.206-.216.218-.258.036-.1-1.284-.2-1.742-.13-.45.066-1.174.82-1.806 1.882-.752 1.256-.866 1.412-.852 1.186.006-.23.35-.896.794-1.568a7.72 7.72 0 00.524-.96c.404-.918.864-1.116 2.214-.956 1.288.152 1.48.294 2.102 1.564.268.55.542 1.038.604 1.088.064.05.226.714.366 1.478.138.764.446 2.354.686 3.534.242 1.178.426 2.186.412 2.242-.034.114.484 2.508.572 2.66.074.13.676 2.774 1.258 5.526.246 1.17.514 2.338.596 2.594.082.256.13.544.104.644-.154.588 1.392 6.29 2.528 9.324.22.594.45 1.388.51 1.766.116.76-.052 1.88-.338 2.306l-.034-.004zm-1.868 4.998a9.226 9.226 0 01-1.19-.276c-.414-.132-.352-.134.456.002.514.088 1.052.208 1.19.276.186.086.058.086-.456-.002zm20.188-.95c-.182-.28-.746-1.17-1.25-1.972-.506-.806-1.022-1.574-1.15-1.71l-.232-.246-.496.482c-.3.288-.618.5-.802.532-.166.028-.734.194-1.254.366-.988.326-1.33.382-3 .494-1.994.13-3.322-.052-4.258-.588a3.32 3.32 0 00-.894-.336c-1.08-.186-1.344-.374-2.416-1.718-.55-.694-1.084-1.46-1.18-1.704-.162-.396-.556-1.926-.726-2.82-.032-.184-.164-.606-.284-.936-.124-.33-.296-1.01-.382-1.51a48.155 48.155 0 00-1.344-5.68c-.298-.972-.634-2.226-.748-2.784-.11-.556-.354-1.5-.54-2.096-.188-.596-.388-1.364-.448-1.708-.056-.342-.27-1.092-.468-1.664-.2-.572-.39-1.17-.42-1.33-.082-.402-.786-2.924-1.152-4.112-.53-1.718-.846-4.518-.632-5.558.066-.272.19-.694.304-.936.188-.408.184-.452-.04-.636-.218-.178-.462-.592-1.132-1.924-.132-.258-.756-1.104-1.39-1.878-1.154-1.414-1.514-2.092-1.384-2.604.04-.148-.164-.48-.668-1.094-.832-1.014-.954-1.342-.9-2.436.04-.87-.08-1.32-.422-1.54a1.615 1.615 0 01-.388-.37c-.092-.124-.236-.24-.316-.252-.082-.012-.2-.13-.268-.256-.098-.188-.146-.212-.256-.124-.244.192-.466-.04-.374-.392.064-.24.006-.442-.188-.758-.15-.236-.376-.74-.5-1.12a7.456 7.456 0 00-.638-1.35c-.226-.364-.398-.714-.38-.782.05-.192-.17-.302-.324-.162-.252.234-.464.102-.378-.234.05-.192-.034-.64-.21-1.174-.16-.476-.278-.91-.262-.968.016-.06-.034-.166-.102-.24-.074-.072-.09-.184-.042-.25.052-.066.042-.126-.02-.136-.068-.01-.168-.166-.228-.342-.056-.176-.272-.68-.476-1.118l-.37-.796-.386.248c-.212.136-.518.41-.676.608-.272.336-.288.398-.254.946.074 1.19.338 2.17.734 2.704.598.806.726.696.392-.338-.16-.496-.408-1.128-.552-1.408-.328-.638-.294-.814.066-.362.152.19.476.978.718 1.752l.444 1.408.4.096c.222.052.594.088.83.074.238-.012.468.006.516.046.124.096-.31.326-.638.336-.312.006-.362.094-.254.412.132.374 1.192 2.01 1.472 2.266.33.302.31.432-.064.368-.196-.034-.38-.186-.59-.492a39.463 39.463 0 00-.654-.928 8.259 8.259 0 01-.538-.866c-.104-.21-.57-.71-1.038-1.11-1.522-1.31-2.754-2.44-3.16-2.9-.792-.902-1.082-1.012-2.66-1.012-.922 0-1.524-.084-1.492-.208.034-.138.386-.184 1.358-.18.5.002.926-.004.948-.022.016-.012-.336-.398-.796-.858a38.654 38.654 0 01-1.738-1.9c-1.34-1.584-1.668-1.774-2.632-1.53-.508.13-.606.224-.364.352.084.04.126.182.094.306-.08.304.18.856.516 1.108.154.114.384.416.512.67.128.258.376.702.552.988.174.284.346.726.38.98.064.452.082.47 1.064 1.09.55.348 1.346.88 1.772 1.184a16.5 16.5 0 001.48.922c.388.204 1 .524 1.362.712.362.19.82.494 1.024.674.2.18.41.336.466.348.182.034 1.908 1.492 2.496 2.112 1.046 1.098.882 1.014 1.714.892 1.514-.22 1.268.112-.268.366-.472.078-.908.132-.97.122-.064-.012-.176-.174-.26-.36-.342-.776-2.324-2.528-3.216-2.846-.398-.142-.62-.29-.78-.518-.206-.292-.948-.8-1.256-.86-.074-.012-.304-.138-.522-.274-.218-.136-.44-.256-.498-.27-.058-.01-.632-.404-1.274-.872a38.838 38.838 0 00-2-1.364c-.608-.376-.878-.61-1.008-.872-.208-.42-.888-.996-1.798-1.522-1.226-.71-2.024-1.264-2.864-1.99-.824-.71-1.952-1.504-3.052-2.146-.302-.176-.84-.586-1.198-.912-.954-.874-1.236-1.064-2.11-1.426-1.196-.494-3.298-1.856-4.11-2.666-.204-.202-1.028-.752-1.83-1.224-.806-.472-1.524-.926-1.6-1.01-.074-.084-.582-.424-1.124-.754-.866-.528-1.086-.724-1.832-1.638-.798-.98-.944-1.298-.63-1.39.09-.028.156-.224.202-.552.058-.488.092-.542.656-1.018.328-.278.61-.568.63-.644.096-.368 3.134-2.622 3.46-2.568.074.012.538-.168 1.042-.404.504-.232 1.408-.62 2.01-.858 1.61-.638 2.668-1.332 3.982-2.616.414-.404.59-.502 1.062-.59.31-.06.844-.096 1.188-.082.532.022 2.01-.24 2.042-.358a.537.537 0 00-.04-.212c-.032-.094-.102-.326-.16-.514-.056-.19-.246-.546-.414-.792l-.308-.448-1.548-.414c-1.258-.338-1.678-.416-2.262-.424-1.006-.024-2.1.21-2.39.496-.128.126-.748.472-1.38.764-.632.292-1.424.748-1.76 1.012-.636.502-1.944 1.23-3.098 1.726-1.258.542-4.518 2.55-5.37 3.308-.3.268-.644.544-.76.614-.12.068-.23.184-.248.256-.016.074-.386.48-.812.91-1.852 1.85-3.262 3.48-3.212 3.722.022.136-.576.778-.71.754-.058-.006-.172.066-.264.164-.166.172-.164.174.05.034.18-.12.208-.12.178.004-.042.166-.658 1.2-1.204 2.026-.202.308-.508.864-.676 1.234-.164.372-.49 1.02-.718 1.442-.48.89-1.978 4.254-2.352 5.28-.214.598-.45 1.798-.638 3.33-.022.216-.04.138-.04-.186.006-.802-.186-.536-.404.556l-.182.926.016-.604.018-.602-.358 1.15c-.198.632-.408 1.192-.466 1.24-.066.052-.066.124-.024.162.15.116.052.908-.134 1.064-.108.088-.132.164-.074.21.05.034.05.23.002.422-.122.468.016 3.084.2 3.76.082.294.218.792.302 1.106.084.312.106.532.05.49-.058-.046-.156-.268-.224-.504-.066-.234-.182-.458-.256-.496-.172-.09-.356-1.068-.266-1.414.05-.176.018-.274-.096-.292-.24-.04-.368.568-.272 1.266.052.318.052.894.006 1.28-.038.388-.05.938-.022 1.224.112 1.306.468 2.97.638 2.998.038.006.112.136.15.284.094.356.382.926.472.942.09.01.06-.442-.05-.752-.064-.182-.056-.212.058-.16.228.11.528 1.118.348 1.168-.106.03-.072.144.138.378.198.232.254.382.178.49-.064.096-.038.228.066.352.098.11.268.438.382.726.24.62.37.756.386.408.018-.24.024-.242.126-.046.178.326 1.096 3.62 1.052 3.782-.022.08.066.234.2.338.216.18.306.472.092.306-.14-.11-.138-.024.006.422.074.214.186.402.258.414.254.046.448.39.376.67-.056.206-.006.326.16.442.128.09.23.27.23.404-.006.368 1.156 2.526 1.93 3.586 1.428 1.958 1.976 2.658 2.146 2.746.098.05.158.172.13.272-.024.098.018.196.088.214.074.022.416.422.762.9 1.368 1.896 3.042 4.044 3.314 4.252.158.122.82.812 1.472 1.532.652.722 1.3 1.416 1.434 1.542.134.124.496.46.8.746.304.284.646.596.756.69.112.094.46.392.772.664s.62.502.68.512c.064.012.096.072.08.138-.034.126.36.404.632.45.088.012.2.118.25.23.052.11.176.218.28.234a.4.4 0 01.262.23c.038.11.168.216.284.236.12.024.206.076.194.126-.006.046.04.1.126.114.082.012.526.336.988.716 1.002.82 3.798 2.774 5.712 3.99.76.482 1.466.942 1.57 1.02.302.228 3.672 2.076 5.036 2.762.68.342 1.316.672 1.414.736 1.184.776 5.078 2.594 6.978 3.258.948.33 2.768 1.052 4.048 1.608 2.67 1.156 3.558 1.47 4.786 1.688.482.088 1.064.23 1.294.316.366.142 3.808.882 5.156 1.11.272.046.518.136.548.192.072.144 1.736.518 4.092.922 1.804.308 1.88.314 1.234.1l-.686-.226.554.028c.302.022 1.2.138 1.992.272s1.672.24 1.958.24c.282-.006.908.002 1.386.01.752.012 2.85-.184 4.214-.394.232-.034.936-.066 1.566-.066 1.9-.002 2.29-.012 2.436-.062.268-.082 1.606-.066 3.072.034.806.06 1.59.068 1.746.012.46-.146.5-.59.104-1.198l-.006.02zm.734 1.632c-.074.092-.386.282-.686.426-.52.244-.578.25-1.052.112-.386-.114-.87-.138-2.112-.098-.888.028-2.748.044-4.136.044-2.656-.002-4.852.068-5.512.166-.218.034-1.036.06-1.82.06-2.734 0-9.904-1.166-14.468-2.354-1.404-.364-4.388-1.412-5.622-1.97a23.139 23.139 0 00-1.658-.676c-.378-.126-.774-.304-.884-.392-.262-.212-2.246-.95-3.214-1.196-.51-.128-1.23-.43-2.136-.89-.752-.38-2.05-1.04-2.886-1.462-.836-.424-1.696-.882-1.912-1.02-.422-.268-2.614-1.438-4.428-2.366-1.182-.604-3.02-1.756-4.016-2.518a51.323 51.323 0 00-1.868-1.316 73.344 73.344 0 01-1.73-1.202c-.256-.19-.664-.4-.908-.47-.738-.206-1.378-.664-2.578-1.844-1.266-1.242-2.18-2.078-3.244-2.958-.984-.816-2.362-2.214-3.4-3.446a27.095 27.095 0 00-1.564-1.704c-1.346-1.298-5.518-6.612-6.89-8.774-1.376-2.172-1.534-2.442-1.986-3.408-.868-1.848-.966-2.026-1.848-3.28-1.2-1.714-1.352-1.984-1.99-3.592-.306-.77-.67-1.536-.808-1.702a1.368 1.368 0 01-.268-.698c-.006-.218-.118-1.19-.238-2.158a74.261 74.261 0 01-.292-2.66 56.653 56.653 0 00-.254-2.326c-.102-.786-.192-1.722-.198-2.082-.006-.358-.1-1.024-.204-1.478-.58-2.514-.674-3.062-.748-4.406a94.78 94.78 0 00-.236-3.22c-.086-.964-.144-2.092-.134-2.508.034-1.142.454-3.484.864-4.776.336-1.068 1.692-4.012 2.418-5.268.162-.28.422-.78.58-1.112.444-.942.848-1.564 1.458-2.242.506-.562.842-1.032 1.338-1.876.09-.156.286-.352.436-.436.146-.086.852-.83 1.566-1.656 1.054-1.222 1.342-1.498 1.538-1.49.144.012.462-.16.796-.422.802-.626 1.828-1.412 2.326-1.776.236-.176.42-.376.406-.446-.018-.07.092-.188.23-.264.236-.126.458-.414.788-1.024.066-.136.294-.328.494-.428.196-.098.508-.292.688-.428.5-.378 3.284-1.598 3.898-1.706.296-.052.836-.184 1.196-.296.36-.108.684-.194.72-.188.032.006.228-.046.428-.118.552-.194 2.878-.282 4.3-.16 1.526.13 3.878 1.034 5.698 2.184a6.366 6.366 0 012.1 2.224c.122.212.508.6.864.868.426.316.888.812 1.35 1.446.388.53.896 1.106 1.128 1.278.384.284.418.35.34.648-.05.182-.178.394-.29.476-.292.206-.364.568-.228 1.13.14.57.834 1.244 2.012 1.962 1.02.618 2.098 1.522 2.46 2.058.168.252.404.75.524 1.106.48 1.44.982 2.546 1.462 3.228.28.396 1.034 1.476 1.676 2.4.642.924 1.394 1.996 1.674 2.384.396.552.538.88.662 1.52.144.754.216.89.944 1.778.462.566.784 1.06.782 1.204-.002.132.034.34.082.458.084.226 1.6 3.246 1.858 3.704.534.942 1.476 3.086 1.802 4.102.302.928.462 1.258.71 1.45.614.476 1.32 1.972 1.524 3.234.088.534.624 1.332.932 1.386.234.04.586.442.832.95.114.232.4.714.64 1.07.354.53.418.708.346.98-.122.474-.05 1.374.138 1.75.088.176.406.634.702 1.018.416.534.564.834.63 1.27.11.734.292 1.074.904 1.696.834.846 1.94 2.268 2.202 2.83.134.294.712 1.074 1.28 1.732 1.402 1.626 2.666 3.258 3.452 4.458.766 1.166 2.094 3.554 2.056 3.694-.018.052.082.184.208.288.584.478 1.414 1.626 1.516 2.098.094.432.176.532.694.876.698.46 2.132 2.168 2.056 2.448-.162.624.652 2.674 1.548 3.904 2.204 3.022 3.456 4.944 3.774 5.796.25.67.42.904.978 1.338.762.592 1.11 1.23 1.556 2.828l.428 1.538.944 1.144c.516.63.986 1.154 1.042 1.164.102.022.494 1.276.452 1.444-.016.05.074.202.192.338.118.14.27.442.336.67.066.23.316.698.55 1.038.236.342.542.85.68 1.13.138.282.52.854.85 1.27.482.606.61.86.652 1.268.056.552-.024.96-.242 1.222h-.002z" fill="none" stroke="#3bb34b" stroke-width=".74"/></svg>