<svg viewBox="0 0 80 98" xmlns="http://www.w3.org/2000/svg" fill-rule="evenodd" clip-rule="evenodd" stroke-linejoin="round" stroke-miterlimit="2"><path d="M15.382 32.826c.534-.408.63-.55.63-.948 0-.386-.058-.48-.348-.552-.57-.142-.946.124-1.136.8-.164.586-.104 1.18.118 1.18.06 0 .39-.216.736-.48m20.654 6.128c-.212-.55-.394-3.012-.33-4.47.12-2.768 1.03-4.974 2.752-6.668.948-.934 2.266-1.842 2.728-1.878.182-.018.39.386.918 1.774.376.988.714 1.794.752 1.792.036 0 .338-.626.67-1.386.332-.762.836-1.886 1.122-2.498l.518-1.11.438.148c1.582.534 3.604 3.016 5.296 6.506.46.948.89 1.726.958 1.728.206.012-.026-3.634-.31-4.872-.578-2.506-2.132-5.68-3.772-7.7-.26-.318-.442-.658-.404-.754.092-.242 1.352-.628 2.36-.724 1.89-.18 4.846.626 7.936 2.164 1.098.546 2 .95 2 .896 0-.218-2.138-2.348-2.906-2.894-1.6-1.14-3.768-2.09-6.214-2.726-1.516-.396-1.638-.456-1.522-.758.258-.67 3.616-1.576 5.99-1.618.432-.006.94-.068 1.126-.132.46-.162-4.866-.03-5.83.146-.41.074-1.554.26-2.544.412-1.856.286-4.414.934-6.06 1.536-.52.188-.968.318-.998.288-.032-.03.216-.44.548-.908 1.27-1.792 1.576-2.25 2.37-3.566 1.148-1.902 1.88-3.404 2.364-4.842.362-1.082.408-1.39.368-2.424-.042-1.062-.09-1.246-.46-1.772-.226-.324-.672-.732-.99-.908-.564-.31-.584-.312-.858-.066-.48.43-1.424 1.722-1.926 2.634-1.23 2.238-2 5.5-2.192 9.296l-.098 1.918-.896-.58c-1.09-.702-2.514-1.426-3.864-1.962-1.022-.406-3.082-.984-3.176-.892-.046.046.47.538 1.398 1.33.224.192.376.372.338.406-.036.036-.494.012-1.016-.044-.522-.06-1.926-.15-3.118-.202-4.864-.212-8.944.66-11.8 2.526-.958.626-2.774 2.288-2.774 2.54 0 .064.288-.022.644-.192 1.742-.844 5.284-.98 8.198-.312l.64.148-1.29 1.308c-.708.72-1.684 1.86-2.164 2.528-1.014 1.414-2.264 3.84-2.582 5.018-.292 1.072-.406 3.608-.204 4.554.3 1.422.824 2.422.826 1.582.002-.728.858-3.486 1.488-4.79.548-1.134.87-1.604 1.662-2.418.82-.842 1.106-1.044 1.72-1.222 1.442-.418 4.682-.212 7.36.47 1.332.34 4.338 1.32 4.464 1.458.048.05-.146.8-.432 1.664-1.296 3.928-1.554 7.578-.662 9.356.37.74 1.684 1.798 1.44 1.162m23.838-10.946c.236-.746-.346-1.888-.962-1.888-.324 0-.466.234-.466.766 0 .482.226.838.722 1.14.542.332.596.33.706-.016v-.002zm-.446 1.37c-1.372-.622-2.066-1.552-2.066-2.77 0-1.202.636-1.984 1.448-1.782.568.142 1.268.726 1.482 1.24.276.664.258 3.084-.024 3.368-.116.116-.222.21-.236.208-.012-.002-.284-.12-.602-.264h-.002zM43.226 37.78c.198-.672.146-1.09-.178-1.412-.278-.28-.408-.27-.734.058-.354.354-.348.998.014 1.584.378.61.674.534.898-.23zm-1.114 1.48c-.646-.598-1.156-1.688-1.15-2.468 0-.24.116-.686.254-.994.482-1.058 1.3-1.29 2.092-.594.706.618.836 1.054.65 2.172a11.006 11.006 0 01-.434 1.69c-.348.926-.582.96-1.412.194m-13.422-.944c.156-.492-.07-1.33-.438-1.618-.434-.342-.668-.344-.846-.012-.266.492-.16.966.32 1.444.526.526.836.586.964.186m-.612 1.284c-1.282-.73-1.898-1.624-1.898-2.758 0-.57.07-.758.434-1.172.39-.444.484-.486.954-.424.622.084 1.1.374 1.422.868.294.45.43 3.084.182 3.546-.198.372-.35.364-1.094-.06m41.236-.618c.192-.634.058-1.182-.328-1.324-.414-.152-.762.098-.858.618-.098.518-.002.854.38 1.342.276.348.296.354.472.114.102-.138.252-.476.334-.75zm-1.186 1.708c-.76-.76-1.032-1.384-1.032-2.376 0-1.184.458-1.858 1.41-2.078.47-.11 1.242.532 1.468 1.216.312.942-.53 3.854-1.112 3.854-.064 0-.396-.276-.734-.616m-16.884 1.248c.254-.308.544-1.274.468-1.566-.04-.15-.23-.376-.422-.504-.338-.222-.358-.218-.662.138-.394.456-.4.91-.02 1.586.322.574.408.618.636.346m-.654 1.182c-1.028-.864-1.482-2.46-1.036-3.632.242-.63.57-.924 1.216-1.082.342-.084.462-.018.984.524.532.556.592.686.592 1.272 0 .942-.88 3.272-1.234 3.272-.056 0-.29-.158-.522-.354m-39.746 1.514c.212-.842.194-1.03-.142-1.388-.4-.424-.61-.394-.928.126-.302.498-.258.778.228 1.424.446.596.662.556.842-.162m-.73 1.71c-.83-.506-1.558-1.826-1.558-2.822 0-.948.724-1.946 1.41-1.946.444 0 1.236.608 1.488 1.138.194.406.206.614.082 1.4-.204 1.298-.396 1.968-.642 2.242-.262.294-.28.292-.78-.012m27.038 4.784c.154-.412.28-.8.28-.86 0-.244-.576-.828-.814-.828-.33 0-.676.502-.676.982 0 .394.588 1.458.806 1.458.068 0 .25-.338.404-.752m-1.202 1.438c-1.186-1.186-1.264-3.42-.148-4.178.58-.392.89-.382 1.45.042.93.71 1.054 1.516.468 3.042-.382.998-.78 1.628-1.03 1.628-.114 0-.446-.24-.74-.536v.002zm27.648 2.722c0-.834-.396-1.41-.928-1.346-1.054.122-.42 1.954.692 1.998.194.004.236-.11.236-.652m-.61 1.786c-1.614-.864-2.36-2.49-1.74-3.796.27-.572.682-.784 1.298-.666.468.086 1.15.688 1.456 1.282.182.356.248 2.628.088 3.104-.124.364-.514.39-1.102.076m-45.352-1.778c.004-1.064-1.098-1.696-1.41-.808-.184.528.196 1.282.77 1.524.534.224.638.108.64-.716m-.608 1.918c-1.088-.572-1.966-1.804-1.966-2.762 0-.908.592-1.758 1.226-1.758.43 0 1.148.46 1.542.994.234.314.292.62.33 1.734.026.744.01 1.504-.036 1.686-.098.392-.482.428-1.094.106h-.002zm28.654 4.312c.086-.29.156-.686.156-.884 0-.352-.412-.898-.678-.898-.262 0-.678.544-.678.89 0 .554.536 1.414.882 1.414.088 0 .23-.236.318-.524v.002zm-.754 1.612c-1.082-.664-1.776-2.438-1.4-3.578.188-.572.846-1.172 1.284-1.172.454 0 1.192.548 1.496 1.112.244.452.254.576.104 1.444-.222 1.3-.6 2.384-.844 2.426-.112.024-.4-.084-.64-.232m-14.546-.674c0-.706-.042-.838-.356-1.084-.578-.454-.868-.332-1.054.442-.078.326-.01.462.44.916.774.772.97.716.97-.274m-.476 1.894c-1.082-.54-2.1-1.874-2.1-2.75 0-.87.622-1.73 1.25-1.73.634 0 1.398.474 1.66 1.028.458.962.41 3.598-.068 3.686-.108.024-.442-.086-.742-.236v.002zm26.508 5.694c0-.656-.056-.858-.298-1.084-.554-.518-1.058-.272-1.058.514 0 .358.112.57.484.922.716.676.872.614.872-.352m-.856 1.612c-.798-.53-1.226-1.038-1.52-1.808-.314-.822-.18-1.484.422-2.084.506-.506.802-.518 1.6-.052.746.434.942.858 1.006 2.188.032.668.018 1.43-.032 1.696-.078.414-.144.48-.468.48-.208 0-.662-.19-1.008-.418v-.002zm-16.362 1.97c0-.622-.06-.81-.342-1.094-.21-.208-.46-.326-.644-.298-.256.034-.308.136-.336.652-.034.64.086.88.64 1.26.568.392.682.304.682-.52m-.408 1.878c-.576-.224-1.478-1.046-1.804-1.644-.548-1.006-.48-1.8.218-2.568.588-.644 1.954-.21 2.356.748.26.622.388 2.378.22 3.016-.126.482-.482.642-.99.448m15.83 5.37c.592-.566.628-.656.49-1.172-.192-.722-1.158-.378-1.424.508-.17.568-.07 1.218.19 1.216.092 0 .426-.25.744-.554v.002zm-1.564 1.604c-.538-.662-.53-2.704.012-3.51.358-.526 1.33-1.066 1.924-1.066.556 0 .898.38 1.01 1.12.138.92-.038 1.42-.76 2.158-.614.624-1.734 1.468-1.952 1.468-.054 0-.158-.076-.234-.17zm-8.438 1.628c-.004-.498-.576-1.374-.996-1.52-.318-.112-.416-.09-.574.124-.264.362-.238.652.1 1.082.51.65 1.474.856 1.47.314m-.868 1.228c-1.012-.358-1.896-1.198-2.034-1.934-.138-.734.028-1.53.37-1.77.414-.29 1.26-.25 1.862.088.71.398 1.382 1.852 1.402 3.032.016.81.016.812-.39.84-.224.018-.768-.102-1.208-.256h-.002zm6.332 8.908c3.08-.802 6.994-4.382 10.46-9.56 2.018-3.02 2.816-5.184 3.594-9.762 1.532-9.012 2.144-10.7 6.578-18.1 4.316-7.204 4.98-9.106 5.352-15.332.37-6.172-.594-11.042-2.964-14.974-2.78-4.616-6.112-7.802-10.202-9.752-2.658-1.268-5.398-1.948-7.91-1.962-1.194-.006-1.44.034-2.024.334-.366.188-.688.41-.716.492-.032.094.306.216.866.314 2.856.496 5.61 2.594 7.05 5.368.654 1.262 1.618 3.72 1.458 3.72-.04 0-.574-.418-1.184-.932-2.006-1.684-4.198-2.874-6.31-3.424-1.102-.288-4.162-.518-4.07-.31.03.07.44.88.908 1.802 1.946 3.812 2.578 7.316 1.986 11-.228 1.41-.594 2.848-.726 2.844-.046 0-.356-.526-.69-1.168-1.286-2.47-3.04-4.86-4.752-6.474-1.506-1.422-1.26-1.562-2.722 1.55-.698 1.488-1.322 2.69-1.384 2.668-.062-.022-.542-1.012-1.068-2.204-.526-1.19-1.01-2.224-1.074-2.294-.158-.17-.934.58-1.696 1.642-2.106 2.93-2.506 6.456-1.124 9.918.216.548.394 1.05.394 1.12 0 .202-1.39.142-2.068-.088-.8-.272-1.676-1.048-2.23-1.976-.984-1.642-1.35-5.008-.932-8.59.122-1.044.256-2.056.298-2.252.072-.33.014-.378-.818-.71-2.208-.884-4.734-1.254-6.294-.918-1.9.406-3.516 1.734-4.642 3.816C20.42 31.908 20 33.37 19.83 35.59l-.09 1.174-.678-.88c-.742-.964-1.966-3.276-1.966-3.72 0-.234-.042-.212-.256.138-.43.708-2.352 2.088-2.902 2.088-.394 0-.542-.522-.466-1.644.13-1.894 1.03-2.894 2.506-2.79l.712.052v-.578c0-2.634.998-5.238 3.128-8.174.574-.792.996-1.458.936-1.478-.152-.06-2.07.594-2.902.99-.944.446-1.85 1.142-3.646 2.798-3.024 2.79-4.326 4.648-6.922 9.878-3.396 6.84-4.124 9.372-3.982 13.838.058 1.79.14 2.486.418 3.552.428 1.634 1.416 3.566 2.7 5.278 1.82 2.426 3.194 3.71 8.508 7.95 4.714 3.76 6.706 5.42 8.248 6.872 2.408 2.266 4.414 5.036 7.41 10.23 2.9 5.032 4.018 6.478 6.524 8.446 4.468 3.508 9.882 5.444 12.97 4.64m-4.3 3.316c-3.786-.798-8.742-3.376-11.196-5.826-1.702-1.7-2.982-3.556-5.536-8.024-4.272-7.474-5.784-9.202-14.798-16.918-6.232-5.33-8.27-7.318-10.024-9.776-2.012-2.818-2.89-4.928-3.156-7.588-.22-2.202.024-6.236.504-8.332 1.114-4.864 3.74-10.538 6.714-14.508 1.402-1.87 3.732-4.124 6.378-6.166.434-.336.794-.648.798-.694.01-.138-1.624.284-2.166.558a5.96 5.96 0 00-.934.62c-.236.2-.462.332-.498.294-.038-.038.314-.64.782-1.338 1.512-2.26 4.082-4.596 6.286-5.714 1.11-.562 3.41-1.312 4.716-1.536 1.472-.254 4.888-.294 6.382-.074.588.088 1.096.136 1.124.106.03-.03-.744-.558-1.72-1.174-.974-.614-1.752-1.138-1.728-1.162.074-.074 2.198.33 3.65.694 2.958.744 5.454 1.658 6.736 2.47.402.254.776.41.834.35.056-.06.142-.448.188-.858.592-5.152 2.266-10.652 3.78-12.402l.46-.534 1.022.162c1.404.216 2.406.62 3.13 1.256.86.756 1.178 1.478 1.178 2.666 0 1.982-1.084 4.354-3.502 7.672-.476.658-.844 1.218-.816 1.246.028.028 1.088-.074 2.354-.23 1.906-.234 3.122-.284 7.048-.296 4.438-.012 4.844.006 6.274.296 6.37 1.292 11.28 4.942 15.68 11.656 2.002 3.058 3.078 6.31 3.488 10.54.304 3.148-.104 9.858-.75 12.338-.692 2.658-1.872 5.106-4.916 10.198-4.534 7.58-5.164 9.296-6.834 18.61-.956 5.32-1.762 7.65-3.664 10.576-2.332 3.592-5.456 7.196-7.676 8.864-1.292.97-2.798 1.754-3.93 2.05-1.128.294-4.108.256-5.662-.072" fill="#fa3880" fill-rule="nonzero"/></svg>