<svg viewBox="0 0 316 715" xmlns="http://www.w3.org/2000/svg" fill-rule="evenodd" clip-rule="evenodd" stroke-linejoin="round" stroke-miterlimit="2"><path d="M18.51 704.143c-.07-.074-.103-.183-.136-.292-.27-.655 1.279-.649 1.973-1.027.55-.381 1.376-.25 1.545-1.183.13-.825-.591-2.105-1.431-2.992-.526-.555-1.09-1.003-1.63-1.054-.394-.046-.51.275-.765.376-.841.445-1.44 1.294-2.345 1.449-.592-.772.93-1.091.334-1.719a5.384 5.384 0 00-.105-.112c-.883-.635-1.824-.445-2.671.216-.77.52-1.543 1.111-2.28 1.739-4.021 3.457-3.436 8.445-.004 12.068l.595.629c.387.334.922.529 1.5.472 1.77-.204 3.273-1.135 4.567-2.361.222-.21.555-.525.345-.747-.07-.074-.177-.113-.356-.154-.5-.158-.784-.31-.89-.42-.314-.333.557-.598.925-.876.514-.346 1.025-.62 1.537-.895.432.012.862.096 1.022-.476-.461-.265-.722.052-1.051.223a3.29 3.29 0 00-.613.02c-.325.027-.694.377-.94.118-.035-.037-.068-.146-.136-.292-.095-.471.446-.492.81-.626.908-.3 1.817-.6 2.726-.898.655-.271.815-.843.652-1.46.002-.072-.07-.146-.103-.183-.245-.259-.685.018-1.01.045-.685.017-1.61.892-2.065.412zm3.644-6.817c.17.329.379.623.585.988.403 1.092.769 2.219 1.206 3.347l.097.399c.084 2.235-.654 4.196-1.93 6.035-1.178.977-1.51 2.553-2.548 3.677-1.545 1.184-2.88 2.588-5.221 2.56-2.053-.02-4.23-.763-5.596-2.205a5.237 5.237 0 01-.902-1.25 2.621 2.621 0 00-.346-.513c-.197-.726-.356-1.487-.518-2.175-.064-.29-.13-.508-.16-.761a3.976 3.976 0 00-.281-1.556c.594-1.966.796-4.122 2.248-5.847 1.75-2.151 3.672-3.9 6.497-4.471.356.153.68.127.975-.082 1.076.174 2.193.168 3.28-.091a71.693 71.693 0 012.614 1.945" fill-rule="nonzero"/><path d="M16.044 704.724c.315.333.518.843.362 1.271-.196.607-.848.734-1.395.971-.18.03-.358-.082-.463-.193-.035-.036-.033-.109-.033-.109.55-.381.38-.71.1-1.005a20.348 20.348 0 00-.28-.296c-.176-.185-.314-.406-.237-.619.656-.271 1.242-.615 1.77-.132.034.037.106.039.176.113v-.001zm3.469-5.669c.313.404.09.615-.235.714-.767.376-1.532.679-2.297.982-.218.067-.542.094-.647-.017-.071-.075-.07-.146-.028-.325.203-.823 1.103-.834 1.727-1.214.367-.279.982-.369 1.48-.14m1.258 1.403c.348.441.16.761-.205.895-.874.408-1.748.745-2.658 1.116-.181.031-.432-.012-.537-.122-.071-.075-.067-.218.045-.324.92-.731 1.908-1.316 3.07-1.645l.286.08zm-4.761 1.564c.21.222.166.545-.126.681-.401.17-.95.478-1.374.178l-.07-.073c-.21-.222.12-.465.27-.678.44-.275.88-.551 1.3-.108m264.205-422.663c-.436.106-.696-.412-1.249-.348.457.562.457.562 1.249.348m-2.865-1.65c1.05-.995 2.579-.835 3.687.336.688.726.903 1.518.174 2.285l-.04.038c-.929.879-3.127.741-4.159-.349-.454-.641-.431-1.506.217-2.196l.121-.114m30.355 27.522c-.04.039-.121.115-.2.113-.556.22-.522-1.037-.862-1.557-.301-.48-.166-1.145-.949-1.245-.665-.136-1.663.427-2.429 1.153-.445.42-.772.883-.861 1.274-.049.352.263.44.376.639.335.678 1.029 1.169 1.127 1.918-.6.417-.883-.771-1.367-.312l-.121.115c-.491.694-.315 1.446.178 2.128.455.641.949 1.244 1.444 1.847 2.744 3.22 6.767 2.78 9.713-.011l.484-.458c.284-.347.452-.735.425-1.169-.195-1.499-.911-2.659-1.905-3.708-.192-.203-.459-.485-.66-.294-.04.038-.083.155-.125.272-.09.391-.175.624-.296.739-.283.267-.499-.446-.727-.767-.224-.4-.45-.799-.713-1.238.008-.314.057-.668-.372-.796-.206.348.024.59.174.83l.025.512c-.005.236.262.518.06.71a.422.422 0 01-.199.112c-.396.068-.423-.365-.495-.603-.255-.754-.472-1.468-.767-2.183-.181-.595-.687-.727-1.163-.582-.041.038-.119.036-.16.074-.201.191.023.591.017.826.064.553.711 1.317.348 1.661m-5.465-2.94c.24-.15.519-.261.799-.45.873-.291 1.748-.66 2.661-.99l.357-.108c1.769.009 3.405.604 4.872 1.587.76.964 2.049 1.275 2.932 2.046.989 1.285 2.139 2.338 2.088 4.225-.007 1.69-.603 3.404-1.774 4.512a4.38 4.38 0 01-1.002.721l-.441.263c-.593.18-1.148.322-1.781.463l-.555.142c-.43-.051-.826.017-1.263.201-1.599-.475-3.326-.601-4.749-1.78-1.731-1.423-3.103-3.033-3.552-5.287.125-.271.053-.509-.098-.75.143-.9.128-1.805-.085-2.675.492-.695 1.061-1.387 1.591-2.12" fill-rule="nonzero"/><path d="M303.598 304.451c.361-.266.514-.104.624.174.26.597.517 1.273.775 1.869.035.198.069.395-.053.511-.04.038-.08.076-.198.033-.703-.176-.721-.923-1.023-1.403a1.253 1.253 0 01-.125-1.184zm-25.159-13.305c-.161.153-.32.228-.671.1.251-.544.461-1.05.75-1.553.208-.426.179-.781-.327-.992-1.087-.501-2.177-.924-3.356-.956-.94-.104-1.771.07-2.295.567-.283.268-.451.656-.541 1.126-.249 1.919 2.258 5.133 4.218 5.344 1.844.168 3.439-.654 4.953-1.399.16-.074.241-.151.362-.266.444-.42.463-1.127.13-1.884-.16.075-.241.151-.362.266l-.161.153-.121.115c-.323.305-.683.57-1.227.32-1.436-.708.397-1.601-.134-2.323-.159.074-.278.11-.4.225-.201.191-.329.541-.493.773l-.12.114-.121.115c-.041.038-.043.116-.083.155h-.001zm-6.664-3.641c.605-.573 1.361-.907 2.345-.919 2.991-.076 5.645.625 7.954 2.497 1.578 1.261 1.71 2.208.758 3.952a4.81 4.81 0 01-1.063 1.465c-1.977 1.874-5.461 2.722-7.856 1.163-.579-.37-.957-.93-1.574-1.419-1.374-1.532-2.546-3.254-1.462-5.505.289-.504.536-.89.899-1.234h-.001z" fill-rule="nonzero"/><path d="M275.552 288.906c.04-.039.119-.036.197-.034.355-.03.901.142.767.728-.092.47.051 1.024-.315 1.447-.238.072-.39-.09-.464-.249a12.583 12.583 0 00-.123-1.262c-.035-.197-.224-.477-.062-.63zm2.295 3.797c.24-.15.479-.223.591-.023.263.44.172.909-.074 1.295l-.081.077c-.122.114-.355.029-.389-.168-.147-.397-.331-.835-.046-1.181h-.001zm-.14-3.543c.121-.115.278-.111.434-.027.233.085.227.32.104.514-.289.503-.654.926-.981 1.388l-.194-.123c-.023-.59.266-1.093.555-1.596.002-.079.043-.117.083-.156h-.001zm-2.95.039l.202-.192c.301.48.604.96.2 1.343-.08.077-.242.228-.44.263-.065-.474-.405-.995.038-1.414" fill-rule="nonzero"/><path d="M25.111 151.087c1.187.428 1.703 2.05 1.196 3.591-.37 1.159-1.282 1.166-2.16.945-1.117-.354-1.996-2.299-1.599-3.401.442-1.229 1.234-1.566 2.563-1.135m-1.026 1.785c-.107.297-.287.662.064.885.436.252.52-.244.68-.426.221-.35.101-.681-.207-.888-.324-.163-.446.175-.537.429" fill="#2b2a29" fill-rule="nonzero"/><path d="M27.519 357.659c-.332-.406.078-.881-.293-1.446-.333.79-.333.79.293 1.446m.2-3.614c1.484.534 2.1 2.145 1.506 3.798-.352.974-1.008 1.6-2.183 1.272l-.042-.016c-1.314-.472-2.286-2.69-1.68-4.243.376-.774 1.225-1.138 2.23-.873.043.016.127.047.17.061v.001zM9.621 264.087c.34.12.407-.332.525-.529.25-.293.144-.666-.179-.83l-.085-.032c-.255-.089-.36.205-.452.46-.107.296-.288.662.08.842.025.06.07.073.111.09v-.001zm.834-2.715c1.187.427 1.72 2.007 1.212 3.548-.37 1.159-1.282 1.166-2.16.945l-.085-.031c-1.1-.397-1.91-2.268-1.514-3.37.385-1.202 1.234-1.566 2.548-1.093v.001z" fill="#434242" fill-rule="nonzero"/><path d="M290.999 5.927c.192-2.182.687-4.3 3.24-5.047 1.525-.468 2.826-.247 4.016.975 2.218 2.257 3.581 4.808 3.801 8.028.12 2.114-.505 2.906-2.563 3.469-3.176.88-7.848-1.411-8.473-5.141-.127-.711.01-1.448-.021-2.284m6.855-2.695c-.918-1.335-2.293-1.78-3.354-1.018-1.706 1.2-2.39 5.456-1.146 7.165 1.164 1.615 2.966 2.22 4.675 2.907.901.325 1.641-.24 2.056-1.177-.774-.228-1.678.15-2.003-.883-.505-1.615 1.504-.82 1.657-1.776-.463-.294-.962-.064-1.407.038-.347-.069-.802.164-1.112-.428.673-.218 1.212-.4 1.748-.54.537-.139.816-.384.593-.969-.445-1.216-.851-2.34-1.707-3.32z" fill-rule="nonzero"/><path d="M296.123 6.099c.283-.288.613-.617.898-.95.191-.205.273-.77.642-.394.247.237.559.828.011 1.142-.499.23-.8.78-1.414.782-.21-.146-.195-.364-.137-.58m.054 3.076c.26.063.514.21.454.426-.17.56-.624.791-1.114.89-.268.07-.382-.2-.276-.457.201-.382.406-.807.936-.859m.834-1.918c.47-.451 1.046-.543 1.629-.723.225-.073.483-.011.555.255.066.312-.121.475-.343.503-.62.09-1.195.139-1.772.23l-.069-.265zm-.061-2.989c-.182.733-.407 1.465-1.423.913.379-.413.566-1.236 1.423-.913m-37.906 48.827c-.42-.292-.162-.845-.66-1.274-.1.827-.1.827.66 1.274m-.776-3.433c1.529.104 2.535 1.445 2.42 3.149-.069 1.006-.516 1.765-1.702 1.773l-.041-.004c-1.354-.092-2.855-1.906-2.702-3.52.144-.824.841-1.391 1.852-1.41l.175.012h-.002zm-21.273-2.191a.333.333 0 01-.169-.1c-.209-.147-.107-.359.039-.568.353-.679.709-1.401 1.107-2.076.94-1.56.867-1.785-.688-2.812-.544-.388-1.105-.515-1.674-.553-.175-.012-.349-.024-.527.008l-.364.195c-1.717.718-2.765 1.919-2.764 3.851-.028 1.71.258 3.309 1.215 4.735.756 1.149 2.304 2.264 3.921 2.373.874.06 1.768-.187 2.605-.876.362-.151.554-.402.453-.847-.408.191-.676.261-.851.249-.219-.015-.2-.277-.115-.886.011-.174.112-.342-.108-.358 0 0-.042-.003-.088-.004-.135.034-.268.069-.399.06-.175-.012-.256-.105-.236-.411.073-.434.35-.634.84-.733 1.643-.283 1.848-.708 1.072-2.209-.356.063-.4.718-.837.689-.041-.003-.131-.008-.259-.062l.005-.045-.005.045c.005-.045.005-.045-.041-.046-.002-.614.469-1.065.722-1.575.25-.466.149-.912-.236-1.069-.088-.005-.131-.009-.218-.015-.305-.021-.333.373-.397.675-.158 1.043-1.193 1.412-1.687 2.212-.052.129-.186.163-.317.154l.001-.001zm-1.349-7.291c1.486.102 2.84.852 3.867 1.887 1.359 1.321 2.35 2.882 2.791 4.799.493 1.789.459 3.586-.526 5.144-.98 1.514-2.788 2.269-4.579 2.147-1.266-.086-2.548-.612-3.494-1.554-2.013-2.024-2.945-4.458-2.919-6.783.218-3.848 1.793-5.716 4.599-5.657.088.004.174.012.261.018v-.001z" fill-rule="nonzero"/><path d="M237.734 43.044c.089.004.128.052.21.146l.019.352c-.44.672-.88 1.345-1.365 2.014l-.314.111c-.216-.059-.248-.236-.227-.542.268-.684.713-1.444 1.406-1.968.094-.082.184-.119.272-.113h-.001zm-1.545 5.294c.304.064.514.209.416.335-.248.423-.245 1.038-.741 1.223-.046.041-.09.038-.134.035-.175-.011-.247-.236-.232-.455.076-.477.28-.903.691-1.138m-1.106-6.967c.712 1.146-1.027 1.554-.706 2.63-.637-.965-.018-1.67.342-2.435l.364-.195zm4.089 5.721l-.006.045c.498.43.04.705-.158 1.043-.05.085-.143.166-.274.157a.33.33 0 01-.168-.1c-.201-.277.12-.475.181-.734.101-.213.201-.382.42-.367l.005-.045v.001zm-.907 3.011c.131.008.122.14.16.23-.012.175-.109.3-.289.375a2 2 0 00-.088-.004c-.132-.008-.122-.14-.163-.186.015-.219.068-.347.292-.419.041.003.041.003.088.004m6.897 42.565c1.224.083 2.143 1.418 2.079 2.995-.036 1.182-.888 1.432-1.767 1.46-1.142.01-2.483-1.574-2.403-2.753.083-1.224.737-1.794 2.091-1.702m-.479 1.899c-.022.306-.092.696.295.81.475.12.42-.366.523-.579.114-.387-.087-.664-.434-.732-.342-.112-.37.282-.384.501M8.702 523.687a.43.43 0 01-.224-.101c-.282-.152-.184-.431-.033-.713.345-.895.688-1.845 1.09-2.743.952-2.077.831-2.346-1.25-3.41-.734-.407-1.453-.486-2.166-.454-.22.011-.439.022-.657.084l-.427.294c-2.04 1.135-3.177 2.78-2.906 5.188.204 2.135.785 4.09 2.177 5.734 1.104 1.326 3.19 2.499 5.222 2.409 1.097-.049 2.178-.48 3.125-1.457.43-.239.635-.578.446-1.12-.482.297-.807.421-1.026.431-.274.01-.289-.318-.268-1.088-.01-.22.09-.445-.184-.433l-.11.005c-.163.062-.325.124-.489.131-.22.011-.334-.095-.35-.48.032-.551.346-.84.943-1.031 2.01-.584 2.205-1.142 1.027-2.905-.434.129-.398.952-.947.976-.055.002-.164.006-.33-.039l-.004-.054.003.054c-.003-.054-.003-.054-.058-.054-.089-.766.434-1.394.68-2.065.247-.616.058-1.158-.443-1.301l-.274.011c-.384.017-.363.511-.4.898-.05 1.322-1.29 1.926-1.794 2.994-.049.167-.209.228-.374.236l.001.003zM6 514.786c1.866-.082 3.66.664 5.084 1.811 1.88 1.457 3.334 3.263 4.152 5.592.865 2.161 1.074 4.407.066 6.486-1.01 2.025-3.159 3.22-5.409 3.319-1.592.07-3.263-.407-4.573-1.449-2.794-2.242-4.297-5.145-4.59-8.047-.268-4.829 1.435-7.378 4.941-7.698.11-.004.22-.01.33-.016v.002zm160.927 63.808c-.436.106-.696-.412-1.249-.349.457.563.457.563 1.249.349m-2.865-1.651c1.05-.994 2.578-.834 3.686.337.689.725.903 1.518.174 2.285l-.04.038c-.928.879-3.126.74-4.158-.349-.454-.641-.432-1.507.217-2.196l.121-.114v-.001zm30.354 27.523c-.04.038-.12.114-.199.112-.557.221-.523-1.037-.863-1.556-.3-.481-.165-1.146-.949-1.245-.664-.136-1.663.426-2.429 1.153-.444.42-.771.883-.861 1.274-.049.352.264.44.376.639.336.678 1.03 1.169 1.128 1.918-.601.417-.884-.771-1.368-.313l-.121.116c-.49.694-.315 1.446.179 2.128.454.64.949 1.244 1.444 1.847 2.743 3.22 6.766 2.78 9.712-.011l.484-.459c.285-.346.453-.735.425-1.168-.195-1.499-.91-2.66-1.904-3.708-.192-.203-.459-.485-.66-.294-.041.038-.083.155-.126.271-.09.391-.174.625-.295.739-.284.268-.499-.446-.727-.766-.225-.4-.45-.799-.714-1.239.009-.314.058-.667-.371-.795-.207.347.024.59.174.83l.025.512c-.006.236.262.518.06.709-.041.038-.081.077-.2.113-.395.068-.423-.366-.494-.603-.255-.754-.472-1.468-.767-2.183-.181-.595-.688-.727-1.164-.583-.04.039-.119.037-.159.075-.201.191.023.591.016.826.065.553.711 1.317.349 1.661h-.001zm-5.464-2.94c.24-.151.519-.261.799-.451.873-.291 1.748-.66 2.661-.989l.357-.108c1.769.009 3.404.603 4.872 1.587.759.964 2.048 1.274 2.932 2.046.988 1.285 2.139 2.338 2.087 4.224-.007 1.691-.603 3.404-1.773 4.513a4.395 4.395 0 01-1.003.721l-.44.262c-.594.181-1.148.323-1.782.463l-.554.143c-.43-.051-.826.016-1.263.201-1.6-.476-3.326-.602-4.749-1.78-1.731-1.423-3.103-3.034-3.553-5.287.126-.271.054-.509-.098-.75.143-.9.128-1.805-.084-2.676.491-.695 1.06-1.386 1.591-2.119" fill-rule="nonzero"/><path d="M194.911 606.524c.283-.268.642-.454 1.032-.364.468.17.611.723.757 1.121l-.209.427c-.342-.442-.582-.291-.824-.062l-.12.114-.121.116c-.162.152-.322.226-.517.182-.183-.516-.484-.996-.118-1.419l.121-.114-.001-.001zm-4.601-2.838c.36-.266.514-.104.624.175.259.596.516 1.272.774 1.869.035.197.069.394-.052.51-.04.038-.081.076-.198.034-.703-.177-.722-.924-1.023-1.404a1.254 1.254 0 01-.126-1.183l.001-.001zm1.167-1.03c.322-.306.593-.102.703.177.335.677.63 1.393.885 2.147.074.159-.009.314-.089.39-.081.077-.2.113-.235-.006a6.825 6.825 0 01-1.349-2.475l.085-.233zm1.234 3.808c.24-.15.435-.106.546.173.148.318.414.679.167 1.065l-.04.038c-.202.192-.391-.089-.584-.212-.228-.32-.452-.719-.089-1.063v-.001zm-27.56-16.083c-.161.152-.321.228-.671.1.251-.544.461-1.05.75-1.553.208-.427.178-.781-.327-.992-1.088-.501-2.177-.924-3.356-.956-.941-.104-1.771.07-2.295.567-.284.268-.452.655-.542 1.125-.249 1.92 2.259 5.134 4.219 5.345 1.844.168 3.439-.655 4.953-1.4.16-.074.24-.15.362-.265.443-.42.463-1.128.13-1.884-.16.074-.241.15-.362.266l-.161.153-.121.114c-.323.306-.684.571-1.227.32-1.437-.707.396-1.601-.134-2.323-.159.074-.279.111-.4.226-.202.19-.329.541-.493.772l-.121.114-.121.116c-.04.038-.042.116-.082.154l-.001.001zm-6.664-3.642c.605-.573 1.361-.906 2.345-.919 2.99-.076 5.645.625 7.954 2.497 1.577 1.262 1.709 2.209.758 3.953a4.81 4.81 0 01-1.063 1.465c-1.977 1.873-5.461 2.722-7.856 1.163-.58-.37-.958-.93-1.574-1.419-1.374-1.532-2.546-3.254-1.462-5.505.289-.504.535-.89.898-1.235" fill-rule="nonzero"/><path d="M162.263 588.14c.041-.038.119-.036.198-.034.354-.029.901.142.766.728-.091.47.051 1.024-.315 1.447-.237.072-.39-.089-.464-.248-.028-.434-.055-.868-.123-1.262-.035-.197-.223-.479-.062-.631m2.296 3.798c.24-.15.478-.223.591-.023.263.439.172.909-.074 1.295l-.081.077c-.122.114-.355.029-.389-.168-.147-.398-.331-.835-.047-1.181m-.14-3.543c.121-.114.278-.11.434-.027.233.085.226.321.103.514-.288.503-.654.926-.981 1.389l-.193-.123c-.023-.591.266-1.094.555-1.598.002-.078.042-.116.082-.154v-.001zm-2.95.038l.202-.191c.302.48.604.96.199 1.342-.08.077-.242.229-.439.263-.066-.474-.405-.994.039-1.414h-.001z" fill-rule="nonzero"/></svg>