<svg viewBox="0 0 43 60" xmlns="http://www.w3.org/2000/svg" fill-rule="evenodd" clip-rule="evenodd" stroke-miterlimit="11.339"><path d="M35.813 5.379c-.517-.311-.729-.38-.352-.114.126.088.204.163.174.169-.073.012-.396-.216-.415-.293-.01-.036-.115-.094-.238-.131a1.08 1.08 0 01-.327-.161c-.095-.084-.098-.096-.037-.137.07-.048.537.146.557.233a.066.066 0 00.074.042c.078-.011.77.386.96.552.079.069.132.127.118.129-.014.003-.245-.127-.512-.288l-.001-.001zM24.046 3.534a.136.136 0 00-.113.017c-.028.021.005.029.063.019.064-.008.086-.024.052-.034l-.002-.002zm-1.268.528c-.018-.014-.059-.011-.089.01-.03.022-.017.035.033.026.048-.008.073-.022.054-.035l.002-.001zm4.095-.296c-.186-.04-.92.07-.82.122.045.021.275.012.512-.027.286-.045.39-.078.308-.095zm-1.544.308c-.018-.013-.059-.01-.088.01-.031.023-.017.036.033.026.047-.007.072-.021.053-.035l.002-.001zm-1.612 1.011c.697-.309.93-.427.897-.453-.038-.032-1.53.524-1.899.707l-.316.157.381-.082c.21-.049.632-.193.937-.328v-.001zm1.35.018c.156-.055.614-.158 1.016-.24.405-.081.715-.167.695-.192-.018-.028-.143-.029-.273-.01-.13.019-.313.026-.406.015-.301-.033-2.127.432-2.386.608-.255.172.602.057 1.353-.181zm-1.492.276c.046-.05.036-.06-.045-.049-.058.006-.098.039-.09.07.013.068.063.061.135-.023v.002zm-3.7.72c-.006-.033-.033-.051-.057-.048a.05.05 0 00-.033.061c.008.033.034.051.059.048.026-.003.04-.03.031-.061zm4.14-.511c-.037-.031-.118-.028-.2.01-.1.043-.12.073-.072.112.044.038.074.031.105-.018.055-.103.109-.099.134.009.016.073.032.076.062.02.029-.052.02-.088-.028-.124v-.009zm.612.106c-.018-.014-.058-.011-.087.01-.033.022-.018.035.032.026.048-.008.073-.022.054-.036h0zm-2.688.351c.819-.274 1.019-.35.989-.373-.077-.061-1.94.587-1.884.655a.06.06 0 00.08.006c.028-.021.396-.147.816-.288h-.001zm-1.094.359c-.01-.028-.034-.051-.058-.047-.022.006-.04.029-.033.061.008.032.034.05.059.047.026-.003.04-.03.032-.061zm3.832-.437c.122-.083-.01-.133-.255-.096-.134.022-.263.014-.285-.013-.025-.029-.08-.006-.14.063l-.1.112.167.008c.23.014.536-.024.613-.076v.002zm.55.01c-.018-.077-.198-.14-.338-.119-.105.013-.112.028-.046.092.042.041.11.055.15.031.043-.021.094-.019.118.011.053.066.132.057.116-.014v-.001zm-.363.164a2.3 2.3 0 00-.374.014c-.133.021-.132.021.035.038a2.1 2.1 0 00.374-.014l.205-.031-.238-.008-.002.001zm-1.7.436c.119-.001.23-.031.248-.065.018-.035.13-.12.248-.192l.216-.132-.392.022a1.807 1.807 0 00-.691.148c-.208.088-.321.114-.372.079-.05-.033-.09-.019-.132.053-.035.055-.101.108-.15.116-.14.024-.277.106-.264.161.014.062.722-.071.827-.156.055-.045.086-.027.125.055.048.103.057.103.088.015.026-.076.083-.099.25-.103l-.001-.001zm-1.486.306c.069-.011.12-.039.114-.067-.012-.056-.287-.019-.527.07l-.174.065.146.019a.488.488 0 00.23-.026.777.777 0 01.21-.058v-.003zm-2.634.384c.542-.202 1.14-.338 1.267-.284.119.05.368-.026 1.656-.523.382-.144.857-.317 1.057-.382.422-.133.487-.172.466-.261-.017-.076-.27-.009-.293.077-.006.03-.048.033-.097-.003-.062-.042-.091-.038-.12.016-.021.04-.162.09-.314.112-.151.024-.53.131-.842.239a9.701 9.701 0 01-.926.277c-.651.145-.91.219-1.017.292a.7.7 0 01-.257.091.896.896 0 00-.31.123 2.086 2.086 0 01-.357.164.77.77 0 00-.253.129c-.072.08-.071.08.337-.075l.003.008zm.816-.042c.1-.061.1-.061-.033-.042a.54.54 0 00-.218.08c-.073.053-.07.057.034.042a.73.73 0 00.217-.08zm3.847-.439c-.018-.014-.06-.011-.09.01-.031.022-.016.035.034.026.047-.008.073-.022.054-.036h.002zm-1.3.19c-.032-.014-.085-.003-.113.017-.027.021.006.029.064.019.063-.008.085-.024.052-.034l-.002-.002zm-3.091.445c.074-.053.07-.058-.035-.04a.878.878 0 00-.241.081l-.126.063.16-.021a.537.537 0 00.24-.081l.002-.002zm-2.13.071c-.002-.011.025-.042.058-.065.038-.019.057-.015.048.015-.014.055-.096.093-.106.048v.002zm-.374.22c.03-.053.095-.101.142-.107.08-.013.083-.008.016.08-.09.119-.011.109.2-.026.358-.226 1.272-.627 1.654-.726a7.958 7.958 0 001.557-.598c.208-.108.439-.206.515-.217.075-.01.162-.047.192-.084.074-.082-.026-.067-.66.097-.27.069-.76.195-1.086.277-.644.162-1.397.449-1.561.595-.055.051-.21.133-.343.186-.283.111-.856.489-.955.631-.065.093-.06.096.102.043.093-.03.196-.096.227-.15v-.001zm5.297-.652a.098.098 0 00-.087-.043c-.026.003-.026.03-.003.057.02.032.06.047.087.043.026-.002.026-.03.003-.056V7.06zm2.874-.316c-.007-.032-.033-.051-.058-.047-.027.002-.04.029-.032.061.007.032.034.051.058.047.022-.006.04-.029.032-.061zm-8.874 1.379c.045-.051.037-.06-.043-.049-.056.005-.106.042-.116.071-.02.074.086.059.16-.024l-.001.002zm8.512-1.216a1.766 1.766 0 00-.352.008c-.13.019-.141.028-.06.055.059.02.216.015.354-.007.25-.04.25-.04.058-.056zm-7.998 1.195c.044-.05.032-.059-.058-.046a.323.323 0 00-.17.081c-.043.05-.032.059.059.046a.327.327 0 00.169-.081zm7.338-1.091c-.017-.077-.167-.092-.233-.026-.055.055-.05.062.039.051.057-.006.109.012.117.044.007.032.032.038.052.018.024-.02.032-.061.026-.086l-.001-.001zm-5.722.984c.08-.062.124-.119.094-.128-.031-.014-.134.048-.232.12-.096.077-.14.133-.094.128a.752.752 0 00.232-.12zm-2.103.392c.06-.044.107-.094.1-.118-.014-.066-.271.084-.328.194-.055.105-.034.098.228-.075v-.001zm-.52.252c-.031-.132-.132-.098-.122.043.002.055.035.089.079.082.042-.006.06-.057.045-.123l-.001-.002zm-.568.038c.037-.038.054-.068.038-.066-.047.002-.398.286-.392.313.009.027.248-.141.354-.248v.001zm11.366-1.47c-.011-.055-.108-.067-.586-.084-.581-.02-.544.065.053.123.4.04.549.029.532-.038v-.001zm10.11-1.343c-.008-.032-.037-.05-.061-.047-.027.002-.03.031-.008.058.025.029.048.049.06.046.015-.002.014-.026.009-.057zM14.993 9.065c.134-.089.209-.179.208-.248-.001-.062-.01-.11-.021-.108-.044.006-.471.404-.536.499-.07.099-.07.1.035.048.059-.028.2-.116.316-.192l-.002.001zm-.616.302c-.054-.052-.057-.078-.022-.104.037-.025.036-.034-.002-.034a.09.09 0 00-.072.061c-.018.072.048.161.116.151.033-.005.023-.031-.02-.076v.002zm-.378.416c.083-.075.159-.16.168-.193.025-.095-.05-.056-.147.075-.05.068-.114.127-.143.132-.053.01-.11.13-.058.122a.917.917 0 00.179-.139v.003zm-1.982 1.848c.286-.342 1.298-1.719 1.276-1.737-.062-.05-.66.664-1.043 1.248-.405.614-.493.799-.233.489zm1.012.037c.03-.034.04-.072.024-.086-.018-.014-.063.014-.102.065-.076.1-.012.117.078.021zm-.262-.05c.175-.177.206-.255.068-.176-.046.023-.085.038-.09.02-.008-.028 1.137-1.008 1.265-1.086.042-.02.065-.079.055-.121-.012-.041.03-.1.087-.127.059-.025.1-.074.094-.104-.01-.028-.02-.052-.028-.051-.063.008-1.147.946-1.3 1.121-.171.199-.426.706-.348.695.016-.005.106-.081.197-.172v.001zm19.836-2.781c-.004-.018-.031-.037-.06-.051-.03-.014-.047-.001-.04.03.008.032.036.053.06.05.026-.003.042-.019.04-.029zm.429.219c-.02-.082-.147-.138-.18-.079-.023.045.1.169.158.16.022-.006.032-.041.022-.081zm-20.444 2.85c.019-.073-.156.019-.26.132-.047.051-.078.116-.072.143.01.056.31-.191.332-.275zm-.435.414c.037-.09.033-.092-.046-.02-.09.082-.105.135-.035.125.022-.006.057-.053.08-.106v.001zm21.932-2.557c-.081-.098-.217-.166-.202-.1.012.054.202.211.245.205.022-.007 0-.05-.042-.106l-.001.001zm-23.288 3.334c.1-.125.165-.225.144-.222-.05.009-.436.454-.455.528-.021.081.088-.028.31-.306zm27.175-2.707c-.055-.099-.116-.178-.137-.176-.022.007.02.116.094.251.076.135.135.215.137.177a.716.716 0 00-.094-.252zm-2.094.927a.275.275 0 00-.091-.071c-.006.001.004.039.032.08.023.042.067.074.091.071.028-.002.018-.039-.032-.08zm.815.45a1.806 1.806 0 00-.187-.155l-.181-.137.143.161c.118.132.242.205.225.132v-.001zm.73.193c-.144-.203-.785-.755-.788-.681-.004.099.15.278.492.567.355.302.46.342.296.114zm1.542-.56c-.119-.322-.202-.478-.308-.578-.15-.143-.33-.202-.353-.116-.019.07.414.722.547.823.06.046.154.197.207.336.073.186.093.218.082.116a4.009 4.009 0 00-.176-.58V11.4zm-7.174 1.844c.071-.177.012-.188-.085-.016-.056.097-.095.199-.089.227.011.056.114-.071.173-.212l.002.001zm7.292-.888a1.575 1.575 0 00-.168-.382c-.058-.071-.055-.033.018.177.117.333.193.504.224.499.014-.003-.018-.135-.071-.295l-.002.001zm-1.341.374c-.052-.086-.14-.108-.121-.03.01.054.143.164.16.135a.23.23 0 00-.04-.105zm-7.477 2.208a7.27 7.27 0 01.45-.493c.087-.077.11-.129.069-.15-.085-.042-.038-.105.269-.372.185-.16.282-.309.418-.643.098-.239.187-.487.199-.55a7.707 7.707 0 00-.044-1.032c-.007-.025-.098-.085-.207-.136-.166-.079-.235-.081-.44-.019-.353.106-.475.233-.716.723-.317.648-.493 1.465-.551 2.551-.01.187-.034.391-.054.455-.117.375.117.246.607-.333v-.001zm9.217-1.219a1.264 1.264 0 00-.03-.257c-.013-.067-.012-.124.007-.127.051-.009.11.427.062.477-.022.028-.038-.002-.038-.093h-.001zm.427-.123c-.01-.028-.03-.032-.05-.01-.024.019-.043.015-.051-.019-.008-.032.019-.085.06-.123.113-.104.077-.561-.093-1.159-.145-.509-.302-.86-.38-.848-.023.006.048.339.16.747.224.848.155.846-.09-.002-.11-.378-.2-.608-.307-.767l-.152-.228.079.213c.116.301.424 1.721.389 1.79-.018.035-.071-.109-.14-.372-.058-.236-.098-.355-.088-.264.065.479.177 1.447.179 1.544 0 .106.005.106.046.008.04-.1.046-.099.1.014.056.113.067.103.202-.175.078-.161.136-.316.129-.345l.007-.004zm-16.3-9.565c.07-.033.548-.123 1.062-.199.82-.12.875-.122.443-.024-.671.154-1.666.3-1.505.222v.001zm-.84.239c.127-.064.676-.177.649-.134-.01.014-.186.061-.395.11-.22.049-.326.061-.254.022v.002zm5.314.109c-.02-.028-.025-.064-.004-.085.02-.019.052-.02.074.008.018.028.024.063.003.085a.049.049 0 01-.073-.008zm.495.065c-.247-.039-.36-.091-.236-.109.132-.02.584.036.64.079.079.06-.125.075-.403.031l-.001-.001zm.613.044c-.052-.064.144-.092.25-.037.062.032.046.048-.064.063-.081.013-.164 0-.187-.027v.001zm-1.185.177c-.08-.025-.06-.04.088-.065.105-.017.208-.011.23.018.05.06-.175.093-.318.048v-.001zm1.533-.004c-.008-.032.007-.057.032-.061.027-.002.052.018.058.048.008.032-.008.057-.032.061-.027.002-.052-.018-.058-.048zm2.018-.244c-.045-.021-.06-.046-.036-.049a.268.268 0 01.126.035c.044.021.06.046.036.049a.29.29 0 01-.126-.035zm-1.65.209a1.163 1.163 0 01-.28-.096c-.087-.069.077-.073.315-.005.414.116.386.201-.035.101h0zm1.904-.134c-.01-.028.02-.044.064-.03.04.01.077.03.08.042.003.012-.026.024-.063.031-.037.006-.075-.014-.081-.042v-.001zm-2.605.302a3.929 3.929 0 00-.552-.092c-.295-.011-.251-.103.054-.112.429-.013.515.002.453.079-.042.049-.035.055.03.018.14-.081.17-.085.176-.01.002.039.06.086.13.105.12.033.18.088.107.096a3.62 3.62 0 01-.395-.081l-.003-.003zm1.625.044c-.24-.049-.45-.134-.428-.173.017-.036.632.101.705.158.076.06-.033.066-.277.014v.001zm-.93.16c-.101-.044-.168-.084-.15-.088.057-.011.39.099.397.132.01.051-.056.036-.247-.044zm-.896.302c.008-.034.044-.063.078-.069a.127.127 0 01.105.041c.024.029-.012.058-.078.068-.068.011-.113-.007-.105-.04zm3.59-.48c-.097-.051-.027-.062.115-.017.066.023.078.038.034.047a.267.267 0 01-.147-.03h-.002zm-4.941.85c-.007-.033.008-.058.033-.062.026-.002.05.019.058.048.007.032-.008.057-.033.06-.026.003-.051-.018-.058-.046zm5.299-.738c-.009-.032.008-.044.04-.03.03.015.055.038.058.051.004.016-.013.027-.04.03-.027.001-.053-.022-.059-.051zm-1.557.207c-.038-.04-.063-.074-.053-.076.014-.003.057.028.099.069.039.041.065.076.054.077-.014.003-.057-.029-.1-.07zm-1.501.22c-.448-.028-.512-.047-.283-.086.186-.031.716.015.782.067.049.04-.08.044-.5.019zm-2.023.334c-.025-.029-.02-.053.004-.056.026-.003.063.013.086.043.025.03.019.053-.003.056-.027.003-.063-.013-.087-.043zm2.656-.339c-.052-.064.054-.079.16-.024.065.034.062.045-.018.057-.054.011-.117-.007-.14-.034l-.002.001zm-1.663.248c-.046-.021-.061-.046-.037-.05a.301.301 0 01.127.036c.045.021.06.045.036.049a.29.29 0 01-.126-.035zm2.95-.382c.007-.03-.104-.105-.251-.163-.147-.058-.261-.118-.253-.133.026-.046.468.123.583.225.107.095.107.098.009.113-.054.011-.094-.011-.086-.042h-.001zm-.505.243c-.02-.031-.01-.055.027-.06a.128.128 0 01.109.04c.018.028.008.055-.027.06a.124.124 0 01-.11-.04zm-4.833.216c-.181-.038-.38-.008-.365.054.008.032.119.036.25.013.188-.031.21-.05.114-.067zm1.097.249a4.774 4.774 0 00-.984-.024c-.284.026-.512.02-.505-.007.005-.031-.104-.022-.245.02-.173.045-.232.05-.178.005.075-.059.075-.063-.015-.09-.14-.042-.034-.131.2-.168.148-.022.189-.049.173-.118-.015-.072.019-.087.203-.089.123-.002.589-.03 1.035-.062.446-.034.97-.062 1.164-.066.323-.007.297.003-.314.102-.441.07-.667.128-.67.17-.001.045-.054.054-.196.03-.25-.043-.685.018-.57.081a.472.472 0 00.218.023c.25-.034 1.192.154 1.213.242.01.036-.002.032-.529-.043v-.006zm2.087-.052a2.636 2.636 0 00-.491-.033c-.084.008-.155-.006-.163-.036-.016-.074.005-.075.658-.032.314.02.575.057.58.081.015.068-.204.075-.584.02zm3.802-.285c-.025-.029-.02-.053.008-.057.027-.003.054.017.06.047.009.032.003.056-.007.057-.011.003-.041-.018-.061-.047zm.276.071c-.07-.036-.07-.044-.005-.054.042-.006.095.009.117.037.053.063-.006.072-.113.017h0zm-4.411.598c-.222-.082-.777-.2-.967-.206-.106-.001-.23-.115-.143-.131.127-.023 1.072.217 1.204.305.19.128.177.132-.095.031v.001zm1.628-.047c-.243-.08-.213-.111.047-.051.124.029.227.062.23.074.01.041-.11.035-.277-.024v.001zm-2.397.39c-.024-.03-.02-.053.008-.058a.06.06 0 01.062.047c.007.032.002.056-.008.058-.015.003-.041-.019-.061-.047h-.001zm2.832-.558c-.892-.148-1.12-.214-.59-.169.286.024 1.446.228 1.49.261.077.06-.097.043-.9-.092zm-2.043.551c-.063-.02-.117-.047-.12-.063-.011-.053.065-.04.174.027.122.075.11.084-.054.035v.001zm3.253-.294c-.082-.035-.141-.078-.131-.097.01-.017.097.006.195.059.203.105.157.134-.065.036v.002zm1.958-.316c-.405-.162-.562-.264-.25-.162.509.167.704.243.713.279.017.068-.041.053-.463-.117zm-5.146.934l-.477-.071c-.168-.024-.311-.066-.317-.093-.017-.075.178-.085.345-.014.083.034.233.065.333.069a.667.667 0 01.282.068c.11.069.075.079-.167.04v.001zm2.643-.37c-.076-.073-.073-.076.034-.033.121.051.158.096.09.106-.022.006-.077-.03-.123-.075l-.001.002zm-2.311.377c-.008-.032.009-.044.04-.029.03.014.056.037.059.05.004.017-.013.027-.041.03-.026.002-.052-.022-.06-.051h.002zm.373-.118c-.485-.136-.62-.216-.245-.145.266.049.783.236.694.25a3.285 3.285 0 01-.45-.106v.001zm-.165.202c-.072-.038-.073-.044-.01-.054a.294.294 0 01.149.032c.072.037.074.043.01.054a.295.295 0 01-.15-.032zm3.236-.483c-.076-.048-.118-.091-.093-.095a.476.476 0 01.184.081c.076.05.118.093.093.096a.492.492 0 01-.184-.082zm-.681.214c-.024-.03-.02-.053.009-.057a.057.057 0 01.06.047c.008.032.003.056-.008.057-.011.002-.04-.018-.061-.047zm-1.67.246c-.127-.09-.128-.093-.02-.053a.456.456 0 01.155.092c.066.08.01.064-.134-.039h-.001zM25.9 6.437c-.007-.032-.037-.051-.061-.047-.026.002-.03.031-.008.058.02.031.049.049.06.047.015-.003.014-.028.009-.058zm3.649.862c-.271-.112-1.494-.432-1.861-.486a9.714 9.714 0 01-.393-.065.911.911 0 00-.248 0c-.11.011-.204-.018-.258-.076-.071-.075-.171-.085-.545-.056l-.458.035-.036-.163c-.03-.117-.018-.159.034-.152 1.62.208 2.969.432 2.406.399-.298-.018-.114.046.59.198.38.083.747.195.818.248.08.063.132.075.143.035.01-.035.036-.066.06-.07.022-.006.026.047.01.111-.036.14-.031.139-.261.042h-.001zm6.204-.9c-.04-.041-.086-.071-.1-.069-.014.003.012.035.055.076.038.041.085.071.098.07.014-.003-.012-.035-.054-.077zm-.256-.025c-.171-.086-.305-.167-.297-.182.01-.017.095.014.192.06.117.057.183.065.194.024.022-.085.337.046.362.152.03.129-.12.111-.451-.054zm-4.916 1.101c-.007-.032.009-.044.04-.029.03.015.056.037.059.05.005.017-.013.028-.04.029-.027.003-.053-.021-.06-.05zm1.093-.166a8.467 8.467 0 00-.352-.114c-.067-.019-.113-.049-.104-.066.018-.036.693.186.704.232.01.04.03.04-.248-.053v.001zm1.76-.141c-.07-.037-.07-.045 0-.056.044-.006.085.012.092.041.016.066.013.066-.09.012l-.003.003zm1.097-.078c-.23-.11-.416-.248-.347-.259.075-.01.55.248.563.308.017.066.034.07-.214-.049h-.002zm-.791.202c-.176-.119-.1-.132.083-.014.079.05.12.094.096.098a.454.454 0 01-.18-.084h0zm-1.51.242c-.083-.036-.142-.078-.133-.094.017-.029.337.084.346.126.012.044-.059.034-.213-.032h0zm-1.116.102c-.355-.116-.36-.118-.335-.164.012-.017.18.031.376.11.42.169.397.199-.042.053l.001.001zm1.028.057c-.049-.025-.059-.046-.025-.051a.117.117 0 01.095.041c.051.061.034.065-.069.01h0zm2.031-.19c-.07-.037-.07-.044-.005-.055.042-.006.096.01.118.038.051.063-.007.072-.114.017h.001zm-1.778.266c-.008-.028.021-.044.064-.03.042.01.08.031.082.042.002.012-.027.024-.064.031-.038.006-.075-.014-.082-.043zm-.534.134c-.066-.034-.062-.045.017-.058.054-.01.118.007.141.034.052.064-.053.08-.16.024h.002zm5.461-.755c-.124-.173-.17-.31-.079-.237.062.051.238.379.205.384a.63.63 0 01-.125-.147h0zm-1.58.373a1.36 1.36 0 01-.196-.199c-.01-.054.32.172.364.247.082.143.02.125-.169-.047v-.001zm1.64-.02c-.043-.041-.058-.075-.034-.08.027-.001.08.026.122.067.042.041.056.075.032.079-.026.002-.079-.024-.122-.066h.001zm-2.646.3l-.175-.151.177.099c.098.054.183.122.19.15.017.077 0 .065-.192-.098zm.451.309c-.06-.037-.085-.07-.058-.076.032-.004.085.024.127.063.097.093.067.098-.07.012l.001.001zm.401.299c-.072-.087-.02-.115.064-.036.047.046.057.077.031.08-.027.003-.069-.018-.093-.046l-.002.002zm.021-.527c-.386-.322-.716-.613-.734-.646-.072-.131.07-.057.356.187.166.143.323.264.35.27.091.023.814.776.745.776-.006 0-.33-.264-.717-.587zm-1.128.778c-.205-.114-.293-.202-.123-.124.125.058.378.225.35.231a1.068 1.068 0 01-.227-.107zm1.402-.011c-.02-.032-.019-.053.008-.058a.06.06 0 01.061.047c.007.033.002.056-.008.058-.01.002-.04-.018-.062-.047h.001zm-1.106-.178a11.73 11.73 0 00-.8-.501c-.347-.188-.246-.205.171-.028.265.112 1.152.759 1.122.818-.01.017-.23-.111-.493-.289zm.615.695a2.758 2.758 0 00-.434-.242c-.085-.029-.124-.06-.084-.067.076-.014.452.174.72.36.28.195.1.149-.202-.052v.001zm2.224-.116c-.263-.268-.309-.333-.243-.343.06-.007.51.477.507.547-.003.036-.12-.056-.264-.203V9.05zm-1.796.73c-.025-.03-.019-.053.01-.058.025-.002.052.017.06.047.007.032.002.056-.008.058-.014.003-.04-.019-.06-.048l-.002.001zm3.396-.039a.424.424 0 01-.075-.172c-.034-.138-.404-.935-.524-1.132-.045-.069-.043-.088-.002-.056.086.068.487.833.593 1.132.09.245.09.293.01.227l-.002.001zm-.503.087a16.636 16.636 0 00-.505-1.121 3.287 3.287 0 01-.225-.469c-.016-.067-.048-.119-.073-.115-.09.01-.272-.304-.287-.499-.018-.235.072-.203.131.048a.535.535 0 00.168.288c.068.055.182.233.254.397.072.162.22.484.326.715.326.7.57 1.337.547 1.437-.012.063-.117-.149-.334-.682l-.002.001zm-2.887 1.182c-.025-.029-.035-.069-.02-.087.022-.045.128.014.142.075.014.07-.063.076-.116.014l-.006-.002zm3.175 2.419c-.032-.211-.046-.411-.028-.445.021-.04.05.059.083.295.072.501.023.636-.055.15zm.28.283c-.038-.483-.312-1.259-.439-1.241-.03.004-.018.053.028.131.041.068.063.14.05.161-.032.059-.28-.422-.454-.879-.21-.554-.275-.661-.394-.643-.076.01-.095-.007-.086-.086a.782.782 0 00-.4-.795c-.189-.108-.24-.214-.094-.183a.355.355 0 00.187-.029c.087-.05.087-.05-.035-.098-.067-.026-.259-.22-.426-.432-.337-.425-.585-.655-.803-.744-.079-.033-.149-.084-.157-.115-.009-.036.025-.042.092-.011.09.038.1.027.078-.069-.042-.184.071-.11.272.175.116.165.227.271.295.282.058.006.13.058.156.107.024.05.116.141.2.204.147.108.145.103-.08-.19a17.45 17.45 0 01-.336-.455 3.189 3.189 0 00-.3-.347c-.236-.238-.546-.602-.559-.658-.007-.024.08.046.19.153s.307.291.441.41c.132.119.324.355.426.525.1.171.336.527.521.792s.381.558.435.65c.055.092.118.165.14.162.021-.006.054-.01.074-.013.02-.005.013-.06-.01-.124-.039-.1-.005-.092.173.065.118.101.221.172.228.158.034-.062-.353-.779-.5-.933-.184-.189-.253-.359-.132-.325.041.011.072.01.07.001a19.145 19.145 0 00-.533-.902c-.488-.705-.938-1.246-1.314-1.576-.143-.126-.253-.255-.244-.289.007-.034.034-.055.055-.051.058.015.49.468.504.527.008.028.17.221.36.428.57.617 1.167 1.549 1.608 2.507.248.541.375.739.556.871.07.051.224.242.344.425.211.324.222.355.426 1.214.233.989.251 1.003.314.249a6.291 6.291 0 00-.165-1.997c-.15-.649-.368-1.201-.45-1.15-.028.014-.17-.198-.349-.528a14.619 14.619 0 00-.635-1.042 3.294 3.294 0 00-.796-.857c-.254-.206-.552-.41-.663-.453-.207-.084-.573-.362-.595-.455-.007-.027-.038-.035-.072-.009-.034.024-.069.011-.078-.025-.01-.036-.16-.118-.338-.182a5.023 5.023 0 01-.641-.297c-.744-.421-1.2-.64-1.438-.694a7.183 7.183 0 01-1.217-.436 7.683 7.683 0 00-.487-.21c-.135-.052-.254-.128-.263-.169-.033-.132-.167-.19-.21-.088-.04.093-.144.083-.12-.015.006-.03-.02-.049-.058-.044-.04.008-.165-.039-.278-.1-.42-.226-1.473-.549-1.865-.573-.21-.013-.762-.053-1.225-.089-1.812-.142-2.453-.13-3.23.065-.569.142-.962.264-1.24.383-.137.058-.148.054-.11-.035.036-.087.031-.098-.035-.089-.148.024-.738.288-.77.347-.022.041.003.045.074.014.54-.239.694-.286.636-.19-.028.048-.687.324-.964.401-.127.036-.336.178-.264.181.085.004-.67.34-.82.368-.082.016-.144.048-.139.068.008.024-.07.052-.168.068-.239.036-1.061.483-1.622.879-.753.534-.826.653-.215.348.384-.191.498-.213.56-.107.09.155 1.463-.22 2.487-.68.566-.253 1.407-.59 2.037-.818.017-.005-.056-.02-.162-.027-.216-.019-.877.147-1.446.356-.661.247-1.85.642-2.005.664a.533.533 0 00-.234.112c-.083.091-.527.302-.567.269-.077-.063 1.389-.836 1.789-.943.16-.041.488-.158.732-.255.243-.1.55-.195.683-.214.13-.02.459-.109.729-.196.27-.086.59-.167.712-.175l.22-.016-.382.18.215-.027c.28-.034.368-.092.275-.182-.042-.036-.054-.073-.034-.08a6.67 6.67 0 01.54-.117c.212-.04.228-.053.18-.157-.04-.09-.03-.108.041-.094.052.009.528-.031 1.06-.089.572-.065 1.047-.088 1.164-.063.11.025.326.041.482.04.154-.003.372.018.482.044.11.026.307.032.438.013.171-.025.236-.014.232.037 0 .045.097.092.281.129.372.077 1.461.502 1.51.589.048.088-.25 0-.65-.196-.315-.153-1.11-.338-1.575-.364-.32-.018-2.723.297-2.925.384-.123.052-.125.057-.018.081.12.027.175.122.078.133a.289.289 0 01-.145-.048c-.136-.085-.979.113-1.18.275-.145.116-.149.128-.046.134.16.009 1.434-.303 1.514-.371.083-.07 2.754-.381 3.015-.354.127.014-.085.055-.615.113s-.853.118-.938.168c-.08.047-.144.063-.168.032-.049-.057-1.127.104-1.366.204l-.17.072.234-.031c.36-.045.543-.018.506.071-.023.056.011.076.14.081.188.009.306-.048.25-.116-.059-.073.076-.067.206.007.07.039.116.044.108.012-.007-.032.017-.062.055-.068.038-.006.077.026.088.072.014.061-.039.091-.219.121-1.19.193-3.365.71-3.417.806-.012.024.745-.007 1.108-.044l.358-.037c.107-.01.201.007.21.04.011.042-.159.077-.577.11-.403.036-.563.068-.509.093a.754.754 0 00.271.051c.336.012.38.026.314.111-.039.052-.037.096.008.149.042.047.058.051.05.01-.01-.048.016-.057.098-.033.125.037.584.091 1.177.139.211.017.54.056.728.088.19.03.573.084.854.117.554.067.811.123.784.174-.012.017-.213-.001-.452-.047-.519-.093-.573-.089-.39.026.19.122.081.127-.262.01-.333-.112-1.132-.252-1.3-.228a4.323 4.323 0 01-.602-.049c-.519-.07-.699-.067-.68.01.007.028.06.056.118.064.058.007.101.028.093.043-.012.017-.252.013-.542-.005-.327-.019-.64-.004-.829.039-.167.039-.32.049-.339.025-.018-.027-.065-.039-.102-.033-.108.015.07.199.186.19.662-.055 1.288-.076 1.366-.045a.43.43 0 00.223.004c.081-.022.125-.009.123.033 0 .04-.135.097-.335.144l-.33.078.17.054c.145.047.173.042.197-.029.022-.067.027-.065.024.012-.004.077.046.1.253.118.141.012.273.015.294.006.021-.008.208.001.418.026.28.032.387.027.4-.023.011-.049.06-.057.188-.025.095.023.392.075.661.115.39.058.494.093.512.169.016.066.101.116.274.16.137.034.72.21 1.291.392.572.181 1.08.324 1.125.317.108-.015.49.108.503.163.008.024.044.036.083.031.04-.007.25.047.464.118.216.072.596.183.845.246.436.112.624.189.505.206a.824.824 0 01-.24-.049c-.335-.104-.223-.004.133.118.355.123.438.2.163.151-.26-.046-.253.042.022.291.224.202.274.214.236.057-.019-.09.056-.055.418.19.244.165.66.484.922.709.264.225.473.383.466.351-.014-.063.19.009.268.096.071.076.023.105-.07.038-.19-.129-.046.048.212.261.253.208.461.312.283.141-.163-.156.021-.075.237.105.243.201.313.227.284.103-.028-.116-.627-.782-1.137-1.262-.577-.544-2.014-1.55-2.626-1.84-.506-.24-.604-.335-.14-.138.566.242 1.196.595 1.576.883.346.262.425.302.401.198-.064-.269-1.192-1.157-1.529-1.204-.07-.01-.135-.05-.144-.088-.013-.042-.049-.056-.098-.031-.044.022-.1.015-.124-.014-.025-.03-.018-.058.01-.062.034-.006.012-.05-.06-.111-.103-.094-.093-.093.101.005.857.436 1.25.66 1.336.763.053.066.175.195.27.288.092.093.213.28.267.414.084.206.182.319.631.714.293.258.692.626.887.818.346.343.68.591.776.576.027-.002.053.013.06.038.011.041.522.576.713.745.045.039.142.147.216.238.168.208.198.121.064-.184-.345-.781-1.486-2.232-1.795-2.275-.08-.012-.168-.09-.266-.238a2.31 2.31 0 01-.153-.256 1.78 1.78 0 00-.206-.248c-.109-.118-.195-.247-.193-.289.002-.045.062-.005.155.113.082.103.165.186.183.183.017-.004.076.052.127.121.051.069.13.12.176.113.046-.007.092.019.1.059.012.04.13.192.269.339.535.573.749.822.95 1.116.118.168.228.315.247.328.098.066.397.677.506 1.037.106.345.175.474.423.815.275.377.47.708.63 1.078.067.15.067.151.108.029.02-.068.028-.269.014-.445l.017.014zm.84-.015c-.033-.133-.113-.05-.133.137a.774.774 0 01-.075.27c-.03.044-.047.108-.038.142.02.082.266-.463.246-.549h0zm-1.15.592c-.022-.035-.025.001-.008.071.016.076.032.105.04.064a.235.235 0 00-.033-.134v-.001zm-.993 2.518c-.015-.07-.155-.049-.229.033-.04.05-.02.059.093.042.081-.013.142-.048.136-.076v.001zm-4.708-2.751c-.02-.085.06-.292.101-.258.018.014.006.094-.025.172-.034.079-.067.117-.076.087v-.001zm-.072.297c-.012-.042-.005-.094.016-.114.02-.018.033.014.035.076.003.13-.025.15-.052.04l.001-.002zm-1.303.47c-.023-.09.115-.485.197-.561.042-.04.08-.053.087-.028.013.067-.266.652-.283.59v-.001zm-.142.517a.623.623 0 01.071-.228c.051-.052.022.11-.052.291-.044.112-.046.107-.015-.065l-.004.002zm.123 4.396c-.009-.027.08-.17.19-.315.111-.144.22-.341.24-.436.101-.484.263-.973.473-1.423.255-.545.37-.727.447-.709.028.006-.096.317-.274.691-.24.5-.35.813-.42 1.183-.085.45-.12.533-.33.777-.24.28-.305.325-.327.233l.001-.001zm-.213.198c-.02-.032-.063-.033-.088-.012-.028.021-.017-.001.022-.058.11-.157.284-.133.215.029-.04.096-.092.11-.15.036l.001.005zm1.254.711c.007-.034.116-.179.241-.325.123-.147.368-.501.544-.789.175-.287.333-.51.35-.496.077.063-.518 1.094-.79 1.369-.285.289-.374.351-.345.242v-.001zm.588.263c.61-.564.92-.921 1.48-1.707a22.8 22.8 0 01.606-.815l.183-.222-.072-.364a2.26 2.26 0 00-.089-.36c-.022.006-.893.914-1.209 1.264-.118.131-.227.24-.242.242-.09.011.12-.271.595-.806.877-.989.814-.893.816-1.247.002-.396.137-1.126.251-1.359.152-.312.18-.01.038.406a2.527 2.527 0 00-.08.572c-.012.417.142 1.349.23 1.393.13.066.777-1.099.856-1.541.021-.116.052-.221.07-.235.016-.01.048-.124.07-.248.023-.125.073-.231.112-.236.04-.008.067.006.063.032a8.88 8.88 0 00-.037.251c-.08.573-.48 1.536-.806 1.936a3.487 3.487 0 00-.282.416 4.506 4.506 0 01-.251.394c-.127.169-.307.732-.25.778.02.014.077-.045.133-.13.231-.347.99-.937 1.451-1.128.138-.057.233-.352.183-.566a.396.396 0 01.041-.258c.111-.177.277-.795.247-.92a.558.558 0 00-.159-.225l-.134-.114.134.017c.112.016.13.001.11-.087-.038-.153-.2-.433-.248-.426-.022.006-.049-.029-.058-.071-.02-.091-.289-.229-.546-.284a2.326 2.326 0 01-.489-.214c-.17-.097-.335-.172-.37-.167-.036.006-.067.097-.07.204-.012.269-.327.78-.744 1.202-.25.254-.485.589-.845 1.203-.273.469-.513.855-.533.858-.08.012-.126-.168-.112-.446.017-.381-.132-1.163-.303-1.583-.23-.571-.212-.557-.385-.249-.123.219-.52.809-.8 1.188-.026.033-.063.046-.085.027-.05-.04.25-.617.527-1.009.118-.167.272-.455.345-.64.07-.184.283-.559.468-.834.323-.478.444-.745.517-1.144.044-.23.108-.253.173-.063.073.218-.183.857-.534 1.333-.292.397-.295.603-.015 1.464.146.453.225.771.26 1.038.052.449.023.462.406-.192.378-.648.54-.864.897-1.204.37-.349.511-.569.641-.986l.09-.292-.427-.366a9.07 9.07 0 01-.668-.632c-.267-.297-.9-.838-1.464-1.254-.324-.238-1.089-.603-1.222-.583-.027.002-.013.151.033.345.062.265.068.42.023.712-.069.46-.173.674-.415.856-.117.09-.236.255-.319.449l-.13.308.11.438c.119.47.318.857.395.775.026-.03.038-.02.027.015-.008.04.023.358.071.714.048.356.084.692.08.746-.003.06.012.097.042.092.073-.01.032.198-.095.458l-.099.207.137-.142a.8.8 0 01.168-.146c.075-.01-.05.354-.253.74-.264.504-.406 1.161-.39 1.804.006.239.02.441.031.45.01.005.066-.056.124-.143.058-.087.126-.161.152-.165.026-.002.047-.03.051-.053.01-.065.298-.394.553-.623.421-.381.748-.868.965-1.437.05-.131.107-.225.128-.209.071.055.013.322-.155.712-.093.216-.158.44-.145.498.013.059-.025.172-.086.253-.267.35-.374.592-.335.756.042.185.003.851-.068 1.123-.026.099-.032.193-.013.209.05.038.352-.204.954-.761l-.005.008zm-4.48 1.332c-.01-.028.044-.111.113-.185.07-.075.161-.245.204-.378.074-.233.196-1.052.172-1.154-.009-.028.037-.226.098-.44.133-.474.24-.923.23-.967-.01-.053-.4.305-.72.665-.4.451-.425.564-.312 1.449.05.394.1.796.108.895.01.114.035.178.07.172.027-.002.045-.031.04-.057h-.004zm6.878-1.238c.82-.738.964-.96.992-1.51.007-.127.042-.328.077-.449a1.41 1.41 0 00.053-.401c-.01-.179-.015-.181-.135-.126-.314.146-.593.381-.936.786-.205.243-.395.445-.424.449-.027.003-.047.076-.04.161.007.083-.053.294-.128.466-.096.218-.13.385-.115.55.013.129.005.289-.016.352a.426.426 0 00-.02.189c.024.107.138.031.691-.468l.001.001zm-7.755 2.915a6.07 6.07 0 00.45-.845c.112-.3.118-.395.082-1.073-.04-.744-.094-1.269-.127-1.265-.01.003-.06.205-.112.452a7.203 7.203 0 01-.2.745 8.845 8.845 0 00-.387 1.656c-.027.235-.062.524-.077.642-.014.118-.01.212.011.21.02-.006.182-.238.36-.522zm3.525.667a2.45 2.45 0 00.457-.322c.323-.321.696-.92.913-1.463.203-.506.361-1.189.32-1.369-.036-.14-.719.561-1.044 1.071-.174.273-.395.59-.49.705-.096.115-.19.29-.21.389-.02.099-.119.36-.219.578-.235.52-.254.606-.124.586.054-.01.233-.087.396-.177l.001.002zm-2.184-5.886c-.018-.027.037-.225.126-.448.088-.225.161-.454.163-.511 0-.057.022-.106.046-.11.022-.006.032-.049.02-.101-.045-.191.478-1.607.567-1.535.042.034-.006.204-.179.638-.165.416-.175.458-.235.945-.058.467-.07.528-.158.735-.095.226-.298.451-.35.388v-.001zm1.455 8.768c.304-.362.64-.799.745-.971.21-.336.263-.375.33-.234.03.071.104-.032.312-.433.276-.533.472-.79.618-.813.123-.016.345-.233.585-.561.327-.447 1.164-1.933 1.201-2.13.033-.174.033-.175-.08-.131-.06.026-.114.037-.115.028-.01-.04.254-.248.376-.3.104-.044.125-.084.105-.216-.056-.384.05-1.341.158-1.412.042-.027.037-.047-.02-.098a.337.337 0 01-.083-.097 5.178 5.178 0 01.197-.564c.3-.775.256-.82-.157-.164-.262.417-.913 1.205-1.34 1.625-.152.15-.205.247-.213.396-.023.488-.546 1.955-.84 2.358-.118.16-.19.297-.165.303.106.025.65-.267.938-.501.317-.257.484-.293.444-.094-.05.256-.502.563-1.068.73-.222.066-.42.143-.443.17a.51.51 0 01-.163.109.782.782 0 00-.227.186c-.057.07-.126.116-.155.101-.026-.01-.176.044-.328.131-.455.257-.665.229-.603-.08.014-.071.11-.3.213-.51.102-.211.226-.522.274-.692.095-.337.2-.53.433-.8.22-.254.32-.476.335-.749.007-.132.045-.327.085-.434.126-.337.196-.975.145-1.309-.028-.173-.062-.313-.075-.311a3.771 3.771 0 00-.335.332c-.382.406-.956 1.436-1.073 1.924-.045.192-.16.576-.254.852a5.154 5.154 0 00-.218.93c-.103.934-.268 1.554-.42 1.577-.084.014-.08-.091.03-.49.058-.213.129-.63.158-.927.062-.651.125-.929.294-1.301.198-.436.347-.875.386-1.135.019-.129.066-.43.104-.667.039-.237.084-.698.1-1.025.038-.78.123-1.189.32-1.545.108-.193.149-.325.12-.387-.025-.051-.011-.166.026-.256a.861.861 0 00.058-.33 33.32 33.32 0 01-.031-.582c-.02-.392-.032-.447-.228-.948a13.866 13.866 0 01-.341-1.002c-.072-.259-.148-.469-.166-.466-.034.005-.53.582-.632.736-.03.04-.203.182-.387.311-.264.184-.363.293-.467.517-.196.419-.381 1.352-.366 1.849.016.586-.065 1.045-.267 1.497-.093.212-.16.395-.146.407.014.015.179-.13.365-.314.472-.468.869-.75 1.278-.911.373-.146.549-.279.84-.628.1-.119.195-.206.21-.194.117.095-.451.704-.848.91l-.323.169-.171.529c-.204.63-.333 1.281-.337 1.697-.004.396-.097.631-.41 1.047-.27.358-.374.59-.257.573.033-.006.165-.146.29-.314a26.8 26.8 0 011.234-1.455c.16-.164.237-.11.137.097-.086.177-1.03 1.296-1.101 1.307-.027.002-.065.079-.09.168a3.366 3.366 0 01-.111.329c-.078.194-.046.393.076.475.115.079.195.452.156.734-.018.126-.182.542-.365.924-.445.93-.813 1.85-.81 2.024.004.142-.121.533-.393 1.233-.081.208-.135.389-.12.402.018.014.223-.096.46-.243.284-.175.515-.28.674-.305.403-.062.415-.079.438-.573.01-.245.012-.478.003-.518-.01-.039.005-.203.032-.364.048-.276.073-.311.46-.641.224-.191.454-.419.511-.503.1-.152.24-.222.26-.133.024.106-.284.482-.68.829a1.54 1.54 0 00-.308.36c-.095.193-.095 1.114 0 1.1.208-.031.48-.395.543-.724.059-.305.385-.88.593-1.044.109-.087.375-.349.59-.585.216-.235.406-.415.423-.401.05.039-.106.22-.625.739-.626.626-.76.825-.825 1.213-.06.365-.263.711-.49.837a.539.539 0 00-.207.191c-.046.096-.036.12.116.29.09.102.17.209.176.238.017.074.291-.214.927-.972l-.005.003zm-10.31 12.959c-.01-.027.026-.088.074-.131.087-.077.087-.077.024.051-.066.143-.085.159-.104.08h.005zm-.666.98c-.023-.097.727-1.567.968-1.894.18-.243.407-.484.47-.493.06-.007.052.151-.006.25-.036.06-.046.14-.023.18.024.043.014.077-.027.083a.103.103 0 01-.1-.048c-.063-.108-.254.135-.522.649-.143.274-.233.475-.202.444.05-.049.053-.041.015.048-.023.056-.053.093-.067.082-.013-.016-.116.135-.227.327-.187.323-.268.429-.282.372h.003zm.091.499c.53-.562 1.87-2.789 1.815-3.019-.01-.04-.208-.089-.47-.116-.114-.012-.697.213-.76.296-.013.014.023.042.074.064.133.059.097.124-.144.269-.154.093-.263.226-.403.49-.105.199-.184.394-.174.433.01.039-.007.103-.035.145-.082.121-.195 1.657-.12 1.646a1.73 1.73 0 00.217-.208zm-.745 1.121c-.007-.032-.03-.036-.05-.014-.025.02-.032.065-.025.095.008.032.031.036.051.014.02-.018.031-.065.024-.095zm-1.312 2.32c.272-.465.33-.689.257-.998-.058-.246.081-.699.29-.942.194-.224.251-.556.177-1.023-.042-.265-.06-.319-.12-.311-.1.016-.458.781-.552 1.183-.115.493-.226.888-.548 1.947-.054.181-.06.517-.01.578.1.123.262-.015.507-.435v.001zM9.18 50.689c.103-.092.304-.453.222-.397-.127.086-.442.421-.433.46.016.067.092.044.212-.062v-.001zm-.98.856c-.032-.08-.024-.012.014.151.038.164.065.229.056.146a1.632 1.632 0 00-.07-.298v.001zm1.21 1.979a2.152 2.152 0 00-.408-.57c-.314-.301-.186.029.18.464.21.249.33.305.227.106h.001zm2.354-.23c.326-.51.492-.705.842-.982.164-.129.356-.332.43-.451.071-.119.24-.314.372-.434.33-.298.421-.631.347-1.274-.018-.13.011-.523.058-.872s.071-.646.054-.661c-.044-.038-.457.322-.625.549-.333.449-.69 1.366-.632 1.619.012.042-.077.206-.194.364-.215.293-.225.327-.19.692.02.231-.114.579-.283.73-.177.159-.196.025-.03-.217.154-.227.182-.405.135-.873-.029-.281-.097-.312-.412-.176-.468.2-.838.576-1.22 1.238-.174.299-.272.576-.246.687.005.02.084-.091.176-.248.091-.156.177-.287.191-.288.068-.011.037.138-.083.393-.234.494-.235.495-.048.428.16-.056.162-.057.166.095l.005.153.284-.081c.18-.049.321-.065.383-.037.185.086.281.021.522-.356l-.002.002zm7.32-11.843c-.03-.121.03-.769.085-.951a.94.94 0 00.054-.256c-.013-.059.188-.366.246-.375.094-.013.07.165-.062.467a3.693 3.693 0 00-.204.736c-.059.385-.093.491-.119.38v-.001zm-.472-.166c.134-.241.26-.423.282-.405.043.037-.32.67-.446.775-.043.037.031-.13.164-.37zm-2.8 6.077c-.01-.04.033-.222.094-.4.108-.319.228-.879.195-.907-.009-.006-.134.136-.277.317-.275.353-.87 1.011-.92 1.019-.096.013-.008-.137.308-.544.623-.798.768-1.166.83-2.12.04-.599.152-1.098.317-1.394.251-.45 1.034-.95 1.094-.699.01.054-.049.105-.174.152-.292.105-.612.406-.776.721-.157.305-.22.648-.28 1.521-.03.444-.023.567.033.596.056.028.06.103.016.363-.114.688-.414 1.584-.46 1.375zm-1.837.204c.288-.506.815-1.257.975-1.389a.498.498 0 00.144-.168c.041-.157.531-.431.56-.313.006.025-.129.173-.297.333-.169.16-.575.656-.903 1.101-.329.446-.62.813-.648.816-.027.002.05-.168.17-.38zM9.52 52.69c.03-.149.295-.574.337-.539.04.031-.262.631-.32.64-.02.005-.03-.042-.019-.1l.002-.001zm.51.536c.188-1.034.761-1.818 1.583-2.175.538-.232.564-.285.288-.576-.086-.092-.166-.206-.178-.256-.035-.149.162-.746.46-1.393.153-.337.344-.779.423-.983.078-.204.275-.566.438-.805.163-.239.338-.551.391-.693.1-.268.263-.4.554-.444.367-.055.411.08.056.183-.258.075-.27.088-.542.579-.152.276-.388.695-.523.932-.259.455-.686 1.384-.97 2.112l-.17.436.148.209c.082.114.175.298.206.406.028.109.074.188.088.179a.303.303 0 01.093-.031c.035-.006.106-.21.158-.456.052-.245.168-.593.258-.774.218-.437.637-1.029.876-1.238.195-.171.37-.198.403-.06.011.04-.038.416-.105.839-.066.423-.114.861-.105.972l.017.202.252-.162c.297-.191.768-.812 1.207-1.588a6.66 6.66 0 01.445-.701c.13-.152.134-.171.041-.174-.115-.003-.55.216-.613.309-.22.321-.838 1.068-.865 1.045-.067-.057.51-.941.766-1.175.401-.365.583-.466.751-.414.135.041.154.021.413-.424.15-.257.297-.472.33-.477.22-.033.741-.759.694-.97-.035-.16.038-.489.305-1.376.13-.43.296-.993.373-1.252.195-.66.464-1.162.638-1.188.145-.022.16.001.235.386.094.488.053.787-.173 1.24l-.215.432.174-.065c.2-.075.485-.524.413-.647-.046-.081.065-.353.15-.366.097-.014.356-.402.43-.645.04-.134.08-.42.087-.637.026-.782.165-1.431.404-1.885.183-.349.202-.413.111-.371a.755.755 0 00-.17.104 3.874 3.874 0 01-.407.218c-.373.177-.897.545-.985.689a.242.242 0 01-.146.103c-.144.021-.893.68-.873.767.012.042-.157.371-.373.73-.342.57-.46.729-.48.645a8.724 8.724 0 01.261-.583c.148-.309.256-.571.241-.582-.012-.017-.394.287-.844.665-.45.378-1.186.967-1.637 1.311-.45.344-1.232.967-1.736 1.385-.504.418-1.24.985-1.637 1.26-.396.276-.823.598-.95.716-.214.202-.237.251-.326.718-.117.615-.17.785-.234.736-.027-.02-.009-.259.041-.528.048-.269.073-.502.053-.518-.048-.038-.79.525-1.077.816-.229.233-.652 1.016-.798 1.476-.073.231-.07.275.045.709.244.915.368 1.033.632.593.162-.27.73-.926.87-1.005a.349.349 0 00.124-.135c.02-.044.067-.074.108-.064.04.011.096-.013.126-.057.052-.077.216-.574.205-.62-.004-.017.108-.363.245-.777.284-.851.48-1.265.712-1.503.088-.09.161-.213.163-.272.004-.13-.028-.123.442-.09.604.045.727.008 1.093-.325.227-.206.455-.351.753-.479.39-.167.851-.467 1.268-.823.086-.073.243-.267.347-.428.105-.162.234-.333.288-.381.053-.05.19-.232.304-.409.114-.177.273-.399.354-.493.155-.181.317-.247.315-.125 0 .064-.787 1.015-1.055 1.276-.124.121-.136.273-.015.188.142-.1.367-.159.35-.093-.042.159-1.448 1.179-2.117 1.536a4.665 4.665 0 00-.712.48c-.308.261-.328.269-.673.289a2.894 2.894 0 01-.596-.027 4.984 4.984 0 00-.252-.046.306.306 0 00.011.104c.014.063-.044.179-.153.3-.098.109-.23.302-.294.429-.15.297-.473 1.229-.624 1.805-.127.485-.212.637-.569 1.023-.126.136-.257.33-.29.431l-.062.185.172-.025c.23-.035.167.046-.167.215-.15.077-.327.209-.39.295-.098.13-.12.141-.138.068-.015-.072-.049-.077-.138-.034-.185.087-.288.233-.256.363.041.162.284.803.318.83.018.014.044-.009.065-.049.022-.041.091-.079.153-.087.067-.01.218-.157.366-.356.14-.187.333-.409.43-.493.451-.39.717-.766 1.228-1.732.613-1.161.681-1.414.583-2.182-.08-.638-.078-.686.03-.612.088.06.15.337.244 1.09l.031.263.112-.101c.128-.116.284-.157.261-.067-.007.034-.085.12-.169.195-.19.168-.494.65-1.105 1.761-.412.747-.535.921-.975 1.379-.502.522-.93 1.138-.937 1.347-.004.115.278.728.487 1.066.161.259.197.203.328-.512v-.006zm1.136.821l.296-.244-.457.065-.456.065.182.068.181.068-.256.054c-.169.036-.31.034-.412-.007-.098-.04-.162-.042-.172-.007-.043.164.312.3.597.229.11-.028.333-.161.497-.294v.003zm-3.623 1.242a.426.426 0 00-.074-.115c-.05-.061-.057-.051-.035.046.013.068.048.119.073.116.022-.007.042-.021.036-.047zm12.46-47.357c.006-.03.062-.062.117-.068.098-.01.098-.01.022.049-.11.082-.156.088-.138.018v.001zm.733.003c-.008-.032.011-.058.035-.061.027-.002.041.018.034.05-.007.035-.025.06-.035.061-.015.003-.027-.019-.034-.05zm-.769.19a.133.133 0 01.114-.017c.033.013.01.026-.052.034-.064.008-.09.003-.064-.019l.002.002zm-1.05.193c.005-.034.034-.061.06-.065.026-.002.04.018.027.052-.007.034-.035.061-.06.066-.022.006-.04-.019-.028-.053zm-2.434.59a.343.343 0 01.19-.084c.174-.026.145.012-.07.089-.124.049-.158.045-.119-.003v-.002zm-.238.089c.007-.034.034-.06.058-.064.022-.007.05.019.056.047.008.032-.02.059-.058.065-.038.007-.063-.013-.056-.048zm-.645.341c.038-.091.153-.126.17-.054.01.028-.038.068-.097.091-.088.035-.102.025-.074-.038l.001.001zm.707.02c-.003-.011.024-.041.057-.064.038-.019.058-.016.048.015-.014.055-.096.092-.106.048l.001.001zm-.323.288c.022-.04.056-.064.073-.05.018.014 0 .049-.04.076-.058.038-.064.037-.033-.025v-.001zm-1.286.329c.03-.022.068-.027.088-.011.018.015-.007.035-.054.036-.054.004-.068-.007-.033-.026v.001zm.074.477c-.012-.058.437-.318.483-.281.027.02-.385.321-.449.33-.014.003-.027-.019-.034-.049zm-.157.134c-.008-.032.011-.058.035-.061.027-.002.041.018.035.051-.007.033-.025.059-.036.061-.01.002-.026-.02-.034-.051zm-.202.058c.038-.051.084-.08.102-.064.038.031-.056.144-.125.152-.024.001-.012-.035.024-.086v-.002zm-.365.339c-.004-.017.028-.058.071-.097.062-.057.075-.053.07.019-.007.077-.126.144-.14.081v-.003zm-.436.229c.186-.142.347-.209.36-.151.013.059-.265.226-.397.238-.06.008-.05-.022.037-.087zm-2.316 2.001c.008-.034.051-.061.092-.07.067-.01.07-.002.023.052-.073.082-.133.092-.114.017v.001zm15.58 16.684c-.016-.048.08-.776.206-1.616.125-.839.223-1.547.217-1.571-.008-.028.022-.099.063-.164l.075-.118.004.167c.004.093-.076.697-.177 1.345a94.46 94.46 0 00-.22 1.463c-.045.355-.138.623-.17.494h.001zm1.376-15.705c-.002-.247.014-.51.036-.584.095-.333.103-1.094.011-1.076-.102.015-.19 1.918-.098 2.076.054.094.056.084.051-.416zm-.167 3.937c.075-.312.196-.778.27-1.036.074-.258.16-.618.19-.801.047-.289.044-.346-.032-.437-.074-.089-.08-.141-.058-.331l.03-.227-.225-.318c-.265-.373-.288-.451-.286-.967 0-.214-.007-.397-.018-.405-.009-.006-.085.217-.163.503-.182.66-.17 1.118.06 2.377.198 1.084.197 1.075.11 1.695-.037.264-.066.49-.064.501.018.079.064-.063.184-.554h.002zm-.204.839c.013-.126.003-.17-.047-.195-.049-.025-.058-.108-.035-.34.077-.819.068-1.077-.069-1.881-.119-.695-.197-1.397-.194-1.735.004-.371-.419.384-.5.894a4.928 4.928 0 01-.185.737l-.12.326.147.493c.15.499.672 1.841.811 2.078l.077.129.05-.172c.028-.095.058-.246.067-.335l-.002.001zm-3.562 1.507c-.01-.497-.035-.617-.18-.849-.094-.157-.13-.175-.269-.155-.087.016-.179-.002-.202-.027-.019-.032-.023-.048 0-.044.092.014.224-.115.204-.199-.009-.051-.247-.265-.525-.478-.553-.425-.575-.422-.468.053a.58.58 0 00.233.392c.115.095.232.26.322.452.133.275.136.311.091.412-.063.137.01.315.21.508.09.086.197.275.288.505.08.202.165.391.19.417.058.072.122-.491.112-.988l-.006.001zm-2.607 2.575c.068-.126.045-.504-.045-.758-.048-.141-.065-.102-.134.347a7.601 7.601 0 00-.073.53c.015.07.197-.013.251-.12l.001.001zm2.566 7.889c.012-.283-.193-1.528-.298-1.811-.142-.387-.965-1.509-1.092-1.49-.053.01.291 1.36.547 2.152.111.347.191.352.112.008-.023-.097-.026-.179-.002-.183.063-.008.24.564.31 1.008.061.389.07.414.198.493.175.111.215.08.225-.177zm.644-18.537a23.875 23.875 0 00-.175-.984c-.103-.539-.13-.751-.089-.758.035-.005.038-.133.007-.346-.058-.393-.045-.445.077-.314.114.122.151.277.158.68.003.178.052.65.108 1.05.056.399.087.763.068.81-.065.155-.125.102-.154-.138zm-1.659 2.032c-.012-.042 0-.268.022-.502.078-.816.043-1.113-.305-2.587-.327-1.384-.353-1.668-.098-1.065.183.433.441 1.538.538 2.304.073.576.105 1.549.06 1.8-.024.12-.19.16-.218.048l.001.002zm.236.539c-.85-.679-.87-.713-1.145-1.893a12.662 12.662 0 01-.3-1.722c-.105-1.013-.108-1.078-.05-1.086.062-.009.206.817.252 1.441.047.645.406 2.169.573 2.433.067.107.388.418.713.692.533.447.678.6.59.613-.018.004-.302-.213-.633-.478zm-1.3 1.761c.016-.133.02-.436.008-.671-.022-.426-.024-.434-.262-.943a12.995 12.995 0 00-.298-.611c-.045-.07-.039-.092.012-.081.04.011.125.119.192.245.068.125.122.2.124.164 0-.056-.239-.516-.457-.875-.11-.181.114 0 .268.216.4.562.692 2.091.507 2.655-.07.219-.126.162-.094-.098v-.001zm4.531 3.289c.033-.331.058-.77.055-.976-.01-.62.074-.599.121.031.023.297-.127 1.429-.199 1.506-.024.019-.01-.23.023-.561zm-3.529 2.32c-.013-.064-.006-.077.017-.035.022.038.033.084.023.104-.01.017-.03-.015-.04-.068v-.001zm.208 1.433c-.013-.123-.105-.384-.254-.7a4.747 4.747 0 01-.344-.968c-.06-.255-.152-.54-.207-.635-.076-.135-.102-.244-.118-.511-.025-.399.037-.953.107-.963.031-.004.037.074.025.207-.048.403.476 2.535.658 2.683a.443.443 0 01.096.188.788.788 0 00.13.263c.164.212.18.383.044.514l-.119.118-.019-.196h.001zm2.772 2.407a.443.443 0 01.023-.197c.046-.142.068-1.431.034-2.044-.024-.436-.004-.611.064-.556.062.051.11 1.324.076 2.105-.02.513-.049.715-.104.736-.042.015-.084-.004-.093-.043v-.001zm-.294-3.736c.05-.057.2-.162.332-.235.213-.118.254-.169.343-.444.106-.329.1-.672-.018-.944-.074-.169-.657-.924-.709-.916-.079.012-.305.548-.337.795-.065.509.054 1.502.212 1.771.061.1.064.1.177-.027zm-.029 4.962c-.013-.046.001-.233.026-.415.06-.428-.027-.945-.24-1.43a9.502 9.502 0 01-.342-1.005c-.179-.644-.18-.648-.108-.909.04-.146.145-.398.233-.563l.161-.298-.175-.746-.176-.747.117-.656c.096-.543.144-.691.278-.856.183-.225.28-.561.158-.542-.106.013-.186-.154-.426-.89-.288-.887-.851-3.126-.787-3.136.03-.004.115.279.237.798.203.856.343 1.303.407 1.293.057-.006.134-.505.136-.872.004-.679-.251-1.928-.585-2.856-.09-.254-.04-.324.1-.136.14.191.296.731.447 1.549.174.94.207 1.588.11 2.158l-.07.416.2.61c.324.991.309.983.46.235.07-.355.153-.816.182-1.025.076-.556.096-.617.18-.549.09.072.036.567-.136 1.25-.164.652-.18.824-.087.966.064.099.053.16-.063.434l-.138.319.193.178c.2.186.615.88.673 1.128.017.078.005.303-.03.5-.072.417-.246.674-.577.852-.234.127-.3.201-.636.725-.301.469-.344.661-.226 1.013.05.154.163.496.248.761.088.264.195.547.246.628.147.241.29 1.047.24 1.354-.048.3-.197.601-.23.463v.001zm-.849 4.071c.368-.477.592-1.199.864-2.791.122-.715.277-1.493.346-1.73.07-.236.138-.497.155-.58.088-.433.237-.934.382-1.291.101-.248.177-.557.2-.814a24.6 24.6 0 01.104-.929c.038-.281.054-.53.036-.551-.054-.068-.594.039-.81.161-.113.06-.209.116-.214.119a.229.229 0 01-.033-.082c-.009-.05.06-.146.164-.227.15-.115.257-.149.582-.181l.397-.043.093-.519c.052-.285.105-.621.12-.747.015-.125.058-.359.095-.519.091-.39.168-.892.15-.973-.01-.036-.142-.238-.296-.449-.154-.212-.298-.459-.32-.551-.042-.185.011-.227.116-.093.105.133.03-.147-.183-.688-.343-.871-.438-1.517-.387-2.635.03-.669.03-.677-.06-.664-.037.006-.132-.091-.21-.214-.108-.165-.24-.278-.509-.436-.449-.261-.67-.508-1.47-1.632-.338-.475-.689-.964-.78-1.089-.212-.284-.427-.891-.323-.906.05-.008.096.075.17.298.083.254.247.516.958 1.511.913 1.281.978 1.349 1.69 1.769.135.08.296.22.356.31.06.089.124.161.142.159.017-.004.034-.111.036-.242.003-.272-.136-.894-.352-1.56a3.367 3.367 0 01-.179-.927c-.046-.664-.035-1.202.027-1.294.076-.112.09-.016.074.512-.008.243.016.676.053.962.058.456.087.566.23.873.09.194.188.449.214.568.061.261.087.953.057 1.535-.012.232-.015.574-.008.758.007.183.01.383.004.443-.02.227.085.004.22-.47a7.88 7.88 0 01.472-1.145c.184-.366.367-.796.404-.956.037-.159.12-.386.184-.504s.175-.491.245-.828c.071-.337.146-.663.17-.725.04-.108.041-.109.07.006.015.066.018.242.005.391-.013.15-.012.472.001.717.013.245-.013.703-.059 1.019-.077.534-.075.604.022 1.024.082.351.124.463.193.504.05.03.105.085.126.123.044.076.262-1.253.29-1.736.008-.162.026-.441.038-.623.032-.44-.102-1.069-.267-1.263a.923.923 0 01-.174-.4c-.046-.205-.084-.283-.186-.359-.162-.124-.713-.396-.78-.386-.032.004-.028.107.005.248.131.552-.073 1.624-.455 2.393-.125.253-.243.449-.26.435-.019-.014.06-.285.174-.602.115-.316.254-.814.311-1.107.091-.471.095-.579.025-.948-.09-.488-.159-.601-.433-.718a3.028 3.028 0 01-.334-.172.987.987 0 00-.357-.114c-1.26-.139-1.63-.163-2.12-.137-.314.018-.775.023-1.023.015-.652-.023-1.36.092-1.688.272a4.47 4.47 0 01-.66.269c-.576.178-1.445.547-1.64.695-.092.071-.275.311-.405.536-.13.224-.3.453-.377.51-.138.098-.138.107-.063.425.043.177.184.692.318 1.143.134.452.355 1.208.494 1.681.14.473.37 1.233.514 1.69.144.457.384 1.292.533 1.855.477 1.801.947 3.499 1.018 3.676.037.095.085.17.104.168.02-.006.055-.162.081-.354.035-.27.03-.393-.03-.542-.208-.523-.287-.869-.28-1.254.008-.457-.053-.749-.209-1-.062-.101-.205-.445-.314-.766-.179-.519-.222-.605-.396-.777l-.194-.194.091-.156c.05-.086.218-.294.373-.463.352-.384.441-.531.406-.673-.043-.179-.213-.457-.446-.734-.466-.55-1.47-2.351-1.45-2.596.007-.086.016-.086.094-.004.046.05.123.189.17.311.187.488 1.256 2.149 1.372 2.131.073-.009.13-.229.158-.613a2.66 2.66 0 01.15-.683c.064-.158.141-.375.17-.484l.052-.199-.226-.32c-.22-.311-.513-.662-1.13-1.352-.326-.362-.429-.592-.278-.614.048-.009.11.028.137.077.107.202 1.03 1.292 1.097 1.298.144.011.103-.618-.095-1.461-.155-.661-.169-.761-.106-.786.125-.052.231.159.295.584.074.477.112 1.076.084 1.325-.042.39 0 .574.186.83.282.385.29.517.055 1.018-.229.489-.272.658-.244.973.012.12-.002.29-.03.375-.079.243-.06.424.051.496.148.096 1.042.848 1.107.932.125.163.003.131-.29-.074l-.31-.217.162.296c.115.213.193.426.267.762l.107.466-.168-.444c-.218-.579-.46-1.089-.643-1.342l-.145-.203.037.255c.045.323.017.384-.319.709-.426.413-.433.429-.312.626.057.091.193.417.297.726.11.308.286.757.4.996l.203.435-.009.461c-.005.253-.003.546.004.651l.011.192.113-.17a1.79 1.79 0 00.177-.388 3.65 3.65 0 01.253-.554c.187-.335.516-1.439.477-1.602-.013-.046-.003-.105.018-.126.076-.082.103.249.044.57-.089.501-.3 1.09-.639 1.78-.303.62-.316.683-.187.935l.067.13.025-.158c.027-.175.11-.229.105-.066-.008.251.156 1.256.31 1.899.196.83.578 1.901.706 1.98.086.054.118.281.041.292-.153.021-.424-.629-.732-1.756-.127-.466-.24-.847-.249-.846a.714.714 0 00-.124.142c-.126.163-.117.219.15.839.294.681.523 1.399.736 2.299l.186.789.34.326c.185.18.432.418.55.529.116.113.225.263.243.339.043.188.174.403.24.393.094-.013-.327-1.479-.54-1.883-.245-.462-.3-.522-.314-.344a.642.642 0 01-.234.426c-.082.075-.08.052.01-.177.166-.411.174-.507.054-.648-.14-.162-.139-.185.01-.186.121-.001.126-.018.098-.277-.029-.255-.272-1.054-.378-1.233-.024-.043-.022-.082.001-.085.111-.016.251.351.46 1.194.18.733.24.912.385 1.17.274.483.543 1.209.632 1.71.07.398.085 1.002.03 1.268-.026.123-.01.122.164-.008.095-.068.151-.179.181-.349a4.07 4.07 0 01.15-.546 7.32 7.32 0 00.213-.849c.096-.495.098-.576.023-.761-.11-.268-.565-.843-.683-.86-.055-.008-.129-.092-.186-.21-.099-.205-.242-.373-.543-.634l-.178-.154-.045-.56-.044-.559.217-.464c.282-.598.47-1.123.465-1.3a.58.58 0 01.061-.262c.056-.104.05-.165-.044-.452-.167-.513-.665-1.504-.75-1.488-.017.004-.084.137-.15.299-.216.533-.26.403-.07-.211.088-.289.13-.634.095-.784-.02-.091-.115-.225-.224-.333-.36-.347-.424-.638-.344-1.573.11-1.266.133-1.561.14-1.747.001-.108.02-.237.04-.286a.813.813 0 00.037-.23c.004-.255.104-.718.14-.651.048.084.033.288-.12 1.742-.069.658-.12 1.266-.113 1.351.01.13.05.181.256.326.135.095.417.304.627.466.21.162.394.292.41.289.052-.01.195-.531.21-.774.01-.133-.019-.955-.062-1.828-.07-1.449-.068-1.658.025-2.401.055-.448.12-.817.141-.821.081-.013.096.254.036.642-.126.802-.136 2.011-.023 2.94.121 1.001.077 1.786-.127 2.265-.08.19-.08.2.05.52.168.409.21.816.14 1.314a7.214 7.214 0 00-.064.66c-.006.162-.027.312-.046.332-.02.018-.017.116.005.21.038.155.001.346-.15.801-.046.134-.038.169.12.536a4.9 4.9 0 01.356 1.972c-.017.352-.047.489-.12.552-.123.107-.224.037-.16-.112.09-.211.127-.8.077-1.222-.058-.494-.276-1.456-.328-1.447-.019.006-.1.172-.183.374a6.182 6.182 0 01-.262.568c-.1.179-.108.262-.069.767l.042.565.327.267c.18.147.332.295.34.329.007.031.115.156.236.271.26.245.59.73.71 1.042.071.185.073.286.018.643a4.186 4.186 0 00-.023.893c.023.259.031.586.02.727-.039.426-.24 1.068-.28.894-.012-.053.082-.575.122-.675.04-.093.06-.749.028-.88-.028-.117-.028-.117-.1-.002a1.66 1.66 0 00-.13.379c-.083.364-.16.514-.37.71-.189.177-.209.273-.13.614.027.114.03.309.007.435l-.042.23.165.171c.091.093.18.168.2.166a1.03 1.03 0 00.173-.188l.003.005zm-.367.298c-.106-.067-.183-.09-.193-.055-.022.085-.097.087-.118.002-.01-.04-.12-.153-.248-.255a1.02 1.02 0 01-.305-.363c-.038-.098-.1-.187-.136-.197-.09-.023-.268-.658-.963-3.381-.588-2.309-.594-2.331-1.016-3.417-.476-1.226-.886-2.548-1.525-4.926a59.905 59.905 0 00-.564-1.991 66.596 66.596 0 01-.535-1.771 92.358 92.358 0 00-.594-1.959c-.317-.975-.36-1.197-.297-1.572.05-.296.177-.569.275-.584.07-.011.077.137.013.302-.125.324.003.194.276-.277.154-.267.315-.517.358-.555.095-.085.458-.24.864-.367.166-.052.512-.19.77-.306.258-.114.604-.269.77-.34.327-.143 1.06-.268 1.473-.248.317.013.9.01 1.524-.011.76-.024 1.72.112 2.23.314.84.335 1.385.575 1.6.701.165.098.223.11.261.055.025-.042.061-.061.078-.046.074.061.307.764.462 1.405.164.678.171.725.14 1.308a6.729 6.729 0 00-.016.672c.01.036-.01.124-.044.192-.076.157-.19.795-.25 1.384a5.479 5.479 0 01-.183.896c-.446 1.434-.867 3.22-1.168 4.953-.255 1.469-.458 2.835-.435 2.933.034.147-.083.664-.237 1.048-.09.225-.194.568-.23.764a7.48 7.48 0 01-.23.832c-.135.394-.477 2.191-.594 3.116a2.366 2.366 0 01-.108.439c-.387 1.031-.582 1.372-.808 1.405-.065.009-.199-.035-.295-.098l-.002-.002zm-14.76-9.702a1.619 1.619 0 00-.245-.227c-.166-.128-.177-.13-.152-.024.015.063.104.168.201.233.203.139.292.147.195.018zm.921.843a.416.416 0 00-.157-.124c-.113-.056-.112-.053.026.067.161.141.19.152.133.057h-.002zm6.827 5.842c-.258-.325-1.314-1.294-2.21-2.028-.924-.757-.969-.744-.092.029.31.272.98.879 1.491 1.35.511.471.938.855.95.853.014-.003-.052-.091-.138-.201v-.003zm.271.282c-.042-.035-.064-.034-.054.002.015.072.087.127.108.087.011-.017-.012-.057-.053-.087v-.002zm4.352.878c-.008-.033-.034-.051-.059-.048-.022.006-.04.03-.032.061.007.032.034.051.058.048.027-.002.04-.03.033-.061zm-.338 1.243c-.06-.049-.078.042-.023.108.043.05.054.049.054-.011a.159.159 0 00-.03-.1v.003zm.992.667c.081-.202.08-.265-.01-.741-.088-.457-.11-.522-.188-.543-.048-.015-.15-.125-.228-.248-.18-.287-.25-.279-.13.016.122.295.278.966.193.826a6.255 6.255 0 01-.245-.549c-.266-.659-.443-.88-.817-1.034a2.523 2.523 0 01-.524-.3 1.454 1.454 0 00-.239-.171c-.027.002.118.343.23.554.05.086.154.297.24.469.174.361.573.984.597.939.011-.017-.026-.105-.077-.197-.05-.091-.084-.181-.073-.2.011-.017.251.301.536.71.35.504.538.735.581.718.035-.013.103-.124.151-.246l.003-.003zM12.504 16.233a.105.105 0 01.025-.091c.021-.017.048-.001.058.044.014.046 0 .088-.025.091a.057.057 0 01-.058-.044zm3.12 1.798c-.01-.031-.238-.261-.506-.508a26.436 26.436 0 01-.763-.732c-.279-.285-.8-.981-.774-1.032.011-.017.235.224.505.53.27.307.684.731.92.943.468.418.634.618.636.764-.002.052-.008.068-.018.035zm.171 1.281a2.309 2.309 0 00-.427-.243c-.2-.08-.476-.348-1.135-1.106-.306-.352-1.173-1.066-1.507-1.242-.259-.136-.396-.297-.27-.316.087-.015.686.242.745.317.031.039.273.272.54.517s.673.662.902.927c.39.452.647.677.752.662.022-.007.14.061.255.144.116.083.252.17.303.193.108.049.18.231.111.275-.027.021-.147-.041-.267-.129l-.002.001zm2.092 4.209c-.197-.539-.384-.746-1.469-1.624-.562-.455-1.053-.871-1.093-.924-.086-.117-.189-.534-.158-.643.03-.11.106.029.173.312.051.211.083.244.85.845.478.376.802.6.81.559a4.887 4.887 0 00-.09-.611c-.11-.579-.114-1.077-.008-1.093.09-.01.12.153.091.484-.015.17.012.497.071.831l.097.55.247.259c.428.45.55.63.634.953.063.238.065.305.01.328-.054.024-.092-.03-.164-.226h0zm2.348-.031a4.589 4.589 0 00-.507-.273c-.43-.197-.804-.515-.937-.801-.062-.13-.254-.757-.428-1.394-.304-1.114-.325-1.175-.56-1.571-.526-.883-1.386-1.666-1.713-1.557-.09.029-.089.056.031.527.106.421.162.554.373.891.32.518.67.822.901.788.11-.016.178.002.212.062.142.24-.227.227-.572-.021-.217-.156-.592-.63-.79-1-.075-.135-.279-.729-.468-1.345-.472-1.55-.678-1.946-1.287-2.476-.522-.454-.529-.462-.537-.649-.01-.171.061-.222.238-.173.107.03.133.158.04.195-.06.025-.027.072.175.249.582.508 1.056 1.28 1.303 2.119.131.449.148.478.272.515.355.105.46.156.728.348.325.234.791.743 1.068 1.165.188.287.601 1.221.671 1.519.061.257.17.403.511.705.424.37 1.097 1.363.94 1.386-.022.007-.163-.195-.308-.44-.247-.418-.655-.91-.88-1.061-.159-.107-.165.042-.018.532.18.593.258.727.57.964.281.214.913.581.983.571.058-.007.295.203.313.28.025.11-.1.087-.32-.056l-.004.001zm-6.75 1.035c-.345-.158-.877-.47-.889-.522-.009-.028-.008-.047.001-.048.06-.007 1.16.469 1.165.506.027.2.023.201-.278.062v.002zm.502.274a6.64 6.64 0 01-.198-.461c-.217-.539-1.1-2.096-1.564-2.759-.229-.328-.3-.533-.12-.339.208.222 1.095 1.476 1.38 1.953.39.649.745 1.509.663 1.6-.074.081-.119.081-.16.007v-.001zm4.875-1.008c-.14-.518-.344-1.543-.285-1.429.013.03.132.473.257.987.25 1.011.271 1.342.027.442h.001zm-3.065 2.598c-.382-.379-.489-.497-.503-.554-.019-.082.25.134.505.404.285.302.283.432-.002.151v-.001zm4.686-1.249c-.05-.134-.092-.211-.096-.169-.004.042.046.21.103.377.068.189.104.252.096.17a2.057 2.057 0 00-.103-.378zm.823 2.06a3.995 3.995 0 00-.242-.301c-.147-.165-.59-1.243-.706-1.717-.087-.361-.116-1.144-.045-1.22.017-.02.16.521.318 1.197l.29 1.229.244.375c.134.206.25.428.257.494.012.106-.004.1-.118-.057h.002zm-1.74 1.002a7.54 7.54 0 01-.127-.303 4.363 4.363 0 00-.363-.626c-.342-.501-.746-.825-1.769-1.415-.538-.311-.675-.411-.649-.473.04-.095.055-.088.88.399.706.418 1.166.763 1.463 1.099.238.269.576.902.651 1.221.044.188-.013.253-.088.099l.001-.001zm-.786.047a6.216 6.216 0 01-.596-.407c-.289-.234-1.168-1.46-1.196-1.668-.014-.116.072-.012.431.497.57.808.731.974 1.333 1.364.27.174.493.34.5.369.025.108-.109.065-.472-.155zm3.166-.026c-.008-.032.01-.044.04-.03.031.015.056.038.06.05.003.017-.014.028-.04.03-.023.006-.054-.022-.06-.05zm-1.107 1.836c-.308-.279-1.088-1.207-1.059-1.261.012-.017.081.041.157.131.076.091.266.297.422.459.344.358.635.715.616.752-.012.017-.069-.023-.135-.081h0zm.944 2.04a1.471 1.471 0 01-.268-.402c-.228-.485-.343-.613-1.515-1.716-.162-.152-.125-.206.064-.092.201.121.995.858 1.135 1.053.061.085.181.23.266.323a.863.863 0 01.178.265.223.223 0 00.09.133c.036.02.123.11.193.201.217.286.111.456-.144.236l.001-.001zm.796.288c.004-.116-.148-.341-.44-.656-.707-.762-1.366-2.071-2.006-3.984-.204-.61-.418-1.04-.82-1.66-.319-.488-.349-.558-.248-.573.037-.007.077.026.088.071.013.044.04.079.064.075.027-.002.053.022.06.056.01.036.1.187.202.339.103.153.324.589.491.969.165.381.343.743.4.803.103.122.161.318.13.435-.033.118.234.582.457.792a1.4 1.4 0 00.364.253c.091.036.298.146.46.245.161.098.3.166.308.15.012-.017-.116-.271-.278-.566-.324-.589-.335-.616-.269-.626.022-.006.056.036.065.089.011.053.113.22.224.373.11.154.266.396.345.538.313.562.535.897.571.859.066-.073-.277-1.199-.468-1.542-.209-.374-.233-.461-.083-.308l.114.116-.002-.123a1.339 1.339 0 00-.072-.305c-.06-.158-.094-.187-.272-.22-.224-.041-.639-.36-1.667-1.28-.54-.483-.6-.555-.778-.911-.118-.234-.224-.394-.27-.402-.429-.081-.945-.433-1.445-.985-.465-.513-.639-.629-1.375-.917-.603-.237-.698-.238-.363-.009.183.126.233.256.105.275-.125.017-.303-.177-.712-.777-.195-.287-.375-.519-.399-.516-.09.011-1.272-.451-1.583-.622-.177-.098-.65-.402-1.052-.678-.403-.276-.856-.548-1.008-.603-.41-.15-1.072-.674-1.123-.889-.02-.089.136-.027.236.088.207.241.578.496.898.616.18.068.627.339 1.068.648.416.293.784.528.817.523.091-.011.023-.452-.12-.794-.166-.39-.299-.602-.5-.792-.088-.084-.153-.169-.143-.188.067-.126.391.211.717.743.154.253.197.368.238.638.03.181.051.386.05.456 0 .115.04.143.482.302.564.204.843.26.865.174.008-.034-.016-.082-.05-.111a.333.333 0 01-.088-.155c-.01-.057-.357-.569-.764-1.139-.66-.923-.89-1.305-.746-1.233.158.078 1.29 1.701 2.13 3.052.273.44.4.561.704.672.915.334.971.35 1.02.279.036-.056.09-.03.247.127.204.201.31.237.32.11.001-.046.024-.039.064.026.045.07.035.128-.026.209l-.084.112.185.214c.311.359.707.671 1.048.822.18.08.338.143.354.141.017-.004-.01-.181-.063-.397-.064-.274-.073-.371-.028-.319.035.041.1.229.145.417.066.281.111.371.238.503.1.102.173.231.202.356.04.155.106.251.348.475.166.154.497.471.736.704.426.414 1.037.815 1.253.822.085.004.088-.025.031-.24a42.174 42.174 0 00-.806-2.544c-.147-.41-.328-.951-.403-1.202-.153-.511-.69-2.033-.739-2.091-.02-.022-.07-.032-.118-.025-.065.01-.17-.103-.403-.434a9.464 9.464 0 00-1.196-1.39c-.15-.14-.264-.272-.252-.292.015-.029.117.044.537.407.026.024.097.081.156.127.06.046.248.24.421.431.172.19.355.389.406.441.05.053.1.125.11.16.008.036.056.091.107.127.086.057.084.031-.034-.339-.07-.221-.252-.837-.404-1.37-.525-1.851-1.029-3.55-1.14-3.84-.062-.16-.19-.571-.288-.911-.252-.884-.523-1.419-.957-1.897-.237-.261-.774-.353-.974-.168-.098.09-.044.307.118.487.16.172.33.475.54.955.2.452.633 2.228.646 2.643l.01.271.401.369c.222.202.452.387.512.409.062.024.165.148.245.296.075.14.195.289.266.333l.13.08-.113.088c-.104.079-.123.08-.228-.023a1.339 1.339 0 01-.209-.31c-.093-.191-.543-.651-.627-.638-.022.007-.033.045-.02.092.037.166-.105.057-.24-.186a1.938 1.938 0 00-.344-.426c-.344-.306-.72-.759-1.334-1.607-.659-.908-.696-.969-.69-1.127.004-.197.111-.138.238.134.288.618 1.621 2.365 1.786 2.341.184-.027-.108-1.52-.462-2.36-.28-.668-.567-1.085-.895-1.305-.244-.164-.275-.171-.466-.109-.336.107-.355.16-.31.842.046.742.05 1.104.01 1.072-.018-.015-.045-.235-.065-.492-.04-.525-.154-1.061-.233-1.1-.06-.032-.558.304-.693.467-.05.062-.309.3-.574.533-.266.232-.557.525-.649.649-.09.124-.272.364-.4.534-.129.17-.242.344-.25.387-.01.044-.112.169-.225.282-.114.112-.352.434-.53.714-.177.28-.383.595-.456.7l-.135.19.125.201c.172.277.59.693.855.853.154.093.353.146.661.178.435.045 1.181.054 1.207.016.01-.007-.079-.128-.19-.26-.413-.489-1.386-2.036-1.45-2.303-.027-.116.1-.073.145.049.021.056.086.174.145.262a.889.889 0 01.115.215c.057.242.911 1.334 1.354 1.731l.308.277.294-.044c.273-.04.295-.052.306-.189.005-.079.035-.133.064-.119.091.045.096.181.014.335-.074.137-.104.148-.444.171-.433.032-.662.04-1.345.06-.513.015-1.475-.114-1.628-.217-.093-.063-.626-.828-.65-.934-.012-.04-.037-.069-.065-.064-.027.002-.04.029-.032.061.007.032-.017.058-.057.064-.09.011-1.13 1.974-1.227 2.311-.08.284-.022.69.131.898.076.103.65.64 1.714 1.606.55.5 2.681 2.26 3.738 3.089.397.311.842.686.99.834.444.45 1.248 1.117 1.29 1.072.024-.023.01-.176-.029-.338-.054-.226-.087-.292-.14-.284-.049.008-.082-.05-.119-.205-.065-.273-.319-.697-.549-.919-.27-.262-.177-.274.115-.014l.255.226-.094-.216c-.223-.507-.842-1.372-1.33-1.857-.232-.23-1.138-.87-1.458-1.032-.128-.064-.435-.48-.4-.544.011-.017.16.082.328.229.17.146.546.42.837.61.618.402.692.465 1.05.899.601.734.984 1.373 1.23 2.059.044.132.17.398.27.593.162.312.185.381.182.589 0 .131-.002.293.001.362.001.092.114.255.421.611.23.266.455.543.5.615.083.139 1.234 1.286 1.436 1.435.064.048.128.069.14.047.038-.073-.337-.955-.588-1.379a9.387 9.387 0 00-.95-1.275c-.055-.062-.082-.114-.055-.118.075-.01.604.522.631.633.01.054.054.121.1.148.038.028.181.213.311.409.131.197.264.354.296.349.034-.005.094.022.135.063.093.089.023.113-.133.048-.062-.028-.097-.022-.089.01a.107.107 0 00.06.064c.022.002.13.214.228.461.274.686.42.926.743 1.235.333.318 1.294 1.019 1.547 1.129.16.068.171.065.312-.072.08-.078.147-.187.15-.241l.012-.005zm-.506.523c-.123-.047-.462-.267-.754-.49a84.936 84.936 0 00-.915-.69c-.212-.157-.39-.309-.398-.336-.008-.028-.14-.169-.299-.314a44.27 44.27 0 01-.837-.798 80.722 80.722 0 00-.913-.876c-1.562-1.457-2.686-2.485-3.164-2.89a56.662 56.662 0 01-1.172-1.032 35.02 35.02 0 00-1.386-1.175c-.81-.649-2.506-1.864-2.696-1.931-.285-.102-.572-1.336-.453-1.928.06-.286 1.01-1.991 1.298-2.33.23-.27.652-.884.922-1.34.138-.233.327-.481.421-.55.092-.071.23-.224.3-.34.072-.117.185-.261.251-.32.067-.059.164-.201.216-.316.051-.115.146-.255.21-.311a2.21 2.21 0 00.261-.324c.088-.13.2-.229.27-.24.151-.025.425-.238.482-.375.091-.219.667-.634 1.514-1.093.161-.087.448-.245.64-.352.685-.385 1.097-.293 1.536.343.102.148.206.28.231.292.092.046.247.454.557 1.464l.621 2.031c.167.545.492 1.658.723 2.472.231.814.6 2.008.818 2.654.221.646.45 1.343.512 1.55.063.206.196.603.3.881.482 1.288.66 1.86 1.01 3.243.238.952.411 1.55.492 1.721.068.145.16.345.197.447.103.271.346 1.865.32 2.111-.028.246-.378.89-.586 1.075-.184.163-.256.172-.53.067h.001zM10.3 29.654c-.023-.095-.446-.377-.905-.601-.372-.182-.713-.199-.966-.049-.194.114-.165.229.117.481l.224.196.58.005c.32.002.641.016.715.03.204.039.253.026.232-.064l.003.002zm3.955-.233a5.205 5.205 0 00-.545-.311c-.823-.403-1.327-.736-1.575-1.038-.219-.265-.118-.262.19.005.156.136.308.245.336.24.027-.001.211.097.404.225.194.128.483.286.642.354.346.146.818.467.843.574.03.12-.079.102-.295-.05v.001zm2.75.855c-.504-.031-.987-.181-1.307-.404-.515-.361-.467-.341-.51-.215-.037.105-.046.098-.12-.099-.316-.816-.628-1.197-1.252-1.515a6.696 6.696 0 01-.722-.451c-.31-.224-.453-.291-.784-.364-.627-.14-1.042-.309-1.16-.475-.155-.215-.293-.598-.209-.579.076.017.13.082.29.352.165.276.411.381 1.147.491.14.021.332.106.483.215.137.098.271.176.298.172a.968.968 0 01.25.075c.124.051.443.087.83.093.642.011.817.066.802.25-.008.069-.032.082-.1.053-.085-.036-.615-.088-1.028-.101l-.166-.004.136.075c.496.277.921.703 1.142 1.146.123.246.207.34.527.584.384.292.902.531.907.417.005-.033-.053-.161-.126-.283-.092-.158-.29-.347-.684-.651-.343-.266-.523-.433-.473-.44.043-.007.177.055.297.137l.443.305c.257.177.733.704.768.85.025.104.043.11.461.156.304.032.443.08.461.154.014.069-.154.084-.6.057v-.001zm3.184 2.288c-.019-.08-.602-.748-1.072-1.23a35.25 35.25 0 00-1.908-1.786 46.7 46.7 0 01-1.388-1.278 47.656 47.656 0 00-3.585-3.062c-.5-.385-1.237-.955-1.636-1.267-.882-.691-1.125-.849-1.45-.937-.23-.063-.487-.069-.473-.012.01.05.517.611.752.836.28.269.57.675.68.95.1.248.408.573.622.652.094.034.457.072.808.082.697.023.958.094 1.26.346.252.211.22.282-.06.131-.12-.064-.238-.113-.264-.11-.027.003-.052-.013-.058-.038-.015-.065-.546-.135-1.014-.135-.474.001-.767-.09-1.15-.356-.356-.248-.44-.284-.71-.295-.303-.014-.62-.153-1.092-.479-.397-.275-.58-.453-.542-.526.031-.058.228.047.757.407.418.284.538.342.718.342.118-.001.265.006.325.011.243.023-.046-.466-.689-1.165-.465-.504-.563-.587-.68-.57-.13.02-.48.474-.676.877-.084.172-.168.315-.188.318-.09.011-.705 1.608-.779 2.023-.02.11-.074.301-.12.422l-.087.221.413.319c.442.342.756.52.881.501.043-.005.243.058.446.141l.368.151.666-.169c.637-.163.855-.183.88-.082.015.066-.148.125-.812.293-.625.158-.853.161-1.17.004a1.505 1.505 0 00-.36-.109c-.286-.044-.656-.259-1.01-.588-.172-.157-.328-.269-.347-.248-.058.064-.256 1.285-.227 1.408.021.092.046.106.123.071.724-.34.852-.332 1.381.073.294.225.418.292.468.256.395-.294.605-.337.978-.201.443.161 1.142.612 1.305.841.128.179.178.209.427.25.465.076.69.145.807.247.061.054.272.328.47.612l.356.514.473.106c.874.195 1.767.631 1.894.925.068.153.25.25.54.287.081.01.29.067.467.128.176.06.318.097.314.083a3.962 3.962 0 00-.302-.332 7.678 7.678 0 01-.578-.696c-.154-.215-.299-.388-.322-.385a.828.828 0 01-.227-.11c-.254-.159-.673-.293-1.125-.362-.477-.072-.577-.057-.574.086.002.126-.1.163-.192.072-.084-.086-.258-.466-.42-.921-.19-.537-.327-.739-.52-.786-.127-.031-.2-.103-.377-.374-.344-.523-.678-.871-1.155-1.197-.24-.166-.642-.441-.89-.611-.248-.171-.715-.488-1.038-.706-.648-.437-1.023-.728-1.042-.808-.032-.132.204-.059.475.149.723.556 1.034.766 1.037.704.003-.036-.058-.142-.137-.235-.162-.198-.175-.233-.092-.246.034-.005.181.144.325.33.316.409 1.01.981 1.497 1.237.508.267.773.27 1.284.015.411-.206.632-.267.653-.183.033.135-.742.506-1.205.576-.22.033-.222.035-.115.128.06.053.223.262.364.465.204.293.282.369.376.371.07.001.255.116.445.277.36.303.436.323 1.233.312.505-.008.787.109 1.26.52.354.309.384.349.42.554l.04.223.33-.013a3.142 3.142 0 011.857.545c.294.205.663.568.755.743.082.158 1.343.606 1.4.498.025-.045-.366-.49-.624-.711-.294-.25-1.078-.73-1.332-.814-.309-.102-.374-.183-.174-.212.386-.058 1.811.883 2.223 1.467.09.124.186.252.22.286.081.081.237.055.216-.035v-.006zm.776.982c-.093-.206-.35-.566-.456-.639-.09-.064-.775-.123-.803-.07-.01.018.091.099.222.183.131.085.403.275.602.422.408.301.54.333.436.104h0zm-.936-.249c-.369-.304-.714-.553-.767-.553-.052.001-.219-.061-.37-.137-.359-.181-.446-.146-.392.158.028.163.057.229.098.223.176-.025.468.079.794.283.286.18 1.176.582 1.286.582.014-.003-.28-.249-.65-.554l.001-.002zm-8.25-.33c-.27-.271-.34-.4-.2-.36.094.026.492.495.488.576 0 .041-.126-.052-.289-.215l.001-.001zm5.86 1.044c-.19-.241-.849-.764-1.074-.853-.078-.03-.34-.041-.582-.024-.497.037-1.06-.071-1.66-.316-.202-.082-.428-.141-.5-.13a.45.45 0 01-.245-.05c-.156-.096-.937-.254-1.435-.288-.512-.036-.782.04-.895.252-.045.082-.103.137-.13.124-.1-.05-.086-.185.035-.312.1-.105.204-.142.563-.196.243-.036.557-.054.698-.043.284.025.801.097.904.125.043.01.05-.009.018-.065-.08-.14.037-.108.447.116.65.357.847.43 1.35.505.682.101.897.052.346-.081-.428-.102-.618-.199-.649-.329-.022-.095-.63-.463-.964-.584-.14-.052-.312-.086-.378-.076-.146.023-.27-.08-.217-.178.025-.051-.02-.076-.178-.099-.592-.087-.64-.12-1.033-.702-.39-.578-.488-.641-1.177-.76a23.713 23.713 0 00-.778-.125c-.275-.033-1.135-.035-1.166-.003-.014.019.046.158.135.319.087.162.19.409.22.553.035.148.088.274.128.295.036.02.348.007.69-.027.693-.071.804-.044 1.34.302.24.155.295.215.311.335.028.205-.086.223-.242.037a1.968 1.968 0 00-.43-.328l-.3-.172-.719.064c-.674.06-.73.057-.909-.054-.244-.149-.788-.362-1.139-.445-.423-.101-.686-.247-1.119-.623-.407-.355-.645-.641-.6-.725.027-.051.374.253.698.611.31.339.72.514 1.565.668.041.011.181.067.315.133.292.145.307.088.087-.324-.325-.609-.9-1.308-1.387-1.682-.299-.23-.317-.236-.573-.197-.259.04-.572.155-.609.224-.01.017.013.066.056.103.043.043.058.085.034.109-.065.068-.206-.006-.302-.16-.092-.151-.094-.145-.158.508-.073.776-.052.939.118.914.064-.009.244.029.4.085.306.112.815.553 1.253 1.086.165.201.275.291.363.3.174.016.957.18 1.32.277.208.055.467.068.832.043.422-.03.546-.021.61.047.09.096.095.24.01.253a.694.694 0 01-.207-.047c-.082-.03-.335-.044-.563-.031a2.83 2.83 0 01-.896-.099 8.234 8.234 0 00-1.084-.173c-1.064-.09-1.514-.014-1.453.245.032.133-.002.143-.14.041-.14-.104-.167-.25-.07-.37.096-.117.636-.213 1.032-.187.14.012.26.007.268-.007.031-.058-.472-.58-.805-.835-.369-.282-.698-.43-.89-.399-.194.031-.235.326-.14 1.007l.082.595.305.22c.438.316.732.427 1.373.517.723.102.788.088.4-.084-.248-.109-.328-.17-.365-.28l-.045-.142.28.153c.154.084.304.15.335.145.031-.004.251.066.492.156.37.138.616.18 1.594.267.636.057 1.527.153 1.98.212.747.099.86.101 1.242.019.231-.051.423-.08.427-.062.005.017-.015.077-.043.136-.048.101-.035.109.213.154 1.032.182 1.412.215 1.39.117-.008-.025-.1-.115-.212-.202-.192-.151-.236-.248-.119-.265.031-.004.227.141.44.324l.386.332.79.166c.435.091.804.176.82.189.018.014.037.012.042-.006.012-.017-.066-.125-.158-.247v.004zm-.034-1.998c-.007-.032.011-.058.035-.061.027-.002.041.018.034.051-.007.034-.025.06-.035.061-.012.002-.027-.02-.034-.051zm.396 1.37c-.812-.422-1.797-1.107-1.626-1.129.02-.006.188.103.375.233.473.334 1.255.737 1.6.827.24.063.293.096.318.203.048.199-.075.174-.667-.134zm2.346.746c-.093-.078-.159-.162-.146-.184.011-.024.075.003.143.062.066.058.14.101.164.098.022-.006.052.029.064.074.031.122-.037.108-.223-.05h-.002zm-.565.504a.775.775 0 00-.224-.106c-.027.002-.699-.378-.91-.518-.016-.006-.017-.029-.008-.045.067-.122 1.348.54 1.39.717.018.087-.047.073-.247-.047v-.001zm1.04.064a.244.244 0 01-.062-.117c-.014-.062-.005-.069.045-.032.032.026.063.082.062.118-.003.036-.023.049-.045.031zm.32.085c.087-.183.127-.554.064-.605-.018-.014-.082-.021-.149-.02-.067.001-.308-.082-.537-.185-.256-.116-.416-.163-.418-.123-.003.036-.106-.013-.242-.11-.13-.096-.257-.172-.28-.169-.023.007-.139-.069-.253-.162-.214-.173-.682-.37-.83-.349-.096.013-1.197-.476-1.239-.551-.013-.025-.05-.042-.082-.038-.07.012-.62-.451-1.028-.864-.177-.179-.355-.334-.397-.346-.04-.01-.084-.058-.095-.104-.038-.154.126-.105.374.113.95.837 1.25 1.057 1.64 1.2.541.198.658.211.624.068-.014-.062-.088-.149-.166-.193a4.686 4.686 0 01-.262-.163l-.124-.084.155.006c.085.004.152-.007.15-.019-.029-.127-.28-.362-.605-.57-.657-.421-1.052-.524-1.854-.486-.266.011-.5.007-.522-.011-.023-.018-.005-.077.043-.132.045-.054.075-.131.065-.173-.036-.15-.294-.463-.52-.63-.375-.276-.59-.335-1.22-.334-.383.001-.638-.027-.754-.083l-.176-.083.055.143c.03.078.093.256.143.394.103.292.27.429.545.442.363.017.768.089 1.036.182.153.053.284.086.292.071.027-.046-.219-.309-.452-.48-.189-.14-.225-.186-.19-.25.03-.059.065-.069.133-.036.191.096.691.638 1.04 1.128.2.28.377.518.396.531.02.014.147.154.284.315.308.359.71.714.793.702.034-.005.072.031.084.081.01.05.12.165.238.259.12.093.35.313.512.49.593.645.742.753 1.226.881.243.065.692.193.997.283.59.176 1.134.288 1.308.268.064-.008.144-.088.2-.208l-.002.004zm-.959.25c-1.953-.586-5.572-1.291-7.036-1.37a4.527 4.527 0 01-.637-.074c-.338-.083-1.89-.231-3.436-.329-1.45-.09-1.984-.157-2.329-.289-.243-.093-.833-.544-.899-.687-.079-.171-.15-1.091-.126-1.639.05-1.147.331-2.866.636-3.881l.247-.822c.34-1.139 1.108-2.738 1.49-3.099.191-.18.87-.263 1.18-.143.377.144 5.581 4.372 6.722 5.461.49.467 1.248 1.174 1.685 1.572.683.621 2.362 2.315 3.018 3.046.3.334.565.869.695 1.401.1.408.102.461.024.697-.079.244-.094.258-.328.305-.208.039-.35.02-.906-.148v-.001zm-5.135 1.43c-.16-.019-.545-.138-.854-.263-.689-.279-.844-.272-1.263.058-.238.187-.338.232-.604.27-.324.045-.856-.048-1.33-.234-.317-.124-.949-.463-.93-.499.016-.028.055-.014.608.235.37.167 1.187.362 1.514.359.223-.001.281-.026.523-.235.435-.377.522-.414.846-.363.154.023.443.106.643.185l.364.143.157-.211c.235-.316.804-.632 1.257-.7.404-.06.62.002 1.175.336.467.28.398.453-.074.188-.639-.358-1.172-.375-1.682-.053-.306.193-.507.414-.48.527.046.199.855.046 1.393-.265.235-.135.366-.187.407-.152.085.07.056.224-.04.239a1.383 1.383 0 00-.316.155c-.315.196-.94.332-1.31.286l-.004-.006zm3.43-.458a1.445 1.445 0 00-.405-.019c-.269.037-.41-.031-.243-.111.282-.139.957-.062.997.109.014.07-.102.075-.349.02v.001zm-11.33 2.168c-.11-.211-.073-.425.14-.803.277-.489.487-.652.981-.756.326-.069.417-.066.6.005.25.1.43.274.38.367-.022.044-.066.04-.13.003-.298-.176-.553-.223-.845-.153-.352.085-.573.265-.799.65-.12.207-.158.335-.146.507.017.255-.087.358-.182.178l.001.002zm1.455.179c.006-.031.158-.141.334-.247.41-.247.611-.453 1.091-1.117.443-.612.574-.708.87-.635.28.069.511.186.53.267.011.055-.023.058-.173.017-.492-.132-.63-.063-1.067.528-.459.624-.706.871-1.039 1.044-.32.168-.57.23-.546.142v.001zM6.68 40.48a1.995 1.995 0 00-.492-.035c-.222.033-.24-.052-.029-.127.108-.037.286-.039.507.001.567.101.652.067.823-.322.155-.356.363-.573.807-.844.146-.089.267-.189.268-.223.002-.092-.643-.153-1.156-.109-.349.032-.57.085-.993.248-.529.204-.676.217-.633.051.032-.122.68-.311 1.441-.424.647-.094.772-.098 1.103-.025a1.8 1.8 0 00.76.019 119.5 119.5 0 011.571-.237c.602-.089.855-.148 1.127-.272.195-.086.348-.176.343-.199-.023-.097-1.162-.209-1.544-.153-.117.019-.147.006-.12-.046.026-.046.226-.087.651-.13.621-.064.95-.026 1.162.13.137.101.237.043.637-.374a4.19 4.19 0 01.427-.403c.067-.038.205.018.575.234.637.373.674.386.95.345.266-.039.32.056.096.175-.18.096-.46.014-1.003-.294-.235-.133-.47-.236-.522-.228-.052.009-.307.191-.565.409-.789.66-1.397.9-3.15 1.238-.658.127-.892.197-1.235.364-.526.255-.69.398-.793.677-.179.488-.235.558-.473.589a2.143 2.143 0 01-.542-.031l.002-.004zm1.658.463c-.236-.037-.313-.073-.587-.275-.29-.215-.199-.37.111-.189.31.18.625.255.805.191.134-.048.18-.045.22.025.064.109-.043.253-.2.272a1.627 1.627 0 01-.35-.024h.001zm3.011 1.422a8.779 8.779 0 00-.853-.072c-.28-.01-.504-.04-.497-.067.02-.073.246-.096.688-.066.354.022.385.016.407-.077.01-.053.088-.235.167-.402.078-.168.19-.441.245-.608.144-.428.294-.537.77-.561.626-.03 1.317.004 1.447.073.165.088.203.245.052.218-.06-.009-.233-.04-.38-.067-.15-.025-.54-.021-.868.011-.715.07-.788.118-.929.616a3.142 3.142 0 01-.214.546c-.065.116-.11.239-.102.273.016.075.474.123.758.081.108-.015.307-.1.443-.18.217-.137.276-.149.531-.129.266.021.293.014.393-.117.106-.137.275-.178.3-.073.071.3-1.587.721-2.358.6v.001zm-7.002 3.809c-.027-.116-.02-.133.03-.075.082.097.11.208.051.217-.027.002-.062-.06-.08-.143v.001zm.08.335c-.014-.045.001-.071.033-.058.025.01.058.049.065.077a.045.045 0 01-.033.059c-.022.006-.055-.033-.066-.078zm16.957-9.395c.007-.034-.005-.055-.034-.05-.027.002-.042.03-.035.061.008.032.023.053.034.051.014-.003.027-.03.036-.062h0zm-4.838 2.985c.104-.057.498-.181.88-.269.601-.14.762-.201 1.213-.457.286-.162.566-.319.623-.348.057-.028.338-.234.624-.454s.606-.464.71-.543c.181-.137.54-.67.516-.768-.02-.092-.22-.013-.66.259-.409.251-.46.27-.609.224-.194-.061-.206-.058-.842.162-.38.131-.5.194-.495.261.01.115.19.174.588.192.406.017.641.063.657.127.022.097-.387.108-.985.026-.66-.09-.858-.06-1.173.179-.199.152-.2.252-.003.223.15-.024.335.035.353.111.01.027-.238.092-.542.152-.392.075-.586.139-.669.214-.143.133-.568.946-.455.869.045-.031.167-.102.268-.162l.001.002zm-1.28.542c.444-.19.925-.646.881-.836-.032-.133-.454-.424-.666-.46a.437.437 0 00-.462.255c-.023.054-.069.103-.102.108-.109.014-.186.254-.215.658a6.931 6.931 0 00-.022.418c.008.048.307-.026.586-.144v.001zm-6.022 4.646c.08-.227.103-.353.06-.313-.093.084-.294.565-.274.651.031.122.084.037.214-.338zm1.022.078c.657-.546 1.22-.995 1.252-1 .03-.004.2-.13.377-.275.177-.147.398-.306.494-.355a.481.481 0 00.21-.172c.052-.129-.118-.144-.722-.065-.667.087-.64.092-.517-.094l.104-.157-.38.089c-.77.183-.925.299-1.38 1.047l-.136.223.165-.141c.171-.145.343-.203.362-.122.01.027-.073.103-.176.173-.226.153-.57.726-.736 1.224-.134.405-.184.624-.142.618a47.4 47.4 0 001.224-.996l.001.003zm-2.934 2.201c-.189-.038-.269-.135-.417-.51-.21-.531-.812-2.637-1.1-3.855-.272-1.152-.295-1.291-.393-2.359-.139-1.537-.17-2.275-.139-3.176.015-.418.023-1.01.018-1.314-.012-.712.031-1.036.148-1.118.053-.034.183-.226.292-.422.116-.209.267-.4.364-.459.228-.141 1.434-.359 1.947-.355.508.005 1.587.124 1.845.204.105.033.375.07.6.082.225.012.442.029.484.037.041.01.426.024.857.037 1.481.043 4.253.449 5.683.832.172.046.523.114.778.149.39.055.438.073.303.107-.202.051-.685-.017-1.8-.255a20.638 20.638 0 00-1.235-.231c-.2-.026-.609-.09-.906-.142-.58-.1-1.984-.273-2.093-.256-.036.005-.057.043-.048.084.011.055-.076.095-.336.152-.329.073-.374.1-.647.394-.305.329-.684.631-.82.654-.157.026-.1-.089.143-.288a7.56 7.56 0 00.565-.538c.175-.184.354-.341.398-.348.045-.007.087-.034.095-.062.005-.03-.23-.069-.527-.093a23.48 23.48 0 01-1.273-.15c-1.255-.185-1.849-.19-2.765-.023-.49.089-.847.18-.935.238-.376.248-.867 1.084-.887 1.512-.008.147-.003.306.01.352.025.104.963.59 1.096.57.052-.009.257-.14.457-.291.273-.209.554-.355 1.135-.59.96-.387.965-.389.952-.445-.007-.024-.128-.095-.27-.157-.248-.107-.283-.108-.66-.015-.456.111-.593.101-.535-.038.024-.059.121-.102.284-.124.134-.022.24-.057.234-.082-.008-.027-.117-.065-.245-.089-.262-.048-1.492.112-1.65.217-.086.054-.099.045-.11-.068-.016-.119.013-.137.338-.227.195-.053.556-.116.802-.137.38-.031.497-.019.762.086.173.069.36.117.414.109.053-.011.305-.139.56-.286.255-.154.593-.304.763-.347.278-.07.306-.066.313.026.006.078-.064.127-.318.221-.332.123-1.006.469-1.04.535-.012.017-.002.048.014.065.083.066.713.196.854.175.085-.014.177.002.203.034.085.104-.068.212-.44.307-.202.05-.709.218-1.127.371-.649.236-.808.316-1.089.55-.347.29-.689.402-.846.28-.126-.097-.78-.429-.832-.422-.138.019-.138 2.117-.002 3.674.046.518.094 1.091.108 1.274.053.711.807 3.609 1.201 4.613.117.306.571.886.748.961.167.071.761-.272 1.148-.662.154-.156.158-.176.1-.422-.122-.518-.053-.747.458-1.513.15-.224.258-.433.241-.465a.674.674 0 00-.213-.143c-.257-.12-.79-.031-1.056.174-.27.211-.544.538-.819.98-.295.474-.5.74-.58.752-.112.017-.114-.202-.005-.301.06-.052.222-.282.363-.51.312-.506.746-1.005 1.012-1.165.14-.087.321-.133.626-.163.385-.041.447-.034.632.083l.205.128.424-.66.652-.113c.501-.091.728-.107.99-.071.185.024.42.022.522-.005.146-.041.211-.029.316.057.306.247.456.179 1.935-.884l.786-.565-.253.029a5.483 5.483 0 00-.878.172c-.276.073-.306.07-.27-.011.053-.132.523-.29 1.232-.416l.61-.108.75-.517c.413-.285.818-.59.9-.679l.151-.161-.402.097a5.78 5.78 0 00-.775.26c-.206.09-.423.171-.48.183-.06.007-.197.081-.306.158-.185.133-1.08.473-1.612.616-.333.091-.306-.01.1-.354.328-.278.334-.288.397-.671.035-.214.048-.408.03-.431-.019-.028-.409 0-.864.054-.764.089-.935.089-.887.001.011-.017.4-.117.864-.219.8-.175.867-.2 1.201-.429.195-.134.391-.248.435-.254.128-.019.477.12.766.301.251.155.271.159.343.066.142-.184.353-.319.634-.406.213-.063.288-.119.321-.214.044-.138.393-.449.527-.47.044-.006.075-.031.07-.057-.01-.027-.27-.023-.589.005-.438.037-.67.083-.956.197-.209.08-.46.161-.56.177-.287.046-.729-.017-1.02-.146-.319-.14-.623-.168-1.287-.116l-.49.036-.107.278c-.058.154-.09.299-.07.323.06.078.177.024.298-.137.132-.177.206-.208.232-.097.02.09-.199.457-.28.467a7.238 7.238 0 01-.617-.076c-.309-.046-.629-.073-.712-.061-.485.073-1.759 1.19-1.69 1.482.016.066-.04.152-.164.253-.294.239-.55.559-.856 1.064-.42.698-.508.79-1.173 1.251-.88.607-1.39.837-1.435.646-.022-.096.04-.138.388-.261.313-.111 1.527-.944 1.724-1.182.16-.193.672-1.164.587-1.112-1.366.833-2.013 1.183-2.413 1.306-.367.112-.474.129-.593.087-.135-.048-.14-.056-.064-.106a1.99 1.99 0 01.415-.141c.472-.125.938-.349 1.505-.722.443-.292.94-.575 1.421-.811.111-.05.29-.245.471-.502.191-.27.454-.548.748-.789.885-.726.99-.768 1.652-.659.208.035.387.061.396.06.012-.002.016-.063.014-.138-.004-.18.13-.485.266-.607.134-.12.814-.233 1.183-.193.137.012.37.067.514.119.144.052.307.088.362.08.053-.01.175.038.266.101.135.093.217.108.42.077.14-.019.26-.063.267-.092.006-.03-.108-.097-.257-.151a2.53 2.53 0 01-.383-.171c-.11-.071-.11-.072-.016-.088.052-.01.232.03.398.085.45.152.707.105.98-.178.118-.126.2-.23.18-.233-.022 0-.098-.01-.17-.017-.092-.011-.142-.049-.159-.123-.042-.175.081-.202.3-.066.182.115.208.118.284.034.045-.051.18-.192.3-.314.155-.16.196-.233.144-.26-.133-.068-.526.03-.905.227-.449.231-.962.328-1.32.247-.412-.093-.364-.133.217-.184.52-.045.587-.063.905-.245.59-.337 1.411-.613 1.531-.516.092.075.01.19-.156.214-.212.032-.216.114-.004.133.307.026.494-.037.721-.247.34-.312.715-.549.92-.579.237-.036.251.05.02.133-.396.141-1.087.759-1.045.935.008.028.137.021.291-.018.202-.047.367-.138.594-.329.174-.144.338-.256.366-.251.023.003.197.012.377.011.384.001.761.113.79.233.026.113-.034.116-.292.011-.182-.073-.27-.074-.555-.008-.41.094-1.01.433-1.054.594-.024.089-.082.122-.273.151-.223.034-.242.028-.256-.085-.009-.1-.05-.128-.21-.161-.414-.081-.518-.029-.94.465a4.382 4.382 0 01-.295.308c-.129.12-.136.141-.05.166.254.074 2.562-.365 2.475-.472-.018-.028-.074-.037-.122-.03-.074.011-.214-.114-.238-.213-.016-.074.162-.041.412.069.39.174.508.176.73.013.104-.076.34-.235.525-.351.291-.182.352-.203.46-.155a.5.5 0 00.161.05c.052-.003-.159-.63-.282-.827-.119-.194-.607-.379-1.219-.463-.726-.1-.819-.121-.713-.159.107-.043.481-.015.878.058.15.028.394.052.543.053.502.006.683.178.874.831.182.622.154.739-.308 1.274-.2.231-.372.452-.382.491-.01.04-.284.244-.609.457-.324.214-.995.667-1.49 1.009-.495.341-.924.624-.95.628-.06.007-1.06.713-1.113.784-.046.059-1.144.854-2.297 1.661-.489.343-.974.695-1.075.783-.102.088-.226.166-.276.173-.3.045-2.62 1.873-3.795 2.989-.23.218-.55.48-.712.581-.327.202-.876.345-1.128.296l-.004-.016zm-2.666.119a4.803 4.803 0 01-.106-.601c-.02-.216-.007-.188.09.211.06.253.11.523.105.602-.003.101-.028.043-.089-.211v-.001zm4.392 9.102c.093-.139.392-.572.663-.962.271-.389.523-.779.56-.863l.068-.155-.318-.135c-.192-.08-.352-.185-.403-.264a6.993 6.993 0 00-.413-.506c-.344-.39-.437-.536-.815-1.283-.45-.891-.627-1.537-.564-2.073a1.663 1.663 0 00-.02-.478c-.127-.533-.092-.691.317-1.447.211-.389.46-.784.552-.878.151-.152.778-.632 1.155-.885.08-.052.248-.194.376-.315s.407-.333.62-.471a24.18 24.18 0 002.35-1.73c.39-.328.9-.729 1.133-.889.235-.161.621-.459.86-.66.237-.203.551-.446.697-.54a6.69 6.69 0 00.674-.542c.224-.204.463-.408.53-.454a48.857 48.857 0 001.666-1.335c.686-.58 1.912-1.274 2.433-1.379.138-.023.356-.049.49-.044.225.007.244-.004.285-.143.04-.135.182-.329.662-.898.094-.111.361-.564.593-1.007.424-.807.666-1.106.927-1.146.076-.011.188-.17.372-.522.304-.582.431-.701.945-.891.408-.152.59-.296.625-.496a.843.843 0 01.094-.251c.04-.067.064-.155.055-.195-.01-.04.02-.118.065-.174.067-.081.068-.108.006-.142-.136-.074-.072-.221.107-.248.124-.017.205-.084.312-.235.08-.115.267-.317.418-.449a3.82 3.82 0 00.496-.558c.122-.176.25-.324.285-.328.1-.015.106-.138.011-.181-.156-.069-.137-.194.034-.219.098-.015.287-.141.5-.327.186-.167.363-.307.393-.311.031-.004.07-.048.09-.094.02-.048.068-.077.107-.067.04.011.066-.007.058-.037-.007-.033.044-.109.113-.171a7.4 7.4 0 00.422-.439l.294-.326-.19-.129a1.72 1.72 0 00-.412-.192c-.208-.059-.24-.054-.485.07-.533.266-.933.58-1.1.867-.254.433-.179.47.231.114.197-.171.44-.41.54-.53.23-.276.317-.295.18-.041-.058.107-.357.41-.666.674l-.56.48.034.203c.02.111.075.29.128.396.052.107.09.217.08.246-.02.077-.21-.078-.279-.227-.064-.142-.114-.149-.239-.036-.147.133-.692.942-.755 1.12-.074.212-.138.228-.182.042-.023-.096.012-.21.112-.367.08-.125.214-.342.298-.482.085-.14.217-.327.293-.417.077-.09.215-.402.308-.695.304-.957.582-1.745.715-2.022.26-.541.253-.696-.056-1.422-.18-.424-.26-.718-.197-.727.07-.012.161.142.35.589.096.23.183.425.195.432.01.006.117-.232.24-.534.121-.302.36-.829.533-1.172.466-.927.49-1.115.188-1.509-.159-.209-.222-.236-.234-.1-.002.046-.058.094-.122.104-.155.021-.358.25-.408.454a1.165 1.165 0 01-.209.367 7.93 7.93 0 00-.345.446 1.57 1.57 0 01-.377.368c-.195.118-.2.13-.294.703-.052.321-.14.792-.196 1.047a7.666 7.666 0 00-.134.861l-.062.767a3.057 3.057 0 01-.11.602c-.043.128-.074.255-.067.283.02.09-.314 1.17-.484 1.562-.3.696-.293.604-.074.963.397.653.197.606-.22-.052a3.932 3.932 0 01-.247-.421c-.008-.033.044-.117.115-.191.29-.309.707-1.564.68-2.037-.014-.211.01-.342.084-.461.094-.152.183-.592.15-.745a1.256 1.256 0 01.023-.294c.021-.127.033-.253.027-.283-.007-.028.062-.369.152-.756s.196-.921.236-1.187c.054-.353.108-.524.204-.635.151-.178.283-.604.348-1.125.086-.704.184-1.179.353-1.708.166-.517.31-1.193.39-1.824.022-.173.105-.501.185-.729.215-.611.248-.778.243-1.25-.007-.647.208-1.881.421-2.414.053-.133.145-.62.205-1.082.06-.462.128-.882.151-.934.024-.05.081-.35.126-.663.075-.503.122-.642.396-1.164.294-.56.412-.689.516-.563.03.036.133.029.294-.015.235-.069.267-.064.596.103.192.095.381.169.42.163.188-.028 1.82.928 1.86 1.089.008.036.182.215.39.401.205.186.56.526.787.756.61.615 1.136.966 1.984 1.319.267.112.346.174.48.373.088.131.208.37.27.531.093.249.504.878.565.869a.273.273 0 00.09-.059c.036-.035.13-.111.204-.175.076-.063.203-.22.283-.346l.146-.23-.112-.792c-.09-.645-.138-.854-.249-1.124-.186-.467-.508-.925-.696-1.002-.083-.034-.363-.252-.62-.486-.26-.233-.625-.508-.813-.611-.355-.195-.945-.653-1.4-1.087-.496-.473-2.058-1.579-2.573-1.822a3.799 3.799 0 01-.432-.231c-.054-.041-.13-.069-.166-.063-.037.006-.297-.083-.577-.195-1.215-.491-2.24-.818-2.343-.749-.058.037-.469-.113-.485-.179-.009-.027-.065-.066-.128-.09-.11-.042-.112-.041-.005.03.09.06.096.073.033.083-.084.014-.68-.068-1.168-.157a5.5 5.5 0 00-.7-.068 12.88 12.88 0 01-.804-.049c-.504-.047-2.345-.077-2.889-.048-.317.019-.917.145-1.658.359-.103.032-.07.009.08-.055.368-.154.208-.191-.337-.077l-.462.098.281-.111.281-.11-.599.061c-.33.033-.628.046-.663.028-.036-.02-.069-.006-.078.021-.024.092-.408.201-.516.146-.062-.031-.102-.028-.11.008-.007.03-.097.068-.195.083-.239.036-1.415.612-1.69.829l-.45.355c-.127.1-.224.154-.215.119.01-.035.093-.124.187-.201.095-.076.175-.174.178-.216.008-.096.422-.372.6-.399.09-.01.128-.045.114-.101-.028-.118-.333-.059-.635.123a2.837 2.837 0 01-.588.254c-.186.057-.442.16-.568.229-.578.307-1.274.796-1.254.881.005.019-.04.077-.1.124-.146.113-.352.357-.34.403.011.043.213-.061.334-.171.071-.066.087-.068.084-.005-.004.126-.409.461-.468.389-.034-.043-.08-.005-.147.137-.067.137-.126.192-.19.178-.057-.011-.113.027-.15.099-.03.067-.148.21-.259.318-.238.232-.275.319-.112.258.115-.039.116-.036.046.049-.115.145-1.45 1.213-1.534 1.225-.04.005-.094.076-.117.157-.039.136-.155.234-.12.103.022-.086-.017-.068-.195.086-.084.075-.148.164-.14.199.03.125-.09.283-.234.304-.106.014-.15.061-.172.16-.017.077-.079.16-.142.186-.17.069-.934 1.027-1.27 1.59-.622 1.04-.837 1.429-.843 1.525-.005.055-.049.106-.1.113-.05.009-.087.046-.08.082.003.039-.114.274-.266.526-.605 1.003-1.264 2.193-1.307 2.359-.026.096-.213.536-.417.978-.204.441-.396.874-.428.961-.03.087-.115.319-.187.514-.07.196-.147.413-.169.483-.02.07-.09.288-.154.485s-.11.383-.103.413c.007.032-.014.058-.048.064-.064.009-.115.244-.083.38.012.042-.015.114-.056.159-.04.045-.066.123-.053.175a.199.199 0 01-.055.165.204.204 0 00-.053.177c.013.059.006.11-.02.114-.022.006-.038.038-.028.08.011.04-.05.308-.135.595-.182.622-.533 2.29-.717 3.41-.073.443-.146.857-.162.921-.045.184-.236 2.096-.284 2.858-.024.38-.052.737-.062.795-.125.697-.198 2.844-.13 3.848.033.5.056 1.48.052 2.177-.01 1.454.02 1.925.16 2.532.055.239.102.535.108.657.007.197.341 1.925.5 2.59.032.134.038.264.02.29-.053.062.1.9.376 2.063.212.89.223.925.196.587l-.03-.36.095.26c.05.144.171.579.265.97.093.391.217.817.273.947.058.13.176.419.267.641.142.348.642 1.274 1.007 1.861.061.099.214.417.337.707.373.874.454 1.052.505 1.11.091.106.345.725.586 1.419.13.382.281.745.337.805.156.183.37.114.571-.186l-.01.001zm-.607.657c-.056-.016-.206-.122-.33-.233-.214-.19-.229-.216-.258-.461-.023-.2-.108-.428-.368-.992a81.044 81.044 0 01-.83-1.893c-.52-1.221-.982-2.219-1.158-2.504a9.623 9.623 0 01-.383-.825c-.536-1.258-1.403-4.784-1.75-7.117-.108-.717-.21-2.295-.195-2.972.007-.294 0-.696-.015-.895-.016-.198-.012-.416.008-.484.046-.162-.004-1.219-.08-1.713-.04-.259-.043-.649-.009-1.156l.108-1.614c.031-.468.073-.954.094-1.08.041-.247.151-1.484.222-2.501.046-.662.216-1.733.371-2.339.052-.202.16-.704.24-1.117.081-.413.177-.877.214-1.032.037-.155.054-.384.038-.51-.049-.38.036-.765.343-1.547.325-.826.53-1.41.726-2.072.183-.612.556-1.52.92-2.239.17-.334.384-.808.477-1.054.333-.873 1.961-3.834 2.687-4.887.73-1.059.823-1.184 1.178-1.581.681-.762.743-.842 1.148-1.493.553-.888.648-1.01 1.262-1.619.295-.292.576-.609.625-.705a.686.686 0 01.268-.261c.1-.045.525-.286.947-.532.422-.246.947-.54 1.167-.654.22-.115.678-.372 1.02-.573.342-.202.755-.426.918-.499.164-.074.452-.247.641-.384 1.042-.759 1.277-.909 1.88-1.206a55.551 55.551 0 001.436-.739c.426-.229.933-.478 1.127-.554.532-.208 1.691-.473 2.366-.537.558-.055 2.177-.009 2.897.08.161.02.442.042.625.049.521.02.886.085 1.317.232.358.122.64.185 1.125.247.09.011.22.064.287.115.068.051.55.23 1.068.396.77.247.952.324.986.417.023.068.165.181.35.284.446.246 1.008.564 1.274.721.127.075.254.12.284.1.03-.022.105.005.167.054.104.085.28.129.625.162.075.003.21.071.293.143.085.072.234.176.333.233.271.155 1.378 1.198 1.548 1.459a5.8 5.8 0 00.37.492c.12.145.224.278.228.294a.953.953 0 00.138.175c.197.215.693 1.269.915 1.946.24.728.285 1.986.111 3.049a3.17 3.17 0 01-.61 1.403c-.074.096-.178.351-.23.566-.063.259-.2.568-.4.905-.17.282-.335.628-.369.77-.055.231-.079.26-.23.282a.492.492 0 01-.277-.04c-.152-.094-.333-.056-.565.117-.235.176-.409.626-.508 1.31-.085.59-.289 1.263-.465 1.534a2.888 2.888 0 01-.407.458c-.568.503-.978.95-1.198 1.306a408.8 408.8 0 01-.775 1.24c-.3.476-.646 1.032-.769 1.237-.177.29-.3.419-.57.602-.319.214-.367.275-.634.782-.17.324-.334.569-.399.596a.745.745 0 00-.196.128 56.677 56.677 0 00-1.34 1.58 15.507 15.507 0 01-1.533 1.633c-.368.32-.489.458-.529.61-.099.376-.649.993-1.189 1.335-.229.145-.49.548-.455.699.028.117-.089.358-.274.57-.085.097-.25.323-.367.503-.174.268-.243.331-.383.352-.242.036-.643.246-.778.405a4.659 4.659 0 00-.33.524c-.165.295-.274.422-.462.538-.316.195-.437.346-.603.749-.226.549-.664 1.335-.87 1.566-.11.12-.355.538-.547.929-.473.963-.976 1.864-1.374 2.461-.387.58-1.225 1.658-1.297 1.669-.027.002-.069.074-.092.151-.106.363-.47.97-.668 1.11-.18.128-.21.185-.267.49-.075.411-.58 1.405-.724 1.426-.319.048-1.102.823-1.492 1.476-.959 1.606-1.599 2.559-1.928 2.871-.259.247-.333.371-.424.713-.124.466-.348.752-.996 1.27l-.623.498-.342.658c-.188.361-.337.68-.33.707.01.051-.49.478-.576.491-.027.002-.079.074-.119.155a1.1 1.1 0 01-.243.286 2.36 2.36 0 00-.369.456 5.406 5.406 0 01-.387.534c-.103.119-.29.407-.417.64-.185.339-.276.449-.456.548-.244.134-.446.177-.61.127z" fill="none" stroke="#3bb34b" stroke-width=".37"/></svg>