<svg viewBox="0 0 40 50" xmlns="http://www.w3.org/2000/svg" fill-rule="evenodd" clip-rule="evenodd" stroke-linejoin="round" stroke-miterlimit="2"><path d="M7.346 17.136c.268-.204.315-.275.315-.474 0-.193-.029-.24-.174-.276-.285-.071-.473.062-.568.4-.082.293-.052.59.059.59.03 0 .195-.108.369-.24h-.001zM17.673 20.2c-.105-.275-.196-1.506-.165-2.235.06-1.384.515-2.487 1.376-3.334.474-.467 1.133-.921 1.364-.939.091-.009.195.193.459.887.189.494.358.897.376.896.019 0 .169-.313.335-.693.166-.381.418-.943.561-1.249l.26-.555.218.074c.791.267 1.802 1.508 2.649 3.253.229.474.445.863.478.864.104.006-.012-1.816-.155-2.436-.289-1.253-1.066-2.84-1.886-3.85-.13-.159-.22-.329-.202-.377.046-.121.677-.314 1.181-.362.944-.09 2.423.313 3.967 1.082.549.273 1 .475 1 .448 0-.109-1.069-1.174-1.453-1.447-.8-.57-1.883-1.045-3.106-1.363-.759-.198-.819-.228-.762-.379.129-.335 1.809-.788 2.995-.809.217-.003.47-.034.563-.066.23-.081-2.433-.015-2.914.073-.205.037-.778.13-1.272.206a18.34 18.34 0 00-3.031.768c-.259.094-.484.159-.499.144-.016-.015.108-.22.274-.454.635-.896.788-1.125 1.185-1.783.575-.951.94-1.702 1.182-2.421.181-.541.205-.695.184-1.212-.02-.531-.045-.623-.229-.886a1.8 1.8 0 00-.495-.454c-.283-.155-.293-.156-.43-.033-.239.215-.712.861-.963 1.317-.615 1.119-1 2.75-1.096 4.648l-.048.959-.449-.29a11.795 11.795 0 00-1.932-.981c-.511-.203-1.54-.492-1.587-.446-.024.023.234.269.698.665.112.096.188.186.17.203-.019.018-.248.006-.509-.022-.261-.03-.963-.075-1.558-.1-2.433-.107-4.472.329-5.901 1.262-.478.313-1.387 1.144-1.387 1.27 0 .032.145-.011.322-.096.872-.422 2.642-.49 4.099-.156l.32.074-.645.654c-.354.36-.842.93-1.082 1.264-.507.707-1.132 1.92-1.291 2.509-.145.536-.202 1.804-.102 2.277.15.711.412 1.211.413.791.001-.364.429-1.743.745-2.395.273-.567.434-.802.831-1.209.41-.421.553-.522.859-.611.722-.209 2.342-.106 3.681.235.666.17 2.169.66 2.231.729.024.025-.073.4-.216.832-.648 1.964-.777 3.789-.331 4.678.185.37.842.899.72.581m11.919-5.473c.118-.372-.173-.944-.48-.944-.162 0-.234.117-.234.383 0 .241.113.419.361.57.271.166.298.165.353-.008v-.001zm-.223.685c-.686-.311-1.033-.776-1.033-1.385 0-.601.318-.992.724-.891.284.071.634.364.741.62.139.332.13 1.542-.012 1.684a.64.64 0 01-.118.104 9.65 9.65 0 01-.301-.132h-.001zm-8.1 4.201c.098-.336.072-.545-.089-.706-.14-.14-.204-.135-.368.029-.177.177-.173.499.008.792.188.305.336.267.448-.115h.001zm-.558.74c-.323-.299-.578-.844-.575-1.234 0-.12.059-.343.128-.497.24-.529.649-.645 1.046-.297.352.309.417.527.324 1.086a5.503 5.503 0 01-.217.845c-.174.463-.291.48-.706.097M14 19.882c.078-.247-.035-.666-.219-.81-.217-.171-.333-.172-.423-.006-.132.247-.079.483.16.722.263.263.419.293.482.093v.001zm-.305.641c-.642-.365-.95-.812-.95-1.379 0-.285.036-.379.217-.586.195-.222.242-.243.477-.212.311.042.55.187.712.434.147.225.215 1.542.091 1.773-.1.186-.175.182-.547-.03m20.618-.309c.095-.317.028-.591-.165-.662-.206-.076-.38.049-.429.309-.049.259-.001.427.19.671.138.174.149.177.237.057.051-.069.125-.238.166-.375h.001zm-.594.854c-.38-.38-.516-.692-.516-1.188 0-.592.229-.929.705-1.039.236-.054.622.266.734.608.156.471-.264 1.927-.556 1.927-.032 0-.198-.138-.367-.308m-8.442.624c.128-.154.272-.637.234-.783-.019-.075-.114-.188-.211-.252-.169-.111-.179-.109-.331.069-.197.228-.199.455-.01.793.161.287.204.309.318.173m-.327.591c-.513-.432-.741-1.23-.517-1.816.12-.315.284-.462.607-.541.171-.042.232-.009.492.262.266.278.296.343.296.636 0 .471-.439 1.636-.617 1.636-.027 0-.144-.079-.261-.177m-19.873.757c.107-.421.097-.515-.071-.694-.199-.212-.305-.197-.463.063-.151.249-.13.389.114.712.222.298.33.278.42-.081m-.365.855c-.415-.253-.779-.913-.779-1.411 0-.474.362-.973.705-.973.222 0 .618.304.744.569.097.203.103.307.041.7-.102.649-.198.984-.32 1.121-.132.147-.141.146-.391-.006m13.519 2.393c.078-.207.14-.401.14-.431 0-.122-.288-.414-.407-.414-.165 0-.338.251-.338.491 0 .197.294.729.403.729.034 0 .125-.169.203-.375h-.001zm-.601.718c-.593-.593-.632-1.71-.073-2.089.29-.196.444-.191.724.021.465.355.528.758.235 1.521-.191.499-.391.814-.516.814-.056 0-.223-.12-.37-.268v.001zm13.824 1.361c0-.417-.198-.705-.463-.673-.528.061-.211.977.345.999.097.002.118-.055.118-.326m-.304.893c-.808-.432-1.181-1.245-.87-1.898.135-.286.34-.391.648-.333.234.043.575.344.729.641.09.178.123 1.314.043 1.552-.061.182-.257.195-.55.038m-22.676-.889c.002-.532-.55-.848-.705-.404-.093.264.098.641.384.762.267.112.319.054.321-.357v-.001zm-.304.959c-.545-.286-.983-.901-.983-1.381 0-.454.296-.879.612-.879.216 0 .574.23.772.497.116.157.145.31.165.867.012.372.004.752-.019.843-.049.196-.24.214-.547.053m14.326 2.156c.043-.145.079-.343.079-.442 0-.176-.207-.449-.339-.449-.131 0-.339.272-.339.445 0 .277.267.707.44.707.044 0 .115-.118.159-.262v.001zm-.377.806c-.541-.332-.888-1.219-.7-1.789.094-.285.423-.586.642-.586.227 0 .597.274.749.556.121.226.126.288.052.722-.112.65-.301 1.192-.423 1.213-.056.012-.199-.042-.32-.115v-.001zm-7.272-.337c0-.353-.022-.419-.179-.542-.289-.227-.433-.166-.526.221-.039.163-.006.231.22.458.386.386.485.358.485-.137m-.238.947c-.541-.27-1.05-.937-1.05-1.375 0-.435.31-.865.625-.865.316 0 .698.237.83.514.228.481.204 1.799-.034 1.843-.055.012-.222-.043-.371-.118v.001zm13.253 2.847c0-.328-.028-.429-.149-.542-.277-.259-.529-.136-.529.257 0 .179.056.285.242.461.358.338.436.307.436-.176m-.427.806c-.4-.265-.613-.519-.761-.904-.157-.411-.09-.742.211-1.042.253-.253.401-.259.801-.026.373.217.471.429.502 1.094.016.334.01.715-.016.848-.039.207-.071.24-.234.24-.104 0-.33-.095-.504-.209l.001-.001zm-8.182.985c0-.311-.029-.405-.171-.547-.104-.104-.23-.163-.322-.149-.128.017-.153.068-.168.326-.017.32.043.44.32.63.284.196.341.152.341-.26m-.204.939c-.288-.112-.738-.523-.902-.822-.274-.503-.239-.9.109-1.284.294-.322.978-.105 1.178.374.13.311.194 1.189.11 1.508-.062.241-.241.322-.495.224m7.915 2.685c.296-.283.315-.328.245-.586-.096-.361-.579-.189-.712.254-.085.284-.034.609.095.608.046 0 .213-.124.372-.277v.001zm-.781.802c-.27-.33-.266-1.352.006-1.755.178-.263.665-.533.961-.533.278 0 .45.19.505.56.069.46-.019.71-.379 1.079-.307.312-.868.734-.977.734-.026 0-.079-.038-.117-.085h.001zm-4.22.814c-.002-.249-.288-.687-.498-.76-.159-.056-.208-.045-.287.062-.132.182-.119.327.05.541.256.325.737.428.735.157m-.433.614c-.507-.179-.949-.599-1.018-.967-.069-.367.015-.765.186-.885.207-.145.629-.125.93.044.355.199.691.926.701 1.516.008.405.008.406-.195.42-.112.009-.384-.051-.604-.128m3.166 4.454c1.54-.401 3.497-2.191 5.229-4.78 1.01-1.51 1.408-2.592 1.797-4.881.767-4.506 1.072-5.35 3.289-9.05 2.158-3.602 2.49-4.553 2.677-7.666.184-3.086-.297-5.521-1.483-7.487-1.39-2.308-3.056-3.901-5.1-4.876-1.33-.634-2.699-.974-3.956-.981-.597-.003-.72.017-1.012.167-.183.094-.344.205-.357.246-.016.047.153.108.432.157 1.428.248 2.806 1.297 3.525 2.684.327.631.809 1.86.729 1.86-.02 0-.286-.209-.592-.466-1.003-.842-2.098-1.437-3.155-1.712-.551-.144-2.08-.259-2.034-.155.015.035.219.44.454.901.972 1.906 1.288 3.658.992 5.5-.113.705-.297 1.424-.362 1.422-.024 0-.179-.263-.346-.584-.642-1.235-1.519-2.43-2.375-3.237-.754-.711-.631-.781-1.361.775-.35.744-.661 1.345-.693 1.334-.03-.011-.271-.506-.534-1.102-.262-.595-.505-1.112-.537-1.147-.079-.085-.467.29-.848.821-1.052 1.465-1.252 3.228-.562 4.959.108.274.197.525.197.56 0 .101-.694.071-1.034-.044-.4-.136-.837-.524-1.115-.988-.492-.821-.674-2.504-.466-4.295.061-.522.128-1.028.149-1.126.036-.165.007-.189-.409-.355-1.104-.442-2.367-.627-3.147-.459-.949.203-1.757.867-2.321 1.908-.501.926-.712 1.657-.796 2.767l-.045.587-.339-.44c-.372-.482-.984-1.638-.984-1.86 0-.117-.021-.106-.128.069-.215.354-1.175 1.044-1.451 1.044-.197 0-.27-.261-.232-.822.064-.947.514-1.447 1.253-1.395l.355.026v-.289c0-1.317.499-2.619 1.564-4.087.288-.396.498-.729.469-.739-.077-.03-1.036.297-1.452.495-.471.223-.924.571-1.823 1.399-1.512 1.395-2.163 2.324-3.461 4.939-1.697 3.42-2.061 4.686-1.99 6.919.028.895.069 1.243.209 1.776.214.817.708 1.783 1.35 2.639.91 1.213 1.596 1.855 4.253 3.975 2.357 1.88 3.353 2.71 4.124 3.436 1.205 1.133 2.207 2.518 3.706 5.115 1.449 2.516 2.008 3.239 3.261 4.223 2.235 1.754 4.942 2.722 6.486 2.32m-2.151 1.658c-1.893-.398-4.371-1.688-5.597-2.913-.851-.85-1.492-1.778-2.769-4.012-2.136-3.737-2.892-4.601-7.398-8.459-3.117-2.665-4.135-3.659-5.013-4.888C.763 27.825.324 26.77.191 25.44c-.111-1.101.011-3.118.252-4.166.556-2.432 1.87-5.269 3.356-7.253.701-.936 1.866-2.063 3.19-3.084.216-.168.396-.324.398-.347.005-.069-.812.142-1.082.279-.139.071-.35.21-.468.31-.118.1-.23.166-.249.147-.018-.019.157-.32.391-.669.757-1.13 2.042-2.298 3.143-2.857.555-.281 1.705-.656 2.359-.768.735-.127 2.443-.147 3.19-.037.294.044.548.068.563.053.014-.015-.372-.279-.86-.587-.488-.307-.877-.569-.865-.581.037-.037 1.1.165 1.825.347 1.48.372 2.728.829 3.368 1.235.201.127.388.205.417.175.029-.03.071-.224.094-.429.296-2.576 1.134-5.326 1.89-6.201l.23-.267.511.081c.702.109 1.203.31 1.565.628.43.378.589.739.589 1.333 0 .991-.542 2.177-1.751 3.836-.238.329-.422.609-.408.623.015.014.544-.037 1.178-.115.952-.117 1.56-.142 3.523-.148 2.219-.006 2.422.003 3.137.148 3.186.646 5.641 2.471 7.84 5.828 1.002 1.529 1.54 3.155 1.744 5.27.152 1.574-.052 4.929-.375 6.169-.346 1.329-.936 2.553-2.458 5.099-2.267 3.79-2.581 4.648-3.417 9.305-.478 2.66-.881 3.825-1.831 5.288-1.167 1.796-2.729 3.598-3.839 4.432-.646.485-1.398.877-1.965 1.025-.563.147-2.053.128-2.831-.036" fill="#fa3880" fill-rule="nonzero"/></svg>