<svg viewBox="0 0 207 30" xmlns="http://www.w3.org/2000/svg" fill-rule="evenodd" clip-rule="evenodd" stroke-miterlimit="11.339"><path d="M194.882 24.229c-1.19-.73-2.322-2.468-2.061-3.165.132-.353.342-.252.735.355 1.306 2.024 3.682 2.712 5.364 1.555 1.966-1.354 2.144-4.533.407-7.291-4.472-7.104-13.319-9.541-29.179-8.037-9.445.896-16.374 2.363-34.565 7.315-7.137 1.943-14.292 3.75-15.901 4.017-4.857.803-10.699-.261-12.878-2.346-1.643-1.57-2.341-4.785-1.481-6.81 1.186-2.79 3.809-2.883 5.518-.195.834 1.31.953 2.31.128 1.065-1.719-2.59-3.404-2.876-4.669-.793-1.079 1.778-1.083 2.492-.026 4.234 1.746 2.876 6.874 4.333 12.578 3.574 3.549-.473 6.146-1.14 14.592-3.746 9.717-3 20.011-5.606 26.563-6.726 11.128-1.903 24.545-1.811 30.438.209 5.813 1.993 10.005 6.225 11.151 11.257.407 1.789-.073 3.782-1.186 4.915-1.163 1.184-4.069 1.507-5.528.613zm-182.85 0c1.19-.73 2.322-2.468 2.061-3.165-.133-.353-.342-.252-.735.355-1.306 2.024-3.683 2.712-5.364 1.555-1.966-1.354-2.144-4.533-.407-7.291 4.472-7.104 13.32-9.541 29.18-8.037 9.444.896 16.373 2.363 34.564 7.315 7.137 1.943 14.292 3.75 15.901 4.017 4.857.803 10.7-.261 12.878-2.346 1.642-1.57 2.341-4.785 1.481-6.81-1.186-2.79-3.809-2.883-5.518-.195-.834 1.31-.954 2.31-.127 1.065 1.718-2.59 3.404-2.876 4.668-.793 1.08 1.778 1.083 2.492.026 4.234-1.745 2.876-6.874 4.333-12.578 3.574-3.549-.473-6.147-1.14-14.592-3.746-9.717-3-20.01-5.606-26.563-6.726-11.127-1.903-24.545-1.811-30.437.209C10.656 9.437 6.463 13.669 5.318 18.7c-.408 1.789.073 3.782 1.186 4.915 1.162 1.184 4.07 1.507 5.528.613z" fill="none" stroke="#000" stroke-width=".86"/></svg>