<svg viewBox="0 0 436 21" xmlns="http://www.w3.org/2000/svg" fill-rule="evenodd" clip-rule="evenodd" stroke-linejoin="round" stroke-miterlimit="2"><path d="M108.993 2.685c-8.049 4.289-15.117 4.329-25.658.146l-4.03-1.6-5.494 1.62c-3.02.893-7.2 1.938-9.288 2.324-4.893.903-16.496-.263-23.93-2.405l-5.635-1.624-5.03 1.858c-4.364 1.612-6.299 1.854-14.556 1.829C8.197 4.81 5.25 4.502 3.42 3.58 1.124 2.427.135 2.487.135 3.778c0 .312 1.353 2.279 3.006 4.37 5.812 7.353 16.222 10.154 23.544 6.334 1.822-.95 4.813-3.11 6.647-4.8l3.334-3.073 3.543 3.543c6.863 6.864 13.552 8.93 22.068 6.822 8.117-2.01 13.107-4.643 15.42-8.136l1.996-3.018 1.17 1.775c2.711 4.11 4.92 6.07 9.323 8.27 9.636 4.816 19.487 1.653 24.637-7.911l1.36-2.525 3.877 3.956c5.57 5.685 11.57 8.435 18.35 8.409 6.223-.023 9.261-1.343 13.45-5.844l2.782-2.991 3.461 3.7c4.203 4.494 9.44 7.235 14.646 7.668 5.21.43 11.38-2.557 16.132-7.814 2.127-2.354 3.602-3.461 3.81-2.86.856 2.484 4.72 5.899 8.921 7.887 5.154 2.438 10.3 2.843 14.397 1.13 3.238-1.351 7.881-5.441 9.304-8.193l1.118-2.161 2.581 2.844c1.42 1.565 4.553 4.033 6.963 5.487 8.351 5.034 16.246 3.169 21.605-5.102l2.392-3.692 3.67 3.54c4.222 4.068 11.07 6.803 17.04 6.803 4.365 0 6.866-1.172 10.44-4.887 1.442-1.503 2.855-2.732 3.138-2.732.282 0 1.33 1.209 2.326 2.686 2.276 3.375 8.278 6.408 13.81 6.979 6.357.655 11.225-1.27 16.476-6.521l4.291-4.291 2.898 2.812c3.917 3.8 9.143 6.199 14.325 6.573 5.391.39 12.4-2.505 16.173-6.682l2.53-2.798 3.144 2.793c4.494 3.988 10.077 5.564 18.316 5.17 7.84-.375 10.824-1.8 12.758-6.09.723-1.605 1.435-2.917 1.581-2.917.145 0 1.586 1.322 3.204 2.939 4.865 4.865 14.18 6.903 20.151 4.409 1.358-.568 4.261-3.1 6.448-5.623 3.486-4.024 3.831-4.712 2.798-5.57-.943-.782-2.35-.8-7.044-.085-6.952 1.058-19.367 1.165-22.748.195-1.593-.456-4.403-.333-8.375.367-3.288.578-8.378 1.042-11.31 1.028-5.147-.024-15.303-1.475-16.799-2.4-.4-.247-5.869.193-12.154.98-13.936 1.743-20.506 1.832-24.749.336-2.88-1.016-3.776-1.013-8.286.043-2.78.65-8.483 1.375-12.674 1.609-6.53.366-8.307.19-12.449-1.217-4.324-1.471-5.425-1.561-10.529-.851-8.002 1.113-15.518.984-23.444-.403-6.663-1.165-6.923-1.154-12.19.548-7.749 2.502-19.227 2.522-23.949.04-3.21-1.687-3.384-1.7-4.839-.383-2.223 2.012-16.336 2.26-24.589.432-5.973-1.323-6.152-1.32-9.14.175-2.749 1.375-4.432 1.515-16.917 1.41-10.765-.088-14.39-.377-16.212-1.285-1.836-.916-2.854-.993-4.683-.356-1.437.502-5.9.659-11.595.41-8.25-.362-14.545-1.516-25.566-4.688-.669-.192-3.484.857-6.255 2.334m-74.61 2.222c-.543.652-2.546 2.1-4.453 3.219-2.914 1.707-4.384 2.034-9.203 2.05-3.865.01-7.055-.47-9.78-1.481-6.542-2.424-6.238-3.291.74-2.11 5.405.916 6.893.895 12.151-.17 3.296-.667 6.767-1.525 7.716-1.906 2.877-1.157 3.99-1.001 2.828.398m75.54 1.903c-4.707 4.255-9.889 5.686-16.14 4.456-2.938-.58-5.449-1.613-6.7-2.763l-2-1.838 3.047.623c1.676.342 5.961.605 9.523.583 5.432-.034 7.09-.36 10.285-2.016 5.353-2.774 5.847-2.537 1.985.955m31.536.615l9.904.486-3.809 1.888c-5.412 2.682-13.122 3.015-18.284.788-3.976-1.714-8.762-4.997-8.762-6.01 0-.322 2.486.076 5.524.887 3.273.874 9.56 1.673 15.427 1.96M73 7.08c-1.199.98-3.537 2.188-5.197 2.686-3.276.982-13.625 1.196-17.12.355-2.605-.627-8.158-3.334-7.725-3.766.168-.17 4.23.193 9.025.804 8.131 1.035 9.156 1.013 15.195-.321 8.378-1.85 8.378-1.85 5.822.242m128.98.17c3.013.702 7.498 1.049 11.62.9 3.692-.131 6.712.033 6.711.368 0 .333-1.802 1.443-4 2.467-6.628 3.085-14.344 2.263-19.258-2.052-2.83-2.486-3.498-4.181-1.313-3.338.733.283 3.541 1.028 6.24 1.656m54.898-.536c0 1.836-7.494 5.389-11.35 5.38-2.664-.005-7.066-1.27-8.779-2.523-1.209-.884-.543-1.04 5.014-1.17 3.522-.081 8.108-.612 10.19-1.177 4.918-1.34 4.925-1.34 4.925-.51m22.094.418c4.82-.008 9.875-.258 11.237-.553 3.774-.818 2.955.549-1.525 2.54-6.879 3.062-19.408 1.952-22.696-2.011-.78-.94-.537-1.018 1.653-.531 1.414.314 6.511.564 11.331.555m97.705.11c3.846.875 7.621 1.133 12.883.879 4.093-.197 7.28-.094 7.08.228-.772 1.25-8.546 3.293-12.534 3.293-4.913 0-11.442-2.024-13.36-4.145-1.658-1.832-1.109-1.856 5.931-.255M169.75 8.4c6.052.664 10.182.724 13.96.202 2.95-.408 5.364-.537 5.364-.286 0 .25-1.287 1.092-2.857 1.872-2.018 1-5.095 1.51-10.476 1.736-6.43.268-8.29.064-11.93-1.305-4.583-1.725-8.099-4.566-4.505-3.638 1.018.262 5.717.9 10.444 1.419m134.407-.101c4.336.787 7.341.707 17.86-.47 3.655-.41 3.741-.378 2.118.807-6.046 4.41-15.235 5.573-21.205 2.683-3.318-1.605-7.357-5.283-4.769-4.342.707.258 3.405.853 5.996 1.322m55.768-.364c-6.298 4.41-18.497 4.692-24.196.558-1.372-.996-1.03-1.062 3.428-.664 2.725.243 7.523.149 10.667-.207 3.143-.356 7.075-.694 8.74-.75 2.926-.101 2.971-.065 1.361 1.063m69.131-.557c0 .91-6.42 2.59-9.905 2.59-3.483 0-9.905-1.68-9.903-2.59 0-.126 4.458-.23 9.904-.23 5.447 0 9.904.104 9.904.23M15.041 11.703c2.678.56 6.334.86 8.123.67l3.255-.351-2.274 1.3c-1.25.715-3.684 1.279-5.408 1.253-3.68-.057-10.283-2.713-12.262-4.934L5.087 8.083l2.542 1.3c1.398.716 4.733 1.759 7.412 2.32m347.686-.695c-4.73 5.036-10.838 6.88-17.25 5.21-2.303-.6-4.922-1.637-5.824-2.305-1.603-1.19-1.59-1.205.648-.69 6.38 1.472 17.005-.33 21.815-3.7 2.422-1.695 2.781-.823.611 1.485m-252.573.407c-4.099 4.532-11.919 6.02-17.775 3.379-1.718-.774-3.004-1.528-2.858-1.674.146-.146 2.035.07 4.2.48 4.95.939 10.927-.112 14.582-2.564 3.115-2.091 3.934-1.923 1.851.379m112.527-.236c-.44.822-2.57 2.63-4.734 4.018-3.09 1.984-4.703 2.513-7.519 2.47-3.169-.047-11.42-2.836-10.616-3.587.17-.158 2.195.06 4.5.484 5.45 1.002 11.83-.28 15.753-3.166 3.238-2.38 3.797-2.427 2.616-.22m11.46-.248c6.286 3.513 12.368 4.012 19.308 1.586.93-.325.358.53-1.459 2.192-2.468 2.253-3.56 2.726-6.308 2.726-3.83 0-11-3.305-13.887-6.4-2.295-2.461-1.902-2.48 2.346-.104m91.888.6c-1.043 1.36-3.502 3.477-5.465 4.7-3.017 1.883-4.314 2.217-8.37 2.156-5.339-.081-10.542-2.085-13.45-5.18-2.128-2.265-1.647-2.36 1.768-.345 6.22 3.67 15.943 3.06 23.126-1.448 2.042-1.282 3.841-2.337 4-2.345.158-.01-.566 1.099-1.609 2.462m-45.152 1.818c2.513-.248 5.598-.675 6.856-.952l2.285-.502-2.139 1.717c-4.3 3.452-11.129 3.228-18.57-.608-5.053-2.606-4.419-3.043 1.521-1.047 4.374 1.469 6.394 1.75 10.047 1.392m117.783-1.393c-.444.83-1.896 1.888-3.224 2.35-2.793.975-14.034 1.04-16.28.095-1.007-.422.417-.633 4.19-.62 5.847.02 10.336-.89 13.711-2.776 2.29-1.281 2.675-1.053 1.603.95m12.59-.894c3.422 1.444 11.78 1.634 15.055.342 3.156-1.245 3.367-.416.361 1.417-3.643 2.22-9.78 2.093-14.943-.311-2.199-1.024-3.999-2.05-3.999-2.277 0-.608.276-.543 3.526.829M49.798 12.156c3.586.984 14.337 1.274 17.38.467 1.047-.277.362.242-1.524 1.154-4.77 2.306-12.848 2.307-17.28.002-3.183-1.655-5.526-3.931-3.082-2.993.672.257 2.7.874 4.506 1.37m98.897.362c0 1.135-6.873 3.354-10.285 3.32-6.352-.06-7.677-1.327-1.523-1.456 2.933-.062 6.532-.574 8-1.14 3.04-1.17 3.808-1.316 3.808-.724m18.284 1.206c3.65.857 11.113.786 15.147-.145 1.838-.423 3.456-.653 3.598-.511.143.143-1.702 1.399-4.1 2.79-6.53 3.793-12.715 3.056-19.215-2.287l-1.904-1.566 1.904.547c1.048.3 3.104.828 4.57 1.172" fill="#3bb34b" fill-rule="nonzero"/></svg>