<svg viewBox="0 0 442 22" xmlns="http://www.w3.org/2000/svg" fill-rule="evenodd" clip-rule="evenodd" stroke-linejoin="round" stroke-miterlimit="2"><path d="M110.853 18.685c-8.138-4.335-15.285-4.377-25.943-.147l-4.077 1.617-5.552-1.639c-3.054-.902-7.281-1.959-9.393-2.349-4.946-.913-16.679.267-24.195 2.433l-5.698 1.641-5.087-1.879c-4.411-1.628-6.368-1.874-14.717-1.848-7.255.024-10.235.334-12.086 1.265-2.32 1.168-3.32 1.108-3.32-.199 0-.315 1.367-2.303 3.04-4.418C9.701 5.727 20.226 2.895 27.63 6.757c1.843.961 4.867 3.146 6.722 4.854l3.37 3.107 3.582-3.583c6.94-6.939 13.703-9.03 22.314-6.898 8.207 2.033 13.253 4.695 15.59 8.227l2.019 3.051 1.184-1.795c2.74-4.156 4.973-6.137 9.426-8.361 9.744-4.869 19.703-1.672 24.911 7.999l1.376 2.554 3.919-4.001c5.631-5.748 11.698-8.529 18.555-8.503 6.292.023 9.363 1.359 13.598 5.909l2.814 3.023 3.499-3.741c4.25-4.542 9.546-7.314 14.809-7.751 5.268-.437 11.507 2.584 16.311 7.9 2.151 2.381 3.642 3.5 3.853 2.892.865-2.511 4.771-5.965 9.019-7.974C209.713 1.2 214.917.79 219.059 2.521c3.274 1.369 7.969 5.503 9.409 8.287l1.129 2.184 2.609-2.876c1.436-1.582 4.605-4.078 7.041-5.548 8.443-5.089 16.426-3.204 21.846 5.159l2.418 3.732 3.712-3.577c4.268-4.114 11.191-6.879 17.228-6.879 4.414 0 6.943 1.183 10.555 4.942 1.46 1.518 2.889 2.761 3.175 2.761.285 0 1.343-1.223 2.351-2.716 2.301-3.411 8.37-6.479 13.963-7.056 6.429-.664 11.351 1.284 16.659 6.594l4.34 4.338 2.931-2.843c3.96-3.844 9.244-6.269 14.482-6.648 5.452-.394 12.539 2.534 16.355 6.757l2.555 2.829 3.182-2.823c4.544-4.032 10.188-5.627 18.52-5.227 7.924.378 10.943 1.819 12.9 6.157.73 1.622 1.45 2.949 1.597 2.949.147 0 1.605-1.337 3.24-2.971 4.919-4.92 14.339-6.981 20.376-4.459 1.373.575 4.307 3.133 6.519 5.686 3.525 4.069 3.873 4.765 2.828 5.632-.953.79-2.376.808-7.121.086-7.03-1.071-19.583-1.177-23.001-.198-1.611.462-4.453.338-8.468-.369-3.326-.587-8.471-1.053-11.437-1.041-5.203.024-15.473 1.492-16.985 2.426-.405.251-5.935-.195-12.288-.989-14.092-1.764-20.736-1.854-25.025-.339-2.912 1.027-3.818 1.022-8.378-.045-2.812-.658-8.579-1.39-12.815-1.628-6.605-.369-8.4-.193-12.587 1.232-4.373 1.488-5.486 1.579-10.647.86-8.091-1.125-15.691-.994-23.706.408-6.735 1.178-6.999 1.166-12.325-.555-7.834-2.53-19.441-2.55-24.215-.041-3.246 1.705-3.42 1.72-4.892.388-2.248-2.034-16.518-2.285-24.863-.436-6.04 1.337-6.22 1.334-9.243-.178-2.777-1.389-4.479-1.531-17.104-1.427-10.884.092-14.55.382-16.392 1.301-1.856.927-2.885 1.005-4.735.359-1.452-.506-5.965-.665-11.724-.413-8.342.366-14.706 1.533-25.851 4.739-.676.195-3.522-.867-6.324-2.36m-75.441-2.246c-.547-.66-2.573-2.124-4.501-3.254-2.947-1.727-4.433-2.058-9.305-2.073-3.908-.012-7.134.475-9.889 1.497-6.615 2.451-6.307 3.328.749 2.133 5.465-.926 6.969-.906 12.285.172 3.334.676 6.843 1.542 7.802 1.928 2.91 1.169 4.033 1.011 2.859-.403m76.38-1.924c-4.759-4.302-9.999-5.749-16.32-4.506-2.97.585-5.509 1.631-6.774 2.793l-2.022 1.859 3.081-.63c1.694-.346 6.028-.611 9.629-.588 5.492.033 7.169.362 10.399 2.037 5.414 2.806 5.913 2.565 2.007-.965m31.888-.622l10.013-.49-3.851-1.91c-5.472-2.712-13.268-3.049-18.487-.798-4.02 1.735-8.859 5.053-8.859 6.076 0 .327 2.513-.076 5.585-.896 3.309-.883 9.666-1.691 15.599-1.982m-69.221.349c-1.211-.992-3.576-2.213-5.253-2.716-3.313-.993-13.778-1.21-17.311-.36-2.634.635-8.249 3.373-7.811 3.809.17.171 4.277-.195 9.125-.812 8.222-1.048 9.258-1.026 15.364.323 8.472 1.87 8.472 1.87 5.886-.244m130.415-.173c3.047-.709 7.582-1.06 11.75-.91 3.732.133 6.786-.033 6.785-.37 0-.337-1.822-1.46-4.045-2.497-6.701-3.119-14.503-2.287-19.472 2.076-2.862 2.513-3.537 4.228-1.327 3.375.741-.287 3.58-1.039 6.309-1.674m55.509.541c0-1.857-7.578-5.448-11.478-5.441-2.692.006-7.143 1.287-8.876 2.553-1.221.893-.548 1.05 5.07 1.182 3.562.083 8.199.619 10.302 1.192 4.975 1.353 4.982 1.355 4.982.514m22.339-.422c4.873.009 9.985.26 11.362.559 3.817.827 2.988-.555-1.541-2.569-6.956-3.096-19.624-1.972-22.949 2.034-.789.951-.542 1.03 1.672.537 1.428-.317 6.585-.569 11.456-.561m98.792-.111c3.889-.885 7.706-1.145 13.026-.889 4.14.199 7.361.095 7.159-.231-.781-1.264-8.641-3.33-12.673-3.33-4.968 0-11.569 2.048-13.508 4.192-1.678 1.852-1.123 1.876 5.996.258m-209.228-1.17c6.119-.671 10.296-.732 14.114-.204 2.983.413 5.425.543 5.425.29 0-.253-1.301-1.106-2.889-1.894-2.041-1.013-5.152-1.528-10.593-1.755-6.501-.271-8.383-.065-12.062 1.32-4.634 1.745-8.19 4.616-4.555 3.678 1.028-.264 5.781-.911 10.56-1.435m135.901.102c4.384-.795 7.423-.715 18.058.477 3.697.413 3.783.381 2.143-.817-6.115-4.461-15.405-5.636-21.441-2.714-3.354 1.624-7.438 5.343-4.822 4.391.715-.261 3.443-.862 6.062-1.337m56.388.368c-6.367-4.46-18.702-4.744-24.465-.564-1.386 1.007-1.041 1.073 3.467.672 2.754-.245 7.607-.152 10.785.208 3.177.36 7.155.702 8.838.761 2.958.1 3.004.064 1.375-1.077m69.901.563c-.001-.921-6.493-2.617-10.015-2.617-3.523 0-10.016 1.697-10.014 2.617 0 .128 4.507.231 10.015.231 5.508 0 10.014-.103 10.014-.231M15.856 9.568c2.708-.568 6.405-.872 8.214-.677l3.291.354-2.3-1.315c-1.264-.724-3.724-1.293-5.467-1.266-3.721.056-10.398 2.743-12.399 4.989l-1.403 1.574 2.57-1.314c1.413-.723 4.786-1.779 7.494-2.345m351.553.702c-4.783-5.092-10.959-6.957-17.442-5.268-2.329.607-4.978 1.655-5.889 2.331-1.621 1.202-1.607 1.217.655.696 6.451-1.488 17.196.336 22.058 3.742 2.448 1.715 2.812.834.618-1.501m-255.382-.411c-4.145-4.583-12.052-6.087-17.972-3.417-1.737.783-3.038 1.544-2.89 1.692.147.148 2.058-.071 4.245-.486 5.006-.949 11.05.113 14.746 2.595 3.15 2.113 3.977 1.944 1.871-.384m113.778.239c-.445-.831-2.598-2.66-4.786-4.063-3.125-2.006-4.755-2.542-7.603-2.498-3.205.048-11.548 2.867-10.733 3.627.17.16 2.218-.06 4.549-.49 5.51-1.011 11.96.283 15.929 3.2 3.273 2.409 3.838 2.457 2.644.224m11.589.251c6.355-3.553 12.504-4.058 19.522-1.603.939.329.362-.538-1.476-2.217-2.495-2.279-3.599-2.756-6.378-2.756-3.873 0-11.124 3.342-14.042 6.471-2.32 2.489-1.922 2.505 2.374.105m92.91-.605c-1.055-1.378-3.542-3.518-5.527-4.756-3.051-1.903-4.362-2.24-8.465-2.177-5.396.081-10.658 2.108-13.598 5.238-2.152 2.289-1.664 2.384 1.788.347 6.288-3.711 16.12-3.094 23.383 1.465 2.064 1.297 3.884 2.363 4.044 2.372.16.008-.572-1.113-1.625-2.489m-45.656-1.838c2.541.249 5.662.68 6.933.96l2.311.508-2.164-1.736c-4.348-3.49-11.25-3.265-18.776.614-5.109 2.635-4.468 3.078 1.538 1.06 4.422-1.486 6.466-1.77 10.158-1.406m119.093 1.406c-.449-.839-1.916-1.909-3.259-2.377-2.824-.984-14.19-1.05-16.462-.095-1.018.428.422.641 4.236.628 5.913-.02 10.453.899 13.865 2.806 2.315 1.296 2.704 1.064 1.62-.962m12.731.906c3.46-1.461 11.91-1.653 15.221-.346 3.192 1.258 3.406.42.366-1.432-3.683-2.245-9.89-2.117-15.109.312-2.223 1.036-4.044 2.073-4.044 2.304 0 .613.279.548 3.566-.838M51 9.109c3.625-.995 14.497-1.288 17.573-.473 1.059.28.366-.244-1.541-1.166-4.824-2.332-12.991-2.333-17.472-.002-3.218 1.674-5.587 3.975-3.116 3.027.679-.261 2.729-.884 4.556-1.385v-.001zm99.997-.366c0-1.148-6.95-3.392-10.399-3.358-6.423.062-7.763 1.344-1.541 1.474 2.966.061 6.606.58 8.088 1.15 3.076 1.185 3.852 1.332 3.852.734m18.488-1.218c3.691-.868 11.236-.795 15.315.145 1.858.429 3.494.661 3.638.517.144-.144-1.722-1.414-4.146-2.821-6.604-3.834-12.857-3.09-19.429 2.312l-1.926 1.583 1.926-.552a119.34 119.34 0 014.622-1.184" fill="#fa4d24" fill-rule="nonzero"/></svg>