<svg viewBox="0 0 75 52" xmlns="http://www.w3.org/2000/svg" fill-rule="evenodd" clip-rule="evenodd" stroke-linejoin="round" stroke-miterlimit="2"><path d="M7.747 13.266c-2.057.752-4.185 1.202-5.945-.792C.732 11.291.379 10.019.981 8.423c1.104-2.965 2.835-5.282 5.657-6.847C8.503.57 9.484.8 10.867 2.424c2.146 2.503 2.052 7.707-1.06 9.855-.59.416-1.316.604-2.06.987M2.398 8.202c-.819 1.398-.638 2.832.501 3.469 1.812 1.035 5.955-.151 6.975-2.002.969-1.739.753-3.628.649-5.467-.088-.953-.913-1.384-1.938-1.362.122.799.848 1.456.051 2.188-1.248 1.143-1.381-1.014-2.311-.747-.07.544.349.898.63 1.259.086.342.489.656.085 1.188-.482-.517-.877-.928-1.23-1.355-.354-.426-.694-.576-1.129-.125-.913.918-1.759 1.764-2.284 2.954h.001z" fill-rule="nonzero"/><path d="M5.729 8.553c-.381-.134-.818-.293-1.24-.411-.268-.084-.815.081-.63-.413.108-.324.513-.857 1.029-.494.42.354 1.045.393 1.308.949-.043.251-.247.33-.467.369zm2.763-1.354c-.054-.262-.028-.553.194-.591.577-.085.982.228 1.278.63.176.214-.02.431-.297.445-.432-.021-.904-.027-1.175-.484m-2.091.06c-.607-.233-.937-.717-1.347-1.168-.16-.173-.215-.434-.004-.61.255-.193.482-.093.602.096.344.524.632 1.023.96 1.506l-.211.176zm-2.68 1.322c.741-.146 1.499-.253 1.43.901-.535-.168-1.359.013-1.43-.901m60.297 13.611c-.086.503-.696.505-.874 1.138.792-.261.792-.261.874-1.138m-2.779 2.159c-.555-1.429.233-2.909 1.825-3.527.939-.364 1.816-.282 2.326.788l.015.039c.491 1.266-.515 3.395-2.041 3.94-.808.219-1.617-.171-2.063-1.078-.014-.039-.049-.123-.063-.164l.001.002zm7.04 20.193a.326.326 0 01-.02.195c-.042.252-.279.25-.53.206-.764-.032-1.569-.048-2.349-.121-1.812-.19-1.985-.029-2.255 1.815-.12.657.003 1.22.21 1.751.063.163.126.326.23.474l.331.247c1.378 1.25 2.911 1.689 4.66.869 1.56-.7 2.887-1.638 3.773-3.109.72-1.172 1.072-3.047.485-4.558-.316-.816-.92-1.522-1.899-1.987-.29-.263-.598-.332-.959-.051.346.288.523.501.587.665.08.204-.165.299-.753.48-.163.064-.359.043-.28.25 0 0 .015.039.035.082.088.106.175.213.223.335.064.164.014.277-.271.388-.425.118-.724-.048-1.021-.45-.954-1.368-1.426-1.373-2.456-.033.209.295.822.057.98.466.014.038.048.122.054.26l-.044.015.044-.015c-.044.015-.044.015-.024.057-.556.263-1.164.027-1.732.015-.529-.03-.89.251-.87.666.034.082.048.123.08.204.111.286.478.143.78.073 1.012-.298 1.784.482 2.719.589.137-.007.226.1.274.222h-.002zm-6.03 4.314c-.538-1.388-.434-2.932.068-4.302.62-1.791 1.612-3.35 3.162-4.563 1.411-1.205 3.053-1.937 4.881-1.707 1.786.246 3.237 1.562 3.887 3.237.459 1.183.526 2.566.075 3.822-.98 2.682-2.787 4.559-4.903 5.522-3.578 1.435-5.938.801-7.075-1.764-.033-.082-.063-.163-.094-.245h-.001z" fill-rule="nonzero"/><path d="M63.956 45.753c-.033-.082-.007-.139.044-.252l.31-.167c.796.113 1.592.227 2.404.381l.233.239c.038.22-.109.324-.394.435-.733.047-1.611-.033-2.379-.439-.114-.05-.186-.116-.218-.197zm5.45-.848c-.07-.301-.028-.553.127-.519.487.046 1.043-.217 1.422.153.056.024.072.066.088.106.064.164-.109.324-.313.404-.465.133-.936.128-1.324-.144zm-5.839 3.959c.735-1.131 1.843.271 2.68-.477-.604.986-1.503.725-2.35.725l-.33-.248zm3.446-6.13l.043-.015c.178-.632.622-.335 1.012-.298.097.009.211.059.258.181a.333.333 0 01-.019.195c-.166.299-.482.093-.742.147-.236 0-.431-.02-.51-.225l-.043.015h.001zm3.111-.456c-.048-.123.075-.17.141-.243.163-.063.317-.028.463.103a.979.979 0 00.033.081c.048.122-.075.17-.1.227-.204.079-.343.086-.504-.086-.014-.04-.014-.04-.033-.082" fill-rule="nonzero"/></svg>