<svg viewBox="0 0 52 47" xmlns="http://www.w3.org/2000/svg" fill-rule="evenodd" clip-rule="evenodd" stroke-linejoin="round" stroke-miterlimit="2"><path d="M28.111 1.087c1.187.428 1.703 2.05 1.196 3.591-.37 1.159-1.282 1.166-2.16.945-1.117-.354-1.996-2.299-1.599-3.401.442-1.229 1.234-1.566 2.563-1.135m-1.026 1.785c-.107.297-.287.662.064.885.436.252.52-.244.68-.426.221-.35.101-.681-.207-.888-.324-.163-.446.175-.537.429" fill="#2b2a29" fill-rule="nonzero"/><path d="M49.519 44.659c-.332-.407.078-.881-.293-1.446-.333.79-.333.79.293 1.446m.2-3.614c1.484.534 2.1 2.145 1.506 3.798-.352.974-1.008 1.6-2.183 1.273L49 46.1c-1.314-.474-2.286-2.691-1.68-4.244.376-.775 1.225-1.139 2.23-.872.043.015.127.046.17.06v.001zM2.621 17.087c.34.12.407-.332.525-.529.25-.293.144-.666-.179-.83l-.085-.032c-.255-.089-.36.205-.452.46-.107.296-.288.662.08.842.025.06.07.073.111.09v-.001zm.834-2.715c1.187.427 1.72 2.007 1.212 3.548-.37 1.159-1.282 1.166-2.16.945l-.085-.031c-1.1-.397-1.91-2.268-1.514-3.37.385-1.202 1.234-1.566 2.548-1.093v.001zm26.241 21.747c.126.049.104.116.133.177-.028.09-.134.125-.316.105l-.084-.032c-.126-.049-.105-.116-.14-.155.037-.112.097-.164.323-.127l.084.032z" fill="#434242" fill-rule="nonzero"/></svg>