<svg viewBox="0 0 34 81" xmlns="http://www.w3.org/2000/svg" fill-rule="evenodd" clip-rule="evenodd" stroke-linejoin="round" stroke-miterlimit="2"><path d="M21.07 8.012c-1.28-1.767-2.29-3.684-.857-5.914C21.054.751 22.178.068 23.872.21c3.142.251 5.834 1.281 8.101 3.56 1.471 1.513 1.518 2.516.337 4.283-1.814 2.738-6.828 4.063-9.733 1.665-.56-.453-.938-1.097-1.507-1.706m3.399-6.504c-1.563-.405-2.887.158-3.189 1.424-.499 2.018 1.765 5.667 3.816 6.14 1.931.456 3.682-.265 5.417-.865.889-.343 1.078-1.25.778-2.228-.732.335-1.165 1.21-2.083.644-1.435-.885.596-1.599.088-2.418-.541.08-.767.58-1.036.946-.304.176-.496.648-1.116.405.364-.603.652-1.093.964-1.547.313-.455.363-.822-.187-1.117-1.128-.625-2.168-1.206-3.452-1.385v.001z" fill-rule="nonzero"/><path d="M25.039 4.797c.024-.401.059-.864.057-1.301.007-.28-.299-.758.224-.716.341.017.961.259.754.853-.225.498-.093 1.108-.554 1.51-.252.029-.384-.146-.481-.346m2.05 2.279c.235-.123.522-.177.62.023.236.532.047 1.005-.258 1.398-.156.228-.418.099-.508-.164-.096-.419-.219-.872.146-1.257m-.626-1.987c.059-.646.433-1.092.754-1.608.121-.201.356-.324.583-.17.254.19.22.436.071.602-.408.473-.808.884-1.181 1.33l-.227-.154zm-1.997-2.21c.342.67.65 1.368-.475 1.616.015-.558-.381-1.3.475-1.616m3.354 61.496c-.506.054-.674-.53-1.328-.528.465.688.465.688 1.328.528m-2.825-2.077c1.219-.92 2.851-.568 3.877.79.605.801.764 1.665-.123 2.444l-.033.025c-1.08.815-3.394.43-4.332-.885-.429-.714-.276-1.595.473-2.27l.139-.106-.001.002zM7.556 74.539a.335.335 0 01-.192.034c-.253.027-.316-.2-.342-.452-.178-.742-.381-1.518-.523-2.285-.311-1.788-.512-1.91-2.353-1.668-.663.064-1.168.335-1.621.678-.139.105-.279.21-.392.35l-.146.385c-.824 1.66-.827 3.249.434 4.702 1.095 1.305 2.356 2.322 4.006 2.77 1.319.371 3.212.199 4.501-.774.696-.526 1.208-1.296 1.388-2.361.174-.35.155-.664-.212-.933-.182.41-.339.638-.478.743-.174.132-.332-.077-.665-.591-.105-.139-.139-.331-.315-.2 0 0-.033.025-.069.055-.079.113-.157.227-.261.306-.14.106-.262.088-.446-.155-.228-.375-.151-.707.154-1.1 1.052-1.287.928-1.74-.636-2.363-.227.28.168.802-.18 1.065-.034.024-.104.08-.236.123l-.025-.037.025.037c-.025-.037-.025-.037-.061-.008-.402-.461-.342-1.108-.485-1.656-.115-.515-.482-.784-.875-.652-.069.054-.104.079-.174.132-.244.184-.007.497.142.767.561.888.024 1.841.176 2.766.044.131-.035.244-.139.323v-.001zm-5.775-4.606c1.184-.894 2.692-1.214 4.141-1.105 1.886.107 3.651.634 5.234 1.789 1.54 1.025 2.687 2.4 2.963 4.214.25 1.779-.616 3.528-2.043 4.606-1.01.762-2.318 1.203-3.645 1.112-2.837-.209-5.127-1.432-6.625-3.198-2.35-3.038-2.384-5.473-.234-7.26.069-.055.139-.106.21-.158h-.001z" fill-rule="nonzero"/><path d="M5.222 70.724c.069-.054.131-.044.253-.027l.245.252c.107.794.215 1.588.287 2.408l-.164.288c-.2.097-.341-.016-.524-.26-.245-.689-.408-1.552-.227-2.399.018-.122.061-.21.13-.262zm2.294 4.993c.271-.149.523-.178.532-.02.089.48.492.941.24 1.405-.007.061-.043.087-.077.114-.139.105-.341-.017-.472-.191-.255-.409-.378-.863-.223-1.308m-5.382-4.52c1.284.397.242 1.841 1.187 2.44-1.11-.311-1.105-1.244-1.334-2.055l.147-.385zm6.812 1.636l.025.038c.656-.003.491.504.562.888.017.096.001.218-.104.297a.334.334 0 01-.192.034c-.331-.077-.22-.435-.343-.671-.063-.226-.097-.418.077-.55l-.025-.037v.001zm1.283 2.858c.104-.079.184.026.271.069.105.139.114.297.028.471-.033.024-.07.054-.07.054-.103.08-.183-.025-.244-.034-.131-.174-.175-.304-.054-.506.034-.024.034-.024.069-.054" fill-rule="nonzero"/></svg>