<svg viewBox="0 0 16 18" xmlns="http://www.w3.org/2000/svg" fill-rule="evenodd" clip-rule="evenodd" stroke-linejoin="round" stroke-miterlimit="2"><path d="M8.702 9.687a.437.437 0 01-.225-.101c-.281-.152-.183-.431-.032-.713.345-.895.689-1.845 1.089-2.743.953-2.077.831-2.346-1.25-3.41-.733-.407-1.452-.486-2.165-.454a2.87 2.87 0 00-.656.084l-.428.294c-2.039 1.135-3.177 2.78-2.906 5.188.204 2.135.785 4.09 2.177 5.734 1.104 1.326 3.191 2.499 5.221 2.409 1.099-.049 2.179-.48 3.126-1.457.43-.239.635-.578.445-1.12-.481.297-.805.421-1.025.431-.274.01-.289-.318-.268-1.088-.011-.22.09-.445-.184-.433l-.11.005c-.163.062-.325.124-.489.131-.22.011-.335-.095-.351-.48.033-.551.347-.84.944-1.031 2.01-.584 2.205-1.142 1.027-2.905-.434.129-.398.952-.947.976-.055.002-.165.006-.332-.039l-.002-.054.002.054c-.002-.054-.002-.054-.057-.054-.088-.766.434-1.394.679-2.065.248-.616.059-1.158-.442-1.301l-.275.011c-.383.017-.362.511-.4.898-.049 1.322-1.29 1.926-1.793 2.994-.049.167-.21.228-.375.236l.002.003zM6 .786c1.866-.082 3.659.664 5.085 1.811 1.879 1.457 3.333 3.263 4.15 5.592.865 2.161 1.074 4.407.067 6.486-1.011 2.025-3.159 3.22-5.409 3.319-1.591.07-3.262-.407-4.574-1.449C2.526 14.303 1.023 11.4.73 8.498.463 3.669 2.165 1.12 5.671.8 5.78.796 5.89.79 6 .784v.002z" fill="#434242" fill-rule="nonzero"/></svg>