<svg viewBox="0 0 95 43" xmlns="http://www.w3.org/2000/svg" fill-rule="evenodd" clip-rule="evenodd" stroke-linejoin="round" stroke-miterlimit="2"><path d="M12.51 32.143c-.07-.074-.103-.183-.136-.292-.27-.655 1.279-.649 1.973-1.027.55-.381 1.376-.25 1.545-1.183.13-.825-.591-2.105-1.431-2.992-.526-.555-1.09-1.003-1.63-1.054-.394-.046-.51.275-.765.376-.841.445-1.44 1.294-2.345 1.449-.592-.772.93-1.091.334-1.719a5.384 5.384 0 00-.105-.112c-.883-.635-1.824-.445-2.671.216-.77.52-1.543 1.111-2.28 1.739-4.021 3.457-3.436 8.445-.004 12.068l.595.629c.387.334.922.529 1.5.472 1.77-.204 3.273-1.135 4.567-2.361.222-.21.555-.525.345-.747-.07-.074-.177-.113-.356-.154-.5-.158-.784-.31-.89-.42-.314-.333.557-.598.925-.876.514-.346 1.025-.62 1.537-.895.432.012.862.096 1.022-.476-.461-.265-.722.052-1.051.223a3.29 3.29 0 00-.613.02c-.325.027-.694.377-.94.118-.035-.037-.068-.146-.136-.292-.095-.471.446-.492.81-.626.908-.3 1.817-.6 2.726-.898.655-.271.815-.843.652-1.46.002-.072-.07-.146-.103-.183-.245-.259-.685.018-1.01.045-.685.017-1.61.892-2.065.412zm3.644-6.817c.17.329.379.623.585.988.403 1.092.769 2.219 1.206 3.347l.097.399c.084 2.235-.654 4.196-1.93 6.035-1.178.977-1.51 2.553-2.548 3.677-1.545 1.184-2.88 2.588-5.221 2.56-2.053-.02-4.23-.763-5.596-2.205a5.237 5.237 0 01-.902-1.25 2.621 2.621 0 00-.346-.513c-.197-.726-.356-1.487-.518-2.175-.064-.29-.13-.508-.16-.761a3.976 3.976 0 00-.281-1.556c.594-1.966.796-4.122 2.248-5.847 1.75-2.151 3.672-3.9 6.497-4.471.356.153.68.127.975-.082 1.076.174 2.193.168 3.28-.091a71.693 71.693 0 012.614 1.945" fill="#434242" fill-rule="nonzero"/><path d="M10.044 32.724c.315.333.518.843.362 1.271-.196.607-.848.734-1.395.971-.18.03-.358-.082-.463-.193-.035-.036-.033-.109-.033-.109.55-.381.38-.71.1-1.005a20.348 20.348 0 00-.28-.296c-.176-.185-.314-.406-.237-.619.656-.271 1.242-.615 1.77-.132.034.037.106.039.176.113v-.001zm3.469-5.669c.313.404.09.615-.235.714-.767.376-1.532.679-2.297.982-.218.067-.542.094-.647-.017-.071-.075-.07-.146-.028-.325.203-.823 1.103-.834 1.727-1.214.367-.279.982-.369 1.48-.14m1.258 1.403c.348.441.16.761-.205.895-.875.408-1.749.745-2.659 1.116-.18.031-.432-.012-.537-.122-.07-.075-.066-.218.046-.324.92-.731 1.907-1.316 3.07-1.645l.285.08zm-4.761 1.564c.21.222.166.545-.126.681-.401.17-.95.478-1.374.178l-.07-.073c-.21-.222.12-.465.27-.678.44-.275.88-.551 1.3-.108" fill="#434242" fill-rule="nonzero"/><path d="M59.215 2.36c-.435.106-.696-.412-1.25-.349.458.563.458.563 1.25.349M56.35.709c1.05-.994 2.579-.834 3.687.336.688.726.902 1.519.174 2.286l-.04.038c-.93.879-3.127.74-4.16-.35-.453-.64-.43-1.506.218-2.195l.12-.115m30.356 27.523c-.041.038-.121.114-.2.112-.556.221-.522-1.037-.862-1.557-.301-.48-.165-1.145-.949-1.244-.665-.136-1.663.426-2.43 1.153-.444.42-.771.883-.86 1.273-.049.353.263.441.376.64.336.678 1.03 1.168 1.128 1.918-.601.416-.884-.772-1.369-.313l-.12.115c-.491.695-.315 1.446.178 2.129.454.64.949 1.244 1.444 1.847 2.744 3.22 6.766 2.779 9.712-.011l.485-.459c.284-.346.452-.735.425-1.168-.196-1.499-.911-2.66-1.905-3.709-.192-.202-.459-.484-.66-.293-.041.038-.083.155-.126.271-.089.391-.174.625-.295.739-.283.268-.499-.446-.726-.766-.226-.4-.451-.799-.714-1.239.009-.314.057-.667-.372-.796-.206.348.024.59.174.831l.025.511c-.006.237.262.519.06.71-.04.038-.081.077-.2.113-.395.068-.422-.366-.494-.603-.255-.754-.472-1.468-.767-2.183-.18-.595-.687-.727-1.164-.583-.04.039-.119.037-.159.075-.201.19.024.591.017.826.064.552.711 1.316.348 1.661m-5.464-2.94c.239-.151.518-.262.798-.451.873-.291 1.748-.66 2.662-.989l.356-.108c1.769.009 3.404.603 4.872 1.587.76.964 2.049 1.274 2.933 2.046.987 1.285 2.138 2.338 2.087 4.224-.007 1.691-.604 3.404-1.774 4.513a4.338 4.338 0 01-1.003.72l-.439.263c-.595.181-1.149.323-1.782.463l-.555.143c-.43-.052-.825.016-1.263.201-1.599-.476-3.326-.602-4.749-1.78-1.731-1.423-3.102-3.034-3.553-5.288.126-.271.054-.509-.097-.749.142-.9.128-1.805-.085-2.676.491-.695 1.06-1.387 1.591-2.119h.001z" fill-rule="nonzero"/><path d="M87.2 30.289c.283-.268.641-.454 1.032-.365.468.171.61.724.757 1.122l-.209.427c-.342-.442-.581-.291-.824-.062l-.121.114-.121.116c-.161.152-.321.226-.516.182-.183-.516-.484-.996-.119-1.419l.121-.114v-.001zm-4.602-2.838c.36-.266.514-.104.625.175.258.596.515 1.271.774 1.869.034.197.068.394-.053.51-.04.038-.081.076-.198.034-.703-.177-.721-.925-1.023-1.404a1.251 1.251 0 01-.125-1.183v-.001zm1.168-1.03c.323-.306.593-.102.703.177a17.2 17.2 0 01.885 2.147c.075.159-.008.314-.088.39-.082.077-.2.112-.236-.006a6.855 6.855 0 01-1.35-2.475l.086-.233zM85 30.23c.24-.15.434-.106.544.172.15.319.415.68.169 1.066l-.04.038c-.203.192-.392-.089-.585-.212-.227-.32-.452-.719-.088-1.064zM57.44 14.147c-.161.152-.321.227-.671.1.25-.544.46-1.05.75-1.553.208-.427.178-.782-.327-.992-1.088-.501-2.177-.924-3.356-.956-.941-.105-1.771.07-2.296.566-.283.269-.45.656-.541 1.126-.25 1.92 2.259 5.134 4.219 5.345 1.844.168 3.439-.655 4.953-1.4.159-.074.24-.15.36-.265.445-.42.465-1.128.13-1.884a1.2 1.2 0 00-.36.266l-.161.152-.121.115c-.323.306-.684.571-1.228.32-1.435-.707.398-1.601-.134-2.323-.16.074-.278.111-.4.225-.2.191-.328.542-.492.773l-.121.114-.121.116c-.04.038-.042.116-.083.154v.001zm-6.665-3.642c.606-.573 1.362-.906 2.346-.919 2.99-.076 5.645.625 7.953 2.497 1.578 1.262 1.71 2.209.758 3.953a4.82 4.82 0 01-1.062 1.465c-1.977 1.873-5.461 2.722-7.856 1.163-.58-.37-.958-.931-1.574-1.419-1.374-1.532-2.546-3.254-1.462-5.505.288-.504.535-.89.898-1.235h-.001z" fill-rule="nonzero"/><path d="M54.552 11.905c.04-.038.119-.036.197-.034.355-.029.9.142.767.728-.092.47.05 1.024-.315 1.447-.237.072-.39-.089-.465-.249a12.003 12.003 0 00-.123-1.261c-.034-.198-.223-.479-.061-.632v.001zm2.295 3.798c.24-.151.478-.224.59-.023.264.439.172.909-.074 1.295l-.08.077c-.122.114-.355.029-.389-.168-.147-.398-.33-.835-.047-1.182v.001zm-.14-3.543c.121-.114.278-.11.434-.027.233.085.227.321.104.514-.289.503-.655.926-.981 1.389l-.194-.123c-.023-.591.266-1.094.555-1.598.002-.078.042-.116.083-.154l-.001-.001zm-2.95.038l.203-.19c.3.478.602.96.198 1.341-.08.078-.241.23-.439.263-.065-.473-.405-.994.038-1.414z" fill-rule="nonzero"/></svg>