<svg viewBox="0 0 48 44" xmlns="http://www.w3.org/2000/svg" fill-rule="evenodd" clip-rule="evenodd" stroke-linejoin="round" stroke-miterlimit="2"><path d="M2.738 5.835C1.56 5.479.455 4.963.338 3.475c-.082-.892.189-1.581.997-2.095C2.83.422 4.388-.033 6.182.216 7.358.394 7.72.827 7.794 2.022c.118 1.846-1.68 4.15-3.8 4.064-.404-.012-.793-.172-1.256-.251m-.692-4.076C1.206 2.11.804 2.814 1.1 3.484c.463 1.076 2.722 1.941 3.804 1.454 1.02-.454 1.56-1.374 2.135-2.234.28-.457.057-.929-.41-1.265-.215.4-.111.94-.716 1-.945.091-.277-.921-.784-1.115-.216.22-.147.521-.142.777-.077.182-.002.46-.363.562-.042-.395-.08-.712-.095-1.022-.015-.311-.117-.493-.464-.438-.72.105-1.384.198-2.021.556z" fill-rule="nonzero"/><path d="M3.421 3.039c-.125-.188-.268-.407-.417-.603-.092-.127-.393-.237-.144-.397.158-.108.52-.212.628.126.07.3.337.528.267.866-.104.099-.222.066-.334.009v-.001zm1.697.325c.063-.136.174-.258.286-.2.288.157.363.433.36.714.009.155-.153.187-.282.098-.187-.153-.396-.315-.364-.612zm-.958-.678c-.194-.31-.178-.638-.21-.979-.014-.131.049-.266.204-.275.179 0 .247.121.237.246-.022.352-.061.672-.077 1l-.154.008zm-1.65-.311c.383.184.759.392.339.887-.184-.256-.614-.453-.338-.887m22.464 26.439c-.208.197-.483-.008-.776.216.443.15.443.15.776-.216M23 28.846c.233-.828 1.085-1.226 2.008-.968.545.154.91.487.778 1.139l-.006.022c-.207.734-1.376 1.349-2.244 1.08-.437-.174-.668-.622-.562-1.18l.026-.095v.002zm-3.65 11.433a.183.183 0 01-.075.081c-.104.099-.209.018-.307-.086-.332-.272-.688-.552-1.013-.847-.749-.696-.88-.681-1.624.054-.276.254-.41.549-.496.857a1.164 1.164 0 00-.056.29l.065.222c.196 1.026.736 1.74 1.798 1.961.936.213 1.847.239 2.74-.122.718-.283 1.51-1.006 1.755-1.882.133-.472.101-.993-.182-1.532-.04-.216-.157-.35-.413-.346.058.246.066.402.04.496-.034.119-.176.079-.5-.038-.096-.027-.176-.101-.21.018 0 0-.007.022-.013.048a.707.707 0 01-.012.226c-.027.095-.087.128-.253.082-.23-.089-.308-.265-.306-.545.033-.936-.177-1.097-1.09-.843-.007.202.348.302.281.539-.006.022-.019.071-.063.135l-.024-.008.024.008c-.024-.008-.024-.008-.03.017-.338-.069-.53-.38-.783-.577-.227-.191-.483-.187-.614.006l-.033.118c-.046.166.166.226.325.296.555.207.638.817 1.022 1.181.064.044.068.121.047.192v-.001zm-4.16-.098c.226-.804.794-1.462 1.481-1.907.882-.594 1.853-.959 2.957-.98 1.04-.066 2.023.16 2.765.88.72.712.926 1.792.653 2.762a3.092 3.092 0 01-1.255 1.74c-1.343.874-2.788 1.106-4.062.825-2.089-.563-2.934-1.643-2.579-3.177l.04-.143z" fill-rule="nonzero"/><path d="M17.003 39.365c.013-.048.044-.064.104-.099l.196.03c.319.319.638.638.95.982l.024.186c-.057.111-.158.108-.323.061-.345-.225-.712-.557-.92-.999-.034-.06-.044-.114-.031-.162v.001zm2.731 1.456c.07-.159.174-.258.232-.189.204.184.54.253.587.547.017.03.01.054.003.078-.026.094-.158.108-.276.075-.254-.097-.464-.258-.546-.511m-3.954-.192c.71-.26.735.742 1.363.689-.604.24-.92-.181-1.299-.466l-.065-.223zm3.612-1.589l.024.008c.293-.224.393.059.555.207.041.038.075.097.055.169a.196.196 0 01-.075.081c-.175.078-.247-.121-.382-.185-.106-.079-.187-.154-.153-.272l-.024-.008zm1.55.845c.02-.071.091-.051.145-.062.094.027.152.094.173.203-.007.021-.013.047-.013.047-.019.072-.09.051-.12.068-.12-.033-.184-.076-.198-.208l.013-.048zm24.176 1.106c.187-.663 1.026-1.014 1.884-.798.646.156.685.652.6 1.139-.127.629-1.15 1.182-1.79 1.003-.662-.186-.9-.611-.694-1.344m.988.481c.166.047.372.131.48-.069.12-.247-.154-.272-.259-.353-.2-.108-.375-.029-.452.154-.1.175.113.235.231.268" fill-rule="nonzero"/></svg>