<svg viewBox="0 0 62 113" xmlns="http://www.w3.org/2000/svg" fill-rule="evenodd" clip-rule="evenodd" stroke-linejoin="round" stroke-miterlimit="2"><path d="M58.8 22.47a3.875 3.875 0 00-.606-.457c-.377-.229-1.338-.499-2.132-.601a7.968 7.968 0 01-2.774-.912c-3.081-1.683-5.28-2.276-6.92-1.868-1.088.272-3.092 1.415-4.131 2.358-1.46 1.325-2.78 1.429-5.48.431-4.733-1.746-9.044-1.221-12.902 1.572-.808.585-1.558 1.38-3.09 3.277-2.158 2.676-2.483 3.289-3.134 5.981-.212.877-.456 1.303-1.461 2.562-1.11 1.387-1.407 1.638-3.691 3.104-2.95 1.889-3.714 2.716-4.041 4.36-.384 1.939.11 3.671 2.013 7.051a23.902 23.902 0 003.494 4.709c2.373 2.793 5.696 2.483 8.326 1.909 1.494-.331 2.577-.432 3.18-.291.506.116 1.662.395 2.57.617 2.185.539 4.579.237 6.666-.838 1.839-.947 2.692-1.645 4.834-3.947 2.614-2.815 3.747-3.499 6.55-3.962 2.376-.393 3.167-.853 4.578-2.673 1.268-1.639 1.634-2.465 2.722-6.189 1.103-3.77 1.835-4.931 5.074-8.052 2.392-2.307 2.419-2.337 2.579-3.135.278-1.371-.838-3.763-2.223-5.006m-.883-.004c.156.144.342.342.59.602 1.176 1.235 1.988 2.97 1.908 4.081-.06.844 0 .775-3.263 3.782-2.672 2.461-3.506 3.99-4.894 8.955-.936 3.346-2.397 5.663-4.096 6.482-.347.169-1.413.439-2.37.604-2.633.452-3.767 1.139-6.358 3.845-2.503 2.616-3.95 3.689-5.907 4.391-2.245.804-4.427.895-6.98.293-2.023-.477-2.47-.488-5.042-.121-1.554.221-3.26.31-3.791.201-3.271-.673-8.544-8.192-8.58-12.236-.021-2.18.403-2.671 4.423-5.113 4.008-2.437 4.663-3.209 5.463-6.447.644-2.602 1.21-3.778 2.76-5.717 2.697-3.375 5.339-4.805 9.156-4.961 1.734-.071 4.465.389 5.79.974 1.188.524 2.54.764 3.447.609.352-.06 1.506-.708 2.565-1.44 2.272-1.573 2.532-1.705 3.92-1.965 1.473-.279 2.228-.072 5.296 1.451 3.047 1.512 3.168 1.55 4.547 1.398.758-.083.949-.102 1.416.332M36.487 4.38l-1.822 1.248c-2.416 1.653-9.152 6.945-9.274 7.284-.05.15.13.594.407.992.274.397.937 1.125 1.472 1.618 1.23 1.134 1.612 1.105 3.263-.261a522.2 522.2 0 014.318-3.493c1.699-1.361 3.329-2.777 3.622-3.143.52-.653.519-.692.025-1.689-.28-.561-.846-1.367-1.26-1.79l-.751-.766zm.086.566l-.001.001c.206.231 1.176 2.207 1.206 2.484.012.142-.61.391-1.422.567-.796.175-1.443.402-1.44.506.005.105.628.114 1.386.019.759-.096 1.38-.111 1.384-.034.006.134-.993.989-3.234 2.766-.803.639-1.265.854-1.873.874-1.012.034-2.848.485-2.84.697.003.088.693.072 1.532-.034 1.657-.21 1.812.091.212.41-1.586.317-2.824.717-2.664.86.08.073.532.053 1-.043 1.64-.333 1.394.242-.351.823-.94.314-1.191.613-.427.51.239-.031.295.01.185.146-.084.105-.35.217-.591.248-.423.058-1.43-.709-2.014-1.53-.828-1.164-.812-1.074-.256-1.559.29-.25 1.232-.987 2.097-1.639.865-.651 2.118-1.602 2.786-2.114 2.992-2.289 5.224-3.968 5.29-3.979.003-.001.015.009.032.022l.003-.001zm21.999 20.403c-.127-.068-.837.123-1.955.531-2.564.938-2.845.867-8.316-2.08-.744-.4-1.414-.654-1.488-.562-.074.092.012.228.194.304.18.077 1.274.714 2.432 1.42 1.155.706 2.48 1.432 2.944 1.612.95.372 1.063.575.403.725-.248.057-1.848.624-3.554 1.259-3.304 1.228-5.34 1.582-7.808 1.351-1.482-.139-2.687-.506-8.298-2.534-4.256-1.537-5.358-1.868-6.714-2.012-1.664-.176-1.242.08.898.541 1.122.243 3.899 1.168 6.173 2.058 4.386 1.715 6.838 2.438 8.642 2.55.61.038 1.108.115 1.11.171.002.056-1.891.935-4.204 1.954-5.435 2.394-9.197 4.589-14.026 8.182-.724.54-1.99 1.479-2.811 2.089-1.595 1.184-5.946 4.714-7.003 5.68-.35.32-.786.691-.968.824-.194.142-.24.254-.107.27.294.035 2.685-1.676 5.12-3.663 4.404-3.593 12.819-9.3 16.383-11.108 3.025-1.535 7.144-3.256 7.353-3.071.086.076-.001.192-.23.297-.51.245-2.196 1.812-3.667 3.41-1.627 1.77-2.891 3.847-4.917 8.071-.912 1.897-2.418 4.775-3.35 6.393-.928 1.619-1.69 3-1.687 3.067.002.068.53-.535 1.172-1.338 1.188-1.489 3.092-4.859 5.086-9.004 1.498-3.116 3.206-5.635 5.215-7.688 1.593-1.63 2.406-2.339 4.409-3.85.685-.516 4.51-2.124 8.289-3.485.402-.144.296.164-.621 1.824-.873 1.582-1.681 3.6-2.551 6.375-1.046 3.342-.657 3.076.494-.338.893-2.648 1.703-4.562 2.832-6.692.869-1.64 1.028-1.765 3.539-2.763.834-.333 1.545-.64 1.58-.682.03-.046.035-.071.009-.087l-.002-.001zM36.02 9.364c-.215-.129-3.548.399-3.841.617-.11.082.714.014 1.829-.149 1.116-.166 2.027-.368 2.022-.454 0-.003-.003-.009-.011-.014zm-1.934 1.437l-.002.002c-.341-.267-3.002.151-3.842.635-.1.061.28.103.85.097 1.117-.011 3.037-.436 3.027-.669a.103.103 0 00-.032-.068l-.001.003zm16.275 19.581c-.081-.073-.24-.013-.354.131-.116.145-.106.274.019.29.125.014.286-.045.355-.133a.213.213 0 00-.02-.288m-.873.601c-.03-.005-.123.085-.262.254-.222.275-.301.433-.171.357.13-.079.314-.302.408-.499.034-.074.042-.108.024-.114v.002zm.418.909l-.002.002a.077.077 0 00-.035-.014c-.135.019-.691.532-1.237 1.14-1.012 1.131-.817 1.016.655-.386.416-.395.657-.689.617-.745l.002.003zm-.943 1.918c-.022-.007-.07.019-.15.074-.248.173-.874.844-1.39 1.49-.66.826-.805 1.079-.487.858.249-.173.874-.844 1.389-1.49.495-.618.7-.916.64-.933l-.002.001zm-7.54-6.37c-.054-.065-.211-.024-.38.102-.186.146-.288.312-.222.37.17.153.682-.21.62-.441-.004-.01-.01-.026-.015-.035l-.002.004zm-.773-.54c-.087-.076-.2-.086-.26-.016a5.422 5.422 0 01-.526.462c-.29.231-.335.328-.143.306.44-.054 1.104-.59.93-.751l-.001-.001zm-1.303-.3c-.074-.065-.19-.047-.257.036-.066.086-.27.247-.455.361-.21.129-.242.215-.09.235.317.035.97-.478.804-.631l-.002-.001zm-.684-.344l-.001.001c-.132-.077-.634.155-.841.42-.115.146.027.154.34.015.295-.133.533-.304.53-.382a.089.089 0 00-.027-.056l-.001.002zm-4.974-4.007c-.012-.021-.044-.043-.105-.057-.458-.152-3.454.629-3.728.972-.174.216.13.171 1.304-.194.689-.216 1.592-.453 2.005-.529.385-.069.558-.131.523-.19v-.002zm4.027 3.614l-.611.133c-.335.074-.708.252-.825.401-.274.342.11.259.858-.188l.578-.346zm-3.404-2.771c-.041-.019-.245-.004-.64.029-1.032.088-2.43.632-3.141 1.222-.348.29.009.217 1.184-.238.925-.36 1.944-.745 2.26-.858.259-.091.379-.14.337-.157v.002zm2.215 2.428c-.143-.126-1.34.367-1.561.643-.203.254-.183.25.854-.195.448-.192.766-.393.707-.448m-1.214-.487c-.128-.086-1.124.223-1.295.438-.103.126-.154.262-.115.295.087.081 1.272-.485 1.408-.669.023-.03.023-.049.005-.06l-.003-.004zM47.766 36.31c-.021-.015-.268.268-.674.776-.591.736-.823 1.082-.516.767a11.9 11.9 0 001.072-1.341c.089-.132.125-.198.118-.201v-.001zm-13.98-11.798c-.113-.101-.932.107-1.694.43-.152.063-.216.166-.145.231.07.065.542-.033 1.048-.216.505-.181.862-.38.79-.442l.002-.003zM5.697.951l-2.18.303c-1.2.167-2.294.444-2.43.613-.366.46-.11 3.226.492 5.248.846 2.854 2.43 6.396 3.55 7.942.71.978 1.384 1.47 1.617 1.178.105-.133.028-.498-.173-.811-.351-.545-.345-.576.15-.736.88-.285.828-.533-.073-.337-.847.184-.86.179-1.38-.618-.285-.44-.505-.893-.486-1.005.02-.11.426-.331.902-.493.475-.164.917-.359.98-.439.233-.292-.135-.342-.727-.097-.336.138-.834.272-1.105.292-.46.038-.516-.017-.857-.829-.203-.478-.295-.956-.21-1.063.085-.106.498-.271.919-.368 1.22-.276 1.126-.506-.101-.253-.613.125-1.154.244-1.204.261-.05.018-.113-.149-.143-.37-.046-.348.118-.451 1.208-.753 1.216-.341 1.823-.807.683-.527-.31.076-.927.221-1.371.32l-.808.185-.41-1.041c-.225-.573-.344-1.124-.264-1.223.078-.101.513-.223.967-.273 1.234-.137 1.238-.417.003-.318-1.19.095-1.27.063-1.388-.566-.08-.411-.037-.447.61-.511 1.039-.105 1.079-.386.058-.395-1.224-.01-1.243-.53-.035-.868 1.034-.289.969-.494-.118-.372-.633.07-.77.016-.814-.327-.048-.367.015-.438.583-.672.35-.145 1.21-.334 1.914-.423l1.279-.161.687 2.276c.932 3.08 2.862 7.464 3.92 8.911.505.687.265 1.182-1.08 2.232-.573.446-1.177.981-1.344 1.189-.291.366-.284.376.216.34.598-.048 1.862-1.06 2.808-2.244.647-.808.65-.824.236-1.626-.23-.444-.612-1.13-.847-1.523-.836-1.391-1.88-3.747-3.047-6.88L5.697.951zM46.33 40.612c-.034.009-.333.355-.815.958-.701.877-.962 1.257-.581.846.38-.411.954-1.129 1.275-1.593.098-.146.137-.212.12-.209v-.002zm-.604 2.003c-.01-.028-.084.011-.215.101-.248.172-.73.65-1.067 1.058-.446.537-.521.71-.271.622.19-.07.67-.548 1.068-1.06.35-.45.505-.675.489-.72l-.004-.001zM4.925 7.001c-.096-.037-.506.02-.993.13-.554.126-.943.288-.861.36.165.147 1.883-.286 1.874-.471 0-.003-.012-.014-.022-.019h.002zM36.55 36.276c-.05-.063-.248-.029-.484.085-.466.226-.465.233.009.182.27-.03.49-.137.486-.237a.027.027 0 00-.012-.03zM6.456 10.221c-.161-.145-1.863.41-2.076.676-.314.394.076.391 1.07-.006 1.1-.442 1.194-.503 1.006-.67m38.75 34.606c-.017-.016-.046-.023-.096-.011-.143.022-.628.424-1.08.893l-.818.849.738-.491c.749-.498 1.372-1.13 1.256-1.239v-.001zm-9.035-7.466c-.13-.117-1.171.047-2.552.41-1.072.281-.37.306 1.154.04.78-.136 1.416-.326 1.41-.424.002-.007-.004-.017-.008-.025l-.004-.001zM7.275 12.749c-.163-.079-1.424.379-1.6.597-.057.077-.003.149.123.165.319.036 1.503-.546 1.494-.737 0-.008-.006-.013-.021-.015l.004-.01zM35.094 38.61c-.21-.143-3.324.387-3.903.677-.228.115.56.051 1.754-.143 1.194-.194 2.165-.425 2.16-.516-.001-.005-.003-.011-.018-.017l.007-.001zm-1.068 1.462c-.314-.123-5.186.561-5.524.79-.118.082.376.096 1.1.031 2.032-.179 4.445-.619 4.438-.806a.038.038 0 00-.017-.018l.003.003zm-3.621 1.733a.088.088 0 00-.044-.018c-.58-.116-3.497.358-4.152.676-.52.251-.52.252.027.167 2.644-.404 4.27-.728 4.168-.827v.002zm-2.011 1.273c-.08-.034-.338-.016-.677.058-1.796.382-3.071.703-3.665.924-.345.129-.591.265-.545.305.132.117 4.759-1.046 4.9-1.233.02-.023.013-.043-.015-.053l.002-.001zm-2.122 1.455c-.053-.049-.517.057-1.447.361-1.32.43-3.013 1.178-3.204 1.417-.138.172-.087.159 2.468-.781 1.473-.543 2.262-.929 2.183-.995v-.002zm18.777 19.741c-3.445-3.07-4.08-3.45-8.435-5.064-3.36-1.247-3.806-1.346-5.278-1.177-1.35.155-2.81.992-5.236 3.001-5.383 4.462-8.211 11.179-7.115 16.903.673 3.52 1.19 4.58 3.608 7.394.985 1.147 1.833 2.351 2.239 3.182.36.737.97 1.717 1.358 2.181 3.665 4.377 8.16 5.73 13.138 3.952 4.7-1.679 9.189-5.454 10.576-8.89.989-2.453 1.779-6.551 1.535-7.978-.142-.838-1.1-2.616-1.691-3.143-.138-.123-.214-.599-.17-1.057.047-.457.065-1.535.038-2.394-.232-3.437-3.008-5.519-4.567-6.91m.537.979c2.122 1.955 4.61 5.016 3.499 8.052-.313.769-.228 1.086.787 2.889.936 1.665 1.01 2.725.363 5.204-.653 2.495-1.25 3.498-3.45 5.796-2.99 3.125-5.701 4.912-8.63 5.69-2.66.707-5.936.421-8.145-.711-1.263-.648-2.8-1.757-3.41-2.463-.216-.247-1.137-1.49-2.05-2.758-.911-1.27-2.098-2.836-2.636-3.482-1.182-1.417-1.486-2.12-2.125-4.899-.985-4.285-.277-8.039 2.299-12.173 2.61-4.192 7.772-8.219 10.257-8.002.82.071 2.98.759 5.686 1.807 2.11.821 2.533 1.068 5.013 2.956.959.731 1.808 1.43 2.54 2.095l.002-.001zM23.372 47.115c-.017-.016-.036-.024-.051-.047-.163-.144-3.134 1.347-3.434 1.722-.134.169.592-.108 1.616-.615 1.819-.904 1.967-.967 1.87-1.063l-.001.003zm20.476 21.274h-.001c-.165-.146-.351-.312-.563-.498l-1.762-1.552-3.228-1.128c-4.1-1.432-4.908-1.646-5.824-1.544-2.712.299-6.476 3.731-8.14 7.42-1.531 3.397-1.903 6.358-1.05 8.364.64 1.509 1.092 2.125 3.058 4.186 1.006 1.055 2.035 2.297 2.286 2.757.68 1.251 2.472 2.635 3.78 2.922 3.495.767 9.14-1.337 12.202-4.547.774-.81 1.05-1.275 1.682-2.799.937-2.279.959-3.799.076-5.289-.482-.811-.57-1.276-.556-2.898.01-1.085-.153-2.459-.371-3.136-.325-1.013-.434-1.225-1.59-2.258m-1.05-.396c.367.358-.227.306-1.512-.184-2.171-.824-2.33-.92-2.076-1.237.127-.16.337-.165.509-.012.16.144.344.197.409.115.125-.158 1.265.351 2.26 1.006.19.128.327.23.41.312m-21.23-18.751c-.123-.112-2.293 1.26-2.598 1.64-.21.264.443-.027 1.205-.535a32.057 32.057 0 011.206-.771c.205-.116.28-.252.189-.334h-.002zm22.139 20.273l-.001.001c1.133 1.012 1.472 2.403 1.407 4.567-.052 1.729.15 2.588.735 3.108.56.5.628 2.305.145 3.932-.802 2.719-3.33 5.171-7.062 6.849-1.788.804-5.106 1.268-6.435.901-1.388-.385-2.841-1.572-3.543-2.89-.301-.57-.94-1.392-1.417-1.829-2.08-1.899-3.67-4.466-3.965-6.402-.346-2.254.985-6.307 2.828-8.613.92-1.151 1.234-1.41 2.478-2.05.784-.403 2.044-.85 2.8-.994 1.355-.255 3.31-.015 3.859.473.155.136 1.532.536 3.058.885 2.498.573 4.113 1.169 5.113 2.06v.002zM38.79 66.1l-.001.002c.095.066.119.242.059.416-.097.265-.172.282-.274.072-.096-.201-.225-.191-.402.029-.143.179-.432.294-.642.255-.588-.11-2.442-1.031-2.45-1.219-.004-.092.149-.36.345-.595.32-.393.346-.389.31.037-.053.606.074.705.296.237.146-.311.374-.284 1.329.148a27.042 27.042 0 001.43.621V66.1zM20.979 50.724c-.043-.01-.213.044-.468.162a5.977 5.977 0 00-1.335.893c-.647.611-.563 1.004.094.441.226-.192.613-.527.859-.741.248-.214.602-.513.788-.662.069-.056.084-.087.062-.093m13.996 13.912c.13.116-.007.669-.24.96-.142.179-.361.025-.373-.263-.012-.294.462-.832.613-.697m-.867-.356c.046.022.065.132.049.327-.024.284-.096.578-.156.653-.191.239-.372-.084-.245-.44.14-.389.28-.58.352-.54M20.296 52.42c-.08-.072-.353.072-.61.317-.258.245-.412.495-.346.553.065.059.205 0 .31-.13.106-.131.326-.321.49-.423.166-.103.238-.244.157-.315l-.001-.002zm13.118 11.689c.042.043.066.128.07.263.008.175-.155.474-.361.665l-.375.344.173-.638c.134-.504.368-.765.49-.635l.003.001zm-1.09.434c.026.025.035.073.04.134.005.096-.157.328-.36.518l-.366.342.192-.494c.157-.393.4-.616.495-.5m-1.111.262c.026.021.04.077.042.165.007.178-.112.433-.266.564-.36.312-.375-.105-.02-.55.123-.155.2-.211.242-.18l.002.001zm-.82.346c.209.183-.666 1.081-1.111 1.141-.242.031-.457.045-.477.029-.021-.017.305-.311.72-.652.416-.34.807-.574.869-.518M49.95 84.439l-.308.875c-.17.481-.633 1.395-1.04 2.031h.002c-.403.638-.812 1.149-.907 1.137-.291-.033-.104-.545.512-1.393a40.53 40.53 0 001.163-1.729l.578-.921zm7.41 9.205c-2.024-1.805-2.19-1.912-3.735-2.431-1.773-.592-4-.863-4.513-.546-.206.129-.294.372-.238.664.11.591 1.954 7.423 3.035 11.249.459 1.623.986 3.589 1.17 4.369.185.781.405 1.412.488 1.4.084-.01.145-.072.139-.133-.04-.357-1.688-6.885-2.54-10.061-1.117-4.163-1.12-4.155 1.015-2.583 1.446 1.065 2.745 2.741 3.39 4.371.613 1.553.754 4.02.328 5.687-.342 1.332-.283 1.655.15.826 1.523-2.918 2.449-4.879 2.574-5.441l.148-.677-.315.581a58.09 58.09 0 00-1.01 2.071c-.38.819-.755 1.497-.833 1.506-.293.04.075-1.256.763-2.69 1.287-2.682 1.775-3.858 1.64-3.979-.076-.067-.22.122-.334.445-.11.311-.53 1.197-.928 1.974-.4.776-.771 1.597-.827 1.825-.14.572-.186.485-.637-1.19-.597-2.218-1.793-4.025-3.603-5.449-.803-.632-1.733-1.233-2.067-1.337-.55-.17-.647-.311-1.036-1.523a40.441 40.441 0 01-.447-1.444c-.045-.294 1.7-.326 2.742-.05 3.848 1.026 6.61 3.457 8.019 7.06.905 2.317.849 5.018-.173 8.119-.392 1.192-.67 1.671-1.794 3.098-.733.926-1.691 2.011-2.131 2.409-.71.637-.757.718-.41.706.775-.027 2.345-1.337 3.349-2.796.96-1.396 2.04-3.842 2.252-5.098.539-3.236.325-5.13-.877-7.689-.587-1.25-.787-1.486-2.75-3.238l-.003-.005zm.337 2.388c-.091-.112-.342.291-.74 1.19-.283.65-.476 1.219-.423 1.266.109.097 1.209-2.011 1.198-2.296-.003-.081-.016-.135-.035-.16m-10.281-8.394l-.03.65c-.016.359-.174.834-.35 1.055-.175.22-.375.351-.443.291-.171-.153.162-1.192.52-1.632l.303-.364zm10.81 9.808c-.001-.003-.006-.005-.008-.004-.055.008-.417.637-.803 1.398-.387.759-.573 1.275-.414 1.14.282-.239 1.333-2.42 1.23-2.533l-.005-.001zm-12.118-8.517c.134.128.127.569-.04 1.029-.321.889-.7.709-.441-.214.129-.46.294-.844.367-.854a.139.139 0 01.116.038l-.002.001zm-1.25 1.161c.092.092.134.359.065.656-.175.74-.54.858-.451.147.04-.344.122-.683.18-.755.079-.098.15-.104.207-.046l-.001-.002zm-.882.578l-.05.68-.048.68-1.158.689c-1.582.94-3.497 1.713-4.977 2.011-.677.138-1.661.255-2.184.261-.924.01-.95-.004-.866-.481.119-.699.533-.793.59-.134.052.579.314.45.289-.14-.021-.558.617-.585.69-.029.033.259.107.349.195.239a.538.538 0 00.08-.413c-.036-.129.634-.404 1.504-.617 1.503-.368 3.989-1.457 5.305-2.33l.63-.416zm14.08 13.446c-.007-.013-.028-.005-.065.039-.46.546-1.404 2.275-1.711 3.134-.411 1.159.09.433 1.095-1.588.443-.887.706-1.51.682-1.585h-.001zm-.496 2.858c-.022-.018-.083.027-.183.143-.146.171-.193.301-.1.289.093-.012.214-.154.267-.313.024-.067.025-.105.016-.119m-.51.941c-.08-.071-.244.167-.407.632-.135.386-.13.391.162.14.168-.145.297-.413.289-.591-.006-.097-.02-.156-.047-.18l.004-.001zM34.19 93.887c.246.251.277.945-.01 1.057-.363.14-.583-.186-.49-.729.072-.419.137-.486.382-.405a.29.29 0 01.118.078v-.001zm-1.012-.104c.079.06.13.21.14.453.02.492-.156.664-.427.424-.125-.11-.5-.258-.84-.325-.541-.109-.612-.172-.595-.531.015-.335.073-.358.328-.13.17.152.379.191.46.091.082-.102.212-.056.29.103.087.179.219.197.338.047.12-.15.226-.19.307-.134l-.001.002zm-2.271-.557l-.001.002c.01.006.02.023.028.044a.62.62 0 01.019.47c-.155.381-.404.05-.262-.346.064-.188.146-.245.214-.166l.002-.004zm-.94-.279c.15.134.21.273.13.373-.073.091-.376-.058-.67-.338-.43-.401-.458-.476-.132-.382.283.081.524.209.673.343v.004z" fill-rule="nonzero"/></svg>