<svg viewBox="0 0 170 164" xmlns="http://www.w3.org/2000/svg" fill-rule="evenodd" clip-rule="evenodd" stroke-linejoin="round" stroke-miterlimit="2"><path d="M129.82 150.704c.061-.008.122.08.182.287.095.33.189.973.286 1.611.097.639.199 1.273.243 1.666.043.393.028.542-.031.64-.061.097-.165.142-.384.175-.22.033-.552.054-.75.024-.198-.031-.263-.114-.277-.225-.015-.111.019-.25.083-.788.063-.539.156-1.477.251-2.123.093-.645.189-.999.287-1.165.036-.062.073-.099.11-.102zm-.471-3.776a.79.79 0 00-.464.103c-.412.231-.819.866-1.125 1.699-.305.833-.509 1.864-.668 3.118-.159 1.254-.273 2.731-.385 3.894-.113 1.163-.223 2.011-.271 2.676-.048.666-.033 1.148.069 1.556.102.407.291.74.515.927a.938.938 0 00.732.201c.246-.028.476-.127.684-.448.208-.321.395-.863.51-1.455.115-.592.16-1.233.22-1.59.06-.356.134-.428.357-.468.224-.038.596-.044.862-.007.267.039.429.123.499.361.071.238.05.631.121 1.06.07.428.232.893.418 1.275.186.384.397.686.649.764.251.079.544-.065.729-.234.187-.168.268-.361.294-.685.028-.325.001-.781-.003-1.588-.003-.806.014-1.963-.102-3.126a18.85 18.85 0 00-.69-3.416c-.32-1.084-.709-2.086-1.083-2.805-.373-.719-.729-1.157-1.116-1.462-.242-.191-.495-.33-.752-.352v.002zm-98.996-27.835c.043 0 .088.029.135.077.094.097.194.28.273.468.079.188.137.38.44.968.302.588.848 1.571 1.47 2.466a22.551 22.551 0 001.758 2.178c.434.479.604.631.687.771.082.14.078.267-.01.377-.086.111-.255.204-.588.246-.333.043-.83.034-1.367-.014-.538-.049-1.118-.138-1.657-.441-.538-.304-1.034-.821-1.356-1.42-.322-.6-.471-1.282-.463-2.133.008-.85.17-1.868.288-2.494.117-.626.187-.86.266-.97.039-.056.08-.08.124-.079m46.794-35.192c.09.001.206.008.367.012a5.77 5.77 0 011.37.207 5.396 5.396 0 011.635.816c.486.363.864.795 1.145 1.305.283.511.47 1.101.512 1.615.041.515-.06.957-.16 1.187-.1.231-.197.252-.374.08-.178-.172-.437-.536-.88-1.111-.443-.574-1.07-1.357-1.78-2.059-.71-.702-1.502-1.32-1.861-1.65-.36-.33-.287-.37-.18-.389.055-.009.117-.013.207-.013zm-18.476-2.525c1.745.014 3.643.186 5.498.641 1.856.455 3.67 1.193 5.505 2.197 1.834 1.004 3.69 2.276 5.228 3.636 1.539 1.361 2.76 2.81 3.773 4.556 1.013 1.746 1.818 3.789 2.424 5.806.605 2.017 1.012 4.009 1.09 6.092.077 2.084-.175 4.26-.71 6.509-.532 2.249-1.346 4.571-2.304 6.486a17.942 17.942 0 01-3.518 4.878c-1.457 1.454-3.271 2.853-5.09 4.094-1.818 1.242-3.64 2.327-5.48 3.128a23.339 23.339 0 01-5.339 1.597c-1.645.28-3.077.323-4.624.229a27.996 27.996 0 01-4.81-.707c-1.602-.386-3.145-.928-4.712-1.751-1.569-.821-3.162-1.924-4.76-3.258-1.598-1.335-3.2-2.903-4.484-4.802-1.284-1.899-2.25-4.128-2.92-6.362a27.89 27.89 0 01-1.149-6.691c-.105-2.221.056-4.425.696-6.73.64-2.305 1.76-4.712 2.988-6.755 1.23-2.043 2.568-3.721 4.23-5.289a32.09 32.09 0 015.331-4.031c1.687-1.004 3.076-1.555 4.394-2.012 1.318-.458 2.565-.823 3.984-1.077a25.895 25.895 0 014.758-.384m-.968-4.015c-.658.009-1.327.046-2.023.114-1.856.182-3.908.59-5.865 1.217-1.958.627-3.823 1.474-5.709 2.529-1.885 1.056-3.793 2.319-5.344 3.578-1.55 1.258-2.746 2.513-3.928 3.907-1.183 1.394-2.353 2.929-3.327 4.67-.975 1.742-1.755 3.692-2.343 5.683a31.497 31.497 0 00-1.17 5.993 29.51 29.51 0 00.002 5.441c.15 1.577.418 2.831.675 3.702.258.872.506 1.359.608 1.671.102.311.056.446-.149.695-.205.249-.57.612-.924 1.041-.354.43-.695.928-.978 1.581a9.322 9.322 0 00-.63 2.281c-.12.817-.14 1.645-.066 2.478.073.833.238 1.672.59 2.401.35.728.886 1.345 1.556 1.887a7.276 7.276 0 002.34 1.286c.868.276 1.8.359 2.714.317a12.767 12.767 0 002.512-.388c.703-.178 1.213-.367 1.572-.413.36-.046.57.049.89.304.317.255.746.668 1.62 1.237.873.57 2.192 1.295 3.575 1.913a25.453 25.453 0 004.32 1.491c1.49.364 3.02.582 4.393.724 1.372.143 2.586.209 3.865.171a34.03 34.03 0 003.808-.35 24.526 24.526 0 003.433-.731 33.442 33.442 0 004.191-1.533 37.46 37.46 0 004.43-2.334 24.604 24.604 0 003.493-2.614A39.173 39.173 0 0079 124.114c.985-1.11 1.856-2.213 2.633-3.41a27.902 27.902 0 002.046-3.812 35.351 35.351 0 001.53-4.109c.436-1.43.811-2.938 1.041-4.346.231-1.408.318-2.718.284-4.094a28.703 28.703 0 00-.47-4.37c-.28-1.554-.686-3.22-1.14-4.513-.456-1.293-.962-2.211-1.208-2.719-.246-.507-.232-.6-.077-.831.154-.231.448-.599.725-1.129a6.437 6.437 0 00.646-1.924c.108-.701.063-1.411-.165-2.233-.228-.821-.638-1.753-1.18-2.475-.543-.722-1.217-1.235-1.899-1.638a7.298 7.298 0 00-2.207-.881 10.32 10.32 0 00-2.699-.208c-.879.051-1.656.228-2.132.317-.476.09-.653.093-1.084-.161-.43-.254-1.116-.765-2.332-1.334-1.215-.569-2.96-1.196-4.792-1.684a37.864 37.864 0 00-5.535-1.03 26.34 26.34 0 00-3.282-.168v-.001z" fill-rule="nonzero"/><path d="M59.028 80.556c.559.008 1.117.036 1.69.098 1.53.166 3.175.555 4.772 1.034 1.598.479 3.149 1.047 4.726 1.827 1.576.779 3.178 1.771 4.678 3.063 1.5 1.293 2.899 2.887 4.073 4.595a23.266 23.266 0 012.831 5.556c.708 2.025 1.174 4.254 1.313 6.318.141 2.064-.046 3.963-.449 6.005-.402 2.043-1.021 4.23-1.903 6.255-.881 2.026-2.025 3.891-3.445 5.748-1.42 1.855-3.115 3.703-4.78 5.102-1.666 1.399-3.301 2.348-5.115 3.208-1.814.86-3.806 1.631-5.777 2.128-1.97.495-3.92.716-5.954.711-2.035-.007-4.153-.233-6.128-.737-1.975-.504-3.806-1.284-5.336-2.021-1.529-.738-2.758-1.433-4.161-2.547a28.777 28.777 0 01-4.175-4.12c-1.195-1.47-2.008-2.877-2.776-4.386-.767-1.508-1.487-3.119-1.907-4.95-.419-1.831-.538-3.882-.491-5.853.046-1.97.258-3.86.618-5.59a23.163 23.163 0 011.585-4.886 31.589 31.589 0 012.59-4.602 28.453 28.453 0 013.004-3.734c1.081-1.136 2.268-2.212 3.708-3.191 1.441-.979 3.137-1.861 4.609-2.547 1.473-.687 2.723-1.178 4.275-1.551 1.55-.373 3.403-.627 5.036-.784a27.278 27.278 0 012.889-.149m-.677-2.361a27.026 27.026 0 00-3.474.239 27.926 27.926 0 00-4.254.949c-1.343.403-2.622.87-3.856 1.413a34.105 34.105 0 00-3.422 1.745 23.472 23.472 0 00-2.688 1.816 42.509 42.509 0 00-2.63 2.255c-.847.782-1.624 1.549-2.277 2.317-.653.767-1.183 1.534-1.732 2.317-.548.784-1.115 1.584-1.672 2.591-.557 1.007-1.106 2.221-1.566 3.375a28.55 28.55 0 00-1.125 3.368 25.042 25.042 0 00-.643 3.393 27.805 27.805 0 00-.178 3.469c.006 1.24.069 2.619.224 3.948.156 1.33.405 2.609.718 3.79a26.06 26.06 0 001.099 3.25c.407.987.844 1.88 1.402 2.858.557.979 1.234 2.043 1.882 2.855a13.122 13.122 0 001.643 1.705c.38.333.521.437.438.559-.082.121-.388.259-.77.378a5.56 5.56 0 01-1.438.253c-.598.029-1.336-.012-1.926-.169a3.254 3.254 0 01-1.425-.795 4.575 4.575 0 01-.974-1.317c-.244-.497-.393-1.036-.422-1.828-.028-.791.064-1.833.237-2.635.172-.802.423-1.362.578-1.768.155-.407.211-.658.144-.858-.068-.199-.26-.346-.462-.398a.875.875 0 00-.609.085c-.195.096-.372.246-.588.511a5.63 5.63 0 00-.729 1.205c-.26.559-.523 1.296-.681 1.928a7.048 7.048 0 00-.21 1.78c-.002.621.046 1.334.22 2.032s.474 1.382.91 1.979a6.376 6.376 0 001.596 1.505c.587.394 1.19.67 1.949.818.76.148 1.677.169 2.459.13a9.792 9.792 0 002.001-.286 7.583 7.583 0 001.382-.502c.318-.156.459-.27.598-.282.139-.012.278.078.736.406.459.328 1.238.894 2.311 1.554 1.071.66 2.436 1.415 3.901 2.004 1.464.589 3.027 1.012 4.358 1.303 1.331.29 2.429.447 3.789.57 1.36.123 2.983.212 4.744.035 1.761-.176 3.659-.616 5.276-1.01 1.617-.395 2.952-.742 4.194-1.24s2.39-1.146 3.571-1.899a46.176 46.176 0 003.411-2.401 24.1 24.1 0 002.784-2.502 33.399 33.399 0 002.956-3.562 31.31 31.31 0 002.581-4.289 25.348 25.348 0 001.75-4.541c.433-1.566.712-3.202.831-4.975a31.999 31.999 0 00-.121-5.494 28.107 28.107 0 00-1.036-5.124 28.79 28.79 0 00-1.699-4.302c-.589-1.191-1.145-2.068-1.787-3.009-.642-.941-1.371-1.945-2.1-2.771a16.577 16.577 0 00-2.019-1.927c-.562-.451-.955-.704-1.125-.891-.17-.187-.114-.306.178-.397.293-.091.822-.155 1.53-.156.708 0 1.593.057 2.35.311a4.513 4.513 0 011.826 1.176c.443.472.701.968.864 1.61.164.642.232 1.431.13 2.056-.102.624-.373 1.087-.519 1.455-.146.369-.168.644-.085.869a.932.932 0 00.481.501c.212.101.449.131.685.082.235-.049.468-.176.701-.513.233-.337.466-.883.604-1.492.137-.608.18-1.278.127-2.021-.053-.744-.201-1.562-.583-2.356-.381-.795-.996-1.567-1.604-2.064-.608-.498-1.21-.723-1.907-.884a14.521 14.521 0 00-2.22-.307c-.731-.048-1.401-.048-2.001.097-.6.147-1.13.439-1.481.617-.351.178-.525.242-.716.182-.191-.059-.399-.241-.744-.468-.346-.226-.828-.498-1.335-.792-.506-.294-1.034-.612-1.694-.938a17.388 17.388 0 00-2.497-.995 34.496 34.496 0 00-3.702-.929c-1.356-.267-2.768-.471-4.277-.535-.377-.016-.76-.024-1.146-.022" fill="#fdbe07" fill-rule="nonzero"/><path d="M113.965 89.424c.759-.008 1.531.014 2.301.075 2.051.161 4.077.593 5.818 1.208 1.742.614 3.2 1.411 4.755 2.47 1.556 1.06 3.208 2.382 4.552 3.899 1.344 1.517 2.378 3.229 3.186 4.895a23.207 23.207 0 011.802 5.056c.406 1.772.636 3.695.636 5.488 0 1.793-.23 3.453-.649 5.161-.42 1.709-1.03 3.463-1.78 4.947-.75 1.483-1.64 2.695-2.699 3.92-1.06 1.225-2.288 2.462-3.556 3.445-1.267.983-2.572 1.712-3.945 2.339-1.374.627-2.815 1.153-4.234 1.488-1.42.335-2.818.479-4.616.445-1.797-.034-3.992-.246-5.861-.678-1.868-.432-3.411-1.085-4.873-1.835-1.462-.75-2.844-1.597-4.098-2.564a19.19 19.19 0 01-3.428-3.378c-1.047-1.326-2.014-2.894-2.828-4.628a28.001 28.001 0 01-1.885-5.395 19.137 19.137 0 01-.509-5.195 25.94 25.94 0 01.809-5.522c.458-1.734 1.085-3.217 1.92-4.751.835-1.534 1.877-3.119 3.047-4.382 1.17-1.263 2.467-2.204 3.793-3.026 1.327-.822 2.683-1.526 4.095-2.064 1.411-.538 2.877-.911 4.648-1.152a29.492 29.492 0 013.599-.266zM93.92 73.068c.208-.01.431.029.625.115.26.116.47.315.603.585.133.27.191.612.132.919-.058.307-.232.58-.474.738-.242.158-.555.201-.862.141-.309-.059-.614-.22-.798-.499-.185-.279-.248-.674-.243-.964.004-.29.079-.474.217-.639a1.109 1.109 0 01.8-.397v.001zm-.548-2.923c-.817 0-1.655.253-2.237.696-.666.506-.996 1.265-1.151 2.057a4.912 4.912 0 00.171 2.547c.306.929.895 1.958 1.752 3.2.859 1.242 1.987 2.696 3.003 4.047 1.018 1.352 1.925 2.603 2.579 3.743a16.89 16.89 0 011.283 2.811c.223.642.27.897-.06 1.299-.33.402-1.038.954-1.947 1.716-.909.763-2.02 1.738-3.168 3.225-1.149 1.488-2.335 3.489-3.268 5.574-.931 2.085-1.61 4.255-1.97 6.301-.361 2.047-.403 3.971-.229 6.01.174 2.038.564 4.191 1.352 6.412.788 2.221 1.974 4.509 3.356 6.569 1.382 2.059 2.958 3.89 5.081 5.526 2.123 1.636 4.793 3.077 7.146 4.086 2.352 1.008 4.385 1.584 6.611 1.809 2.225.224 4.641.098 6.972-.25 2.331-.348 4.576-.915 6.593-1.725a22.34 22.34 0 005.501-3.183 28.218 28.218 0 004.641-4.602 25.806 25.806 0 003.306-5.382c.877-1.916 1.547-3.967 1.907-6.111.36-2.145.411-4.383.216-6.688-.195-2.305-.636-4.679-1.348-6.747-.712-2.068-1.695-3.83-2.674-5.352-.979-1.521-1.954-2.802-3.081-3.997a26.987 26.987 0 00-3.687-3.237c-1.28-.932-2.56-1.687-4.263-2.45-1.704-.763-3.832-1.534-6.18-2.004-2.347-.471-4.916-.641-7.017-.543-2.102.097-3.739.462-4.77.708-1.032.245-1.46.373-1.934.555-.475.182-.997.42-1.395.574-.398.155-.674.227-1.047-.023-.373-.25-.844-.823-1.248-1.437-.405-.615-.744-1.271-1.21-2.342a52.307 52.307 0 01-1.61-4.199c-.551-1.647-1.06-3.456-1.558-4.863-.498-1.407-.985-2.412-1.648-3.12-.663-.707-1.503-1.118-2.422-1.197a4.032 4.032 0 00-.348-.014v.001z" fill-rule="nonzero"/><path d="M114.276 88.557c.185 0 .37.008.558.01 1.497.044 3.061.23 4.491.509 1.43.278 2.723.649 3.958 1.153a19.34 19.34 0 013.63 1.969 30.697 30.697 0 013.622 2.924 23.66 23.66 0 013.171 3.614c1.018 1.43 2.044 3.174 2.784 4.861a17.077 17.077 0 011.402 5.283c.207 1.966.165 4.268-.126 6.386-.291 2.119-.83 4.055-1.624 5.841-.794 1.786-1.843 3.422-2.849 4.791-1.007 1.37-1.972 2.472-2.983 3.417a16.91 16.91 0 01-3.359 2.457c-1.294.728-2.828 1.399-4.435 1.951-1.606.551-3.284.983-5.142 1.157-1.858.174-3.896.09-5.666-.153a21.852 21.852 0 01-4.834-1.226 26.207 26.207 0 01-4.831-2.385c-1.661-1.043-3.369-2.368-4.87-4.055-1.501-1.687-2.795-3.736-3.791-5.777-.995-2.041-1.69-4.073-2.058-6.144-.369-2.07-.41-4.18-.239-6.059.17-1.879.553-3.527 1.227-5.34.675-1.813 1.64-3.791 2.574-5.308.936-1.516 1.841-2.57 3.087-3.703 1.247-1.132 2.835-2.344 4.337-3.234a19.075 19.075 0 014.262-1.868 23.755 23.755 0 013.98-.833 27.69 27.69 0 013.724-.238M93.85 72.662c.215 0 .435.034.641.091.41.116.763.329 1.003.741.24.41.37 1.019.252 1.511a1.57 1.57 0 01-.894 1.052c-.412.183-.872.17-1.286-.011a1.912 1.912 0 01-.976-.978 2.226 2.226 0 01-.087-1.418c.121-.427.378-.737.742-.883a1.63 1.63 0 01.605-.105zm-.198-1.668a2.64 2.64 0 00-.986.207c-.663.282-1.328.883-1.657 1.614-.329.732-.32 1.592-.178 2.234.142.642.418 1.066.97 1.674.554.608 1.384 1.4 2.2 2.375.816.975 1.617 2.132 2.407 3.501.791 1.369 1.57 2.949 2.168 4.14.597 1.191 1.012 1.992 1.235 2.555.223.564.252.89.07 1.191-.182.301-.576.577-1.231 1.084-.655.506-1.57 1.243-2.42 2.097-.85.854-1.634 1.825-2.407 2.941a34.78 34.78 0 00-2.151 3.554 21.17 21.17 0 00-1.461 3.443 20.808 20.808 0 00-.861 3.996c-.182 1.528-.25 3.3-.227 4.649.023 1.35.138 2.278.316 3.336.178 1.057.419 2.243.79 3.352.371 1.108.871 2.138 1.435 3.191a49.04 49.04 0 001.847 3.164c.658 1.034 1.344 2.025 2.038 2.85.696.824 1.4 1.481 2.206 2.174a30.569 30.569 0 002.677 2.073c.958.65 1.962 1.222 3.507 1.94 1.545.719 3.63 1.583 6.139 2.07 2.509.488 5.441.598 8.048.331a26.309 26.309 0 006.839-1.666c1.955-.754 3.582-1.618 5.175-2.868 1.594-1.25 3.154-2.887 4.577-4.785 1.424-1.899 2.712-4.061 3.569-6.103.855-2.043 1.279-3.967 1.47-6.153a35.64 35.64 0 00-.081-6.705c-.228-2.068-.643-3.755-1.402-5.645-.759-1.89-1.861-3.983-3.124-5.768a20.075 20.075 0 00-4.407-4.551c-1.721-1.293-3.737-2.403-5.789-3.34-2.051-.936-4.136-1.699-6.235-2.123-2.097-.424-4.208-.508-6.008-.441a24.696 24.696 0 00-4.734.619c-1.441.331-2.831.771-3.63 1.076-.799.305-1.007.475-1.204.446-.197-.03-.384-.259-.907-1.096a81.95 81.95 0 01-2.105-3.6c-.723-1.318-1.308-2.509-1.779-3.694-.471-1.184-.826-2.362-1-3.502-.174-1.14-.165-2.242-.311-3.062-.147-.82-.448-1.358-.871-1.774-.424-.415-.97-.707-1.575-.873a3.388 3.388 0 00-.941-.128h-.001z" fill="#d80607" fill-rule="nonzero"/><path d="M148.8 76.087c.187.008.447.062.817.197.592.216 1.468.636 2.262 1.092.795.455 1.509.947 2.171 1.455.662.507 1.272 1.03 1.905 1.722a13.896 13.896 0 011.87 2.594c.582 1.041 1.093 2.264 1.494 3.712.399 1.449.686 3.122.854 5.042.167 1.92.214 4.085.267 6.561.052 2.475.112 5.259.123 8.039.01 2.78-.028 5.556-.047 7.969-.019 2.414-.019 4.465-.14 6.374a40.178 40.178 0 01-.686 5.31c-.326 1.635-.733 3.135-1.282 4.297-.549 1.163-1.24 1.987-1.773 2.607-.532.619-.906 1.033-1.448 1.406-.541.372-1.25.702-1.994.938a9.096 9.096 0 01-2.271.416c-.748.038-1.462-.029-1.891-.119-.427-.089-.569-.198-.645-.747-.075-.549-.085-1.535-.085-5.133 0-3.599.009-9.812.031-15.795.023-5.983.058-11.737.071-16.982.012-5.245.001-9.982-.004-12.351l-.007-3.01c-.003-.642-.007-1.926-.003-2.824.005-.898.017-1.412-.006-1.744-.023-.333-.083-.485-.085-.634-.002-.148.053-.292.235-.358a.725.725 0 01.267-.034zm-1.702-2.339c-.226-.008-.476.129-.622.553-.167.486-.199 1.349-.235 2.931-.035 1.582-.073 3.883-.114 5.98-.041 2.096-.085 3.987-.122 6.377-.036 2.39-.066 5.279-.081 8.165-.016 2.885-.016 5.768-.03 8.894-.015 3.125-.045 6.494-.061 10.193-.014 3.7-.014 7.73-.018 10.902-.005 3.172-.014 5.486-.017 7.213-.003 1.728 0 2.87.023 3.467.022.598.064.652.277.779.213.128.596.328 1.117.338.522.008 1.181-.174 1.743-.277.562-.104 1.027-.128 1.619-.168.594-.041 1.316-.098 2.167-.339.851-.241 1.83-.667 2.712-1.13.881-.463 1.663-.963 2.411-1.666.747-.703 1.461-1.608 2.076-2.713.614-1.106 1.128-2.413 1.534-3.589.404-1.176.698-2.222.928-3.571.231-1.348.399-2.999.539-4.884.138-1.885.25-4.004.306-6.031.057-2.027.061-3.963.062-5.998.002-2.035.002-4.168-.032-6.369-.033-2.201-.098-4.47-.16-6.541-.061-2.071-.118-3.943-.202-5.483-.084-1.541-.195-2.748-.418-3.937-.223-1.188-.559-2.357-1.103-3.5-.544-1.143-1.296-2.261-2.037-3.242-.743-.982-1.474-1.827-2.392-2.66-.918-.833-2.024-1.654-3.056-2.208-1.03-.555-1.986-.842-2.786-1.031-.8-.189-1.445-.279-1.873-.253-.429.025-.641.166-.844.232a.688.688 0 01-.586-.053c-.191-.109-.383-.319-.63-.37a.503.503 0 00-.095-.011m-21.71-69.779c.172.007.357.091.562.271.326.288.702.826 1.043 1.731.342.905.656 2.185 1.016 3.816.36 1.632.768 3.615 1.054 5.105.287 1.491.452 2.487.553 3.1.099.614.132.845.062.984s-.247.188-1.699.258-4.191.163-5.705.222c-1.516.058-1.819.082-1.982.007-.164-.078-.188-.258-.073-.84.115-.581.369-1.564.81-3.251.441-1.687 1.068-4.076 1.662-5.963.593-1.886 1.152-3.266 1.542-4.106.39-.839.61-1.136.86-1.263a.592.592 0 01.295-.068v-.003zm-.133-2.597a2.75 2.75 0 00-1.668.465c-.675.446-1.214 1.201-1.792 2.328-.579 1.127-1.196 2.625-1.841 4.675-.643 2.049-1.315 4.65-1.837 6.805a95.312 95.312 0 00-1.296 6.128 180.376 180.376 0 00-1.188 7.717c-.344 2.616-.596 5.019-.89 7.135-.293 2.115-.629 3.944-.961 6.056-.333 2.113-.663 4.51-.912 6.602a172.487 172.487 0 00-.553 5.436 145.635 145.635 0 00-.333 4.336c-.087 1.448-.154 3.012-.141 4.252.012 1.241.102 2.158.273 2.758.17.599.422.881.698.959.276.077.575-.049.847-.806.273-.758.519-2.149.78-4.334.26-2.184.536-5.163.791-7.702.255-2.538.488-4.635.805-6.871.319-2.235.72-4.609 1.074-7.036.353-2.427.659-4.909.986-7.393.326-2.484.674-4.972.929-6.757.255-1.786.417-2.871.55-3.451.133-.58.238-.655.932-.674.693-.02 1.982.016 3.542.055 1.56.039 3.394.081 4.435.127 1.041.047 1.29.098 1.441.217.151.12.205.309.4 2.038.195 1.728.531 4.992.892 8.686s.747 7.814 1.142 11.75c.394 3.937.796 7.688 1.131 10.936.335 3.249.605 5.994.85 7.801.246 1.807.468 2.676.78 3.234.312.557.713.802 1.165.806.454 0 .956-.237 1.229-.618.272-.38.314-.902.219-2.346-.096-1.444-.329-3.812-.662-6.806-.333-2.993-.764-6.614-1.252-10.968-.49-4.354-1.035-9.443-1.568-14.042a563.44 563.44 0 00-1.528-12.125c-.474-3.413-.899-6.128-1.379-8.555-.479-2.428-1.013-4.567-1.573-6.08-.561-1.514-1.148-2.401-1.801-3.129-.653-.728-1.373-1.297-2.137-1.513a2.675 2.675 0 00-.579-.097v.001zM8.75 26.52c-.832-1.69-2.5-5.07-3.643-7.923-1.145-2.853-1.768-5.18-1.99-7.087-.221-1.91-.042-3.402.707-4.717.75-1.315 2.068-2.455 3.216-3.1 1.148-.643 2.125-.793 3.044-.76.92.033 1.784.249 2.572.773.787.524 1.5 1.358 2.019 2.278.519.92.843 1.927 1.002 3.254.159 1.327.155 2.974.114 4.485-.04 1.51-.117 2.883-.102 3.608.015.725.12.8.328.817.208.018.518-.025.899-.49.38-.463.835-1.35 1.133-2.32.299-.97.443-2.025.432-3.337-.01-1.311-.175-2.88-.546-4.316-.371-1.436-.947-2.742-1.632-3.784-.684-1.043-1.477-1.823-2.468-2.37-.992-.546-2.183-.86-3.524-.872a10.33 10.33 0 00-4.094.826c-1.261.55-2.29 1.365-3.17 2.562A10.924 10.924 0 001.144 8.49c-.294 1.666-.155 3.416.185 5.13.339 1.714.877 3.393 1.485 5.1a64.353 64.353 0 002.117 5.262c.83 1.816 1.814 3.71 2.922 5.882 1.108 2.173 2.34 4.622 3.64 7.149 1.298 2.528 2.66 5.133 3.75 7.407 1.09 2.274 1.904 4.215 2.324 6.109.42 1.894.444 3.74.234 5.412-.21 1.673-.654 3.17-1.307 4.399a9.588 9.588 0 01-2.343 2.87c-.827.685-1.618 1.092-2.415 1.29-.797.198-1.6.186-2.47-.078-.87-.264-1.804-.78-2.655-1.6-.851-.822-1.618-1.948-2.328-3.413-.71-1.466-1.364-3.27-1.674-4.892-.31-1.623-.275-3.065-.16-4.667.115-1.601.31-3.364.453-4.638.142-1.274.23-2.06.169-2.467-.061-.408-.273-.44-.531-.18-.26.262-.563.813-.836 1.75-.274.939-.517 2.262-.781 4.047-.263 1.785-.548 4.032-.3 6.264.247 2.232 1.026 4.45 1.9 6.314.876 1.864 1.847 3.374 2.978 4.375 1.133 1 2.425 1.49 3.816 1.743 1.39.252 2.879.264 4.455-.508 1.576-.773 3.24-2.33 4.354-4.051 1.115-1.72 1.68-3.603 1.95-5.634a22.81 22.81 0 00-.04-6.168c-.287-1.953-.84-3.68-1.756-5.855-.917-2.176-2.2-4.801-3.422-7.072-1.223-2.272-2.385-4.19-3.254-5.724a67.294 67.294 0 01-1.732-3.26c-.288-.576-.288-.576-1.121-2.266m27.793 33.443c-.009 1.115-.027 3.344.123 4.675.15 1.33.467 1.762.872 1.915.405.153.896.027 1.226-.411.329-.437.497-1.187.56-3.377.063-2.19.021-5.823-.01-12.243s-.051-15.63-.043-23.67c.008-8.041.043-14.914.054-18.553.012-3.638-.001-4.043.098-4.304.099-.26.31-.376 1.216-.422.905-.045 2.509-.02 4.329-.036 1.819-.017 3.857-.077 4.963-.16 1.107-.081 1.284-.185 1.363-.462.08-.278.062-.731-.088-1.083-.151-.353-.435-.608-1.505-.72-1.071-.111-2.931-.081-6.199.004-3.269.085-7.976.225-11.005.396-3.029.17-4.39.372-5.056.603-.665.232-.635.494-.495.725.14.232.391.433 1.71.57 1.32.136 3.723.21 5.231.247 1.507.037 2.125.038 2.51.07.384.034.535.099.612.396.077.297.082.826.056 2.24-.025 1.414-.08 3.71-.17 12.605-.091 8.894-.217 24.387-.28 32.134l-.072 8.86zM62.078 3.227c.231-.007.541.034.977.137.696.165 1.715.486 2.795.907 1.081.421 2.223.943 3.304 1.72 1.082.778 2.104 1.812 2.884 2.845.781 1.035 1.321 2.068 1.642 3.169.32 1.102.422 2.27.314 3.421-.108 1.151-.426 2.283-.977 3.263-.551.98-1.336 1.808-2.164 2.506-.827.699-1.695 1.267-2.724 1.665-1.028.398-2.226.627-3.352.71-1.126.083-2.185.021-2.784-.079-.599-.1-.736-.238-.787-.958-.051-.721-.015-2.024-.012-3.3.003-1.275-.027-2.523-.033-4.02-.006-1.497.011-3.243.074-4.659.064-1.415.174-2.5.183-3.568.008-1.067-.085-2.116-.07-2.748.015-.631.138-.844.386-.946a.975.975 0 01.344-.065zm.326-2.696c-.32-.008-.62 0-.894.015-1.096.056-1.768.238-2.129.725-.36.488-.407 1.281-.44 6.097-.032 4.816-.049 13.65-.109 22.119-.059 8.469-.161 16.573-.152 21.785.008 5.213.127 7.535.187 9.392.059 1.856.059 3.246.145 4.22.086.974.258 1.532.601 1.749.343.216.857.09 1.158-.59.301-.68.391-1.915.475-4.871.084-2.956.162-7.635.172-12.22.01-4.585-.048-9.077-.075-12.72-.028-3.642-.025-6.437.011-7.912.037-1.475.106-1.63.231-1.71.124-.081.305-.086.614-.06.309.027.747.085 1.018.182.27.097.369.228.465.7.096.47.175 1.219.915 3.837.739 2.62 2.134 7.08 3.191 10.581 1.058 3.501 1.777 6.042 2.137 7.313.359 1.271.359 1.271 1.063 3.575.705 2.304 2.113 6.913 2.946 9.577.833 2.664 1.091 3.383 1.526 3.854.434.471 1.045.692 1.507.444.461-.249.773-.969.692-1.954-.081-.986-.554-2.239-1.468-4.924a712.654 712.654 0 01-3.502-10.642c-1.232-3.84-2.343-7.403-3.401-10.672a341.828 341.828 0 00-2.705-8.055c-.642-1.813-.921-2.462-1.047-2.866-.125-.402-.098-.56.02-.679.117-.119.326-.202.829-.282.503-.081 1.304-.159 2.474-.537 1.171-.377 2.714-1.053 4.002-2.122 1.288-1.07 2.322-2.532 3.048-4.095.726-1.564 1.144-3.23 1.204-4.702.06-1.47-.238-2.748-.762-4.136-.524-1.389-1.274-2.89-2.337-4.273-1.064-1.382-2.44-2.647-3.887-3.634-1.447-.988-2.966-1.7-4.485-2.09a14.006 14.006 0 00-3.238-.419m33.667 2.873c.202.008.402.025.599.061.788.142 1.531.514 2.229 1.098.698.584 1.352 1.382 1.99 2.481.638 1.1 1.262 2.503 1.597 3.366.336.863.384 1.186.315 1.366-.069.179-.254.216-.782.168-.527-.048-1.396-.18-2.715-.297-1.318-.117-3.087-.3-4.412-.371-1.324-.072-2.205-.114-2.645-.135-.441-.022-.549-.091-.855-.094-.305 0-.808.061-1.165-.008-.356-.066-.459-.192-.423-.503.037-.312.21-.729.542-1.514.333-.785.825-1.858 1.496-2.826.672-.97 1.524-1.834 2.366-2.311a3.57 3.57 0 011.863-.483v.002zm.296-2.823c-1.371.034-2.878.539-4.08 1.373-1.373.954-2.339 2.335-3.156 3.925-.817 1.59-1.489 3.403-1.786 4.518-.296 1.114-.22 1.538-.377 2.432-.157.895-.546 2.259-.907 4.348-.36 2.09-.691 4.903-.919 7.832-.229 2.929-.356 5.971-.471 8.65-.114 2.678-.216 4.992-.178 7.738.038 2.747.216 5.925.538 8.858.323 2.932.789 5.619 1.361 7.874.573 2.254 1.25 4.077 2.357 5.475 1.105 1.399 2.639 2.374 3.788 2.869 1.148.496 1.911.513 2.992.301 1.08-.212 2.479-.653 3.818-1.771 1.339-1.119 2.62-2.916 3.59-4.925.97-2.008 1.632-4.23 1.78-5.632.148-1.403-.216-1.988-.611-2.039-.393-.051-.817.433-1.21 1.221-.391.789-.752 1.881-1.148 2.901a26.173 26.173 0 01-1.199 2.664c-.371.699-.68 1.152-1.254 1.734-.576.583-1.414 1.295-2.041 1.778-.627.484-1.042.738-1.666.848a4.922 4.922 0 01-2.131-.129c-.679-.206-1.204-.582-1.738-1.095s-1.077-1.162-1.566-2.279c-.489-1.116-.927-2.701-1.35-4.521-.423-1.82-.835-3.876-1.102-6.268-.267-2.393-.39-5.122-.446-7.762a159.78 159.78 0 01.016-7.688c.066-2.496.189-4.937.333-7.374.144-2.437.309-4.878.517-6.954.207-2.077.458-3.802.663-4.81.206-1.009.367-1.306.572-1.456.206-.15.456-.155 1.342-.065.886.088 2.407.271 4.621.502 2.215.231 5.122.511 6.767.612 1.643.102 2.025.025 2.335-.169.308-.195.546-.509.58-1.237.034-.729-.136-1.874-.373-3.01-.238-1.135-.543-2.263-1.17-3.53-.627-1.267-1.576-2.674-2.67-3.759C99.695 1.476 98.457.713 96.945.596c-.189-.015-.382-.02-.578-.015m61.524.112c1.545.019 4.635.058 6.791.066 2.156.007 3.379-.017 4.098.106.718.123.934.392 1.073.737.138.345.197.764.099 1.124-.099.36-.357.659-.867.83-.509.171-1.27.213-2.543.241-1.272.029-3.054.044-4.482.041-1.428-.003-2.501-.024-3.123-.012-.621.012-.792.056-.885.292-.094.236-.108.66-.071 1.604.037.944.126 2.404.166 4.201.041 1.796.032 3.928.047 6.537.014 2.608.052 5.693.068 8.782.015 3.09.006 6.183.002 9.226-.005 3.043-.005 6.035-.013 8.921-.008 2.887-.025 5.666-.014 8.506.01 2.84.049 5.738.074 7.719.025 1.982.038 3.045.018 3.759-.018.715-.069 1.079-.224 1.405a1.797 1.797 0 01-.694.776c-.283.161-.587.195-.929.117-.341-.079-.718-.27-.93-.575-.212-.305-.259-.725-.286-2.182a418.077 418.077 0 01-.038-6.317c-.003-2.362.002-4.592.018-6.98.017-2.388.047-4.935.062-7.391.015-2.456.015-4.821.013-7.367l-.009-7.871c-.002-2.593-.002-5.051.005-7.759.006-2.708.019-5.666.06-8.153.042-2.486.113-4.5.141-5.627.027-1.128.013-1.367-.198-1.479-.21-.111-.617-.095-1.574-.112-.957-.017-2.463-.068-3.731-.142-1.268-.073-2.295-.169-3.006-.272-.71-.104-1.102-.214-1.352-.516-.251-.301-.359-.793-.167-1.198.192-.407.683-.727 1.118-.901.434-.174.812-.2 2.426-.202 1.614-.002 4.463.023 5.888.034 1.425.012 1.425.012 2.97.032h-.001zM12.266 77.016c1.348.032 4.043.095 5.865.114 1.823.019 2.772-.006 3.364-.102.59-.095.824-.261.98-.521.157-.26.238-.616.18-1.018-.06-.402-.26-.853-.59-1.107-.33-.254-.793-.314-2.466-.326-1.672-.013-4.553.021-6.863.082-2.31.061-4.048.148-5.229.228-1.18.08-1.804.152-2.239.291-.434.139-.68.346-.788.59a.782.782 0 00.054.73c.132.204.366.33 1.085.474.72.144 1.924.305 2.888.397.964.092 1.688.114 2.05.125.361.011.361.011 1.71.043" fill-rule="nonzero"/><path d="M6.252 75.947c.099.5.199 1 .24 1.897.042.896.025 2.187.057 3.923.032 1.735.113 3.913.195 5.052.083 1.139.167 1.238.502 1.238.336 0 .923-.099 1.825-.18.902-.081 2.119-.144 3.698-.202 1.579-.059 3.522-.113 4.759-.044 1.238.069 1.771.261 2.092.527.32.267.428.609.359.962-.069.354-.314.72-.622.97-.307.25-.675.385-2.017.439-1.342.054-3.654.027-5.437.003-1.783-.024-3.035-.045-3.785-.083-.749-.037-.994-.091-1.146-.06-.151.032-.208.149-.228 1.19-.019 1.042-.001 3.001.067 7.249.068 4.249.188 10.781.242 16.357.055 5.577.047 10.196.102 13.447.055 3.25.174 5.132.24 6.346.065 1.214.078 1.761.01 2.155-.068.394-.216.635-.455.845-.24.21-.57.388-.954.392-.384.005-.82-.165-1.085-.5-.264-.335-.358-.835-.426-2.663-.067-1.828-.11-4.986-.099-7.7.011-2.715.074-4.987.087-6.881.012-1.894-.026-3.411-.032-5.283-.006-1.871.019-4.096.036-6.403.017-2.307.025-4.698.034-7.135l.025-7.435c.008-2.515.017-5.063.034-7.569a843.4 843.4 0 01.067-6.594c.024-1.621.048-2.397.074-2.892.028-.494.059-.709.091-.912.032-.204.065-.396.188-.518s.336-.173.56-.15c.225.022.464.117.702.212zm46.493 30.527c.687.884 1.651 2.179 2.389 2.94.737.761 1.246.989 1.729.974.482-.016.938-.273 1.267-.606.33-.332.533-.74.486-1.267-.048-.527-.348-1.175-.902-2.113a30.906 30.906 0 00-2.128-3.137c-.764-.971-1.484-1.685-2.068-2.017-.584-.333-1.033-.285-1.498-.174-.464.111-.944.285-1.226.641-.281.357-.365.896-.257 1.415.107.518.407 1.015.761 1.501.353.486.761.959 1.447 1.843" fill-rule="nonzero"/><path d="M54.321 103.265c.706.697 1.765 1.765 2.479 2.57.714.805 1.083 1.348 1.221 1.81.137.462.044.843-.157 1.148-.201.305-.51.534-.837.609-.327.074-.669-.007-.996-.18-.326-.174-.636-.441-1.231-1.13a51.308 51.308 0 01-2.127-2.678c-.651-.879-1.071-1.528-1.261-2.018-.191-.489-.153-.82-.036-1.078.116-.259.311-.445.58-.5.269-.055.613.021.96.222.347.202.699.528 1.405 1.225" fill="#fdbe07" fill-rule="nonzero"/><path d="M71.021 155.344c-.136-.81-.407-2.428-.468-3.965-.062-1.536.087-2.99.167-3.911.081-.922.093-1.312.217-1.549a.593.593 0 01.565-.316c.21.006.396.104.517.487s.176 1.053.267 2.459c.091 1.405.218 3.545.356 5.084.137 1.54.286 2.478.351 3.264.066.786.049 1.42.121 1.872.073.453.234.724.272 1.11.038.385-.047.885-.354 1.146-.307.261-.837.282-1.095.154-.258-.127-.245-.402-.24-.673.005-.271 0-.538-.082-.875-.083-.337-.244-.744-.333-1.335-.09-.592-.108-1.367-.116-1.755-.009-.387-.009-.387-.145-1.197" fill-rule="nonzero"/><path d="M71.731 144.05c.218-.051.655-.153 1.153-.104a2.999 2.999 0 011.578.667 4.18 4.18 0 011.265 1.78c.261.721.299 1.522.149 2.303-.151.783-.49 1.545-.662 1.982-.171.436-.175.546-.012.659.164.112.494.227.939.477.444.25 1.004.635 1.483 1.199a4.913 4.913 0 011.053 2.142c.176.837.129 1.77-.123 2.545-.252.776-.71 1.394-1.297 2.011a12.41 12.41 0 01-1.962 1.674c-.659.443-1.26.714-1.862.81-.602.095-1.204.015-1.655-.079-.452-.093-.753-.199-.808-.475-.055-.275.136-.72.31-1 .174-.279.33-.394.727-.606.397-.211 1.036-.521 1.623-.877a8.285 8.285 0 001.553-1.19c.429-.431.754-.891.921-1.293.167-.403.177-.749.005-1.144-.171-.395-.524-.839-.883-1.164a3.17 3.17 0 00-1.049-.643 1.965 1.965 0 00-.837-.121 1.098 1.098 0 00-.519.181c-.128.087-.219.189-.32.26-.101.071-.21.111-.313-.565-.104-.677-.199-2.064-.337-2.881-.138-.816-.317-1.058-.349-1.232-.031-.173.086-.278.22-.249.134.03.286.195.456.329.17.133.358.235.536.242.179.007.349-.082.517-.278.168-.196.338-.502.443-.868a3.22 3.22 0 00.112-1.141 1.627 1.627 0 00-.291-.809 1.308 1.308 0 00-.496-.429c-.172-.079-.335-.09-.479.028-.145.117-.269.363-.456.486s-.435.123-.685.102c-.25-.02-.502-.059-.716-.159-.214-.1-.391-.262-.431-.519-.041-.256.055-.607.148-.843.093-.237.183-.36.372-.534.187-.174.474-.398.617-.511.143-.112.143-.112.362-.163" fill-rule="nonzero"/><path d="M79.457 147.257c.343.376.754.723 1.047.928.293.205.467.268.593.226.125-.042.203-.189.235-.561.031-.371.016-.968.097-1.356.081-.388.258-.568.481-.649a.922.922 0 01.7.04c.206.104.35.293.435.753.086.46.113 1.191.105 2.015a45.831 45.831 0 01-.131 2.887 53.863 53.863 0 01-.447 4.14 58.556 58.556 0 01-.933 4.84c-.333 1.361-.639 2.22-1.027 2.707-.387.488-.858.601-1.228.502-.37-.098-.64-.41-.775-.807-.135-.397-.135-.88.016-1.448.152-.568.455-1.221.72-2.165.265-.944.493-2.178.719-3.373.226-1.194.451-2.347.563-3.091.113-.743.113-1.076.006-1.35-.106-.274-.319-.489-.813-.976-.495-.488-1.271-1.245-1.78-1.851-.508-.606-.75-1.059-.817-1.433a1.137 1.137 0 01.179-.871.785.785 0 01.517-.351c.2-.034.423.013.671.238.249.225.524.63.867 1.006m12.817 4.683c0 .477 0 1.43.071 2.296.073.866.216 1.645.27 2.55.055.905.018 1.936-.167 2.634-.187.698-.522 1.063-.809 1.186-.287.122-.525.001-.68-.272-.156-.272-.228-.696-.308-1.148-.08-.452-.168-.932-.226-1.751-.057-.82-.085-1.98-.107-3.169-.023-1.19-.04-2.41-.034-3.41.005-1.001.035-1.784.017-2.263-.017-.479-.081-.655-.285-.825-.204-.171-.55-.336-.627-.587-.077-.25.114-.584.274-.783.16-.2.289-.263.559-.26.272.003.686.073 1.127.223.442.151.912.382 1.446.722.534.34 1.131.79 1.68 1.248.549.459 1.049.927 1.546 1.569a11.37 11.37 0 011.297 2.14 6.28 6.28 0 01.507 1.804c.081.572.126 1.167.106 1.785a7.41 7.41 0 01-.276 1.853c-.175.595-.442 1.146-.794 1.821-.354.675-.792 1.474-1.233 2.062-.443.588-.887.965-1.259 1.181-.372.216-.671.271-.954.242-.283-.03-.55-.144-.725-.412-.175-.269-.257-.69-.23-1.066.026-.376.162-.707.421-1.12.259-.413.643-.909 1.036-1.549.391-.64.792-1.424 1.04-2.14a5.649 5.649 0 00.332-1.975 4.808 4.808 0 00-.387-1.8c-.257-.618-.651-1.281-1.035-1.821-.385-.541-.76-.958-1.015-1.164-.254-.205-.388-.199-.474-.063-.085.136-.124.4-.132.719-.01.319.008.693.018.88.01.187.01.187.01.663m8.513 1.043c.1 1.052.297 3.155.387 4.56.09 1.403.072 2.107-.043 2.65-.115.542-.328.923-.549 1.152-.22.23-.447.307-.712.282a1.255 1.255 0 01-.763-.366c-.199-.211-.298-.505-.338-1.294-.041-.789-.022-2.075.003-3.309.026-1.233.059-2.413.072-3.539a88.972 88.972 0 00-.012-2.992c-.02-.797-.053-1.321.008-1.715.059-.394.213-.658.375-.801.161-.142.332-.163.534-.081.202.083.436.269.546.543.109.274.094.637.109 1.012.015.374.06.76.124 1.116.065.355.149.678.179.962.029.282.006.526-.007.647-.012.121-.012.121.087 1.173m1.633 7.743c.013-.895.038-2.683.038-4.382 0-1.7-.025-3.31-.043-4.414-.017-1.104-.026-1.703.059-2.12.085-.417.264-.654.558-.688.293-.035.701.133.918.479.218.346.244.871.264 1.168.018.297.028.368.281.759.251.392.744 1.103 1.147 1.773.402.671.714 1.3.918 1.709.203.409.298.598.398.628.099.03.2-.099.223-.624.022-.525-.034-1.45-.107-2.178-.071-.728-.158-1.261-.225-1.831-.068-.569-.116-1.175-.083-1.531.033-.357.147-.465.244-.623a2.77 2.77 0 00.251-.6c.071-.231.135-.483.292-.662a.899.899 0 01.692-.285c.282.003.598.117.811.343.212.226.323.565.376 1.655.051 1.09.046 2.929.087 4.063.04 1.134.127 1.563.211 2.089.084.526.165 1.149.205 1.918.041.769.041 1.682-.001 2.283s-.126.888-.315 1.151c-.189.262-.482.499-.84.502-.356.003-.775-.228-1.161-.624-.385-.395-.735-.956-1.105-1.63-.37-.674-.76-1.462-1.024-1.93-.263-.467-.401-.614-.499-.664-.096-.049-.154-.001-.184.25s-.032.702-.034 1.447c-.001.745-.001 1.781-.029 2.473-.027.693-.081 1.04-.131 1.392-.048.352-.093.709-.295.982-.2.273-.556.461-.849.534-.292.071-.52.026-.727-.124a1.124 1.124 0 01-.444-.721c-.053-.316.029-.695.069-.884.041-.189.041-.189.054-1.083m8.342-6.331c.02-.467.061-1.402.088-2.146.027-.743.042-1.296.043-1.808.001-.512-.012-.983.003-1.315.013-.333.053-.528.254-.806.2-.279.56-.641.99-.958a7.078 7.078 0 011.38-.779c.449-.192.847-.305 1.22-.304.371.001.716.116.919.355.205.24.266.604.216.874-.05.27-.211.446-.543.649-.332.202-.833.431-1.288.678-.454.247-.861.512-1.061.782-.2.27-.195.545-.171.905.023.361.063.806.102 1.07.039.263.078.346.161.383.083.037.209.029.535-.062.324-.091.848-.265 1.197-.211a.582.582 0 01.514.588c-.008.252-.2.474-.462.688a3.49 3.49 0 01-.903.531c-.305.116-.58.143-.746.228-.165.085-.22.227-.243.756a47.503 47.503 0 00-.007 2.16c.009.716.018 1.233.058 1.526.04.292.112.36.32.324.207-.036.551-.176.852-.309.301-.132.559-.257.798-.279.238-.022.456.058.688.206.232.149.478.365.566.624.09.26.022.563-.183.799-.206.237-.549.406-.838.493-.29.087-.524.091-.782.167-.258.077-.537.225-.868.31-.33.085-.712.106-1.088.058-.376-.048-.747-.164-1.048-.435-.301-.27-.532-.694-.642-1.424-.11-.73-.099-1.766-.088-2.459.012-.692.025-1.042.031-1.217.005-.175.005-.175.026-.642m7.133-2.395c.198-2.148.359-3.365.566-4.135.207-.771.459-1.094.726-1.229.267-.135.548-.081.758.305.21.387.347 1.106.336 2.467-.013 1.361-.174 3.362-.232 4.977-.056 1.615-.008 2.844-.074 3.698-.066.854-.246 1.334-.488 1.732-.243.399-.549.717-.861.875-.311.16-.628.16-.863.069-.233-.09-.384-.269-.342-1.9.042-1.63.277-4.711.474-6.859" fill-rule="nonzero"/><path d="M122.06 152.815a64.453 64.453 0 00-.999-2.251c-.316-.667-.561-1.1-.766-1.451-.205-.35-.371-.618-.716-.818-.346-.2-.871-.332-1.184-.305-.314.027-.415.213-.399.498.014.285.146.668.539 1.705a551.798 551.798 0 001.627 4.219c.581 1.492 1.09 2.787 1.537 3.743.446.956.83 1.573 1.166 1.981.336.408.623.605.959.608.336.003.719-.189 1.001-.59.281-.402.461-1.013.673-2.259.213-1.247.459-3.129.639-4.715.18-1.585.294-2.874.342-3.731.048-.857.029-1.282-.075-1.597-.105-.314-.297-.518-.612-.548-.314-.03-.752.114-1.06.392-.309.279-.488.693-.603 1.376-.114.683-.162 1.636-.252 2.658a59.385 59.385 0 01-.311 2.76c-.09.647-.138.851-.197.968-.061.117-.132.147-.24-.037-.106-.183-.247-.578-.415-1.012a47.862 47.862 0 00-.654-1.594zm12.056-5.512c.413-.159 1.055-.422 1.566-.598.511-.176.892-.266 1.218-.21.327.058.6.261.69.525.089.263-.003.587-.183.837-.18.251-.446.427-.698.529-.252.103-.489.129-.646.266-.158.136-.235.381-.21 1.055.026.673.155 1.772.295 2.935.141 1.162.294 2.388.331 3.328.037.939-.04 1.592-.114 2.169-.073.577-.142 1.077-.331 1.389-.189.312-.497.435-.744.48-.247.045-.433.012-.631-.181-.198-.191-.407-.542-.558-.97-.149-.429-.239-.935-.263-1.836-.024-.9.018-2.195.048-3.282.03-1.088.047-1.97.05-2.621.002-.65-.01-1.072-.063-1.323-.052-.25-.143-.331-.403-.329-.261.003-.692.087-.988.108-.297.021-.46-.021-.582-.146a.844.844 0 01-.21-.535.885.885 0 01.197-.58 1.68 1.68 0 01.604-.464c.253-.121.548-.199.788-.266.239-.066.423-.121.837-.28m4.875 8.024c-.101-.664-.269-1.617-.299-2.674-.029-1.058.078-2.221.171-2.988.093-.767.171-1.139.243-1.497.072-.358.138-.703.379-.92.241-.217.658-.307.87-.094.213.212.222.728.229 1.229.006.5.009.985.087 1.447.077.461.23.899.331 1.594.099.695.147 1.648.152 2.315.005.667-.034 1.047.042 1.596.076.549.269 1.264.356 1.907.086.643.068 1.212-.096 1.593-.165.381-.477.572-.784.691-.307.118-.61.163-.842-.01-.233-.172-.395-.561-.495-1.06-.1-.499-.139-1.108-.175-1.599a17.575 17.575 0 00-.169-1.53m6.204-6.184c.431.538.969 1.314 1.333 1.988.364.674.556 1.245.65 1.856.096.61.096 1.259 0 1.752-.094.494-.285.833-.465 1.024-.18.191-.35.233-.536.135-.185-.097-.386-.335-.575-.716a4.902 4.902 0 01-.445-1.578c-.08-.67-.066-1.486-.055-2.141.011-.654.017-1.148-.002-1.499-.019-.35-.063-.558-.21-.699-.146-.141-.394-.215-.634-.181a.911.911 0 00-.615.384c-.141.209-.189.485-.272.765-.083.281-.199.567-.27.897-.069.329-.092.702-.089 1.197.005.495.037 1.111.165 1.813.13.701.357 1.487.586 2.068.231.581.463.956.729 1.21.265.254.561.388.9.502.339.115.721.21 1.147.165a2.616 2.616 0 001.294-.538c.396-.309.72-.744 1.018-1.279.298-.535.57-1.171.723-1.85a5.653 5.653 0 00.07-2.145c-.12-.744-.395-1.509-.784-2.26a10.014 10.014 0 00-1.438-2.089c-.548-.601-1.142-1.065-1.698-1.304a2.871 2.871 0 00-1.438-.217c-.362.038-.568.13-.691.258s-.163.293-.176.461c-.014.167-.001.336.121.484.122.147.352.272.629.485.276.213.598.514 1.028 1.052m5.106 6.027c0-1.136 0-3.407-.018-4.859-.016-1.451-.05-2.083-.007-2.605.042-.522.161-.936.342-1.176.183-.24.429-.308.671-.175.242.133.482.468.591.846.109.377.088.796.117 1.098.029.302.107.487.446.881s.939.998 1.531 1.672a29.326 29.326 0 011.545 1.921c.367.503.517.766.654.909.137.143.26.166.324-.032.065-.198.072-.618.012-1.407-.059-.789-.185-1.949-.239-3.007-.055-1.059-.04-2.016.048-2.652.087-.636.249-.95.444-1.145.194-.196.424-.275.775-.208.351.066.827.279 1.076.704.249.424.272 1.062.298 2.389.027 1.326.056 3.341.103 4.726.047 1.385.11 2.139.167 2.817.058.678.108 1.28.004 1.71-.106.43-.366.689-.691.882-.324.192-.712.32-1.097.311-.386-.008-.769-.152-1.193-.678-.424-.526-.888-1.432-1.365-2.302-.476-.87-.966-1.703-1.313-2.295-.348-.592-.553-.944-.714-1.158-.161-.214-.278-.29-.385-.286-.106.004-.204.089-.249.413-.045.326-.036.888-.003 1.545.033.657.09 1.407.07 1.974-.02.568-.118.954-.253 1.246-.133.291-.305.488-.573.588-.266.102-.629.106-.836-.013-.206-.119-.257-.361-.278-.631-.022-.27-.013-.568-.009-.718.005-.149.005-.149.005-1.285" fill-rule="nonzero"/></svg>