<svg viewBox="0 0 45 66" xmlns="http://www.w3.org/2000/svg" fill-rule="evenodd" clip-rule="evenodd" stroke-linejoin="round" stroke-miterlimit="2"><path d="M33.04 46.478c-.001.131.318.316 1.079.646.585.252 1 .323 1.045.18.074-.249-1.73-1.09-2.02-.94-.066.036-.103.071-.104.114zm-1.091.641c-.01.033.037.085.149.163.265.188.878.448 1.362.576.485.127.914.122.955-.01.042-.136-.573-.394-1.363-.577-.725-.168-1.072-.217-1.102-.152h-.001zm-1.773.228c-.084.276 1.458 1.114 1.873 1.02.165-.038.135-.156-.067-.263-.201-.105-.675-.37-1.052-.587-.408-.236-.713-.305-.753-.17h-.001zm-1.585-.083c-.047.172.987 1.154 1.662 1.531.309.173.58.254.602.181.058-.192-1.753-1.633-2.173-1.73-.055-.01-.084-.004-.091.023v-.005zm-1.775.19h.002c-.003.266 1.077 1.308 1.882 1.76.407.23.562.235.489.015-.057-.174-.232-.348-.387-.385-.156-.038-.574-.386-.927-.772-.354-.386-.798-.694-.988-.684-.05.004-.071.023-.071.061v.004zm-5.377 13.654c-.01.11.32.146.948.076.698-.08.78-.143.415-.322-.251-.123-.68-.13-.951-.026-.27.111-.402.202-.411.267l-.001.005zm4.097-13.9c-.038.118.32.688.789 1.267.469.58.882.956.918.837.037-.119-.32-.688-.788-1.267-.47-.579-.884-.956-.92-.838m-4.071 12.925c-.005.152.442.188 1.143.035.632-.139.647-.167.203-.369-.266-.12-.728-.092-1.033.065-.211.11-.311.201-.314.27zm-.281-1.125c-.053.111.246.102.935.001.429-.063.807-.209.84-.322.115-.379-.663-.387-1.31-.012-.276.158-.434.268-.465.334zm.865-3.802c-.05.098.14.17.56.132.273-.027.525-.148.563-.272.037-.125-.225-.167-.583-.093-.325.067-.504.16-.541.235v-.002zm-.841 2.566c.004.113.334.167.985.061.593-.097 1.103-.268 1.137-.377.084-.282-.113-.296-1.158-.094-.65.126-.97.296-.964.41zm.338-1.189c-.038.123.389.13.946.012.798-.162.917-.253.553-.42-.481-.223-1.384.024-1.5.405v.003zm.477-2.558c-.037.13.133.218.382.195.248-.027.463-.083.479-.137.01-.053-.155-.14-.38-.195-.224-.055-.441.008-.48.137h-.001zm4.26-16.96c-.132.361-.158.622-.038.735.129.124.437-.263.732-.92.66-1.48 2.102-3.057 5.512-6.032 3.02-2.635 4.254-3.937 5.39-5.686.407-.624.86-1.518 1.009-1.988.21-.667-.055-.415-1.222 1.148-1.304 1.747-4.25 4.687-6.25 6.235-1.928 1.496-4.553 4.943-5.131 6.508h-.001zm-.511-5.88a.212.212 0 00.019.106.59.59 0 00.367.352c.15.037.23-.062.178-.22a.585.585 0 00-.367-.35c-.113-.03-.185.022-.194.113h-.003zm3.983-14.1h.002c-.03.1.048.23.192.325.236.153.338.1.307-.16-.051-.455-.142-.507-.443-.254-.028.027-.054.054-.055.09l-.003-.002zm-8.79 28.863c-.036.053.255.234.844.512.56.266.678.27.434.01-.185-.192-.57-.407-.856-.478-.262-.066-.4-.08-.42-.049l-.001.005zm4.517-15.969c-.033.06.094.201.428.42.47.31.944.594 1.053.632.477.163.276-.393-.24-.66-.693-.363-1.187-.49-1.241-.392m3.42-11.433c-.08.3.797 1.228 1.545 1.641.6.332.608.325.188-.139-1.028-1.135-1.682-1.702-1.733-1.503v.001zm-.71 1.602c-.008.047.028.142.103.286.293.576 2.788 1.766 3.522 1.681.412-.048.158-.254-.98-.798a729.58 729.58 0 01-2.152-1.035c-.331-.16-.477-.212-.491-.136l-.001.002zm-2.295 6.874c-.018.033.054.131.195.29.233.262.85.58 1.372.707 1.258.306 1.043.05-.523-.632-.705-.305-1.008-.423-1.044-.365zm.704-3.255c-.01.047.06.142.18.281.253.295 1.02.636 1.922.855 2 .487 1.588-.029-.614-.766-1.073-.36-1.47-.477-1.488-.37zm.453-1.969c-.033.254 1.715 1.28 2.595 1.494.53.128.99.147 1.022.04.064-.21-3.336-1.703-3.586-1.574-.027.01-.027.028-.032.042v-.002zm-2.107 6.46l.76.384c.42.213 1.13.477 1.58.59.793.196.797.192.193-.159-.343-.199-1.053-.464-1.578-.59l-.955-.226zm.626-3.446h.002a.257.257 0 00-.01.128c.027.442 1.447 1.343 2.597 1.65 1.394.372 1.134-.095-.477-.853-.811-.38-1.624-.795-1.808-.919-.152-.103-.26-.102-.298-.005h-.006zM19.46 44.614c-.01.033.028.077.084.138.185.186.734.438 1.22.558 1.404.345 1.15-.153-.273-.545-.692-.19-1.014-.242-1.031-.15zm-4.687-1.678l1.46.33a73.69 73.69 0 002.576.521c.992.171 1.027.161.326-.11-.432-.169-.872-.434-.977-.593-.276-.419-.883-.504-2.213-.314l-1.172.166zm10.029-36.99l-.637 2.605c-.716 2.936-2.104 10.156-2.086 10.862.009.254.135.492.28.527.163.038.377-.507.542-1.379.15-.795.629-3.074 1.062-5.065.433-1.99.799-4.505.813-5.586l.026-1.965zm-6.126 19.407c-.052.204-.058.617-.011.918l.087.546.164-.485c.09-.267.094-.68.007-.918-.136-.384-.164-.39-.25-.06h.003zM12.36 42.444c-.002.024.018.037.06.05.088.023.808-.129 1.6-.333 1.534-.394 1.596-.77.08-.476-.747.144-1.731.592-1.74.757v.002zm4.875-19.359c-.038.161-.02.49.059.926.12.655.162 1.384.094 1.62-.07.236.008.463.168.502.177.042.279-.163.262-.528-.084-1.812-.197-2.46-.455-2.613-.064-.038-.106-.005-.13.093h.002zm-7.32 18.863c-.107.196.483.134 1.534-.316.78-.333 1.539-.576 1.687-.54.148.038.216-.013.152-.118-.202-.317-1.204-.162-2.38.367-.614.278-.93.488-.993.606v.001zm5.849-20.33c-.137.296.099 2 .304 2.05.269.066.308-.46.099-1.328-.112-.467-.28-.81-.372-.763a.086.086 0 00-.033.042l.002-.002zm-1.477-.753c-.113.28-.192 1.351-.095 1.953.06.365.133.204.218-.473.07-.562.069-1.213-.001-1.447-.042-.13-.083-.127-.12-.033h-.002zm-6.35 20.812c-.008.11.624-.03 1.489-.339.929-.33 1.564-.675 1.412-.765-.32-.19-2.571.648-2.888 1.077a.08.08 0 00-.01.028zm4.87-22.075a2.672 2.672 0 00-.07.233 7.91 7.91 0 00-.13 1.283l-.01.784.285-.85c.159-.469.216-1.045.13-1.282-.094-.266-.143-.328-.205-.169v.001zm1.654-7.19a.164.164 0 00.009.091c.052.156.209.312.35.347.393.095.36-.1-.064-.379-.162-.108-.274-.126-.296-.059zm-3.733 7.296a.954.954 0 00-.042.355c.027.185.14 0 .256-.402.118-.406.097-.558-.046-.336-.071.11-.13.25-.167.383h-.001zm1.878-8.834c-.032.042.114.11.396.177.374.092.545.073.378-.04a1.195 1.195 0 00-.681-.167c-.053.005-.082.014-.093.028v.002zM8.68 19.68c-.028.078.037.077.193.003.198-.096.486-.38.64-.632.153-.252.305-.51.34-.573.039-.064-.002-.312-.087-.549-.118-.328-.21-.247-.391.343-.13.426-.38.957-.55 1.181-.081.105-.128.18-.145.227zm2.696-10.034c-.083.274.798.554 1.157.37.382-.198.312-.275-.401-.448-.374-.09-.716-.056-.756.08v-.002zm-3.461 8.718c-.074.248-.033.384.153.335.175-.047.43-.496.564-.997.222-.818.203-.852-.16-.35-.29.403-.482.764-.557 1.012zm2.22-10.016c-.037.114.21.258.645.364.497.121.81.088.754-.079-.052-.157-.325-.342-.607-.41-.282-.069-.623-.035-.757.078-.018.01-.027.032-.032.047h-.003zm-1.391 2.634c-.005.01.003.028.027.055.818 1.326 7.81 8.023 8.57 8.208.455.111.196-.189-1.626-1.864a104.875 104.875 0 01-3.123-2.993c-1.374-1.4-3.776-3.519-3.84-3.405h-.008zM5.02 23.053l.002.001c-.028.107.072.284.25.45 1.353 1.261 5.472 5.573 7.257 7.596 2.688 3.046 2.803 3.157 6.569 6.244 1.759 1.443 3.462 2.907 3.782 3.256.47.51.634 1.49.847 5.04.146 2.421.209 4.388.14 4.372-.067-.014-.491-.545-.942-1.174-.993-1.386-3.298-3.194-4.847-3.805-1.477-.582-8.023-1.817-8.11-1.53-.036.122 1.58.62 3.59 1.11 4.168 1.013 5.945 1.864 7.64 3.657 1.844 1.953 3.316 4.555 3.903 6.905.308 1.231.599 2.123.647 1.983.046-.142-.123-1.753-.378-3.584-.257-1.83-.657-6.24-.89-9.798-.232-3.557-.59-8.104-.792-10.106-.8-7.918-2.614-13.46-7.02-21.433-.9-1.63-1.432-1.822-.65-.234.228.464.522 1.126.654 1.472.13.346.906 2.214 1.722 4.151 1.792 4.256 2.837 7.48 3.49 10.765.51 2.575 1.466 10.522 1.277 10.628-.288.162-6.972-5.487-8.742-7.387-4.265-4.578-4.828-5.14-6.93-6.939-1.192-1.02-2.276-1.796-2.407-1.723-.033.013-.053.047-.06.083H5.02zM9.25 7.198c-.041.055.084.105.394.183.337.083.646.043.687-.093.092-.307-.198-.377-.82-.199-.144.041-.232.076-.26.11zM8.178 5.934c.019.028.184.042.497.053a12.3 12.3 0 011.278.122c.364.058.31-.008-.154-.19-.392-.155-.968-.21-1.28-.122-.245.07-.363.11-.341.137zM5.164 7.061c.295-.99.892-1.79 1.703-2.23 2.29-1.244 4.085-1.267 6.988-.088 2.633 1.068 3.577.782 4.847-1.465.734-1.3 2.035-2.032 3.89-2.189 3.135-.264 4.863.526 6.505 2.973 1.226 1.827 1.785 4.133 1.97 8.14.23 4.942.442 6.181 1.244 7.267 1.165 1.576 2.6 1.55 4.976-.09 1.137-.785 1.582-.942 2.219-.787 2.662.648 3.638 8.011 1.848 13.96-.952 3.163-1.694 4.44-4.305 7.414-1.59 1.81-1.88 2.283-2.115 3.443-.326 1.596.108 2.523 1.564 3.335.542.301 1.1.836 1.24 1.188.4.99-.304 2.723-1.635 4.02-.29.282-1.44 1.011-2.554 1.62-2.994 1.634-3.43 2.798-2.067 5.521 1.14 2.28.69 3.926-1.341 4.923-.965.473-1.081.472-2-.042-1.354-.756-2.7-1.032-5.556-1.14-1.352-.05-2.514-.188-2.583-.305-.068-.117-.084-.827-.038-1.577.12-1.864-.5-4.329-1.437-5.7-1.64-2.402-4.061-3.939-9.665-6.136-2.798-1.097-4.707-2.05-5.574-2.785-1.186-1.004-.917-3.386.522-4.613.938-.8 1.219-.926 3.607-1.633 1.969-.582 2.656-1.257 2.579-2.533-.068-1.113-.652-2.02-3.128-4.87-3.612-4.159-5.234-7.995-4.63-10.956l.277-1.359L4.5 19.34c1.092-.565 2.175-1.258 2.406-1.54.693-.848.49-2.248-.77-5.325-.65-1.587-1.182-3.37-1.181-3.964a5.093 5.093 0 01.207-1.45l.002.001zm-.978-.537a5.746 5.746 0 00-.195.867c-.226 1.522.054 2.84 1.15 5.442.919 2.18 1.287 3.535 1.116 4.103-.064.212-.957.8-1.986 1.304-2.077 1.021-2.718 1.667-3.156 3.187-.871 3.025 1.089 7.62 5.337 12.51 1.959 2.256 2.796 3.822 2.34 4.382-.147.182-1.03.548-1.96.811-3.265.926-4.625 1.968-5.242 4.021-.411 1.367-.177 2.473.756 3.563.805.94 1.52 1.31 6.905 3.555 4.649 1.938 6.51 3.03 7.896 4.635 1.567 1.814 2.062 3.575 1.998 7.103l-.031 1.44 1.207.232c.664.127 1.95.276 2.862.331 1.517.09 2.99.504 5.263 1.478.747.32 1.024.27 2.364-.42 2.832-1.46 3.48-3.787 1.884-6.76-1.031-1.923-.82-2.33 1.968-3.77 1.496-.774 2.622-1.565 3.125-2.196.433-.542.999-1.656 1.257-2.475.628-1.99.209-3.19-1.438-4.112-.872-.488-1.198-.847-1.28-1.41-.125-.879.324-1.58 3.334-5.21 1.648-1.987 2.024-2.625 2.788-4.712.869-2.376 1.12-3.717 1.563-8.294.46-4.77-1.185-8.572-4.006-9.254-.807-.196-2.778.202-2.892.582-.038.125-.734.67-1.546 1.21-1.28.852-1.537.931-1.937.593-.804-.68-1.194-2.43-1.361-6.116-.241-5.273-.62-7.005-2.095-9.527-1.11-1.898-2.22-2.68-4.601-3.243-3.502-.83-5.972-.078-7.575 2.301-.984 1.462-2.014 2.15-2.664 1.775-3.141-1.805-5.994-1.993-8.745-.574-1.284.663-2.04 1.48-2.407 2.648h.004z" fill-rule="nonzero"/></svg>