<svg viewBox="0 0 63 53" xmlns="http://www.w3.org/2000/svg" fill-rule="evenodd" clip-rule="evenodd" stroke-linejoin="round" stroke-miterlimit="2"><path d="M19.343 3.655c-.062-.063.191-.675.28-.675.021 0 .206-.071.412-.157.361-.15.389-.146.699.115.472.398.424.607-.078.332-.486-.266-.903-.195-1.104.189-.076.146-.171.235-.209.196m-2.543.862c.088-.228.622-.406.981-.328.558.123.458.253-.145.191-.476-.049-.591-.029-.646.113-.036.095-.106.172-.157.172-.05 0-.064-.067-.033-.148m2.798.115a1.722 1.722 0 01-.122-.379c0-.045-.091-.164-.202-.265-.164-.148-.244-.16-.431-.06-.126.067-.252.099-.281.07-.105-.105.412-.298.642-.239.281.07.631.671.564.963-.042.18-.065.168-.17-.09m4.829 1.873a2.83 2.83 0 01-.632-.41c-.144-.135-.504-.323-.798-.418-.566-.184-1.121-.667-1.295-1.13-.112-.298.007-.514.284-.514.083 0 .479-.118.88-.263.896-.323 1.841-.348 2.456-.066.513.236.838.58.754.799-.069.179-.384.225-.384.055 0-.199-.669-.514-1.247-.587-.562-.069-1.826.088-2.111.264-.21.13.058.509.535.755.422.219.974.256 1.558.106.792-.202 1.167-.216 1.232-.045.078.199-.138.348-.507.35-.153.001-.336.073-.409.16a.48.48 0 01-.323.158c-.297 0-.341.186-.076.328.698.374 2.235-.017 2.563-.653.146-.281.141-.32-.055-.516-.116-.117-.279-.213-.36-.213-.166 0-.265-.198-.197-.395.142-.407 1.188.326 1.187.833-.001.993-1.962 1.893-3.055 1.402m4.232-.095c-.258-.438-.734-.532-.83-.164-.03.116-.121.21-.201.21-.177 0-.179-.023-.022-.366.245-.537 1.002-.435 1.347.181.116.206.128.315.043.399-.084.084-.175.013-.337-.26m-6.91.797c-.033-.053.08-.247.251-.43.26-.278.377-.329.702-.301.519.044.612.296.109.296-.241 0-.479.092-.686.266-.174.147-.343.223-.376.169m3.787.429c-.11-.11-.05-.2.213-.32.311-.141.574-.159.574-.039 0 .107-.712.433-.787.359m4.612-.345a34.122 34.122 0 011.601-.366c1.234-.243 1.739-.403 1.739-.552 0-.405-.48-.967-1.248-1.461-.449-.289-.593-.337-.713-.237-.118.098-.192.087-.341-.048-.221-.2-.451-.222-.615-.058-.077.077-.137.079-.181.007-.036-.059.038-.18.166-.27.228-.16.225-.165-.288-.39-.286-.126-.916-.41-1.4-.633-.685-.315-.863-.364-.805-.222.122.297.113.472-.028.522-.078.028-.131-.044-.131-.177 0-.122-.076-.251-.167-.287-.209-.08-.872.226-.954.44-.075.196-.249.208-.249.018 0-.193.409-.558.819-.73l.342-.144-.66-.231c-1.621-.569-4.597-.594-4.92-.041-.057.099-.106.124-.108.056-.002-.069.07-.197.159-.287.146-.145.09-.156-.553-.106-1.665.129-3.745.571-4.72 1.002-.807.357-1.509.823-1.58 1.048-.036.113-.134.205-.217.205-.083 0-.15.063-.15.141 0 .201 1.478.878 3.918 1.793.688.258.708.26.772.06.108-.341 1.209-.784 1.209-.487 0 .078-.225.209-.5.292-.725.217-.689.407.154.821.394.193.976.508 1.294.7.791.476 2.213.746 2.213.42 0-.087.047-.158.106-.158.057 0 .105.071.105.158 0 .126.151.158.73.158.403 0 .761.048.797.106.036.058.176.078.311.044.136-.034.273-.016.308.039.036.058.673-.118 1.491-.412.786-.282 1.818-.612 2.294-.733m-5.012 1.736c-.035-.036-.126-.039-.202-.009-.084.034-.059.059.064.064.111.005.173-.02.138-.055m20.204-.088c-.405-.19-.855-.376-1.001-.414-.144-.039-.003.049.316.194.319.146.722.333.896.417.174.083.363.15.421.149.058-.001-.227-.156-.632-.346m-20.511.626c.105-.23.088-.283-.13-.426-.137-.09-.432-.192-.656-.225l-.406-.062.47.488c.258.268.5.488.536.488.037 0 .12-.118.186-.263m-.048.737c-.101-.264-1.235-1.387-1.478-1.464-.22-.07-.224-.058-.108.327.12.404.196.485.95 1.005.465.321.73.376.636.132m-.775.033c0-.09-.581-.509-.701-.504-.049.002-.005.053.1.113.119.069.167.181.127.302-.048.154-.006.189.207.177.147-.009.267-.048.267-.088m23.745.678c-.069-.29-.25-.589-.316-.524-.019.02.013.21.073.424.123.449.348.541.243.1m-46.574.553c.044-.619.035-.731-.033-.421-.093.42-.142 1.391-.066 1.308.022-.025.067-.423.099-.887m10.924-4.772c0-.23.697-.919 1.032-1.02.336-.101.759.193.759.527 0 .308-.169.347-.261.06a.456.456 0 00-.224-.263c-.268-.103-.861.216-1.039.561-.191.369-.267.408-.267.135m-3.161.275c0-.246.586-.997.826-1.06.25-.065.649.181.649.401 0 .199-.097.192-.337-.025-.183-.166-.213-.164-.482.037a1.597 1.597 0 00-.403.441c-.163.32-.253.394-.253.206m6.426.434c0-.419.705-.819 1.184-.673.31.095.607.358.607.538 0 .204-.177.175-.42-.069-.287-.286-.694-.265-1.011.053-.29.29-.36.319-.36.151m-9.456.192c.051-.152.684-.354.786-.252.11.11-.093.244-.477.316-.253.047-.339.029-.309-.064m13.868 1.049c-.123-.165-.284-.234-.553-.235-.543-.001-.525-.203.022-.242.529-.038.966.193.966.51 0 .274-.221.258-.435-.033M9.572 10.71c-.573-.111-1.017-.288-1.354-.54-.404-.302-.724-.941-.555-1.109.073-.073.16.026.273.305.091.227.259.472.374.544.195.121.209.103.209-.286 0-.229.051-.447.112-.486.185-.113.209-.004.112.512-.097.526-.133.481.527.663.114.032.193-.035.234-.198.112-.447.769-.986 1.424-1.17.675-.19 1.678-.223 2.2-.073.392.113.446-.008.178-.391-.279-.399-.775-.589-1.522-.583-1.218.009-2.582.491-3.28 1.16-.211.202-.412.321-.447.263-.108-.173 1.041-1.136 1.79-1.5.591-.288.852-.35 1.669-.393.813-.042 1.045-.016 1.446.162.59.26.987.763 1.139 1.44.135.603.038.776-.324.582-.374-.2-1.26-.414-1.722-.415-.734-.002-1.626.314-2.045.727l-.385.378.445.032c.616.045 1.494-.133 2.271-.46.962-.405 1.129-.431 1.129-.173 0 .284-.515.592-1.345.806-.691.178-2.101.29-2.553.203m3.029.096c-.537-.082-.295-.213.485-.263 1.684-.108 2.613-1.147 1.675-1.871a87.553 87.553 0 00-.553-.422c-.249-.189-.254-.21-.083-.383.144-.146.231-.161.424-.073.47.215.92.683 1.04 1.083.25.834-.533 1.676-1.759 1.892-.648.114-.71.115-1.229.037m3.596.049c-.053-.582.345-1.059 1.029-1.231.493-.124.669-.086.669.144 0 .086-.186.158-.496.194-.537.06-.979.43-.979.82 0 .222-.203.289-.223.073m-10.417.241c0-.337-1.047-.455-1.377-.156-.113.102-.241.151-.284.107-.166-.166.504-.587.934-.587.629 0 1.313.431 1.07.674-.1.101-.343.073-.343-.039v.001zm7.12.971c.136-.599.963-.946 1.466-.616.319.209.356.589.059.589-.113 0-.234-.047-.269-.105-.076-.122-.684-.139-.851-.025a.639.639 0 00-.182.262c-.111.303-.296.216-.223-.105m-5.224.731c0-.177.627-1.064.828-1.172.443-.237 1.068-.106 1.068.224 0 .186-.047.201-.429.136-.409-.069-.451-.05-.894.412-.464.484-.573.561-.573.4m2.42.219c.177-.365.843-.766 1.273-.766.409 0 .837.341.837.665 0 .265-.142.216-.405-.138-.376-.51-1.039-.404-1.629.26-.189.213-.19.213-.076-.021m2.32 1.506c0-.381 6.05-3.181 8.218-3.804.146-.042.655-.216 1.133-.388l.869-.313v-.444c0-.244-.06-.523-.132-.622-.226-.307-2.208-1.341-4.89-2.552-.975-.441-2.013-.935-2.306-1.099-.389-.218-.789-.33-1.475-.414-1.147-.141-2.68-.152-2.68-.02 0 .054-.202.17-.449.26-4.097 1.486-4.796 1.811-6.189 2.877a33.486 33.486 0 01-1.709 1.231c-.678.433-.819.631-.819 1.149 0 .34.072.411 1.313 1.298 2.154 1.538 3.583 2.235 6.028 2.938 1.263.364 2.141.473 2.141.265 0-.177.423-.118.494.069.059.152.092.144.261-.065.105-.131.193-.296.193-.366h-.001zm19.149-5.929a1.57 1.57 0 01.474 0c.13.025.024.046-.237.046s-.367-.021-.237-.046m8.983.686c-.003-.401.35-.611 1.023-.611.416 0 .556.038.556.153 0 .114-.167.161-.656.184-.578.028-.672.063-.789.295l-.132.263-.002-.284zm-11.798.534c-.005-.246.197-.371.708-.436.341-.043.448-.022.448.091 0 .105-.137.148-.469.148-.335 0-.499.053-.576.184-.094.162-.108.164-.111.013m13.855 1.389c-.042-.067.109-.302.343-.536.33-.329.498-.418.791-.418.476 0 .706.09.706.276 0 .116-.12.133-.562.081-.551-.064-.567-.058-.884.325-.203.246-.348.347-.394.272m-11.18.579c-.146-.584-1.021-.793-1.486-.356-.134.126-.244.181-.244.122 0-.27.455-.509.967-.509.462 0 .563.043.838.351.312.348.348.547.114.625-.066.022-.151-.083-.189-.233m5.661-1.491c.049-.257.615-.35.615-.101 0 .09-.035.165-.078.166-.044.001-.19.031-.327.068-.203.054-.241.03-.21-.133m-1.199 1.691c.533-.374.168-.775-.979-1.076-.6-.157-.683-.209-.683-.431 0-.24.023-.249.448-.172a9.78 9.78 0 001.237.092l.791.012.004.308c.003.249.082.348.411.52.792.41 2.325.211 2.325-.303 0-.162-.137-.252-.607-.401-.511-.161-.605-.23-.605-.439 0-.362-.6-.693-1.383-.764-.632-.057-.639-.055-.501.165.11.176.112.252.012.352-.1.101-.209.089-.505-.052-.207-.098-.415-.156-.462-.127-.047.029-.239-.024-.427-.117-.257-.128-.497-.154-.981-.103-.848.088-1.232.424-1.232 1.077 0 .399.052.491.491.878.759.668 2.101.962 2.647.581h-.001zm-1.512.548c-1.062-.348-1.86-.983-2.034-1.621-.124-.456.067-1.145.416-1.493.42-.42 1.29-.606 2.116-.453.518.096.674.082 1.198-.111.536-.198.675-.209 1.28-.106.734.126 1.404.534 1.404.856 0 .135.146.223.527.321.877.225 1.185.857.729 1.497-.317.446-.745.627-1.498.633a2.74 2.74 0 01-1.251-.256l-.592-.262-.058.295c-.127.636-1.305 1.004-2.237.7m3.704 1.21c-.105-.171.186-.604.454-.674.314-.082.901.247.941.528.042.293-.124.305-.402.026-.276-.275-.569-.267-.759.02-.111.165-.176.194-.234.1m-3.854.148c0-.242.57-.799.93-.906.494-.148.914-.097.914.112 0 .12-.131.158-.547.158-.482 0-.593.044-.922.363-.206.2-.375.323-.375.273zm4.524.967c1.205-1.117 4.831-2.674 7.527-3.234l.591-.123v-1.002l-1.027-.483a68.4 68.4 0 00-2.08-.929c-.58-.244-1.409-.6-1.844-.79-1.981-.866-2.695-1.116-3.209-1.12-.295-.002-.54.047-.562.113-.022.065-.168.118-.325.118-.158 0-.343.056-.412.124-.203.204-.283 0-.086-.219.178-.196.155-.202-.957-.278-1.529-.104-3.179-.002-3.337.207-.07.093-.448.208-.91.276-.939.14-2.809.598-4.254 1.044-.572.176-1.107.321-1.189.321a.516.516 0 00-.277.103c-.07.057-.287.233-.484.39-.503.404-.824 1.192-.486 1.192.093 0 .159.098.162.237.003.193.156.306.816.603.448.202 1.453.67 2.236 1.04 4.819 2.282 6.683 2.898 8.94 2.953.544.013.589-.008 1.167-.543m-3.576 1.358c0-.1-.315-.15-.371-.059-.034.055.035.1.154.1s.217-.018.217-.041m1.266-.011c-.124-.149-.499-.278-1.213-.42-.208-.042-.1.043.316.248.719.354 1.11.429.897.172m1.579.21c0-.206-.054-.263-.248-.263-.138 0-.482-.029-.765-.064-.51-.064-.513-.062-.265.12.213.158.947.441 1.199.464.044.004.079-.112.079-.257m20.793 1.687c-.033-.087-.103-.131-.155-.099-.148.092-.11.256.061.256.094 0 .131-.062.094-.157m.635.014c-.065-.552-.162-.719-.293-.506-.053.084.274 1.188.334 1.129.015-.016-.002-.296-.041-.623m-1.561.607c.257-.15.467-.316.467-.369 0-.143-.169-.114-.307.052-.067.081-.263.205-.434.276-.172.071-.313.171-.313.222 0 .141.08.116.587-.181m-1.159.735c.5-.381.453-.512-.086-.24-.549.277-.537.266-.452.404.096.157.131.147.538-.164m2.115.438c.189-.132.209-.217.144-.578-.131-.715-.258-.785-.829-.458a8.971 8.971 0 00-.542.324c-.058.049.828.866.938.866.038 0 .168-.069.289-.154m.295.327c-.059-.232-.1-.257-.272-.165-.199.106-.198.115.037.305.291.236.324.216.235-.14m-3.623.083a8.39 8.39 0 01.499-.349c.077-.045.105-.155.066-.259-.077-.199-.186-.181-.95.157l-.466.206.186.255c.101.14.211.256.243.258.032.001.222-.119.422-.268m-33.509-8.402c0-.293.512-.628 1.035-.678.439-.042.548-.013.741.193.232.249.306.624.123.624-.057 0-.181-.118-.276-.263-.136-.207-.261-.264-.587-.264-.306 0-.477.069-.658.264-.273.295-.378.329-.378.124m4.425 1.867c0-.092.161-.33.358-.527.269-.269.449-.358.721-.358.41 0 .712.261.712.614 0 .289-.271.3-.422.018a.435.435 0 00-.372-.211c-.259 0-.681.327-.681.527 0 .058-.071.106-.158.106-.087 0-.158-.076-.158-.169m-9.514 1.051c-.106-.107.21-.626.497-.814.428-.281 1.327-.212 1.327.101 0 .179-.216.188-.576.025-.35-.161-.727.005-.988.435-.106.175-.224.289-.26.253m12.534.944c-.123-.124-.078-.222.254-.554.312-.312.63-.396.984-.26.198.076.224.352.035.368a3.666 3.666 0 01-.408-.006c-.186-.012-.347.071-.49.252-.227.289-.265.309-.375.2m-14.86.828c-.199-.323.536-.863 1.175-.863.475 0 .973.324.973.633 0 .239-.233.407-.297.215-.107-.318-.451-.532-.859-.532-.407 0-.499.054-.781.464-.092.132-.163.16-.211.083m11.945 1.403c0-.06.595-.317.957-.412.14-.036 0 .052-.312.198-.599.28-.645.296-.645.214m-6.135-1.147c.372-.816 1.473-1.486 2.644-1.609.628-.065.642-.073.578-.342-.21-.884-1.287-1.185-2.69-.751-.86.265-1.514.807-1.669 1.383-.147.544-.078.734.429 1.192.493.445.557.457.708.127m1.121 1.202c-1.128-.24-2.28-1.106-2.666-2.005-.231-.535-.217-.847.028-.644.091.075.167.012.271-.221.348-.788 1.444-1.524 2.454-1.649.825-.103 3.101.042 3.926.249 2.223.558 2.975 1.469 2.027 2.455-.464.482-.686.593-.874.436-.243-.201-.176-.461.171-.666.748-.442.63-.91-.335-1.325-.385-.166-2.704-.841-2.908-.847-.013-.001.093.172.237.383.143.212.261.535.261.724 0 .313.032.345.399.404.639.103 1.707.68 1.707.923 0 .306-.267.352-.655.113-.939-.575-2.821-.713-3.86-.283-.446.185-1.069.866-1.069 1.17 0 .173.602.354 1.431.431.947.086 1.728-.171 2.323-.766.26-.259.517-.444.571-.41.341.21-.206.877-1.088 1.33-.499.255-1.63.35-2.351.198m-3.203.471c0-.62 1.238-1.129 1.349-.555.028.144-.039.177-.337.166-.402-.015-.652.134-.752.451-.091.288-.26.248-.26-.062m3.334.92c-.11-.176.25-.542.636-.649.418-.115.56-.076.56.156 0 .106-.124.152-.415.152-.302 0-.458.06-.569.219-.084.12-.18.175-.212.122m1.66.886c.457-.346 3.038-1.831 3.826-2.201.36-.169 1.096-.467 1.633-.662 1.052-.382 1.077-.465.059-.202-.347.09-.653.144-.677.119-.064-.063 1.169-.355 1.859-.44.318-.039.935-.156 1.369-.259a96.882 96.882 0 011.682-.382c.795-.173 1.268-.417 1.268-.651 0-.044-.32-.194-.711-.333-1.314-.466-3.116-1.291-6.061-2.775l-2.927-1.474-1.498.047c-1.43.045-1.57.07-3.078.545-4.002 1.262-6.028 2.091-6.139 2.512-.028.109-.287.318-.575.464-.593.3-.628.442-.051.201.44-.184.707-.119.707.172 0 .241-.723.608-1.212.615-.561.007-.628.124-.362.644.285.56.374.63 1.311 1.028.405.173 1.378.619 2.16.993 2.518 1.202 5.306 2.11 6.996 2.278.052.005.242-.102.421-.239m22.398-6.745c0-.564-.634-.619-1.116-.098-.141.152-.288.244-.327.205-.139-.138.362-.649.783-.798.384-.136.455-.133.701.029.209.136.275.268.275.546 0 .255-.048.366-.159.366-.095 0-.157-.098-.157-.25m-4.01.999c.211-.395 1-.469 1.219-.115.14.226-.136.368-.346.179-.17-.155-.222-.157-.488-.019-.402.209-.513.196-.385-.045m13.729 1.016c-.058-.072-.164-.316-.236-.541-.095-.293-.218-.442-.437-.524-.323-.122-.349-.308-.051-.366.288-.056.7.279.905.738.254.567.122 1.074-.181.693m-1.817 1.467c0-.303.474-.598.961-.598.557 0 .955.228.753.433-.1.101-.189.103-.4.007-.392-.179-.653-.153-.894.087-.242.243-.42.273-.42.071m-11.57.018c.044-.444.457-.738 1.131-.802.491-.047.535-.033.535.173 0 .179-.064.224-.319.224-.505 0-1.051.271-1.051.521 0 .126-.068.216-.164.216-.122 0-.156-.087-.132-.332m-1.841.166c-.331-.207-.602-.418-.602-.469 0-.051.297.102.659.34.783.515.773.506.647.506-.056 0-.372-.17-.704-.377m12.086-.779c.149-.057.271-.172.271-.255 0-.719-2.503-1.815-2.941-1.287-.201.242-.322.213-.714-.166-.291-.283-.442-.342-.954-.376-.692-.044-1.255.191-1.471.616-.299.588.503.995 1.228.625.643-.328 1.582-.276 1.589.088.006.288.341.592.787.715.542.149 1.856.173 2.205.04m-5.049 1.322c-1.526-.351-2.457-.949-2.645-1.698-.088-.351.066-.89.296-1.035.241-.152.368 0 .211.252-.19.304-.155.707.079.942.304.303 1.14.702 1.87.891 1.412.366 2.26.126 2.017-.57-.062-.177-.195-.366-.295-.42-.179-.096-.832-.074-1.8.059-.431.059-.511.034-.816-.251-1.121-1.046.658-2.695 2.355-2.184.27.081.592.239.716.351.166.151.443.219 1.067.265 1.338.097 2.058.42 2.596 1.163.773 1.067-.064 1.85-1.834 1.717-.477-.036-.991-.094-1.143-.13-.216-.05-.286-.019-.33.146-.138.533-1.211.763-2.344.502m2.37 1.009c0-.147.353-.419.771-.595.316-.131.481-.142.813-.052.235.063.418.177.418.26 0 .241-.164.272-.515.098-.266-.133-.398-.142-.689-.046-.198.066-.416.188-.487.272-.138.168-.311.203-.311.063m-4.003.626c0-.278.559-.725 1.015-.81.64-.12 1.302.344 1.302.912 0 .231-.384.071-.556-.231-.176-.311-.213-.326-.681-.273-.364.041-.551.127-.712.329-.26.325-.368.346-.368.073m1.738 1.367c-.238-.066-.097-.091.579-.101l.896-.014-.561-.261c-.308-.143-.53-.308-.494-.367.1-.161.201-.137.922.216.778.382 1.053.371 2.476-.098 1.325-.436 3.041-1.326 4.712-2.443 1.31-.875 1.681-1.06 1.482-.737-.119.192-2.803 1.933-3.704 2.401-1.697.883-3.386 1.362-5.096 1.447-.493.024-1.038.005-1.212-.043m3.002-.047c1.909-.443 4.757-1.441 6.236-2.184 1.406-.707 2.602-1.733 2.219-1.903-.043-.019-.156-.177-.25-.351-.234-.433-1.738-1.635-2.656-2.124-1.616-.861-4.091-1.828-4.158-1.625-.022.065-.217.083-.486.047-.468-.065-.546-.012-.977.662-.115.178-.126.168-.132-.102-.004-.197.101-.406.309-.614.174-.174.317-.331.317-.348 0-.017-.367-.088-.817-.157-1.352-.208-3.476.06-5.385.678-3.344 1.084-5.809 2.38-5.809 3.054a.558.558 0 01-.117.341.208.208 0 00-.028.258.515.515 0 01.062.299c-.017.11.3.284 1.057.579.594.232 1.144.415 1.221.405.078-.008.529.176 1.001.41.473.233 1.2.58 1.615.77.976.445 1.873 1.058 2.424 1.656.242.262.502.505.58.54.314.143 2.695-.041 3.774-.291m8.531.556c.234-.122.425-.255.425-.296 0-.041-.208-.221-.462-.4l-.462-.325-.896.534.41.35c.224.193.443.352.484.354.042.003.268-.095.501-.217m-35.185-.369c0-.072.174-.359.385-.637.382-.499.383-.503.08-.308-.81.521-1.093.759-1.095.923-.001.098-.057.212-.124.253-.084.052-.062.118.073.217.168.123.227.111.438-.087.133-.126.243-.288.243-.361m35.714 1.091a1.951 1.951 0 00-.063-.36c-.055-.202-.097-.216-.367-.122-.38.133-.383.201-.017.428.349.216.449.228.447.054m-1.78-.053c.284-.16.517-.317.517-.351 0-.131-.851-.737-.948-.676-.057.035-.078-.005-.044-.09.036-.094-.087-.269-.318-.453-.207-.165-.376-.339-.376-.386 0-.047.214.09.477.305l.476.39.375-.199c.206-.11.396-.232.421-.272.026-.041-.152-.259-.395-.485-.38-.355-.472-.396-.66-.295-.45.239-1.725 1.099-1.792 1.208-.062.1.525.739.685.748.034.001.267.192.519.424.251.232.476.421.502.421.025 0 .278-.13.561-.289m.845.642c.283-.154.515-.315.515-.357 0-.042-.119-.154-.263-.249-.249-.163-.291-.158-.79.095-.29.147-.527.308-.527.358 0 .078.399.411.511.427.022.003.271-.12.554-.274m-2.206.112l.538-.273-.305-.286c-.168-.157-.711-.675-1.207-1.149l-.902-.863-.651.22c-.36.121-.624.265-.591.321.068.109 2.493 2.303 2.547 2.303.018 0 .275-.123.571-.273m-33.618-.21c.005-.123.029-.148.063-.064.031.077.027.167-.009.203-.034.035-.059-.028-.054-.139m.768-.211c.08-.459.133-.848.117-.866-.016-.018-.18.124-.366.316-.261.27-.309.293-.214.103.149-.294.139-.308-.251-.352-.676-.077-.549.978.175 1.454.188.123.354.214.368.201.015-.012.092-.397.171-.856m34.106.84c.073-.088.016-.188-.191-.335l-.295-.21-.565.287-.566.287.352.275.352.276.404-.228c.223-.125.452-.284.509-.352m1.929.633c.091-.035.148-.094.124-.132-.023-.037-.054-.281-.07-.542-.015-.26-.046-.508-.067-.55-.041-.08-1.192.45-1.185.546.006.07.864.727.962.736a.788.788 0 00.236-.058m-1.106.5l.551-.301-.449-.331c-.247-.182-.487-.331-.531-.331-.111 0-1.037.566-1.034.632.003.063.76.623.85.628.034.002.31-.131.613-.297m-13.069-.264l.67-.223-.061-.515c-.034-.284-.084-.539-.111-.566-.028-.028-.255.115-.504.318-.249.202-.785.569-1.192.814-.902.546-.845.49-.69.677.112.137.197.128.673-.064.3-.12.847-.319 1.215-.441m11.51 1.128c.284-.154.515-.314.515-.356 0-.042-.166-.202-.368-.357l-.367-.28-.395.268c-.451.306-.555.329-.555.118 0-.082.164-.251.365-.375l.365-.226-.354-.31c-.241-.211-.415-.288-.542-.239-.142.055-.172.032-.124-.095.046-.119-.312-.521-1.235-1.388l-1.3-1.22-.698.216-.699.215.217.304c.475.668 4.279 4.005 4.564 4.005.054 0 .328-.126.611-.28m-7.702-.088c-.196-.202-.455-.397-.574-.434a9.283 9.283 0 01-.768-.314 6.82 6.82 0 00-.816-.315c-.231-.058-.266-.032-.266.198 0 .232.092.297.764.539.979.352 1.909.677 1.97.686.025.005-.113-.157-.31-.36m-3.812.133l.771-.239-.048-.453c-.026-.249-.068-.473-.093-.499-.026-.025-.528.158-1.117.406l-1.069.451.284.285c.157.156.333.285.393.286.058.001.455-.105.879-.237m14.135.272l.34-.068-.067-.69c-.063-.641-.167-1.021-.167-.607 0 .107-.048.152-.117.109-.124-.076-1.358.466-1.358.598 0 .085.843.727.956.727.04 0 .225-.031.413-.069m.422.378c0-.287-.027-.315-.237-.251-.354.109-.363.149-.077.368.332.255.314.262.314-.117M33.01 18.598c.203-.814 1.359-1.253 1.991-.755.279.219.381.624.158.624-.066 0-.229-.119-.364-.264-.143-.154-.36-.263-.526-.263-.391 0-.98.386-1.056.694-.035.14-.111.254-.17.254-.061 0-.075-.118-.033-.29m5.113.809c0-.227.611-.716.981-.785.271-.051.494-.016.779.124.444.217.527.493.163.545-.131.018-.237-.014-.237-.071 0-.058-.159-.157-.354-.221-.434-.144-.905.006-.985.312-.057.217-.347.297-.347.096M26.429 21.37c0-.943 1.716-1.233 2.165-.365.177.343.198.623.048.623-.059 0-.106-.068-.106-.151 0-.202-.466-.557-.84-.639-.399-.088-.928.188-1.013.528-.085.336-.254.339-.254.004zm16.191.295c-.039-.04-.072-.208-.072-.374 0-.406-.262-.489-.585-.185-.194.183-.258.203-.258.082 0-.224.342-.509.612-.509.253 0 .526.351.571.73.028.246-.128.395-.268.256m-3.289 1.115c-.117-.189.044-.604.385-.993.268-.304.398-.37.736-.37.277 0 .483.072.632.222.203.203.208.236.055.389-.152.152-.19.146-.428-.079-.237-.222-.292-.232-.586-.111-.367.152-.527.39-.527.783 0 .276-.143.361-.267.159m-1.903-1.809c.088-.44-.189-.827-.683-.957-.344-.091-1.875.053-2.11.198-.056.035.085.198.313.363.228.166.446.351.485.413.038.062.362.116.722.12.358.005.747.048.862.098.322.138.338.13.411-.235m.05 1.911c.561-.523.004-1.1-1.181-1.223-.533-.054-.571-.043-.631.194-.035.139-.208.401-.385.581l-.321.329.397.164c.224.093.717.167 1.139.17.615.004.786-.033.982-.215m-1.925.582c-.226-.083-.481-.209-.567-.281-.105-.087-.577-.131-1.433-.132-1.185-.001-1.32-.022-1.88-.297-.74-.364-1.054-.726-.961-1.113.165-.692.615-1.181 1.228-1.335.394-.099.36.105-.045.273-.376.156-.724.66-.725 1.051 0 .628 1.636 1.186 2.781.948.674-.14 1.222-.538 1.222-.887 0-.496-.794-.993-2.105-1.317-.457-.113-.695-.226-.717-.34-.052-.275.271-.318 1.001-.135.617.154.72.155 1.119.007 1.068-.397 2.347-.485 2.915-.201.603.302.976 1.383.587 1.705-.129.108-.12.177.063.489.373.631.078 1.33-.683 1.618-.408.155-1.306.128-1.8-.053m-6.596.157c0-.365.539-.808 1.082-.889.519-.078.709-.02.709.214 0 .104-.173.155-.603.177-.552.03-.623.062-.818.37-.246.394-.37.436-.37.128m7.734 1.15c-.154-.248.379-.522.95-.488.465.027.54.062.569.27.032.23.012.236-.539.171-.378-.044-.598-.027-.646.051-.094.153-.239.151-.334-.004m-2.441.435c-.426-.386-.803-.405-1.035-.05-.095.145-.214.236-.266.205-.327-.203.318-.784.869-.784.486 0 1.119.486 1.007.774-.091.239-.176.218-.575-.145m3.625.733c1.801-.546 5.192-2.156 6.483-3.079 1.017-.727 1.36-1.147 1.286-1.576-.117-.678-1.521-1.603-3.808-2.512a34.145 34.145 0 01-1.245-.52c-.884-.402-1.557-.637-1.686-.587-.074.029-.186-.01-.25-.087-.302-.365-2.474-.631-5.062-.62-1.107.005-2.172.224-4.056.836-1.492.485-3.764 1.599-4.373 2.143l-.473.425.895-.464c1.466-.76 5.593-2.3 5.748-2.145.023.023-.442.196-1.032.385-2.293.734-5.48 2.152-5.914 2.632-.101.111-.184.4-.196.68-.018.412.027.538.289.811 1.097 1.145 7.161 3.515 9.797 3.828.173.02.891.044 1.595.053 1.027.013 1.423-.028 2.002-.203m5.964-.209c.359-.165.359-.203-.005-.553l-.295-.282-.838.281c-.461.155-.861.302-.89.326-.03.024.134.2.362.393l.415.349.481-.19c.264-.105.611-.251.77-.324m14.799.061c.014-.008-.215-.192-.506-.41l-.53-.395-.525.296c-.289.163-.514.344-.501.402.013.057.217.253.453.433l.427.329.579-.321.603-.334m-12.558-.338l-.062-.335-.6.206c-.771.266-.818.323-.507.616.228.215.298.229.597.125.41-.143.517-.148.517-.021 0 .053-.147.129-.326.169l-.326.071.353.295.351.295.034-.543a4.488 4.488 0 00-.031-.878m-1.424.532l-.29-.245-.619.246a44.04 44.04 0 01-.822.318c-.183.065-.168.1.156.371l.359.299.754-.372.753-.373-.291-.244zm3.654.614c-.276-.279-.736-.607-1.024-.729l-.524-.221v.35c0 .335.032.363.765.663 1.392.571 1.406.57.783-.063m8.228.406c.692-.366.69-.355.138-.777-.465-.354-.541-.38-.79-.267-.353.161-.49.031-.189-.18.224-.157.208-.179-.903-1.141a51.756 51.756 0 01-2.343-2.207c-1.314-1.33-1.285-1.316-2.264-1.08l-.528.126.949.981c1.194 1.234 5.259 4.751 5.493 4.751.025 0 .222-.093.437-.206m2.656-.031c.288-.188.522-.366.521-.395-.003-.082-.827-.632-.947-.632-.06 0-.346.136-.637.302l-.528.302.506.375c.278.207.518.379.534.383.014.004.263-.147.551-.335m-14.353.659c.101-.058.412-.2.691-.316l.509-.211-.298-.24c-.675-.543-.587-.532-1.393-.171-.411.183-.746.363-.744.398.007.112.759.645.91.645a.811.811 0 00.325-.105m14.964.295c.13-.13.178-.947.062-1.062-.051-.051-.771.331-.988.526-.052.046.632.654.742.659.032.002.115-.054.184-.123m-1.99-.05c.208-.155.395-.295.417-.31.052-.041-.515-.528-.788-.677-.189-.103-.295-.075-.67.173l-.447.296.459.397c.252.218.502.398.555.399.052.002.266-.123.474-.278m-9.797-.324c-.698-.736-1.118-1.046-1.238-.916-.039.041-.005.099.074.126.088.032.101.077.035.118-.203.126-.008.607.329.813.319.193 1.181.545 1.379.562.052.004-.208-.312-.579-.703m-2.177.684c.094-.072.2-.334.236-.583l.065-.451-.375.161-.768.332-.392.169.313.252c.349.279.66.32.92.12h.001zm-2.191-.059l.612-.296-.444-.351-.444-.352-.634.304-.633.302.405.344c.223.188.432.343.465.344.033.001.336-.132.673-.295m2.347.233c-.026-.026-.127-.016-.223.021-.14.054-.151.098-.049.22.109.131.139.129.222-.02.053-.096.076-.194.05-.221m12.748.152l.484-.333-.307-.246c-.391-.312-.481-.309-1.005.037l-.428.284.352.293c.193.16.367.293.386.295.018.002.252-.147.518-.33m-11.245.287c0-.025-.142-.146-.316-.27-.249-.177-.317-.192-.317-.069 0 .126.196.247.607.377.014.004.026-.012.026-.038m-1.298-.184c-.034-.085-.058-.06-.063.063-.005.111.019.174.055.138.035-.035.039-.126.008-.201m-1.628.165l.544-.276-.358-.292c-.224-.183-.42-.265-.521-.22l-.611.263c-.246.105-.447.222-.446.259.003.084.648.542.765.542.045 0 .328-.124.627-.276m14.857.332c.439-.223.505-.464.182-.666-.183-.114-.282-.093-.685.143-.259.152-.471.316-.471.366 0 .103.444.432.525.388l.449-.231m-9.93-.165c-.318-.287-.65-.523-.737-.525-.087-.002-.487-.116-.89-.253-1.136-.387-1.248-.227-.341.492.317.25.679.394 1.433.568.556.128 1.033.234 1.063.236.029.002-.208-.232-.528-.518m-4.033.674c.557-.213.611-.531.14-.81-.307-.18-.325-.178-.906.115l-.591.3.404.277c.489.336.407.326.953.118m11.492.025a5.34 5.34 0 00.75-.456l.252-.205-.381-.29-.382-.291-.293.207c-.375.264-.767.388-.767.243 0-.061.195-.21.433-.332.24-.121.394-.259.343-.305-.051-.046-.684-.572-1.408-1.169-1.809-1.489-3.75-3.245-4.993-4.514-1.118-1.142-1.101-1.135-2.115-.995l-.5.068.88.428c.731.354.834.433.606.463-.15.021-.552-.086-.891-.236l-.617-.273.258.294c.169.192.112.162-.162-.086a5.883 5.883 0 00-.927-.654c-.422-.229-.498-.245-.455-.095.027.099.08.329.116.51.06.295.185.39 1.169.885.607.305 1.132.525 1.168.489.036-.036-.009-.095-.1-.13-.092-.035-.247-.19-.345-.345-.098-.154.717.603 1.811 1.683 1.094 1.081 2.392 2.322 2.884 2.76.799.71 3.062 2.579 3.138 2.593.016.003.254-.108.528-.247m-8.301.121c-.359-.305-.802-.606-.985-.67-.785-.276-.807-.277-.807-.066 0 .136.167.278.528.446.289.136.526.305.526.376 0 .102.865.405 1.301.457.05.005-.204-.239-.563-.543m-2.74.242c0-.302-.008-.307-.333-.194l-.334.116.24.194c.333.27.427.245.427-.116m12.158-.038l.621-.417-.252-.194c-.139-.107-.29-.195-.337-.196-.11-.004-1.338.829-1.338.906 0 .124.478.438.579.38.058-.034.386-.249.727-.479m-11.841.132c0-.258-.042-.402-.106-.362-.058.035-.105.228-.105.427 0 .2.047.363.105.363.058 0 .106-.193.106-.428M44 30.302c.364-.154.646-.326.627-.382-.018-.056-.197-.197-.397-.313l-.365-.211-.702.303-.702.304.333.285c.184.158.381.288.439.291.058.002.403-.122.767-.277m14.686.382c.361-.233.765-.452.898-.485.212-.053.242-.127.242-.58 0-.504-.006-.515-.237-.396-.497.259-.524.319-.267.606l.241.269-.286-.179c-.158-.098-.339-.179-.405-.179-.149 0-1.364.846-1.364.95 0 .061.395.389.497.414.013.003.318-.186.681-.42M8.677 15.408c-.348-.17-.514-.28-.369-.244.398.1 1.34.546 1.159.55-.087.002-.442-.136-.79-.306m1.844 1.409c-.956-.149-3.267-1.016-3.267-1.226 0-.053.06-.07.132-.037 1.409.635 2.181.866 3.602 1.077.3.045.373.087.262.157-.153.097-.263.101-.729.029m-1.349.854c-.891-.264-1.981-.756-1.886-.851.03-.03.237.04.46.154.504.257 1.713.614 2.379.702.534.071.696.268.211.258-.159-.003-.683-.121-1.164-.263m-.127 1.279c-1.415-.436-2.212-.786-2.212-.972 0-.108.145-.073.553.135.305.156 1.095.429 1.756.608.662.179 1.222.385 1.247.457.061.185-.089.159-1.344-.228m-.081 1.089c-.823-.221-2.236-.814-2.236-.939 0-.042.241.04.535.18.566.271 2.374.767 2.797.767.137 0 .25.047.25.106 0 .157-.489.116-1.346-.114m-.13 1.076c-1.55-.569-2.349-.91-2.203-.939.082-.016.641.163 1.241.397.601.234 1.395.483 1.765.553.37.071.673.165.673.209 0 .167-.71.061-1.476-.22m-6.02.275c-.192-.246-.265-.381-.162-.298.205.162.644.746.562.746-.028 0-.208-.202-.4-.448m5.968 1.136c-.812-.177-2.313-.756-2.479-.955-.178-.214-.115-.199.67.168.714.334 2.354.728 3.047.73.218 0 .395.049.395.106 0 .145-.866.119-1.633-.049m.738 1.239c-1.133-.153-3.354-.874-3.193-1.035.031-.03.283.044.562.163.686.294 1.951.604 2.815.69.391.039.711.113.711.164 0 .093-.301.099-.895.018m-7.01.071c-.303-.35-.532-.655-.509-.678.023-.023.293.264.6.636.705.857.64.886-.091.042m5.429.791c-1.159-.251-2.419-.621-1.791-.527.174.027.648.119 1.053.207.407.087 1.212.214 1.791.282.58.067 1.099.164 1.155.214.19.173-1.051.074-2.208-.176m.902 1.302c-.66-.094-2.917-.899-2.812-1.004.029-.029.422.089.876.263.884.339 1.582.5 2.666.614.484.051.622.096.473.154-.253.099-.34.097-1.203-.027m-1.798.755c-.192-.124-.025-.124.264 0 .139.06.157.093.053.097a.659.659 0 01-.317-.097m1.212.367a6.28 6.28 0 00-.623-.151c-.054-.003-.07-.032-.037-.064.033-.033.266-.003.518.067.252.069.861.16 1.354.202l.896.075-.791.009c-.434.005-1.027-.058-1.317-.138m1.159 1.096c-1.159-.208-2.35-.546-2.95-.838-.709-.345-.696-.343.656.105.535.177 1.448.401 2.029.497.58.097 1.055.216 1.055.265 0 .102-.071.1-.79-.029m-.214.912c-1.017-.184-3.21-.8-3.21-.901 0-.045.365.034.811.176.784.249 2.955.668 3.46.668.136 0 .276.048.312.106.086.139-.444.12-1.373-.049m-.005.948c-.874-.159-3.226-.808-3.162-.873.025-.024.394.052.82.169 1.169.32 2.856.647 3.342.647.237 0 .43.048.43.106 0 .137-.501.12-1.43-.049m1.494.908c-.035-.056-.408-.159-.827-.229-.863-.143-2.526-.656-2.923-.903-.167-.103-.187-.134-.053-.085 1.652.614 3.648 1.084 3.722.878.058-.163.316-.111.43.086.136.233.137.191.011-.508-.305-1.685-.436-3.558-.438-6.209-.001-3.412.191-5.718.487-5.832.074-.028.192-.29.262-.581s.242-.653.382-.805c.25-.27.252-.284.075-.585-.119-.199-.244-.29-.352-.256-.092.03-.402-.021-.688-.112-1.271-.405-2.626-.765-2.703-.717-.045.028-.706-.262-1.465-.645-1.362-.687-2.579-1.444-3.414-2.12-.234-.19-.558-.369-.722-.399a1.773 1.773 0 01-.546-.217c-.326-.213-.393-.206-.266.031a.666.666 0 01.044.422c-.047.178-.012.227.156.227.273 0 .322.156.196.627-.122.46.1.958.77 1.717.244.276.395.501.337.501-.132 0-.883-.899-1.097-1.311l-.161-.31-.057.31c-.207 1.095-.228 1.009.459 1.933.352.475.626.91.606.967-.018.057-.295-.261-.613-.706l-.578-.81-.031.646c-.035.709.011.803.912 1.893.254.307.433.586.4.619-.069.07-.512-.424-.942-1.054a6.593 6.593 0 00-.354-.486c-.137-.131.101 1.542.254 1.785.092.145.45.56.797.922.385.402.566.659.465.659-.154 0-1.2-1.152-1.314-1.447-.107-.278-.191-.116-.165.314.036.57-.044.406-.166-.342l-.094-.58-.005.474c-.003.261.03.879.074 1.373.076.873.096.922.685 1.763.333.476.65.892.704.925a.23.23 0 01.097.173c0 .197-.284-.11-.802-.87-.275-.401-.513-.714-.531-.697-.017.018.013.314.067.658.054.344.123.837.152 1.094.153 1.33.172 1.377.839 2.139.833.951.964 1.133.814 1.133-.064 0-.379-.271-.697-.602l-.579-.603.201.724c.11.399.19.777.175.84-.014.064-.006.08.018.036.116-.206.351-.028.641.484.63 1.117 2.247 2.251 4.233 2.967.834.301 3.082.901 3.144.84.021-.02.009-.082-.026-.139M45.174 31l.677-.321-.382-.258c-.209-.143-.442-.26-.519-.26-.185-.001-1.454.542-1.453.622.003.102.67.523.842.531.087.003.463-.138.835-.314m12.193.579c.252-.147.457-.308.457-.357 0-.048-.119-.167-.265-.263-.241-.158-.288-.158-.498-.012-.36.252-.608.201-.293-.061l.259-.216-.256-.193c-.181-.136-.31-.165-.438-.096-.245.131-.3.122-.3-.053 0-.082.056-.168.124-.191.069-.022-.039-.153-.237-.291-.762-.529-2.545-2.135-4.532-4.084-1.139-1.115-2.146-2.027-2.238-2.027-.094 0-.669-.255-1.279-.566-1.025-.524-1.109-.55-1.113-.343a5.54 5.54 0 01-.059.6l-.054.376.636.177c.844.235.843.235.368-.203-.265-.245-.205-.213.167.09a4.44 4.44 0 001.29.71c.843.285 1.306.566.712.433a13.002 13.002 0 01-.632-.16c-.224-.065-.2-.02.158.296.231.205.483.374.56.377.076.001.241.058.366.126.192.103.202.131.058.184-.179.066-.183.061 3.076 3.031 1.445 1.316 3.37 2.972 3.463 2.98.024.002.249-.117.5-.264m-11.537.25c.277-.1.412-.368.392-.772-.008-.139-.039-.103-.092.105l-.08.316-.013-.341-.012-.34-.541.212c-.297.118-.656.274-.795.347l-.255.133.4.286c.225.16.47.256.559.22.087-.035.283-.11.437-.166m-2.494.049c.32-.158.581-.311.579-.343-.001-.031-.185-.187-.41-.346l-.408-.288-.591.261c-.737.326-.785.18-.054-.163l.537-.251-.376-.302a21.02 21.02 0 01-.775-.661c-.218-.196-.997-.868-1.731-1.492-.735-.624-1.339-1.174-1.344-1.222-.004-.048.194.083.44.292 1.586 1.348 3.037 2.482 3.177 2.482.089 0 .437-.121.771-.27l.609-.27-.369-.306c-.444-.369-.473-.372-1.102-.094-.272.122-.516.199-.542.174-.025-.026.167-.128.429-.228s.498-.218.526-.263c.028-.045-.133-.23-.359-.411-.369-.297-.44-.318-.739-.214-.182.064-.358.089-.39.057-.032-.033.096-.099.284-.148l.342-.089-.805-.72c-.442-.396-.804-.766-.804-.822 0-.056.387.253.862.687l.862.789.67-.331.67-.33-.347-.293c-.349-.296-.368-.297-1.204-.136-.181.035-.124-.008.146-.109.246-.092.447-.205.447-.251 0-.191-.795-.683-1.051-.651-.405.05-.129-.14.419-.289.733-.198 1.58-.553 1.58-.66 0-.251-.367-.161-1.352.328-1.808.899-4.239 1.791-4.89 1.794-.159 0-.289.039-.289.085 0 .11 2.497 2.556 3.339 3.271.928.787 2.494 2.007 2.585 2.013.042.003.338-.124.658-.28m17.501.101c-.073-.073-.273.076-.273.203 0 .07.06.062.161-.021.088-.073.139-.155.112-.182m-1.88-.343c.663-.42.756-.519.819-.876.04-.221.047-.426.019-.455-.058-.058-.902.36-1.372.68l-.297.201.297.227.297.228-.389-.177c-.386-.176-.393-.175-.791.121-.219.164-.424.318-.453.342-.029.024.088.157.26.294.302.241.322.243.588.069.151-.099.611-.393 1.022-.654m-12.742.632c.026-.347-.045-.377-.456-.19l-.275.125.244.188c.346.267.46.239.487-.123m-1.909.305c.315-.18.548-.352.518-.381a4.981 4.981 0 00-.394-.287l-.34-.234-.613.271c-.337.149-.613.299-.613.334 0 .062.747.625.829.625.023 0 .298-.148.613-.328m3.247-.043c-.29-.258-.565-.469-.613-.47-.047-.002-.071.152-.053.34.028.285.095.363.402.468.753.257.826.162.264-.338m9.266.467c-.032-.05.121-.164.336-.254l.392-.164-.361-.251c-.221-.153-.402-.214-.462-.155a.43.43 0 01-.264.092c-.137-.003-.133-.027.024-.145.17-.129.098-.213-.79-.931-1.291-1.044-2.34-2.002-4.191-3.823-1.232-1.214-1.611-1.527-1.963-1.621a24.973 24.973 0 01-1.567-.541c-1.115-.419-1.37-.469-1.055-.207.088.073.16.18.16.238 0 .059-.069.047-.158-.025-.128-.107-.158-.102-.158.028 0 .2.285.32.354.15.035-.083.119-.047.245.103.17.203.535.338 2.344.868.28.082.429.325.2.325-.131 0-1.25-.307-1.72-.473-.428-.151.864.916 1.474 1.218.558.276.589.307.264.259-.363-.053-.365-.051-.147.13l1.422 1.187c.661.552 1.747 1.431 2.413 1.955l2.102 1.651c.669.526.925.672 1.026.588.075-.061.11-.152.08-.202zm-11.258-.334l-.46-.299-.592.29c-.325.16-.591.326-.591.37 0 .044.172.196.382.339l.382.26.669-.33.67-.33-.46-.3zm.519.862c.101-.316.02-.341-.423-.13-.374.178-.381.191-.144.258.417.116.495.099.567-.128m-2.222.516l.472-.23-.854-.628-.536.263-.537.262.413.281c.227.155.448.281.491.281.043 0 .291-.103.551-.229m1.919.281c-.035-.086-.016-.157.041-.157.267 0 .057-.279-.293-.389-.533-.168-.651-.01-.219.293.192.135.366.283.386.329.065.154.145.084.085-.076m11.126-.084c.217-.12.395-.294.395-.388 0-.101.159-.227.395-.311.597-.212 1.587-1.052 1.722-1.462.064-.193.092-.374.063-.403-.031-.03-.377.162-.771.425-.554.373-.717.539-.719.741-.004.202-.226.427-1.004 1.018-.94.713-.974.873-.081.38m-8.938-.452l-.412-.378.447.334c.4.299.521.423.413.423-.019 0-.22-.171-.448-.379m1.305.186c-.629-.499-.889-.636-1.403-.738a60.017 60.017 0 01-.894-.185l-.263-.059.248.218c.244.215.244.219.027.219-.325 0-.312.501.014.58 1.346.325 2.504.565 2.746.572.268.006.222-.053-.475-.607m-1.736.755c-.279-.212-.524-.425-.544-.474-.075-.189-.206-.074-.249.219-.043.291-.014.318.489.466.811.24.857.208.304-.211m6.235.585a35.632 35.632 0 001.758-1.222l.916-.685-1.337-1.004a79.08 79.08 0 01-4.446-3.61c-.434-.385-.948-.838-1.14-1.007-.193-.168-.708-.432-1.146-.587l-.795-.28.718.723c.625.63.791.739 1.277.84.663.137.748.259.124.175l-.436-.058.515.461c.283.254.547.464.587.466.04.003.304.23.587.506.284.275 1.373 1.14 2.422 1.922 1.821 1.358 2.365 1.83 1.38 1.197-.68-.436-2.997-2.203-3.74-2.852-.555-.484-.738-.58-1.265-.666a10.38 10.38 0 01-.977-.205c-.199-.057-.373-.092-.388-.078-.065.066 1.333 1.129 1.485 1.129.095 0 .148.04.118.09-.031.049.964.908 2.211 1.908 2.282 1.828 3.015 2.576 1.161 1.181-.999-.75-3.544-2.831-3.649-2.981-.03-.045-.291-.132-.579-.195-.867-.19-1.886-.544-2.011-.7-.136-.17-.252-.189-.252-.042 0 .112.774.851 1.288 1.23.222.164.542.259 1.046.308.4.04.754.116.788.17.035.057-.087.075-.292.044l-.775-.121c-.266-.041-.383-.028-.316.034.4.377 2.431 1.908 3.498 2.637 1.275.872 1.643 1.178 1.418 1.178-.266 0-2.937-1.959-4.642-3.405-.503-.427-.818-.607-1.243-.708-.313-.075-.59-.171-.615-.213-.027-.042.13-.035.347.015.217.051.442.092.499.092.157-.001-.608-.621-.769-.624-.076-.002-.111-.047-.077-.101a.115.115 0 00-.033-.156c-.145-.089-.131.904.014 1.084.102.125.101.142-.004.079-.073-.043-.132-.028-.132.035 0 .068.105.087.264.047.16-.04.264-.021.264.049 0 .063-.123.145-.273.183-.487.122-.032.38 1.033.584.905.173.927.183.292.131a9.312 9.312 0 01-.895-.107c-.132-.032-.015.127.316.427.29.262.615.478.721.479.108.001.219.094.248.206.101.385 3.385 2.531 3.878 2.534.115.001.59-.241 1.053-.537h.001zm-4.83.385c-.21-.143-.789-.356-1.287-.475-1.102-.261-1.017-.262-.976.018.036.253.146.292 1.562.55 1.102.201 1.129.198.701-.093m3.126.379c.153-.061-.012-.208-.815-.724-.553-.356-1.029-.611-1.056-.566-.029.044-.207.059-.398.033-.44-.062-.377.001.741.737.895.59 1.139.673 1.528.519v.001zm-6.516-.665c.065-.059.005-.12-.158-.164l-.262-.07.263-.063c.333-.08.396-.373.113-.524-.165-.088-.289-.078-.527.045-.172.089-.35.16-.397.157-.046-.002.072-.087.262-.188l.345-.184-.331-.245-.331-.246-.519.243-.518.243.293.243c.162.133.373.225.47.203.106-.024.157.011.128.087-.027.07.071.182.219.249.271.124.365.337.147.337-.065 0-.276-.097-.467-.215l-.35-.216-.427.218c-.235.12-.427.194-.427.165 0-.029.172-.141.382-.248l.383-.197-.337-.239c-.312-.223-.37-.23-.83-.106-.812.219-.853.147.604 1.074l.785.498.691-.381c.381-.21.739-.423.796-.476m5.687.925c.172-.063.096-.143-.474-.503-.375-.236-.916-.6-1.203-.81-.402-.294-.728-.423-1.418-.563-.492-.099-.908-.168-.924-.153-.015.015.218.21.517.434.367.274.746.449 1.162.535.693.145.98.321.369.227-.218-.034-.396-.044-.396-.024 0 .02.326.224.723.454.499.287.772.389.884.326.105-.059.206-.036.29.065.071.086.159.14.196.121.037-.019.16-.069.274-.109m-3.163-.114c-.113-.085-.151-.156-.085-.158.065-.001.177.068.25.155.166.201.098.202-.165.003zm2.108.36c.105-.104.009-.128-.469-.116l-.264.006.264-.08c.254-.077.256-.085.053-.191-.116-.061-.576-.14-1.023-.176a9.565 9.565 0 01-1.457-.245c-.555-.155-.657-.159-.74-.028a.642.642 0 00-.098.266c0 .106 1.179.38 1.791.415.144.009.428.095.631.191.381.182 1.112.158 1.312-.042m-2.212.119c-.056-.053-.29-.124-.522-.158l-.421-.061.316.153c.357.174.784.219.627.066m-2.534-.545c.039-.242.056-.447.041-.458-.017-.009-.311.134-.654.319l-.623.337.413.212c.524.269.731.166.823-.41m-1.111.972l.355-.189-.399-.189c-.385-.183-.413-.183-.751 0l-.353.189.292.193c.355.234.41.234.856-.005v.001zM21.688 22.924c-.491-.082-1.315-.373-1.818-.642-.774-.413-.589-.468.225-.067a6.483 6.483 0 001.475.485c.413.071.751.167.751.213 0 .086-.168.089-.633.011m-.272.928c-1.05-.259-1.94-.637-1.94-.826 0-.107.058-.134.183-.085.725.284 1.784.595 2.255.663.409.058.572.13.597.263.044.228-.114.226-1.095-.015m-.378 2.303c-1.037-.175-2.944-.864-2.798-1.01.035-.034.457.084.939.263 1.148.426 1.664.533 2.588.537.607.001.764.034.764.16 0 .177-.618.198-1.493.05m-2.142 1.694c-.232-.11-.374-.2-.316-.2.144-.001.975.388.843.395-.059.003-.295-.085-.527-.195m1.708.582c-.51-.135-.96-.281-1.001-.324-.041-.044.02-.051.136-.016.737.218 1.664.381 2.18.383.329 0 .629.049.664.107.118.19-1.02.104-1.979-.15m.426 1.253c-.851-.17-2.502-.696-2.502-.798 0-.04.427.065.95.233.522.169 1.293.359 1.712.424.419.065.88.156 1.025.202.452.143-.369.101-1.185-.061m.342 4.305c-.967-.15-2.844-.812-2.844-1.002 0-.064.076-.076.184-.029.794.344 2.145.71 3.002.813.566.068 1.027.161 1.027.206 0 .082-.871.09-1.369.012m.527 2.414c-1.249-.057-3.582-.625-3.582-.872 0-.049.214.004.474.12.66.292 1.918.515 2.9.515.455 0 .855.045.888.098.088.144-.034.169-.68.139m1.159.015v-.96l-.922-.057c-.812-.051-2.08-.347-3.018-.704-.486-.186-.25-.235.261-.055.923.325 2.063.565 2.836.597l.79.032.034-.579c.02-.319.004-1.012-.034-1.54l-.07-.96-1.071-.058c-1.064-.059-2.558-.413-3.251-.771-.533-.276-.262-.271.479.008.854.321 2.28.581 3.189.581h.671v-1.053l-.763-.002a7.468 7.468 0 01-1.409-.154c-.849-.2-2.278-.687-2.411-.822-.071-.072-.037-.082.106-.032 1.625.578 3.336.898 4.07.76l.355-.066.008-1.475.009-1.475-.64-.002a7.93 7.93 0 01-1.348-.152c-.84-.178-2.424-.797-2.479-.969-.022-.07.224-.016.579.128 1.015.41 1.811.589 2.89.649.952.053 1.022.044 1.014-.141-.005-.109.027-.612.072-1.117l.081-.918-.347.099c-.209.06-.599.063-.988.007-.977-.142-3.089-.956-2.478-.956.068 0 .557.15 1.086.334.691.241 1.213.347 1.867.381l.906.047.074-.821c.066-.729.053-.833-.116-.925-.104-.058-.368-.281-.586-.496-.413-.41-.513-.842-.288-1.261.118-.222.146-.211-1.582-.633-2.866-.7-6.655-2.539-7.97-3.868-.282-.286-.344-.312-.378-.158-.022.101.095.349.26.552.837 1.028 1.232 1.58 1.128 1.58-.158 0-.599-.475-1.097-1.183-.456-.649-.588-.655-.849-.036-.226.537-.072 1.1.503 1.826.287.363.621.729.742.814.258.18.152.364-.113.199-.099-.061-.422-.424-.719-.806l-.539-.695-.07.586c-.077.659-.039.731.994 1.861.299.327.498.595.441.595-.107 0-.735-.655-1.194-1.249l-.275-.354-.071.541c-.069.524-.058.56.405 1.161.262.34.608.714.768.831.159.116.261.241.225.277-.036.036-.379-.274-.763-.689l-.698-.754v.696c0 .81.111.986 1.074 1.703.33.245.571.475.536.511-.076.076-.658-.34-1.216-.868l-.394-.374v.632c0 .594.024.656.394 1.01.218.208.624.549.903.759.281.21.445.381.367.381-.204 0-.586-.273-1.164-.828l-.5-.481v.481c0 .448.041.519.608 1.061.335.319.762.659.948.756.187.097.339.225.339.285 0 .176-.828-.338-1.384-.858l-.511-.479v1.302l.728.688c.401.378.898.749 1.106.824.408.147.532.366.14.247-.424-.128-.882-.458-1.385-.995-.271-.29-.51-.528-.532-.528-.02 0-.015.296.013.659.049.621.079.684.542 1.119.269.253.739.601 1.045.774.646.365.719.47.165.239-.407-.171-.927-.527-1.443-.99l-.304-.273.066.263c.036.145.067.411.067.592.002.403.329.783 1.298 1.507.394.294.675.535.623.535-.165 0-1.014-.608-1.386-.994-.201-.206-.396-.375-.435-.375-.039 0-.029.221.021.492.086.456.334.877.519.877.043 0 .237.155.431.345.194.189.471.428.616.529.244.172.246.177.018.069-.135-.064-.266-.098-.29-.073-.072.071 1.497 1.204 2.252 1.627.604.338 3.081 1.416 3.63 1.581.102.031.185.098.185.149 0 .051-.083.097-.185.102-.101.005.053.08.343.167.304.091 1.196.184 2.107.221 1.498.06 1.699.172.421.236-.505.025-.512.03-.158.101.203.04.618.069.922.064l.553-.008v-.96h.001zm22.688 1.013c.048-.26.037-.322-.036-.211a.917.917 0 00-.105.413c-.001.338.058.252.141-.202m-2.778.412c.291-.179.528-.339.528-.356 0-.018-.122-.112-.272-.21-.262-.172-.293-.168-.843.119-.313.164-.57.322-.57.353 0 .045.525.407.604.416.014.002.262-.143.553-.322m2.632.167c0-.058-.046-.034-.102.053a.634.634 0 00-.102.263c0 .058.046.035.102-.052a.637.637 0 00.102-.264m-1.266.319c.4-.201.75-.45.778-.553.139-.515.175-.78.101-.741-.046.024-.617.299-1.268.61-.653.311-1.186.598-1.186.637 0 .073.622.406.767.411.045.001.408-.163.808-.364m-1.403.779c.195-.121.354-.239.354-.262 0-.023-.19-.139-.424-.258l-.425-.217-.432.258-.432.257.409.216c.513.271.521.271.95.006zm1.643.185c.206-.26.446-.901.366-.981-.03-.029-.293.069-.587.218-.361.183-.515.319-.476.421.041.107-.001.135-.148.096-.114-.03-.413.053-.667.183l-.461.237.347.143c.191.079.32.188.286.242-.037.059-.211.029-.423-.072-.342-.163-.384-.162-.742.029-.524.279-.531.324-.092.549l.384.197 1.015-.517c.559-.284 1.098-.62 1.198-.746v.001zm-.967 1.131l.468-.483-.714.35c-.633.309-.695.365-.534.483.257.187.257.187.779-.35h.001zm-1.83.462c.192-.069.35-.155.35-.191 0-.036-.171-.146-.38-.246-.363-.173-.393-.172-.7.022l-.32.203.304.165c.374.203.325.2.746.047m-13.821.337c-.035-.057-.548-.43-1.138-.828a618.17 618.17 0 01-1.833-1.238c-.459-.311-.762-.589-.764-.703-.005-.208-.415-.813-.551-.813-.047 0-.086.156-.086.347 0 .281.111.453.592.921.372.362.542.479.458.316-.104-.204-.015-.158.413.21.301.26.699.599.886.756.263.221 1.897 1.124 2.056 1.135.018.001.003-.045-.033-.103m-2.053-16.804c-.261-.139-.438-.256-.392-.258.112-.006.918.408.918.471 0 .07.004.072-.526-.213m.737.369c-.095-.061-.109-.103-.033-.104.069 0 .155.046.191.104.08.131.044.131-.158 0m.421.211c-.095-.062-.108-.103-.032-.104a.244.244 0 01.19.104c.081.131.045.131-.158 0m.527.263c-.145-.083-.216-.15-.158-.15.058 0 .224.067.369.15.145.083.216.151.157.151-.057 0-.223-.068-.368-.151m.896.375c-.233-.11-.374-.2-.317-.2.144-.001.976.388.843.394-.058.003-.295-.085-.526-.194m3.298 1.081c.077-.03.167-.027.203.008.034.035-.028.06-.139.055-.123-.004-.148-.029-.064-.063m.421.105c.077-.03.167-.026.203.009.035.034-.028.059-.138.055-.123-.005-.149-.03-.065-.064m.415.108a.411.411 0 01.264 0c.072.029.013.053-.132.053-.144 0-.204-.024-.132-.053m.528.105a.405.405 0 01.262 0c.073.029.014.053-.131.053-.145 0-.205-.024-.131-.053m.524.106a.612.612 0 01.317-.004c.102.027.044.05-.13.052-.174.002-.258-.019-.187-.048zm.737.105a.612.612 0 01.317-.004c.102.027.044.051-.13.053-.174.002-.258-.02-.187-.049m.957.103c.077-.03.167-.027.203.008.034.035-.028.06-.139.056-.123-.005-.147-.03-.064-.064m-9.925-.144c-.406-.355-1.687-2.094-1.605-2.176.029-.029.28.272.558.669s.755.971 1.058 1.275c.596.597.587.759-.011.232m9.731 1.473c-.263-.041-.927-.262-1.475-.491a94.265 94.265 0 00-1.34-.552c-.34-.133-.463-.32-.21-.319.072 0 .605.188 1.184.418.58.229 1.374.5 1.765.602.657.171.832.276.633.377-.044.022-.294.006-.557-.035m-9.769.156c-.335-.264-1.711-1.95-1.711-2.097 0-.041.347.346.772.858.425.513.935 1.06 1.132 1.217.198.156.313.286.256.289-.059.001-.26-.118-.449-.267m8.245 2.213c-1.102-.344-2.474-.915-2.475-1.031-.002-.106.106-.076 1.105.308.406.156 1.159.393 1.672.526.515.134.987.294 1.049.356.198.198-.451.121-1.351-.159m.211 1.225c-.92-.243-1.877-.601-2.341-.875-.57-.336-.331-.32.414.028.601.283 1.663.585 3.243.926l.475.102-.528.007c-.289.004-.858-.081-1.263-.188m1.316 1.397c-.891-.15-2.552-.606-3.245-.89-.887-.365-.922-.383-.85-.456.028-.026.334.066.682.207.631.255 2.189.675 3.334.898.334.065.606.163.606.216 0 .1-.063.103-.527.025m.373 1.027c-.034-.054-.286-.129-.559-.166-.975-.13-2.607-.597-3.338-.954-.791-.387-.76-.382.469.062.435.158 1.217.365 1.739.46 1.585.29 2.116.418 1.921.462-.102.022-.159.085-.125.138.033.054.036.098.006.098-.028 0-.08-.045-.113-.1m-.952.89c-.564-.126-1.989-.614-3.003-1.03a15.942 15.942 0 00-.568-.221c-.11-.039-.176-.095-.147-.123.03-.03.609.164 1.288.43 1.283.502 2.634.89 3.105.893.15 0 .345.047.431.104.23.148-.323.122-1.106-.053m-.006 1.058c-1.288-.235-3.235-.907-3.079-1.064.027-.027.306.064.619.202.639.283 2.065.649 2.94.757.672.083 1.081.256.58.246a9.647 9.647 0 01-1.06-.141m-.651 1.045c-.569-.154-2.273-.894-2.207-.959.019-.021.416.127.88.328.727.315 1.7.546 3.038.721.174.022-.016.044-.422.049-.405.005-.986-.058-1.289-.139m-.43 1.038c-.424-.146-.752-.284-.728-.307.044-.045 1.55.449 1.639.537.097.097-.133.039-.911-.23m3.322.555c-.622-.431-.769-.582-.311-.317.354.203.962.671.868.668-.029-.001-.279-.159-.557-.351m-4.58 2.125c-.187-.06-.342-.148-.342-.194 0-.047.178-.012.395.079.633.262.604.326-.053.115m2.292.031c-.854-.242-2.512-.829-2.371-.84.059-.004.608.16 1.222.365a22.63 22.63 0 001.792.518c.394.086.543.147.358.148-.174.002-.624-.085-1.001-.191m1.455.239c.076-.03.167-.026.202.009.036.034-.027.059-.138.055-.123-.005-.148-.03-.064-.064m-1.757.438c-.6-.203-1.168-.419-1.263-.481-.197-.127-.289-.154 1.182.343.514.173 1.225.352 1.581.399l.646.084-.527.011c-.349.008-.896-.112-1.619-.356m3.765 1.077l.883-.26-.303.25-.303.251.738-.268a22.3 22.3 0 001.383-.567c.71-.328 1.847-1.059 1.649-1.059-.195 0-.662.234-.662.332 0 .049-.11.089-.246.089s-.647.138-1.135.308c-.488.169-1.501.483-2.249.698-1.348.386-1.37.389-2.247.266-1.269-.178-4.271-1.062-4.119-1.214.024-.025.471.094.991.265 1.466.481 3.105.871 3.685.878.703.008 2.146-.454 1.918-.614-.493-.345-.512-.368-.134-.164.372.202.463.212.869.098.25-.07.455-.157.455-.192-.001-.036-.249-.205-.554-.376a24.409 24.409 0 01-1.373-.869c-.521-.355-.931-.559-1.124-.559-.754 0-2.896-.57-4.151-1.103-.657-.281-.366-.298.366-.022 1.115.419 2.521.791 3.4.9.457.057.861.144.896.194.078.112 1.308.914 2.173 1.417l.633.369.665-.222.664-.221-1.193-.71c-.656-.391-1.335-.83-1.508-.977-.174-.146.086-.018.579.287 1.331.821 2.133 1.242 2.377 1.244.119.002.589-.133 1.045-.299.776-.283.814-.311.588-.432-.2-.107-.301-.097-.591.059-.194.104-.33.225-.302.268.026.043-.036.073-.139.066a1.43 1.43 0 00-.424.066c-.274.091-.329-.089-.058-.193.153-.058.142-.087-.078-.205-.656-.347-2.097-1.235-2.153-1.326-.034-.055.28.11.698.367.504.311.798.435.878.37a1.51 1.51 0 01.363-.189c.223-.083.179-.129-.532-.558-.887-.533-2.995-2.091-3.622-2.675-.294-.275-.213-.232.264.14 1.835 1.428 4.035 2.859 4.396 2.858.103 0 .35-.1.55-.222l.364-.222-.416-.254c-.229-.14-.499-.234-.601-.21-.102.025-.184-.014-.184-.087s-.415-.407-.921-.744c-1.269-.84-3.122-2.247-3.82-2.898l-.58-.54.844.645c1.18.905 3.132 2.297 3.984 2.843l.719.46.475-.231.473-.23-.929-.612c-1.049-.689-5.575-4.314-6.039-4.836-.187-.21.469.296 1.992 1.537 1.892 1.542 3.728 2.938 4.067 3.092.156.072.372.024.819-.181l.608-.278-.451-.329c-.248-.181-.569-.336-.714-.342-.158-.009-.263-.077-.263-.173 0-.088-.474-.528-1.055-.978a58.95 58.95 0 01-1.632-1.315 888.003 888.003 0 00-2.107-1.786c-.841-.711-1.547-1.345-1.57-1.41-.024-.065.285.157.684.493.795.667 4.349 3.521 5.369 4.309.592.459.662.486.994.391.44-.126.548-.053.173.117l-.277.127.523.352c.595.401.702.418 1.031.165.235-.182.234-.184-.89-.92-1.446-.947-2.707-1.955-4.921-3.937-1.262-1.13-1.854-1.594-2.037-1.594-.811 0-4.136-1.201-4.136-1.494 0-.13.061-.112.714.215.633.316 2.031.795 2.658.911.202.037.463.094.579.125.174.048.156-.002-.106-.287-.174-.189.571.416 1.655 1.345 2.395 2.054 4.682 3.78 4.948 3.735a8.21 8.21 0 00.63-.16l.438-.126-.441-.292c-.243-.161-.488-.264-.543-.229-.056.034-.102-.008-.102-.095 0-.086-.225-.337-.501-.558a75.68 75.68 0 01-3.608-3.088 572.692 572.692 0 00-1.47-1.341c-.141-.128-.23-.262-.196-.296.034-.034.625.446 1.312 1.066 2.365 2.136 4.586 3.94 4.851 3.94.081 0 .344-.1.585-.223l.437-.223-.363-.301c-.396-.329-.536-.361-.844-.197-.111.06-.203.067-.203.016 0-.051.098-.137.218-.19.195-.087.096-.199-.975-1.094-.656-.548-1.998-1.786-2.983-2.749l-1.791-1.752-1.317-.061c-.724-.034-1.649-.139-2.054-.233-.816-.191-3.922-1.296-5.321-1.893-1.871-.8-3.163-1.68-3.507-2.392-.194-.398-.218-.354-.384.661-.185 1.134-.215 1.071.889 1.848.55.388.979.728.952.755-.054.053-1.404-.844-1.738-1.156-.114-.106-.228-.192-.254-.192-.139 0-.301 1.572-.254 2.462.051.998.057 1.016.509 1.602.252.326.791.896 1.197 1.267.406.371.688.674.627.674-.247 0-1.019-.674-1.644-1.436l-.66-.806-.032.498c-.023.337.025.589.148.779.392.609 1.227 1.484 1.779 1.864.676.466.696.62.029.229-.463-.271-1.26-1.056-1.602-1.578-.103-.158-.218-.287-.255-.287-.037 0-.051.429-.033.954l.034.954.666.705c.368.388.909.847 1.203 1.021.495.292.667.474.45.474-.233 0-1.393-.869-1.836-1.376l-.498-.569v1.383l.763.741c.42.407 1.016.894 1.323 1.083.307.189.536.366.507.394-.127.128-1.179-.596-1.8-1.239l-.688-.712v.65c0 .645.004.654.624 1.34.343.381.888.874 1.211 1.096.516.355.721.581.528.581-.239 0-1.714-1.341-2.083-1.894l-.174-.26.001.366c.003.89.108 1.123.857 1.894.399.412.927.84 1.172.951.301.137.374.203.225.205-.29.003-.915-.46-1.557-1.151l-.515-.552.071.615c.066.58.107.651.698 1.219.993.954 3.476 2.559 5.369 3.47 1.162.559 1.48.676 3.289 1.203.798.232 1.314.434 1.274.497-.132.215 2.479.006 3.43-.274m-.987.875c.177-.076.155-.092-.132-.098-.188-.004-.342.04-.342.098 0 .125.183.125.474 0M35.7 44.7c0-.128.071-.211.179-.211.109 0 .14-.036.079-.092-.148-.136-1.586-.434-2.094-.434-.992 0-4.052-.991-5.923-1.917-1.851-.916-3.07-1.746-4.238-2.886l-.987-.963-.699-.059c-1.483-.124-4.472-1.053-6.523-2.028-2.109-1.002-3.246-1.903-3.509-2.782-.071-.235-.19-.427-.265-.427-.075 0-.166-.155-.201-.343-.137-.719-.309-.791-2.87-1.187a7.504 7.504 0 01-3.119-1.279c-.847-.607-1.915-1.613-2.35-2.214-.443-.612-.608-.673-.249-.093.214.345.218.38.05.444-.225.087-.392-.121-.779-.965-.593-1.299-.924-2.709-1.164-4.948-.161-1.513-.325-7.077-.247-8.39.047-.788.031-1.139-.053-1.192-.173-.106-.155-.694.022-.694.099 0 .162-.214.208-.705.055-.582.034-.741-.116-.912-.176-.199-.173-.205.054-.147.176.044.238.013.238-.12 0-.098.236-.431.526-.739.29-.309.527-.642.527-.74 0-.119.412-.405 1.232-.857.678-.373 1.425-.839 1.659-1.034.758-.632 2.204-1.623 2.671-1.829.691-.306 2.338-.696 3.678-.872 1.527-.2 2.081-.2 2.281.001.087.087.297.158.466.158.258 0 .346-.077.555-.484.145-.281.428-.604.675-.771.44-.295 2.897-1.038 4.377-1.323a90.121 90.121 0 001.991-.42c.807-.18 1.517-.268 2.161-.268 1.033.001 1.505.097 2.328.474.29.132.825.325 1.19.428.364.104.696.244.737.313.041.068.62.342 1.286.608.667.265 1.899.787 2.739 1.159 1.663.736 1.941.975 2.069 1.777l.066.403 1.013.009c1.848.017 3.103.19 6.015.827 1.223.268 3.205.889 4.07 1.277 1.582.708 2.793 1.759 2.943 2.555l.063.34.757-.037c.946-.047 1.826.153 3.426.778 3.344 1.308 6.4 3.154 6.936 4.19.294.569.665 2.186.668 2.914.002.442.047.515.526.845.202.14.43.316.507.39.225.219-.079.171-.484-.076-.442-.269-.445-.269-.445.106 0 .273.039.316.29.321l.289.006-.236.165c-.402.28-.26.966.17.829.131-.042.224-.026.224.039 0 .061-.118.14-.263.177-.309.077-.299-.099-.141 2.382.085 1.344.161 1.95.238 1.907.063-.034.055.001-.018.079-.159.171-.171.567-.026.838.058.109.069.219.026.246-.043.027-.095.753-.115 1.614-.02.859-.07 1.887-.112 2.282-.07.662-.062.714.115.668.105-.028.164-.007.132.046-.11.179.081.095.465-.203.508-.395.702-.507.604-.35-.042.068-.395.378-.785.689l-.71.567-.136.838c-.191 1.177-.358 1.355-.275.292l.066-.843-.203.321c-.326.517-.775.83-1.88 1.307-.571.247-1.538.678-2.149.958-1.296.594-2.184.901-3.999 1.38-1.082.286-1.375.406-1.646.677-.681.68-1.668.534-3.275-.484l-.499-.317-.128.713c-.071.392-.163.832-.204.977-.074.26-.072.26.146.068.218-.193.444-.163.444.06 0 .064-.269.397-.596.741-.471.494-.565.646-.448.724.195.129-.369.64-1.27 1.149-.356.201-1.202.692-1.879 1.091-1.705 1.002-3.271 1.672-5.591 2.392-1.172.364-1.279.372-1.279.096h.001zm14.61 5.247c.094-.073.088-.184-.027-.456-.321-.769-.103-1.59.504-1.904.209-.109.878-.222 1.785-.304.95-.085 1.538-.187 1.703-.295.582-.381.76-1.448.42-2.504-.163-.504-.164-.567-.014-.661.136-.086.033-.21-.584-.701-.631-.501-.881-.808-1.188-1.458-.007-.018-.229.196-.491.474-.284.303-1.039.848-1.872 1.35-2.322 1.403-3.04 2.288-3.131 3.865-.054.936.09 1.591.449 2.041l.242.303.06-.628c.032-.346.06-.872.059-1.17 0-.68.231-1.245.714-1.74.368-.378.948-.681 2.617-1.365.618-.253.975-.481 1.337-.852.526-.54.871-.642.982-.29.047.147-.021.333-.214.586-.481.63-1.19 1.063-2.316 1.414-2.263.704-2.641 1.018-2.832 2.35-.015.106.008.454.052.772.09.674.283.87.857.875.218.001.396.045.396.096 0 .177-.454.211-.874.066-.385-.133-.408-.131-.255.021.294.295 1.302.366 1.621.115m2.458 1.126c.072-.087.163-.312.202-.5.095-.466.446-.477.54-.017.037.18.101.381.143.448.144.234.835.131 1.432-.214.54-.312.562-.339.317-.398-.188-.045-.274-.146-.297-.346-.031-.258.011-.293.474-.409.925-.231 2.341-1.885 2.349-2.744.005-.638-.495-1.308-1.607-2.154-.879-.668-.934-.677-.742-.126.335.96-.01 2.317-.73 2.866-.533.406-.848.485-2.224.556-1.722.089-2.07.281-2.07 1.146 0 .297.049.398.211.44.116.031.211.133.211.227.002.481.241.984.559 1.179.401.244 1.047.269 1.232.046m-.896.693a2.797 2.797 0 01-.542-.197c-.3-.162-.775-.734-.775-.935 0-.112-.057-.139-.185-.087-.52.21-.976.182-1.54-.094-1.256-.614-1.806-1.651-1.734-3.261.075-1.649.776-2.599 3.078-4.169.76-.519 1.544-1.112 1.742-1.317.342-.352.352-.383.185-.568-.097-.107-.176-.248-.176-.314 0-.18.356-.337.527-.232.081.05.28.064.442.032.248-.05.295-.024.295.162 0 .435.492 1.341.907 1.668.226.178.97.686 1.653 1.13 2.158 1.399 2.815 2.163 2.811 3.27-.003.871-.268 1.4-1.156 2.317-.407.418-.739.834-.739.923 0 .231-.835.972-1.444 1.281-.722.366-1.183.434-1.64.242-.349-.146-.411-.142-.777.045-.427.217-.452.22-.932.104M6.835 38.458l.252-.343-.259.171c-.142.094-.274.248-.293.343-.049.251.017.213.3-.171m4.227.339c-.137-.114-.303-.207-.369-.207-.066.001.022.092.196.203.41.263.486.265.173.004m-3.277 1.768c.229-.13.416-.265.416-.299.001-.034-.248-.118-.551-.187a34.554 34.554 0 01-.791-.187c-.313-.083-.323.246-.019.633.267.338.412.345.945.04m9.894 2.146c.239-.067.228-.08-.158-.191-.802-.23-1.104-.259-1.469-.138-.362.12-.439.211-.299.352.09.089 1.586.072 1.926-.023m-7.971 2.885c-.162-.203-.363-.369-.446-.369-.094 0-.016.141.205.369.462.476.621.476.241 0m13.675 1.626c.168-.12.425-.421.569-.668.37-.632.329-.724-.06-.136-.179.27-.467.61-.641.756-.38.32-.294.351.132.048M8.01 47.126c-.097-.23-.191-.351-.209-.269-.028.128.259.688.353.688.018 0-.046-.188-.144-.419m4.032 2.955c-.109-.106-.978-.286-.884-.182.048.051.344.136.937.269.026.006.003-.033-.053-.087m10.444 1.665c.258-.065.493-.156.522-.202.028-.047-.11-.04-.309.015a5.59 5.59 0 01-.991.123c-.347.014-.577.059-.51.102.178.114.752.097 1.288-.038M4.448 45.429c.333-.262 1.335-.628 1.671-.611.211.01.214.017.029.057-.555.12-1.287.392-1.541.573-.381.27-.507.256-.159-.019m7.032 6.328c.658-.125 1.774-.623 2.202-.984l.297-.249-.937-.071c-1.82-.137-3.431-.713-4.278-1.528-.561-.54-2.142-3.199-2.142-3.601 0-.276.236.011.571.693l.362.738.008-.56c.005-.35.048-.534.114-.493.06.036.079.113.044.169-.035.056-.019.16.036.23.056.07.134.269.175.443.041.174.219.542.395.818.919 1.439 2.772 2.339 5.273 2.562.928.083.99.043 1.469-.929.414-.841.682-.543.35.389-.082.23-.132.435-.111.455.066.066 1.295-.189 1.971-.411 1.245-.409 1.884-.812 2.931-1.845.55-.543 1.018-.987 1.039-.987.023 0 .01.121-.027.267-.115.46-.691 1.295-1.202 1.743-.427.374-.448.409-.155.264.414-.204.558-.21.558-.023 0 .155-.85.562-1.791.859-.318.1-.617.218-.665.261-.047.042.326.281.829.531.764.378.948.432 1.113.329.161-.1.199-.094.199.034 0 .226.416.298 1.414.246 1.409-.074 2.333-.646 2.822-1.746.302-.679.533-2.148.395-2.51l-.111-.294-.191.314c-.323.532-.808.861-1.457.989a5.386 5.386 0 00-1.191.423c-.372.194-.634.271-.726.215-.235-.146-.051-.397.452-.62.977-.432 2.47-1.807 2.354-2.169-.019-.062-.281-.247-.582-.409-.299-.164-.546-.365-.546-.448 0-.24.51-.182 1.018.116l.457.268v-.431c0-.544-.207-.948-.691-1.348-.244-.199-.338-.34-.262-.387.066-.04.2-.017.3.053.098.07-.04-.083-.309-.339-.807-.772-1.829-.909-2.148-.291-.374.723-1.141.906-2.215.529-.498-.176-.675-.189-1.273-.096-.381.06-.883.09-1.115.068l-.42-.04.3.252c.631.528 2.215 1.504 2.618 1.614.743.202 1.656.059 2.378-.371.703-.419.835-.455.835-.231 0 .426-1.264 1.22-1.942 1.22-.313 0-.41.066-.685.465a6.56 6.56 0 01-.874.954l-.555.489.58-.223c.641-.246 1.316-.676 2.251-1.433.541-.437.61-.469.542-.245-.197.659-.616 1.178-1.313 1.63-2.615 1.691-6.875 1.526-9.647-.375-.233-.16-.707-.577-1.053-.927l-.631-.637-.948-.162c-3.151-.539-4.038-.252-3.91 1.264.029.353.068.702.085.776.018.075-.02.155-.084.179-.169.063-.399-1.134-.31-1.609.098-.518.628-1.041 1.218-1.2.575-.155 1.591-.184 2.656-.075l.814.083-.313-.662c-.173-.365-.311-.758-.307-.873.004-.117.076.003.158.263.24.76.6 1.312.879 1.352.205.03.237.001.173-.158a3.069 3.069 0 01-.124-.562c-.04-.313-.012-.281.181.211.126.318.237.589.247.602.01.013.607.119 1.329.237 1.567.256 3.052.279 3.682.056.62-.219.759-.204.718.076-.099.687-1.799 1.005-3.51.654-.115-.023-.069.025.105.109.488.235.089.187-.843-.103a17.233 17.233 0 00-.889-.262c-.188 0 .826.845 1.469 1.224 1.3.768 2.207 1.009 4.029 1.069 1.52.05 1.564.046 2.132-.232a5.323 5.323 0 001.803-1.457l.349-.44-.667-.225c-.952-.321-1.684-.768-2.966-1.814-2.326-1.898-3.349-2.553-4.699-3.008-.633-.213-1.877-.347-1.877-.201 0 .058.13.133.289.166.159.032.385.129.5.215.398.294.059.308-.708.03-.68-.246-.811-.263-1.17-.152-.222.068-.506.233-.632.366-.126.133-.281.242-.346.243-.065.001-.391.265-.725.585-.763.734-.917.659-.181-.087l.545-.551-.366-.293c-.292-.233-.367-.367-.367-.657v-.364H5.114c-2.121 0-3.023.506-3.383 1.896-.04.155.021.092.148-.154.482-.93 1.236-1.42 2.193-1.424.607-.002 1.01.157 1.338.531.211.24.211.24 0 .161-1.211-.454-2.429-.139-3.113.804-.56.775-.486 1.825.16 2.249.273.178.295.174 1.076-.217.662-.332.926-.405 1.548-.431l.751-.03-.703.08c-.719.081-2.089.653-2.089.872 0 .062.081.079.184.039.973-.377 2.987-.611 3.139-.366.106.172.042.197-.964.372-1.243.216-2.332.586-3.357 1.137-.977.526-1.425 1.107-1.507 1.955-.045.475-.029.511.375.83.393.311.479.334 1.249.334.842 0 2.006-.169 3.384-.492.554-.129.798-.147.881-.064.083.084.062.144-.08.22-.258.137-2.565.653-2.922.653-.332 0-.346.094-.064.451.714.91 2.639 2.019 4.236 2.441 1.083.286 2.841.359 3.886.161m-1.842.948c-1.853-.226-3.728-.954-5.169-2.007-.507-.37-1.851-1.68-1.851-1.803 0-.047-.32-.086-.711-.086C.697 48.808.141 48.327.01 47.17c-.077-.687.297-1.236 1.474-2.163.537-.423.99-.778 1.006-.788.017-.009-.135-.183-.338-.386-.203-.202-.387-.315-.411-.251-.121.336-.223-.174-.226-1.126-.003-1.182.15-1.631.752-2.201.622-.591 1.221-.763 2.67-.767.723-.001 1.348-.048 1.387-.103.04-.054.048-.315.019-.579-.05-.451-.032-.494.298-.713.504-.334 1.343-.481 2.463-.433.894.039 1.052.081 1.881.492.689.341 1.134.667 1.869 1.364.853.812 1.364 1.521 1.208 1.678-.084.084-.736-.356-.882-.596-.072-.118-.511-.406-.975-.639a25.39 25.39 0 01-1.521-.839c-1.382-.846-1.732-.983-2.355-.918-.663.068-1.2.392-1.419.858-.186.395-.13.583.171.583.126 0 .549.089.938.196.545.151.932.185 1.689.145.739-.038 1.137-.007 1.603.129 1.005.292 2.316 1.014 3.613 1.989l.559.42.367-.176c.474-.226.884-.22 1.77.026l.722.2 1.014-.353c.687-.24 1.049-.319 1.12-.246.159.162-.162.352-.864.514-.791.182-.883.273-.347.346.807.108 1.201-.113 1.528-.857.176-.4.289-.406 1.451-.081.863.241 1.35.514 1.789 1 .662.733.859 1.297.832 2.38-.01.447.049.758.207 1.086.859 1.773-.229 4.588-2.097 5.425-.616.276-1.684.297-2.272.045-.399-.173-.409-.171-.842.125-.938.641-1.097.689-2.334.691-.991.002-1.287-.04-2.029-.289-.478-.161-.869-.337-.869-.393 0-.137.109-.127.638.06.359.126.471.132.535.027.065-.105.151-.104.429.007.666.268 1.1.327 1.693.231.68-.111 1.083-.3 1.426-.666l.243-.261-.296-.071c-.315-.075-1.06-.556-1.529-.987l-.285-.262-.874.173c-.481.096-1.056.173-1.28.173-.333 0-.501.086-.933.474-.597.537-1.546 1.018-2.399 1.216-.638.148-2.028.183-3.005.076-.587-.064-.601-.061-.211.048.699.194 3.259.154 4.051-.063.902-.248 1.962-.735 2.482-1.141.726-.567.758-.55.124.065-1.334 1.294-3.537 1.917-5.799 1.641h-.001z" fill-rule="nonzero"/></svg>