<svg viewBox="0 0 141 70" xmlns="http://www.w3.org/2000/svg" fill-rule="evenodd" clip-rule="evenodd" stroke-linejoin="round" stroke-miterlimit="2"><path d="M42.7 8.652c-.179-.001-.243-.164-.281-.703-.027-.386-.015-.702.026-.702.042 0 .421.355.843.79l.766.789-.561-.086a7.698 7.698 0 00-.793-.088m3.85-3.984c-.481-.164-.855-.361-.831-.439.045-.152.91-.771 1.077-.771.056 0 .334.386.615.858.379.637.446.832.262.754a27.45 27.45 0 00-1.123-.402m5.517 1.028c.188-.804.491-1.543.787-1.915.099-.123.221-.128.467-.016.684.312.581.653-.616 2.043-.349.406-.679.738-.734.738-.056 0-.013-.382.096-.85m-3.871-1.281l-.723-1.028.75-.083c.414-.046.901-.164 1.083-.261.268-.143.438-.144.865-.003.308.102.768.138 1.092.086.309-.049.722-.029.918.046l.357.135-.342.737c-.187.405-.417 1.205-.509 1.775-.155.96-.2 1.054-.601 1.23-.433.191-.439.187-1.301-.708a19.461 19.461 0 01-1.589-1.926m-.992 2.686c-.354-.226-.835-.479-1.07-.561-.235-.082-.498-.307-.586-.499-.196-.43-.21-1.18-.023-1.18.267 0 2.043.72 2.639 1.068.788.462 1.575 1.159 1.575 1.394 0 .488-1.653.344-2.535-.222m3.09.77c1.237-.269 2.431-1.018 2.551-1.6.103-.51.453-.934.999-1.218.927-.479.093-1.846-1.425-2.337-.525-.168-.815-.198-.998-.099-.37.198-1.022.172-1.329-.053-.226-.165-.35-.152-.891.087-.453.2-.795.255-1.225.195-.486-.066-.749-.004-1.417.336-1.071.544-1.36.957-1.42 2.027-.064 1.143.26 1.794.951 1.906.633.103 1.078.349 1.264.697.127.236.289.276 1.091.266.519-.006 1.351-.1 1.849-.207m-2.612 1.552c-.277-.117-.871-.211-1.32-.211-1.11 0-1.359-.12-2.517-1.212-1.564-1.475-1.72-2.041-.976-3.53C44.024 2.158 46.922.764 50.581.761c2.358-.002 4.365.625 5.723 1.789 1.707 1.463 1.302 2.615-1.411 4.008-.783.403-1.838 1.073-2.341 1.489-1.365 1.125-2.373 1.586-3.472 1.586-.491 0-1.121-.094-1.398-.21m22.505-.741a6.345 6.345 0 01-1.257-.801c-.32-.275-.822-.572-1.115-.659-.516-.155-.532-.179-.531-.804.004-1.125.093-1.276.752-1.275 2.551.005 5.071 1.299 5.974 3.068.16.313.29.598.29.635 0 .133-.802.198-2.105.169-1.018-.022-1.493-.1-2.008-.333m3.2.996c.65-.145 1.617-.497 1.689-.613.043-.069-.02-.312-.138-.542-.201-.388-.197-.421.052-.5.147-.047.331-.162.409-.256.106-.128.03-.17-.3-.17-.575.001-.871-.523-.651-1.153.138-.397.178-.415.806-.357.46.042.745-.007.941-.16.268-.209.261-.215-.158-.137-.514.095-.976-.106-1.434-.626l-.328-.373.064.491c.05.396-.1.959-.405 1.516-.012.024-.26-.174-.55-.44-.517-.473-.522-.486-.227-.644.369-.198.397-.431.041-.337-.447.117-1.267-.329-1.579-.86-.369-.626-.452-.627-.38-.007.031.271.032.492.002.492s-.412-.106-.849-.236c-1.05-.31-3.345-.343-3.527-.05-.12.194-.303 1.52-.338 2.456-.015.369.038.424.475.501.587.102 1.19.405 2.288 1.149.448.303 1.03.641 1.294.751.452.189 2.147.252 2.804.105h-.001zm-5.683.424c-2.015-.418-3.913-1.517-4.565-2.644-.574-.992-.515-1.579.237-2.396 1.291-1.4 5.157-2.592 7.768-2.394 2.812.212 5.502 1.412 6.307 2.812.732 1.275.582 2.301-.49 3.339-.557.54-.892.726-1.846 1.023-2.012.626-5.12.736-7.411.26m-9.965 1.52c0-.296.027-.567.062-.6.086-.086 2.844.205 2.949.312.048.047-.216.13-.585.181-.37.053-.987.21-1.373.351-1.021.372-1.053.364-1.053-.244m35.087.047c-.21-.254-.721-.276-.955-.041-.133.132-.22.098-.398-.155-.178-.256-.312-.306-.633-.243-.335.068-.435.023-.56-.251-.189-.417-.713-.706-1.096-.605-.203.052-.421-.053-.717-.35l-.425-.426.711-1.07c.86-1.295 1.193-1.702 1.392-1.702.176 0 4.324 2.765 4.447 2.966.094.153-.186.627-.882 1.49-.529.655-.625.697-.884.387m.927.323c.888-.944 1.64-2.038 1.527-2.222-.178-.287-4.971-3.365-5.241-3.365-.13 0-2.477 3.305-2.629 3.703-.077.199-.037.212.28.092.301-.114.421-.089.648.138.152.152.278.435.278.628 0 .194.053.351.117.351.066 0 .191-.157.279-.351.087-.193.258-.35.379-.35.355 0 .909.652.909 1.07v.382l.346-.326c.288-.27.384-.295.562-.148.118.099.215.266.215.372 0 .256.203.246.426-.024.283-.34.741-.186.984.33l.219.465.701-.745zm-2.23 2.493c-1.267-.242-3.742-1.157-4.922-1.819-1.776-.998-2.476-1.872-2.476-3.095 0-.873.381-1.569 1.337-2.443.992-.907 2.449-1.616 4.13-2.007 1.65-.385 2.348-.275 4.542.718 3.106 1.407 4.44 2.863 4.44 4.847 0 1.447-.6 2.333-2.084 3.075-1.744.873-3.13 1.076-4.967.724m-7.063.657c-.021-.39-.039-.392.605.045l.533.361-.561-.044c-.47-.039-.565-.098-.577-.362m31.14 1.097c-.989-.722-2.791-1.667-3.756-1.972-.309-.097-.618-.228-.686-.291-.141-.13 1.234-2.264 1.799-2.792l.367-.343.804.392c1.552.757 3.188 1.96 4.593 3.379.772.78 1.517 1.621 1.657 1.869l.254.45h-4.08l-.952-.692zm-36.996-1.388l.091-2.409 1.136.068c.625.038 1.814.107 2.644.154l1.509.084.002 1.004c.001.552.038 1.137.082 1.3.073.275-.002.31-.972.454-1.238.184-2.185.524-3.533 1.266-.54.298-.997.529-1.015.515-.02-.014.006-1.111.056-2.436m28.537 2.834c0-.048.373-.79.829-1.648.455-.86.99-2.019 1.189-2.578.609-1.71 1.041-2.398 1.86-2.958.416-.286 1.827-.731 2.292-.724.371.005-.448.551-.836.557-.26.004-.299.038-.154.13.157.099.062.306-.474 1.015-.369.49-.834 1.223-1.033 1.628-.294.597-.43.737-.719.741-.324.004-.334.022-.115.189.199.151.218.267.106.661-.075.263-.134.793-.129 1.18l.008.703.394-1.093c.217-.601.424-1.122.46-1.158.215-.215 2.918 1.031 4.239 1.953l.83.578-.548.096c-.302.053-1.481.157-2.619.231-1.91.124-2.11.114-2.591-.132-.535-.272-1.65-.353-1.982-.142-.129.081-.043.141.281.195.257.043.655.15.883.239.331.128.374.188.211.291-.228.144-2.382.186-2.382.046m17.645-.411c-.528-.111-1.577-.242-2.331-.292l-1.372-.09-.386-.61c-1.043-1.649-3.659-3.933-5.858-5.117-1.255-.675-1.255-.737-.007-1.297.991-.445 2.615-.712 3.767-.619 2.605.209 5.608 2.985 7.209 6.666.294.674.577 1.369.627 1.543.088.296.07.306-.298.167-.216-.082-.824-.241-1.351-.351m7.957-1.191c-.27-2.079-.749-3.815-1.384-5.011-.257-.483-.419-.877-.361-.877.241 0 1.439 1.198 1.782 1.782.426.728.742 1.935.745 2.849.004.649-.409 3.144-.503 3.05-.029-.029-.154-.836-.279-1.793m-5.755 1.214c-.128-.394-.508-1.275-.844-1.958-1.39-2.826-3.34-4.887-5.638-5.96l-.803-.374 1.443-.118c1.414-.114 1.457-.109 2.088.261 2.323 1.361 3.975 4.285 4.529 8.021a30.4 30.4 0 01.151 1.085c0 .041-.156.003-.347-.083-.239-.109-.419-.38-.579-.874M56.336 8.913c0-.25-.546-1.069-.771-1.155-.398-.153-.365.205.071.754.439.556.7.704.7.401m-.911 2.402c.152-.247-.32-.657-.858-.745-.688-.111-.922.009-.871.449.04.343.097.371.837.41.476.025.834-.021.892-.114m-4.23.412c.385-.303.378-.55-.015-.55-.323 0-.734.412-.645.645.102.267.223.249.66-.095m3.098 3.531c.179-.29-1.272-1.098-1.686-.939-.353.136-.165.41.511.744.675.335 1.051.397 1.175.195m-1.782 1.326c.513-.702.549-.85.238-.969-.137-.053-.436.121-.807.469-.495.464-.564.593-.433.805.26.425.525.344 1.002-.305m-2.87 1.84c.041-.105.12-.984.174-1.955.094-1.645.117-1.753.352-1.606.189.118.305.111.472-.027.338-.281.27-.502-.268-.869-.291-.199-.49-.451-.491-.623 0-.158-.163-.614-.362-1.012-.359-.72-1.096-1.437-2.273-2.207-.33-.216-.571-.42-.538-.454.034-.034.606.075 1.271.242 1.821.455 2.687.211 4.718-1.333.573-.436 1.484-.997 2.025-1.248 1.444-.67 2.125-1.141 2.597-1.792l.421-.58-.003.407c0 .223-.127 1.89-.28 3.705-.152 1.813-.278 3.309-.278 3.324-.001.014-.331.247-.734.518-.525.351-.782.45-.906.347-.242-.201-.505-.001-.42.322.038.147-.121.638-.354 1.09a4.393 4.393 0 00-.5 1.764l-.075.943-.646.278c-.715.307-3.124.934-3.644.948-.223.007-.307-.053-.258-.182m-13.155-5.277c-.253-.005-.25-.026.049-.345.39-.414 1.107-.732 1.259-.557.06.068.305.48.545.914l.434.788-1.008-.398c-.554-.218-1.13-.4-1.279-.402m6.803 1.359c.138-.583.71-1.956.91-2.181.118-.134.908.44.908.66 0 .315-1.863 2.637-1.937 2.414-.03-.088.024-.49.119-.893m-2.624.554c-.528-.566-1.256-1.467-1.615-2l-.656-.97.757-.1c.416-.056.942-.196 1.169-.314.371-.192.467-.191.942.006.32.135.696.187.958.134.607-.122 1.035-.102 1.341.062.254.135.252.162-.064.737-.3.546-.499 1.295-.704 2.646-.076.504-.41.797-.935.819-.128.005-.664-.454-1.193-1.02m-2.558.981c-.438-.271-.973-.536-1.187-.59-.215-.054-.474-.233-.576-.397-.248-.396-.408-1.491-.218-1.491.3 0 2.583.99 3.207 1.391.358.229.865.638 1.127.908l.474.49-.474.144c-.742.223-1.486.08-2.353-.455m3.513.771c1.22-.318 2.505-1.156 2.505-1.632 0-.417.772-1.337 1.122-1.337.657 0 .37-1.402-.399-1.949-.617-.439-2.003-.896-2.181-.719-.205.206-1.251.174-1.553-.045-.219-.161-.338-.15-.801.074-.373.179-.806.254-1.385.237-.686-.02-.99.05-1.633.382-.436.224-.913.569-1.061.768-.404.546-.556 1.419-.383 2.2.203.906.481 1.298.922 1.298.487 0 1.294.396 1.467.72.12.225.306.261 1.293.254.635-.004 1.573-.117 2.087-.251m-3.12 1.73c-.322-.115-.959-.207-1.414-.207-.456 0-1.032-.087-1.282-.194-.565-.241-2.381-2.004-2.7-2.62-.688-1.33.695-3.696 2.943-5.036 1.825-1.089 5.425-1.574 7.948-1.073 1.352.268 3.005.995 3.865 1.7.702.576 1.245 1.599 1.117 2.107-.171.683-1.043 1.432-2.582 2.221-.824.422-2.03 1.188-2.68 1.7-1.286 1.015-1.964 1.408-2.781 1.61-.636.158-1.638.072-2.434-.208m24.429-.393c-.426-.175-1.122-.579-1.544-.897-.423-.32-.948-.624-1.166-.679-.504-.125-.57-.308-.451-1.258l.096-.769h1.014c2.464 0 4.741 1.216 5.752 3.073.456.838.493.818-1.523.837-1.158.01-1.539-.043-2.178-.307m2.319 1.08c1.475-.29 1.876-.392 2.203-.559.368-.19.373-.207.177-.677-.187-.447-.182-.488.065-.568.146-.045.329-.161.407-.254.107-.128.033-.17-.296-.17-.58.001-.932-.56-.721-1.148.129-.359.195-.391.724-.351.335.024.749-.047.976-.17l.395-.214-.632-.01c-.673-.011-.92-.144-1.311-.703l-.245-.351.023.562c.013.308-.084.807-.215 1.109l-.24.548-1.009-1.011.34-.283.341-.284-.611-.005c-.502-.004-.689-.086-1.052-.464a6.94 6.94 0 01-.623-.737c-.16-.245-.174-.211-.122.296l.06.573-.929-.258c-.593-.164-1.399-.257-2.232-.257-1.266 0-1.309.011-1.44.355-.22.579-.389 2.756-.217 2.808.081.024.38.082.663.129.287.047 1.14.493 1.928 1.007 1.656 1.081 2.432 1.316 3.593 1.087m-5.404.297c-2.905-.758-5.006-2.633-4.712-4.203.322-1.719 5.184-3.64 8.579-3.39 4.79.353 7.954 3.018 6.616 5.573-.565 1.082-2.135 1.878-4.378 2.226-1.297.2-5.029.074-6.104-.206h-.001zm68.559-2.225c-.509-3.364-2.125-6.39-4.209-7.878l-.786-.562.884-.044c1.798-.09 4.743.408 5.419.917.499.375 1.258 1.684 1.655 2.856.407 1.205.827 3.564.963 5.414l.095 1.282-.463.527c-.255.29-.645.604-.865.696-.391.164-.435.138-1.452-.878l-1.048-1.048-.193-1.282zm-57.031 2.157v-3.692c-.003-2.231-3.435-4.275-7.633-4.544l-1.369-.088.009-1.768c.007-1.429.04-1.716.175-1.496.778 1.262 2.474 2.321 4.659 2.909 1.542.414 5.554.459 6.947.077 1.341-.368 2.561-.98 3.288-1.649l.641-.591L78 9.931c-.049.724-.154 1.399-.235 1.499-.259.329-1.273.834-2.061 1.027-.425.104-1.42.189-2.211.189-.791.001-1.439.043-1.439.095 0 .184 2.698.297 3.584.15.706-.117 1.701-.474 2.318-.832.042-.024.091.172.108.436.04.592-.381.969-1.423 1.279-.813.241-2.564.278-3.124.065-.208-.079-.41-.112-.449-.074-.148.149.784.397 1.745.464.927.066 1.971-.142 3.102-.616.139-.059.157.362.086 2.008l-.092 2.082-.593.64c-.736.796-.906 1.108-1.186 2.167l-.223.842-1.057.452c-1.036.445-3.193.927-3.383.757-.053-.048-.096-1.444-.095-3.103m-21.996 1.745c.12-.984.244-1.814.275-1.845.031-.031.67-.183 1.419-.335.749-.153 1.688-.402 2.085-.554.399-.151.788-.274.865-.275.168 0 .1 3.184-.075 3.514-.074.141-.502.272-1.248.381-.624.09-1.656.346-2.292.567-.637.221-1.178.387-1.203.369-.025-.019.053-.838.174-1.822m43.958 1.428c.257-2.187-1.286-4.209-4.437-5.818l-1.193-.609.807.094c1.141.13 1.012-.127-.168-.338-1.202-.215-2.752-.941-3.406-1.594-.427-.428-.5-.603-.571-1.382-.044-.49-.067-.905-.051-.922.016-.015.438.257.937.607 1.132.793 3.359 1.887 4.838 2.377 2.742.907 5.889.44 7.631-1.132l.579-.524v.507c0 .383-.121.641-.496 1.056-.634.702-1.49 1.099-2.806 1.304-1.116.173-1.403.394-.514.394.946 0 2.182-.293 2.925-.692l.724-.39.104 1.909c.065 1.185.048 2.308-.045 2.959-.131.925-.206 1.102-.63 1.49-.545.499-1.592.929-3.003 1.231-1.404.302-1.327.335-1.225-.527m-7.967.581c-.387.146-.462.13-.684-.143-.211-.262-.308-.286-.647-.167-.364.128-.418.103-.611-.281-.295-.585-.89-.904-1.259-.673-.237.147-.301.132-.427-.104-.081-.151-.306-.359-.498-.46l-.351-.183.842-1.258c1.267-1.892 1.341-1.965 1.8-1.76.431.193 3.668 2.347 4.309 2.868.386.314.404.367.23.691-.102.192-.466.705-.807 1.139l-.62.791-.422-.312c-.368-.272-.476-.291-.855-.148m1.822.619c.875-.912 1.878-2.386 1.758-2.58-.101-.163-3.13-2.15-4.646-3.047-.559-.331-1.105-.568-1.213-.527-.175.068-2.893 3.896-2.893 4.076 0 .04.231.036.512-.01.596-.097.891.179.891.829 0 .489.243.514.421.044.083-.219.244-.352.424-.352.394 0 .98.613.98 1.024 0 .474.152.565.386.231.267-.38.791-.309.852.113.055.392.134.395.53.023.422-.397.811-.25 1.072.403l.208.523.718-.75zm-3.007 2.51c-2.022-.485-4.983-1.824-6.248-2.825-1.223-.969-1.629-2.481-.997-3.72.736-1.441 2.992-2.92 5.424-3.556 2.08-.543 3.345-.3 6.305 1.215 2.654 1.357 3.881 2.867 3.878 4.773-.002 1.295-.427 2.197-1.355 2.879-1.876 1.377-4.491 1.837-7.007 1.234m-36.268-8.322c-.001-.286-.524-1.058-.825-1.22-.51-.272-.484.117.05.77.514.626.776.778.775.45m-1.027 2.478c.114-.298-.254-.583-.915-.706-.597-.113-.935.077-.935.524 0 .314.058.338.879.377.722.034.895-.001.971-.195m-4.568.527c.428-.384.447-.434.208-.526-.461-.178-1.151.477-.836.793.115.114.281.044.628-.267m4.937 2.694c.289-.289-.175-1.221-.538-1.082-.114.044-.205.152-.202.24.007.245.629.953.74.842m-1.587 1.15c0-.305-.888-.921-1.461-1.015-.437-.07-.504-.044-.504.196 0 .208.222.373.877.651 1.015.431 1.088.442 1.088.168m-1.899 1.391c.776-.946.426-1.443-.479-.681-.532.448-.737.805-.624 1.097.151.393.57.236 1.103-.416m-1.498-.1c.036-1.2-.001-2.226-.093-2.565-.22-.811-.881-1.638-1.958-2.446-1.901-1.427-3.428-1.994-5.881-2.186-1.481-.116-1.438-.064-1.441-1.728l-.003-1.031 1.018.947c1.77 1.646 2.012 1.785 2.954 1.702.575-.05 1.109.013 1.82.214 1.906.539 3.167.196 5.296-1.437.579-.445 1.696-1.129 2.484-1.522 1.537-.768 2.317-1.359 2.657-2.017.117-.227.235-.391.262-.365.06.062-.286 4.727-.556 7.487-.198 2.024-.221 2.116-.589 2.386-1.307.957-2.293 2.289-2.293 3.098 0 .35-.71.706-2.329 1.167-1.533.437-1.415.586-1.348-1.704m86.7-2.13c-.257-1.374-.782-2.968-1.256-3.816-.19-.338-.292-.615-.229-.615.064 0 .427.281.809.622 1.701 1.531 2.244 4.013 1.508 6.897-.347 1.358-.393 1.327-.507-.341-.06-.877-.206-2.113-.325-2.747m-16.281 4.155c-1.47-2.009-4.353-4.122-6.718-4.927-.372-.126-.681-.282-.687-.344-.034-.371 2.261-3.315 2.585-3.315.077 0 .681.318 1.34.705 2.547 1.499 4.761 3.545 6.16 5.691.73 1.12 1.305 2.223 1.311 2.516.002.089-.678.123-1.856.095-1.831-.045-1.864-.052-2.135-.421m-41.393-1.885c.049-1.408.13-2.597.177-2.641.049-.045.609-.152 1.245-.24.966-.134 2.259-.501 3.274-.931.419-.177.552.518.552 2.872v2.239h-.82c-1.005 0-2.713.422-3.625.897-.373.194-.726.356-.786.359-.059.004-.067-1.145-.017-2.555m-47.641 2.629c-.026-.024-.083-.445-.125-.933l-.078-.888.968.903 1.107 1.034c.086.079-.24.09-.843.029-.54-.055-1.004-.12-1.029-.145m82.502-.325c0-.219-.784-1.205-1.396-1.756-.924-.832-1.816-1.103-2.779-.845-.465.125-.385.257.181.297.69.05 1.669.577 2.925 1.575.588.467 1.069.796 1.069.729m-6.36.995c-.155-.262.404-1.772 1.129-3.052.992-1.754 2.07-3.879 2.689-5.303.769-1.767 1.871-2.557 3.946-2.828l.631-.082-.35.278c-.194.154-.568.28-.834.282-.436.002-.458.022-.228.19.237.173.213.232-.371.889-.344.388-.927 1.189-1.295 1.78-.547.877-.738 1.078-1.041 1.093-.34.018-.344.025-.05.08.259.05.303.123.224.368-.216.674-.328 1.315-.322 1.848.005.528.015.54.157.211.523-1.214.946-2.105 1.001-2.105.034 0 .527.196 1.094.436a16.33 16.33 0 013.505 2.039c.81.617 2.651 2.516 2.651 2.735 0 .068-.154.124-.34.124-1.497 0-7.535.467-8.432.653-2.119.439-3.634.585-3.764.364m-70.582-5.147a11.732 11.732 0 00-1.362-.499c-.507-.137-.567-.191-.417-.372.188-.227 1.147-.754 1.37-.754.073 0 .307.3.52.667.213.366.479.808.591.982.253.392.237.392-.702-.024m5.791 1.088c.155-.751.628-1.952.948-2.41.109-.157.204-.152.555.03.49.253.602.468.452.86-.135.352-1.97 2.493-2.06 2.404-.036-.037.011-.434.105-.884m-2.477.901c-1.128-1.175-2.862-3.46-2.862-3.771 0-.05.394-.117.878-.148.482-.032 1.088-.163 1.344-.293.431-.216.496-.217.812-.01.26.17.55.206 1.194.148.74-.068 1.666.082 1.666.267 0 .035-.152.364-.339.732-.321.633-.783 2.47-.783 3.111 0 .27-.622.679-1.057.696-.08.002-.464-.327-.853-.732m-3.283.599c-.502-.301-1.088-.589-1.303-.642-.447-.109-.724-.566-.868-1.431-.067-.406-.049-.596.058-.596.292 0 2.458.882 3.229 1.313.942.53 2.077 1.586 1.893 1.765-.187.182-.877.27-1.536.198-.312-.034-.965-.303-1.473-.607m3.266 1.038c1.652-.298 3.238-1.174 3.376-1.863.125-.625.698-1.343 1.185-1.487.427-.127.453-.173.453-.787 0-.965-.616-1.56-2.168-2.095-.635-.217-.866-.245-1.017-.118-.292.241-1.418.204-1.678-.055-.199-.2-.28-.193-.871.075-.464.211-.912.292-1.559.282-1.588-.024-3.059.894-3.389 2.116-.277 1.03.206 2.89.75 2.892.522.003 1.328.36 1.763.783.447.435.567.478 1.278.467.433-.007 1.278-.102 1.877-.21m-2.668 1.766c-.439-.154-1.065-.28-1.389-.28-1.386 0-1.982-.265-3.214-1.433-1.675-1.585-1.905-2.255-1.316-3.83.349-.934 1.496-2.231 2.685-3.039 2.437-1.654 6.804-2.216 10.074-1.297 2.46.691 4.632 2.429 4.632 3.706 0 .888-.972 1.794-3.046 2.841-.876.443-2.046 1.184-2.692 1.705-1.086.877-2.193 1.54-2.964 1.777-.67.205-1.959.136-2.77-.15m91.185-.345c-.581-.204-1.677-.479-2.434-.61l-1.376-.238-.302-.705c-1.34-3.123-4.013-5.985-7.549-8.087-.529-.314-.927-.629-.884-.698.043-.07.343-.263.665-.428 1.412-.722 3.858-1.009 5.227-.613 2.753.795 5.357 3.427 6.918 6.992.633 1.447 1.225 3.379 1.37 4.467l.096.72-.336-.215c-.186-.118-.813-.381-1.395-.585m2.334.216c-.227-2.001-1.457-5.119-2.842-7.203-1.292-1.942-3.154-3.627-4.827-4.365l-.742-.327 1.579-.091c1.956-.111 2.271.02 3.827 1.594.888.896 1.205 1.349 1.79 2.546 1.073 2.198 1.435 3.757 1.519 6.555.044 1.498.019 2.27-.071 2.214-.076-.047-.181-.463-.233-.923m-68.58-.59c-.428-.2-1.011-.566-1.296-.817a4.757 4.757 0 00-1.186-.712c-.648-.249-.668-.274-.639-.794.017-.295.067-.742.112-.993.08-.452.088-.456.882-.453 1.998.006 4.068.791 5.279 2.002.618.617 1.346 1.689 1.346 1.98 0 .144-.703.201-2.176.174-1.329-.022-1.652-.077-2.322-.387m3.364 1.129a13.32 13.32 0 001.312-.352c.731-.243.729-.238.448-1.145-.071-.231-.041-.316.112-.316.116 0 .288-.095.384-.211.149-.179.112-.21-.246-.21-.528 0-.764-.277-.764-.899 0-.72.102-.804.848-.705.525.07.726.034.985-.177l.326-.264-.573.055c-.507.048-.634-.005-1.08-.451-.278-.279-.539-.506-.578-.506-.04 0-.043.201-.006.448.04.272-.043.694-.208 1.069l-.274.619-.536-.524-.536-.523.374-.347c.275-.255.305-.324.114-.263-.667.215-1.478-.259-2.166-1.268-.157-.23-.172-.185-.117.343.054.522.031.594-.17.516-.8-.308-2.149-.498-3.295-.462l-1.288.04-.17.912a11.28 11.28 0 00-.176 1.617l-.007.704.736.175c.471.111 1.219.496 2.071 1.064.733.489 1.548.963 1.81 1.052.544.183 1.757.187 2.67.009m-5.533.556c-2.525-.411-5.035-1.875-5.622-3.28a3.267 3.267 0 01-.202-1.053c0-1.565 3.198-3.244 7.209-3.784 1.848-.249 4.709.26 6.474 1.151 1.495.754 2.485 1.83 2.664 2.896.218 1.287-.596 2.663-1.957 3.307-1.946.92-5.599 1.246-8.566.763m72.347.299l-.495-.138-.008-1.792c-.022-4.781-1.909-8.987-5.027-11.197l-.399-.284 1.536.098c1.816.115 2.984.303 4.326.699 1.181.347 1.238.389 1.92 1.442 1.036 1.6 1.682 4.382 1.875 8.083l.092 1.754-.54.511c-.297.28-.73.609-.961.73-.479.252-1.588.297-2.319.094m-61.078-.527c-.016-.985-.019-2.011-.004-2.282.108-2.191.113-2.149-.319-2.932-.435-.793-1.309-1.55-2.452-2.123-1.532-.771-4.109-1.401-5.724-1.401h-.774l.09-.862c.05-.475.094-1.532.098-2.351.007-1.435.015-1.476.24-1.137.829 1.249 2.697 2.317 4.945 2.828 1.733.394 5.022.436 6.563.085 1.359-.31 2.61-.886 3.507-1.615l.737-.6v1.213c0 1.208-.002 1.216-.497 1.683-.772.727-2.029 1.064-4.029 1.082-1.064.008-1.599.061-1.511.149.074.075.973.141 1.999.147 1.986.009 2.928-.19 3.679-.781l.359-.282v1.299l-.764.349c-1.129.518-2.257.663-3.371.434-1-.206-1.247-.1-.375.162.902.27 2.498.195 3.563-.168l.947-.322v1.203c0 1.199-.213 3.951-.362 4.669-.052.254-.301.52-.762.816a7.246 7.246 0 00-1.195 1.003c-.279.31-.737.659-1.016.776-.783.327-2.43.73-3.016.739l-.526.008-.03-1.789zM41.51 34.51c.039-.135.172-1.256.297-2.491.322-3.189.316-3.158.658-3.158.16 0 .952-.221 1.759-.491.808-.271 1.502-.491 1.544-.491.086 0-.064 4.486-.183 5.491l-.078.648-1.498.231c-.824.127-1.688.287-1.919.356-.612.184-.658.176-.58-.095m44.479.551c.015-1.098-.028-1.332-.385-2.06-1.012-2.07-4.188-4.208-7.538-5.077-.884-.228-.937-.266-.986-.686l-.053-.445.686.471c.377.259 1.105.603 1.618.765 1.025.321 3.335.542 2.969.283a1.017 1.017 0 00-.496-.15c-1.179-.009-3.381-.977-4.223-1.855-.532-.554-.586-.681-.662-1.551-.045-.521-.063-.948-.038-.948.023 0 .566.351 1.206.78 2.224 1.488 5.274 2.735 7.301 2.984 2.275.279 4.833-.454 6.409-1.838l.503-.441-.106.626c-.238 1.416-1.622 2.27-4.204 2.599-.575.072-.651.113-.437.233.593.333 3.043-.172 4.01-.826l.491-.332.097 2.002c.156 3.224-.041 4.566-.761 5.166-.673.564-3.747 1.495-5.044 1.529l-.375.009.018-1.238zm-22.108 1.554c.028-1.602.074-2.982.1-3.067.028-.084.453-.196.948-.247.495-.05 1.216-.174 1.603-.275l.705-.183-.002.992c0 .621.086 1.194.234 1.534.172.398.235.952.235 2.07v1.527l-.947.009a8.77 8.77 0 00-1.86.262c-.502.139-.947.261-.99.271-.043.011-.055-1.291-.026-2.893m14.104-.577c-.253-.135-.396-.125-.736.051-.233.12-.423.155-.423.077 0-.077-.148-.239-.331-.358-.253-.166-.421-.184-.702-.077-.225.085-.37.089-.37.009 0-.073-.202-.362-.449-.644-.396-.451-.507-.503-.959-.442-.398.054-.546.01-.678-.2-.093-.149-.328-.33-.524-.405-.227-.086-.317-.198-.252-.311.343-.59 2.062-3.053 2.225-3.189.15-.125.303-.107.662.078.581.297 4.065 2.642 4.616 3.106.39.328.399.359.199.745-.114.221-.534.794-.932 1.273-.598.718-.751.834-.877.662a1.64 1.64 0 00-.469-.375m1.371.591c.796-.844 1.961-2.408 1.961-2.631 0-.11-2.693-1.906-4.696-3.13-1.595-.976-1.691-1.015-1.916-.78-.337.35-3.091 4.415-3.031 4.473.026.028.246-.025.488-.117.375-.141.48-.129.714.082.15.137.314.465.364.73.107.571.254.612.474.131.225-.496.75-.461 1.206.081.199.238.363.585.363.772 0 .413.152.436.388.059.217-.345.716-.367.823-.035l.14.443c.045.151.132.128.38-.106.359-.337.826-.392 1.045-.126.08.096.201.387.267.647l.122.471.908-.964zm-3.582 2.755c-1.494-.399-3.979-1.421-5.186-2.133-1.929-1.139-2.738-2.187-2.738-3.548 0-2.178 2.556-4.305 6.329-5.268 2.168-.554 3.508-.291 6.623 1.297 2.008 1.024 3.372 2.206 3.982 3.453.784 1.605.363 3.766-.934 4.794-.722.571-2.094 1.201-3.378 1.548-1.299.353-3.041.3-4.698-.143M40.112 29.302c.104-.167-.675-1.361-.958-1.47-.457-.175-.388.319.133.954.521.637.687.741.825.516m-1.09 2.715c.121-.314-.191-.608-.827-.78-.964-.259-1.559.092-1.223.722.121.224.3.27 1.057.27.685 0 .933-.053.993-.212m-5.032.547c.349-.274.425-.408.311-.545-.305-.367-1.247.244-1.075.696.114.294.228.272.764-.151m1.551 5.784c.817-1.082.596-1.564-.409-.887-.632.425-.953.999-.746 1.329.283.449.563.342 1.155-.442m-2.12.793c.059-.752.107-2.189.107-3.192-.001-1.95-.066-2.194-.883-3.269-.301-.396-1.945-1.716-2.779-2.229-.154-.096.028-.077.435.045 1.655.496 3.363-.003 5.333-1.559.541-.427 1.784-1.184 2.763-1.685 1.927-.985 2.64-1.52 3.075-2.307l.28-.505-.082 1.614c-.089 1.739-.584 7.606-.713 8.437-.067.433-.153.531-.596.676a13.51 13.51 0 00-.692.241c-.111.046-.177-.049-.18-.255-.005-.408-.306-.818-.6-.818-.4 0-.4.27 0 .795.227.297.329.537.239.566-.085.028-.43.227-.768.439l-.612.387-.777-.468c-.848-.511-1.477-.566-1.477-.128 0 .183.246.362.842.612.463.194.869.378.901.409.032.03-.071.197-.23.371-.431.468-.875 1.367-.973 1.967-.101.62-.135.646-1.24.964-1.544.442-1.498.478-1.373-1.108m90.486-1.686c-.263-1.939-.765-3.725-1.398-4.98-.263-.521-.431-.947-.372-.947s.465.319.903.709c1.407 1.255 2.201 3.455 1.988 5.517-.049.473-.223 1.429-.387 2.125l-.297 1.262-.112-1.052c-.061-.579-.208-1.764-.325-2.634M18.256 34.62l-.958-.316.298-.317c.295-.314 1.364-.873 1.458-.762.124.148 1.211 2.081 1.211 2.155 0 .045-.236-.036-.526-.181-.289-.146-.957-.406-1.483-.579m7.396 1.576c.214-1.028.97-2.703 1.219-2.703.08 0 .332.096.559.214.672.347.549.728-.722 2.241-.626.744-1.165 1.325-1.199 1.291-.034-.034.031-.504.143-1.043m-3.189.454c-.614-.694-1.454-1.769-1.868-2.386l-.753-1.123.837-.095c.461-.053 1.117-.22 1.458-.371.397-.175.689-.229.813-.149.469.303 1.249.415 1.779.257.432-.13.631-.119 1.053.057l.522.218-.406.814c-.437.88-.645 1.632-.794 2.865-.084.702-.142.812-.537 1.011-.243.123-.565.211-.716.194-.15-.016-.775-.597-1.388-1.292m-2.883 1.284c-.467-.288-1.085-.605-1.374-.705-.288-.099-.639-.335-.778-.522-.254-.339-.521-1.811-.33-1.811.399 0 3.236 1.278 4.055 1.826 1.071.717 1.791 1.502 1.469 1.604-.1.031-.276.092-.392.135-.115.042-.568.059-1.006.038-.631-.033-.97-.148-1.644-.564v-.001zm2.511 1.16a12.104 12.104 0 001.931-.386c1.161-.364 2.557-1.26 2.558-1.644.003-.529.781-1.566 1.323-1.762.458-.166.503-.229.503-.722 0-1.081-.614-1.705-2.291-2.33-.753-.281-.865-.289-1.405-.106-.641.218-1.299.159-1.651-.145-.192-.167-.32-.151-.912.112-.51.228-.979.31-1.811.318-.986.01-1.217.065-1.892.447-.422.24-.958.671-1.19.958-.366.452-.429.658-.474 1.54-.063 1.255.365 2.468.871 2.47.64.001 1.438.332 1.845.764.51.54 1.075.647 2.595.486m-1.865 1.818c-.514-.177-1.423-.335-2.215-.386-1.324-.085-1.352-.095-2.052-.681-1.252-1.047-2.408-2.383-2.564-2.959-.297-1.101.449-2.898 1.712-4.129 2.228-2.169 5.418-3.199 9.351-3.015 2.899.136 5.488 1.087 6.958 2.556 1.856 1.856 1.317 3.137-2.032 4.834-.975.495-2.185 1.243-2.733 1.689-2.803 2.289-4.366 2.798-6.425 2.091m88.193 1.282h-1.789l-.664-.972c-1.525-2.232-4.503-4.454-7.35-5.485-.482-.174-.878-.379-.878-.455 0-.46 2.493-3.614 2.858-3.614.269 0 2.753 1.532 3.913 2.413 2.459 1.869 4.471 4.3 5.557 6.714.604 1.341.67 1.602.379 1.491-.131-.051-1.043-.092-2.026-.092m6.512.732a47.974 47.974 0 00-2.613-.451l-1.209-.164-.173-.585c-.278-.941-1.397-3.002-2.254-4.151-1.521-2.043-4.373-4.484-6.838-5.85-.406-.224-.737-.451-.737-.505 0-.205 1.802-.967 2.753-1.165 1.379-.287 3.173-.284 4.124.005 3.812 1.161 7.176 5.542 8.625 11.234.455 1.785.461 2.078.041 1.987a361.55 361.55 0 00-1.719-.355m1.966-3.21c-1.491-4.469-4.343-8.088-7.58-9.619l-.982-.465 1.875-.039c1.802-.037 1.9-.024 2.498.326.342.201.99.724 1.439 1.165 2.314 2.263 3.717 5.987 3.904 10.359.103 2.409-.052 2.8-.409 1.032a28.216 28.216 0 00-.745-2.759m-18.4 1.469c-.359-.692-1.568-1.897-2.222-2.214-.375-.181-.869-.285-1.352-.284-1.113.004-1.281.197-.352.405.792.177 2.263 1.047 3.427 2.027.335.283.637.513.67.513.033 0-.044-.201-.171-.447m-6.372 2.476c-.295-.294-.351-.481-.347-1.155.006-.939.372-1.798 1.92-4.504.549-.96 1.297-2.461 1.662-3.335 1.069-2.56 1.47-3.103 2.775-3.763.454-.231 2.542-.695 2.647-.59.107.108-.736.57-.971.533a.886.886 0 00-.491.107c-.235.136-.235.144-.003.148.376.007.301.197-.398 1.011-.354.411-.964 1.268-1.355 1.906-.637 1.037-.757 1.158-1.146 1.169l-.435.012.375.166c.281.125.345.221.252.386-.216.385-.423 2.047-.297 2.387.112.304.125.293.211-.161.117-.624.88-2.24 1.057-2.24.28 0 2.37.95 3.315 1.507 1.527.899 3.199 2.323 4.204 3.581.505.631.918 1.193.918 1.249 0 .056-.299.141-.666.19-1.003.133-2.524.425-5.017.964a30.472 30.472 0 01-4.556.643c-1.269.087-2.343.191-2.385.233-.161.161-.936-.11-1.27-.444h.001zm-46.326-1.486c-.43-.2-1.157-.651-1.614-1.002-.458-.352-1.101-.718-1.43-.815-.563-.164-.595-.201-.533-.607.037-.239.104-.734.151-1.101l.085-.666h.981c2.15 0 4.278.788 5.65 2.094.7.667 1.627 1.963 1.632 2.282.001.168-.722.228-2.456.203-1.489-.02-1.774-.065-2.466-.388m3.163 1.272c1.004-.153 2.325-.524 2.562-.719.135-.11.127-.248-.035-.635-.268-.642-.261-.741.058-.741a.65.65 0 00.437-.211c.149-.178.114-.211-.227-.212-.222-.002-.473-.048-.558-.105-.3-.2-.495-.755-.407-1.154.127-.581.355-.723.904-.566.351.101.586.077.972-.098l.51-.23-.758-.086c-.657-.075-.824-.16-1.247-.642l-.489-.555.075.587c.054.437-.006.745-.238 1.203l-.311.615-.618-.532c-.599-.516-.61-.539-.341-.742.153-.116.325-.212.383-.215a.11.11 0 00.105-.11c0-.057-.281-.111-.625-.118-.74-.016-1.484-.511-1.758-1.172-.264-.64-.476-.536-.378.187l.084.615-.872-.277c-.903-.286-3.439-.501-4.065-.344-.294.074-.373.214-.505.897a22.08 22.08 0 00-.25 1.827l-.092 1.017h.369c.629 0 1.659.474 2.981 1.371.696.473 1.426.921 1.619.995.574.218 1.818.287 2.715.15m-4.437.72c-1.764-.186-2.971-.515-4.4-1.2-1.528-.732-2.451-1.513-2.936-2.486-.588-1.181-.468-1.841.502-2.783 1.183-1.148 4.028-2.222 7.066-2.667 3.661-.537 8.795 1.312 9.882 3.559.622 1.285.266 3.002-.803 3.884-1.665 1.373-5.583 2.085-9.311 1.693m11.337.021c-.106-.173-.112-3.09-.007-4.045.177-1.598-.562-2.923-2.231-4.002-1.486-.961-4.02-1.765-6.376-2.026l-.877-.098V31.06c0-1.626.052-2.897.115-2.824.064.074.318.396.564.718.873 1.138 2.798 2.107 5.142 2.588 4.214.863 8.391.153 10.455-1.779l.706-.66v1.325c0 1.313-.005 1.329-.456 1.758-.94.892-2.357 1.292-4.667 1.317-1.191.012-1.329.037-.912.157.271.078 1.313.117 2.316.087 1.896-.057 1.824-.038 3.623-.929.062-.031.094.219.07.555-.042.589-.073.626-.831 1.005-1.25.625-2.967.742-4.367.297-.171-.054-.25-.035-.2.048.143.231 1.281.453 2.316.453.852 0 1.919-.234 2.862-.628.221-.092.246-.003.242.859-.005 2.01-.253 4.318-.476 4.469-.117.078-.734.427-1.369.774-1.32.722-2.631 1.868-3.151 2.754-.29.495-.449.621-.87.69-.284.046-.61.104-.726.128-.424.09-.828.075-.894-.034h-.001zm63.37-.055l-.471-.146.095-1.013c.186-1.98-.383-5.245-1.323-7.598-.855-2.142-2.585-4.448-4.015-5.351-.341-.216-.622-.425-.622-.464 0-.132 3.391.129 4.58.352.646.121 1.581.345 2.079.5 1.087.336 1.522.794 2.323 2.448.885 1.827 1.311 3.862 1.562 7.455.158 2.26.157 2.264-.166 2.7-.907 1.229-2.378 1.635-4.042 1.117m-33.688-1.834c.008-1.872.055-3.777.104-4.234l.091-.831 1.403-.235c3.573-.601 5.209-1.482 5.547-2.988.094-.417.197-2.559.24-5.009.042-2.355.125-4.414.186-4.578.085-.229.277-.318.849-.394 1.049-.139 3.036-.806 3.75-1.258.998-.632 1.047-.855 1.161-5.349.054-2.162.106-4 .113-4.084.01-.107 1.374-.133 4.681-.087 2.566.036 4.682.079 4.702.095.02.017-.156.499-.392 1.071-.507 1.23-1.931 3.635-2.155 3.637-.086.001-.483.155-.885.341-.926.431-1.405 1.134-2.692 3.949-.526 1.153-1.353 2.695-1.835 3.428-1.091 1.658-1.683 2.815-1.807 3.532-.089.517-.149.576-.918.888-1.405.57-1.607.849-3.32 4.569-.61 1.327-1.556 3.095-2.101 3.93-1.38 2.118-1.885 3.239-1.891 4.204-.004.581.073.881.311 1.215l.317.444-1.229.092c-1.392.105-3.311.534-3.745.838-.16.111-.338.206-.395.211-.059.004-.099-1.524-.09-3.397m29.091 3.81c-1.285-1.024-3.681-1.968-5.865-2.307-1.039-.162-1.076-.177-.435-.19 2.348-.046 10.105 1.335 10.105 1.799 0 .299-.628.687-1.473.911-1.236.327-1.71.284-2.332-.213m-37.006 4.12c-.032-.057.027-.641.131-1.298.257-1.64.254-3.034-.01-3.769-.827-2.303-4.138-4.687-8.081-5.819-1.402-.402-1.539-.57-1.542-1.895l-.002-.887.596.479c1.932 1.548 5.76 3.258 8.269 3.693 1.085.189 1.506.201 2.452.069 1.97-.272 3.811-1.031 4.841-1.993.243-.226.458-.395.478-.373.019.022-.012.342-.069.712-.174 1.123-1.185 1.93-3.019 2.407-.459.12-1.103.218-1.429.218-.734 0-.915.219-.279.338 1.027.192 3.183-.31 4.195-.977l.526-.347.035 1.861c.07 3.683.033 4.05-.509 5.126-.454.903-.544.994-1.305 1.333-1.013.449-2.028.742-3.484 1.002-1.326.236-1.718.263-1.794.12m-7.96-2c-.312-.311-.976-.372-1.235-.113-.13.13-.235.095-.469-.156-.247-.265-.401-.31-.852-.25-.431.058-.568.023-.632-.16-.246-.698-1.127-1.25-1.596-.999-.229.123-.336.076-.636-.28-.197-.235-.448-.428-.558-.428-.108 0-.198-.069-.198-.154 0-.359 2.405-3.775 2.659-3.775.138 0 3.349 2.107 4.747 3.116l1.16.836-.31.553c-.285.507-1.604 2.091-1.74 2.091-.033 0-.186-.127-.34-.281m1.185.409c.883-.936 2.042-2.538 2.042-2.821 0-.134-3.658-2.565-5.658-3.761l-1.237-.74-.237.326c-.521.721-3.253 4.682-3.253 4.718 0 .021.275.001.612-.045.534-.073.641-.041.842.245.127.181.23.5.23.71 0 .55.234.613.484.131.294-.57.423-.621.913-.368.461.238.848.858.848 1.356 0 .309.006.308.399-.068.474-.454.784-.386.995.22l.149.429.371-.371c.203-.203.456-.37.562-.37.27 0 .752.515.755.807.006.679.242.599 1.182-.398h.001zm-3.124 3.176c-3.094-.651-6.941-2.485-8.334-3.974-.775-.829-1.004-1.472-.93-2.619.044-.695.152-1.024.529-1.611.988-1.542 3.373-3.01 6.058-3.729 1.725-.462 2.906-.463 4.274-.003 1.332.446 4.224 1.874 5.099 2.515 2.212 1.625 3.105 3.746 2.479 5.897-.467 1.608-2.516 3.001-5.342 3.633-.649.146-2.93.081-3.833-.109M31.144 40.339c.182-.458-.843-1.764-1.259-1.605-.323.124-.275.232.475 1.074.567.635.705.729.784.531m-1.136 2.89c.187-.49-.648-.938-1.618-.868-.52.037-.623.094-.662.367-.08.563.204.73 1.242.73.748 0 .968-.049 1.038-.229m-13.822.123c-.009-.278-1.168-1.299-1.473-1.299-.336 0-.23.257.378.916.595.647 1.112.828 1.095.383m8.412.421c.422-.352.449-.414.248-.58-.188-.156-.296-.144-.683.082-.479.28-.624.778-.247.851.116.022.424-.137.682-.353m-5.386 1.765c.037-.103.084-.723.104-1.379.03-.982 0-1.193-.173-1.193-.537 0-.773 2.611-.246 2.71.136.027.278-.036.315-.138m11.263 1.401c.238-.286-.211-1.166-.593-1.166-.421 0-.408.367.033.895.331.396.421.439.56.271m-13.162.664c.436-.524-.633-2.18-1.407-2.18-.321 0-.426.076-.498.363-.078.309.03.485.73 1.192.452.457.862.83.914.83.05 0 .169-.092.261-.205m6.574.177c.293-.294.184-.614-.358-1.045-.768-.611-.868-.653-1.098-.463-.276.23-.136.651.404 1.221.456.48.772.566 1.052.287m4.593.724c.167-.272-.054-.539-.803-.968-.802-.46-1.254-.535-1.492-.249-.233.281-.032.454 1.077.926 1.185.502 1.1.481 1.218.291m-10.881.594c.466-.18.644-.331.679-.575.042-.299.009-.321-.351-.231-.541.133-1.51.676-1.516.849-.008.235.52.215 1.188-.043m8.499 1.131c.293-.366.593-.745.666-.842.157-.207-.114-.596-.414-.596-.33 0-1.453 1.131-1.453 1.464 0 .333.241.641.502.641.092 0 .406-.3.699-.667m-5.839 1.077c.865-.568.923-.642.713-.895-.247-.298-.827-.271-1.377.065-.552.336-.667.579-.458.97.202.378.365.357 1.122-.14m-.906 1.41c-2.828-.318-4.965-1.487-5.702-3.12-.306-.676-.328-.876-.275-2.49.096-2.962.08-5.601-.045-7.438l-.12-1.754 1.036 1.007c.57.553 1.38 1.295 1.8 1.648l.763.643h1.263c.856 0 1.601.094 2.315.294 2.121.596 3.592.194 5.983-1.633.718-.55 2.023-1.344 3.025-1.843 1.905-.946 2.906-1.711 3.284-2.51.133-.278.259-.485.281-.46.099.117-.563 8.238-.983 12.046l-.209 1.895-.593.542c-1.483 1.351-5.746 2.865-8.946 3.176-1.551.151-1.51.151-2.877-.003m95.16-.32c-.344-2.006-.755-3.368-1.408-4.668-.578-1.153-.586-1.187-.228-.96 2.083 1.322 3.157 3.894 2.829 6.776-.129 1.122-.512 2.897-.687 3.176-.048.078-.132-.574-.187-1.446a33.001 33.001 0 00-.32-2.878h.001zm-17.111 5.513l-1.277-.004-.621-.921c-.855-1.268-2.413-2.789-3.893-3.8-1.403-.959-2.218-1.392-3.794-2.017-.602-.24-1.117-.456-1.143-.483-.086-.085 1.492-2.372 2.155-3.121.357-.405.759-.737.892-.737.382 0 2.638 1.342 4.054 2.413 1.577 1.193 3.15 2.754 4.264 4.231.787 1.045 2.366 3.997 2.366 4.425 0 .159-.169.181-.862.109a26.674 26.674 0 00-2.141-.095m-54.346.769c-2.526-.44-4.914-1.475-6.127-2.655-.953-.927-.94-.875-.798-3.373.07-1.235.171-4.346.224-6.912.053-2.566.133-4.665.179-4.663.045.002.24.264.434.582 1.77 2.915 8.948 4.443 13.999 2.979 1.5-.434 2.654-1.037 3.576-1.865l.7-.631-.074 1.536-.075 1.536-.523.454c-1.011.878-3.023 1.366-5.269 1.278-.686-.026-1.248-.006-1.248.046 0 .187.895.283 2.64.281 1.921-.002 3.267-.294 3.995-.866.197-.154.395-.281.441-.281.046 0 .083.28.083.622 0 .767-.31 1.048-1.658 1.5-1.081.363-2.849.427-3.72.135-.63-.211-.884-.091-.291.136 1.322.51 2.98.471 4.594-.106.527-.19.992-.312 1.031-.272.101.101-.208 5.459-.373 6.459-.174 1.056-.344 1.302-1.505 2.175-1.146.861-2.635 1.509-4.254 1.851-1.527.323-4.298.348-5.981.054m62.402.158a46.924 46.924 0 00-3.005-.518l-1.39-.179-.218-.569c-1.626-4.239-4.77-7.783-9.243-10.415-.718-.424-1.269-.83-1.224-.903.136-.221 1.628-.916 2.337-1.09.362-.089 1.278-.226 2.035-.304 1.734-.18 2.505-.036 4.181.778 3.177 1.545 5.797 4.999 7.36 9.702.544 1.634 1.043 3.839.869 3.837-.049 0-.814-.153-1.702-.339m2.32-.993c-.615-3.36-2.47-7.155-4.728-9.673-1.077-1.2-2.687-2.434-3.963-3.037l-1.109-.522 1.899-.102 1.897-.101.684.391c1.069.614 2.972 2.627 3.694 3.907.766 1.36 1.607 3.8 1.89 5.488.286 1.703.425 3.95.295 4.788-.132.849-.233.644-.559-1.139m-20.311-1.07c-.395-.703-1.827-2.055-2.454-2.317-.624-.261-2.024-.249-2.371.019-.213.165-.22.193-.034.128.658-.228 2.48.676 4.216 2.092.443.361.842.657.887.657.045 0-.066-.261-.244-.579m-6.404 3.028c-1.303-.77-.967-2.194 1.57-6.66.592-1.042 1.328-2.545 1.635-3.34 1.16-3 2.044-3.832 4.592-4.32 1.331-.254 1.304-.259.809.148a1.591 1.591 0 01-.983.359c-.499.013-.527.031-.255.163.297.144.279.183-.573 1.229a19.263 19.263 0 00-1.496 2.165c-.532.936-.66 1.074-.928 1.006-.171-.043-.349-.014-.397.064-.048.077.033.141.179.141.403 0 .447.12.232.633-.255.61-.434 2.454-.238 2.454.078 0 .183-.203.232-.45.07-.344.909-2.357.985-2.357.145.001 1.783.707 2.653 1.144 2.241 1.126 4.129 2.626 5.52 4.387.492.62.893 1.209.893 1.308 0 .108-.18.178-.456.178-.596.001-2.108.277-5.298.968-2.289.496-4.33.86-5.895 1.05-.999.121-2.338-.009-2.781-.27m28.759.312l-.619-.165-.027-2.034c-.016-1.175-.126-2.585-.263-3.335-.742-4.085-2.812-7.766-5.348-9.513-.426-.293-.774-.56-.774-.592 0-.074 2.03.07 3.72.263.694.079 1.894.301 2.666.491 1.24.308 1.472.415 1.996.928 1.1 1.077 2.031 3.347 2.489 6.073.272 1.621.499 4.078.491 5.333-.004.865-.051 1.034-.386 1.413-1.046 1.185-2.351 1.561-3.945 1.138m-44.925 3.058c-2.747-.575-5.403-2.057-6.038-3.368-.334-.69-.336-.857-.051-4.309l.09-1.086.494.433c.923.811 2.386 1.248 4.178 1.248.575 0 1.046-.056 1.046-.124 0-.069-.419-.169-.932-.224-1.826-.195-3.058-.707-4.14-1.72-.622-.582-.682-.693-.682-1.276v-.639l.386.362c.879.825 2.875 1.522 4.912 1.716.674.065 1.018.048 1.018-.049 0-.081-.174-.178-.386-.218-2.431-.457-3.999-1.07-5.057-1.974-.832-.712-1.014-1.13-1.014-2.328v-1.014l.316.29c1.038.954 4.783 2.912 6.912 3.615.618.204 1.734.474 2.48.602 1.159.199 1.532.208 2.54.063 2.148-.311 4.065-1.119 5.167-2.178l.595-.572-.087.733c-.048.404-.215.916-.373 1.138-.665.933-2.386 1.704-4.254 1.904-1.512.162-1.149.391.494.31 1.669-.081 2.145-.207 3.217-.852l.785-.473.102 2.57c.118 3.011.017 4.319-.399 5.143-.253.501-.47.683-1.34 1.117-2.547 1.274-6.977 1.788-9.98 1.16h.001zm26.35.029a4.41 4.41 0 01-.915-.579c-.551-.464-1.187-.63-2.438-.634-.705-.003-1.011-.068-1.262-.272-.183-.148-.3-.294-.262-.326.039-.032.702-.195 1.474-.362.772-.168 2.224-.494 3.228-.725 3.833-.881 5.992-1.025 9.474-.629 2.451.279 3.099.388 5.935 1.003 2.513.545 2.661.638 1.919 1.192-.793.592-1.709.724-5.188.752-2.658.02-3.829.096-6.034.392-1.506.203-2.896.396-3.088.431-.599.108-2.364-.043-2.843-.243m-8.807 3.276c-18.354-.883-38.198-3.366-49.455-6.191-4.263-1.07-12.596-3.743-18.755-6.018C8.171 52.03 2.242 49.479 2.52 49.23c.073-.063 1.145-.778 2.383-1.588 2.441-1.594 4.762-3.247 6.693-4.765.672-.531 1.265-.963 1.316-.963.089 0 .01 2.518-.17 5.473-.071 1.156-.041 1.442.226 2.15.651 1.727 2.576 3.231 4.912 3.839 1.222.317 4.108.314 5.894-.006 3.238-.582 7.266-2.368 8.155-3.616.324-.456.623-2.196 1.046-6.097l.245-2.258 1.262-.308c.695-.168 1.286-.283 1.317-.253.049.05-.398 9.876-.607 13.317l-.091 1.505.905.881c1.604 1.563 4.246 2.777 7.136 3.277 1.83.317 5.323.211 7.015-.214 2.271-.569 4.181-1.776 4.981-3.145.424-.727.587-2.424.724-7.563l.097-3.614h.451c.249 0 .649-.04.891-.088l.438-.088v.787c0 .433.11 1.056.245 1.386.216.525.246 1.122.246 4.81 0 3.737-.03 4.321-.272 5.193-.578 2.084-.259 3.245 1.215 4.419 2.254 1.794 5.188 2.715 8.672 2.722 3.618.006 7.613-1.131 8.829-2.517.606-.691.742-1.739.839-6.449l.085-4.21.492-.04c.943-.077 2.858-.471 3.91-.805.583-.186 1.073-.324 1.089-.308.1.104-1.45 3.066-2.151 4.109-2.786 4.142-2.753 6.013.121 6.95.852.277 1.323.336 2.713.337 1.668.002 1.686.006 2.036.398.31.347.507.415 1.546.538.898.106 1.366.243 1.894.554 1.778 1.049 2.144 1.167 3.796 1.224 1.261.044 2.021-.027 4.07-.376 3.497-.596 4.087-.638 6.321-.447 3.131.269 4.47-.018 5.994-1.286.531-.441.748-.542 1.026-.471.534.133 2.008-.18 2.761-.588.773-.42 1.714-1.377 2.244-2.282.909-1.558 1.649-4.775 1.643-7.146-.004-1.6-.155-2.332-.703-3.411l-.41-.806.383-.076c1.101-.219 1.939-.591 2.54-1.128.61-.545.702-.581 1.492-.58 1.274.002 2.191-.365 3.17-1.271 1.421-1.316 2.289-3.531 2.656-6.774.232-2.036.071-3.049-.797-5.017-.056-.129.142-.175.753-.175 2.847 0 4.952-3.424 5.005-8.141.011-.965-.023-1.946-.076-2.181-.089-.396-.052-.449.531-.758 1.169-.62 1.981-1.911 2.519-4.008.265-1.037.373-4.139.168-4.87-.1-.356-.072-.386.421-.47a64.81 64.81 0 001.966-.402l1.438-.314v.362c-.002.531-.624 3.429-1.125 5.241-.768 2.777-3.465 11.317-4.398 13.927-2.288 6.394-4.194 10.753-6.232 14.245-.428.733-1.96 3.228-3.403 5.544-1.445 2.316-3.017 4.912-3.494 5.769-1.568 2.814-3.053 6.475-3.529 8.694-.098.459-.219.883-.27.942-.089.104-6.245.416-13.057.66-4.113.147-15.987.068-20.21-.134h-.001zM102.37 69c6.175-.244 14.237-.789 14.611-.99.139-.074.545-1.047 1.012-2.426 1.578-4.66 3.257-8.117 7.745-15.952 1.525-2.663 3.36-5.978 4.077-7.368 4.044-7.836 7.922-19.186 9.888-28.942.626-3.107.658-3.488.334-3.951-.279-.399-.452-.388-4.237.272-2.6.453-2.727.463-3.088.233-.979-.624-2.73-1.367-3.745-1.587-2.308-.503-10.782-.115-13.693.628-.575.146-1.505.308-2.066.36-1.967.18-3.056.68-3.678 1.687l-.306.494h-9.942l-.003-.877c-.007-1.982-1.39-3.586-4.277-4.96-3.106-1.479-5.193-1.512-7.933-.128-1.566.791-2.61 1.68-3.109 2.649-.35.679-.484 1.882-.277 2.477l.158.45-2.56-.103c-1.408-.055-2.592-.13-2.63-.168-.039-.036-.075-1.181-.082-2.545-.007-1.453-.076-2.633-.166-2.85-.599-1.44-2.893-2.725-5.875-3.288-3.159-.597-7.599.459-9.364 2.227-.906.907-1.107 1.46-1.254 3.466-.071.965-.139 1.764-.15 1.776-.012.011-.849-.078-1.862-.201l-1.841-.222.065-2.466c.064-2.402.057-2.481-.274-3.097-.686-1.277-3.016-2.75-5.021-3.175-3.015-.637-7.153.396-9.129 2.281-1.27 1.211-1.557 1.914-1.662 4.086l-.086 1.779-1.362.171c-1.769.222-3.255.636-4.461 1.243-1.273.641-2.686 1.967-3.19 2.995-.382.777-.391.856-.411 3.392l-.019 2.596-.402.04c-1.851.188-4.181.908-5.53 1.709-1.032.614-2.503 2.094-2.95 2.971-.368.722-.59 2.751-.468 4.276l.091 1.136-.978.091c-1.57.146-3.654.737-5.086 1.444-1.63.804-3.217 2.292-3.871 3.629-.394.807-.412.93-.464 3.186l-.053 2.346-.968.77c-.531.424-2.739 2.051-4.906 3.615C2.619 47.286.137 49.218.005 49.563c-.068.175.564.542 2.965 1.729 7.343 3.628 10.918 5.112 17.998 7.473 7.555 2.521 15.878 4.808 21.614 5.942 9.183 1.816 23.92 3.362 39.648 4.16 3.842.195 16.45.278 20.14.133" fill="#ffec02" fill-rule="nonzero"/></svg>